%TF.GenerationSoftware,KiCad,Pcbnew,9.0.0*%
%TF.CreationDate,2025-03-28T15:43:29+07:00*%
%TF.ProjectId,PIC18F27Q43_OLED_Board,50494331-3846-4323-9751-34335f4f4c45,rev?*%
%TF.SameCoordinates,Original*%
%TF.FileFunction,Soldermask,Top*%
%TF.FilePolarity,Negative*%
%FSLAX46Y46*%
G04 Gerber Fmt 4.6, Leading zero omitted, Abs format (unit mm)*
G04 Created by KiCad (PCBNEW 9.0.0) date 2025-03-28 15:43:29*
%MOMM*%
%LPD*%
G01*
G04 APERTURE LIST*
G04 Aperture macros list*
%AMRoundRect*
0 Rectangle with rounded corners*
0 $1 Rounding radius*
0 $2 $3 $4 $5 $6 $7 $8 $9 X,Y pos of 4 corners*
0 Add a 4 corners polygon primitive as box body*
4,1,4,$2,$3,$4,$5,$6,$7,$8,$9,$2,$3,0*
0 Add four circle primitives for the rounded corners*
1,1,$1+$1,$2,$3*
1,1,$1+$1,$4,$5*
1,1,$1+$1,$6,$7*
1,1,$1+$1,$8,$9*
0 Add four rect primitives between the rounded corners*
20,1,$1+$1,$2,$3,$4,$5,0*
20,1,$1+$1,$4,$5,$6,$7,0*
20,1,$1+$1,$6,$7,$8,$9,0*
20,1,$1+$1,$8,$9,$2,$3,0*%
G04 Aperture macros list end*
%ADD10RoundRect,0.250000X0.450000X-0.262500X0.450000X0.262500X-0.450000X0.262500X-0.450000X-0.262500X0*%
%ADD11RoundRect,0.250000X0.262500X0.450000X-0.262500X0.450000X-0.262500X-0.450000X0.262500X-0.450000X0*%
%ADD12RoundRect,0.243750X-0.456250X0.243750X-0.456250X-0.243750X0.456250X-0.243750X0.456250X0.243750X0*%
%ADD13C,2.000000*%
%ADD14RoundRect,0.250000X-0.450000X0.262500X-0.450000X-0.262500X0.450000X-0.262500X0.450000X0.262500X0*%
%ADD15R,0.203200X0.812800*%
%ADD16R,0.812800X0.203200*%
%ADD17R,2.743200X2.743200*%
%ADD18RoundRect,0.250000X-0.262500X-0.450000X0.262500X-0.450000X0.262500X0.450000X-0.262500X0.450000X0*%
%ADD19R,1.100000X1.100000*%
%ADD20C,1.100000*%
%ADD21O,2.400000X1.100000*%
%ADD22O,3.500000X2.200000*%
%ADD23R,2.500000X1.500000*%
%ADD24O,2.500000X1.500000*%
%ADD25R,1.700000X1.700000*%
%ADD26O,1.700000X1.700000*%
%ADD27RoundRect,0.243750X-0.243750X-0.456250X0.243750X-0.456250X0.243750X0.456250X-0.243750X0.456250X0*%
%ADD28R,2.000000X2.000000*%
%ADD29RoundRect,0.250000X-0.325000X-0.650000X0.325000X-0.650000X0.325000X0.650000X-0.325000X0.650000X0*%
%ADD30RoundRect,0.243750X0.243750X0.456250X-0.243750X0.456250X-0.243750X-0.456250X0.243750X-0.456250X0*%
%ADD31RoundRect,0.218750X0.218750X0.256250X-0.218750X0.256250X-0.218750X-0.256250X0.218750X-0.256250X0*%
%ADD32RoundRect,0.150000X-0.587500X-0.150000X0.587500X-0.150000X0.587500X0.150000X-0.587500X0.150000X0*%
%ADD33RoundRect,0.218750X0.256250X-0.218750X0.256250X0.218750X-0.256250X0.218750X-0.256250X-0.218750X0*%
%ADD34RoundRect,0.150000X-0.512500X-0.150000X0.512500X-0.150000X0.512500X0.150000X-0.512500X0.150000X0*%
%ADD35R,2.100000X2.100000*%
%ADD36C,2.100000*%
G04 APERTURE END LIST*
D10*
%TO.C,R6*%
X130500000Y-88912500D03*
X130500000Y-87087500D03*
%TD*%
D11*
%TO.C,R21*%
X140762500Y-93550000D03*
X138937500Y-93550000D03*
%TD*%
D12*
%TO.C,D2*%
X130500000Y-83500000D03*
X130500000Y-85375000D03*
%TD*%
D13*
%TO.C,SW2*%
X104750000Y-115087500D03*
X111250000Y-115087500D03*
X104750000Y-119587500D03*
X111250000Y-119587500D03*
%TD*%
D10*
%TO.C,R9*%
X121000000Y-88912500D03*
X121000000Y-87087500D03*
%TD*%
%TO.C,R11*%
X115000000Y-88912500D03*
X115000000Y-87087500D03*
%TD*%
D14*
%TO.C,R19*%
X145500000Y-110087500D03*
X145500000Y-111912500D03*
%TD*%
%TO.C,R15*%
X100500000Y-110175000D03*
X100500000Y-112000000D03*
%TD*%
D12*
%TO.C,D8*%
X112000000Y-83562500D03*
X112000000Y-85437500D03*
%TD*%
D15*
%TO.C,U1*%
X124592300Y-100000000D03*
X124192301Y-100000000D03*
X123792299Y-100000000D03*
X123392300Y-100000000D03*
X122992301Y-100000000D03*
X122592299Y-100000000D03*
X122192300Y-100000000D03*
D16*
X121500000Y-100692300D03*
X121500000Y-101092299D03*
X121500000Y-101492301D03*
X121500000Y-101892300D03*
X121500000Y-102292299D03*
X121500000Y-102692301D03*
X121500000Y-103092300D03*
D15*
X122192300Y-103784600D03*
X122592299Y-103784600D03*
X122992301Y-103784600D03*
X123392300Y-103784600D03*
X123792299Y-103784600D03*
X124192301Y-103784600D03*
X124592300Y-103784600D03*
D16*
X125284600Y-103092300D03*
X125284600Y-102692301D03*
X125284600Y-102292299D03*
X125284600Y-101892300D03*
X125284600Y-101492301D03*
X125284600Y-101092299D03*
X125284600Y-100692300D03*
D17*
X123392300Y-101892300D03*
%TD*%
D18*
%TO.C,R20*%
X141025000Y-105550000D03*
X142850000Y-105550000D03*
%TD*%
D12*
%TO.C,D1*%
X134000000Y-83500000D03*
X134000000Y-85375000D03*
%TD*%
%TO.C,D5*%
X121000000Y-83500000D03*
X121000000Y-85375000D03*
%TD*%
D14*
%TO.C,R17*%
X136000000Y-110087500D03*
X136000000Y-111912500D03*
%TD*%
D10*
%TO.C,R4*%
X130000000Y-112000000D03*
X130000000Y-110175000D03*
%TD*%
%TO.C,R5*%
X139587500Y-112000000D03*
X139587500Y-110175000D03*
%TD*%
%TO.C,R10*%
X118000000Y-88912500D03*
X118000000Y-87087500D03*
%TD*%
%TO.C,R14*%
X106000000Y-88912500D03*
X106000000Y-87087500D03*
%TD*%
D13*
%TO.C,SW3*%
X129750000Y-114750000D03*
X136250000Y-114750000D03*
X129750000Y-119250000D03*
X136250000Y-119250000D03*
%TD*%
D19*
%TO.C,J4*%
X146812500Y-93000000D03*
D20*
X145062500Y-92200000D03*
X146812500Y-91400000D03*
X145062500Y-90600000D03*
X146812500Y-89800000D03*
D21*
X145937500Y-95050000D03*
X145937500Y-87750000D03*
%TD*%
D13*
%TO.C,SW4*%
X139750000Y-114750000D03*
X146250000Y-114750000D03*
X139750000Y-119250000D03*
X146250000Y-119250000D03*
%TD*%
D22*
%TO.C,SW5*%
X96500000Y-106100000D03*
X96500000Y-97900000D03*
D23*
X96500000Y-104000000D03*
D24*
X96500000Y-102000000D03*
X96500000Y-100000000D03*
%TD*%
D25*
%TO.C,J2*%
X101702500Y-98460000D03*
D26*
X101702500Y-101000000D03*
X101702500Y-103540000D03*
X101702500Y-106080000D03*
%TD*%
D27*
%TO.C,D11*%
X96562500Y-112087500D03*
X98437500Y-112087500D03*
%TD*%
D12*
%TO.C,D10*%
X106000000Y-83562500D03*
X106000000Y-85437500D03*
%TD*%
D25*
%TO.C,J1*%
X147120000Y-85000000D03*
D26*
X144580000Y-85000000D03*
X142040000Y-85000000D03*
X139500000Y-85000000D03*
X136960000Y-85000000D03*
%TD*%
D28*
%TO.C,LS1*%
X98500000Y-92500000D03*
D13*
X98500000Y-84900000D03*
%TD*%
D29*
%TO.C,C1*%
X144462500Y-97050000D03*
X147412500Y-97050000D03*
%TD*%
D10*
%TO.C,R2*%
X134000000Y-88912500D03*
X134000000Y-87087500D03*
%TD*%
D30*
%TO.C,D16*%
X146937500Y-106550000D03*
X145062500Y-106550000D03*
%TD*%
D12*
%TO.C,D3*%
X127000000Y-83500000D03*
X127000000Y-85375000D03*
%TD*%
D10*
%TO.C,R1*%
X94500000Y-112500000D03*
X94500000Y-110675000D03*
%TD*%
D12*
%TO.C,D9*%
X109000000Y-83562500D03*
X109000000Y-85437500D03*
%TD*%
D10*
%TO.C,R12*%
X112000000Y-88912500D03*
X112000000Y-87087500D03*
%TD*%
D18*
%TO.C,R18*%
X141025000Y-103550000D03*
X142850000Y-103550000D03*
%TD*%
D12*
%TO.C,D6*%
X118000000Y-83500000D03*
X118000000Y-85375000D03*
%TD*%
D27*
%TO.C,D15*%
X141625000Y-112000000D03*
X143500000Y-112000000D03*
%TD*%
D13*
%TO.C,SW1*%
X94750000Y-115087500D03*
X101250000Y-115087500D03*
X94750000Y-119587500D03*
X101250000Y-119587500D03*
%TD*%
D31*
%TO.C,D18*%
X137787500Y-99500000D03*
X136212500Y-99500000D03*
%TD*%
D27*
%TO.C,D12*%
X107062500Y-112087500D03*
X108937500Y-112087500D03*
%TD*%
D30*
%TO.C,D14*%
X147000000Y-104500000D03*
X145125000Y-104500000D03*
%TD*%
D12*
%TO.C,D4*%
X124000000Y-83562500D03*
X124000000Y-85437500D03*
%TD*%
D10*
%TO.C,R3*%
X105000000Y-112412500D03*
X105000000Y-110587500D03*
%TD*%
D32*
%TO.C,Q1*%
X138500000Y-95600000D03*
X138500000Y-97500000D03*
X140375000Y-96550000D03*
%TD*%
D29*
%TO.C,C3*%
X144437500Y-102050000D03*
X147387500Y-102050000D03*
%TD*%
D33*
%TO.C,D17*%
X142437500Y-97337500D03*
X142437500Y-95762500D03*
%TD*%
D10*
%TO.C,R7*%
X127000000Y-88912500D03*
X127000000Y-87087500D03*
%TD*%
D14*
%TO.C,R16*%
X111000000Y-110087500D03*
X111000000Y-111912500D03*
%TD*%
D27*
%TO.C,D13*%
X132125000Y-112000000D03*
X134000000Y-112000000D03*
%TD*%
D10*
%TO.C,R13*%
X109000000Y-88912500D03*
X109000000Y-87087500D03*
%TD*%
D34*
%TO.C,U2*%
X140162500Y-99550000D03*
X140162500Y-100500000D03*
X140162500Y-101450000D03*
X142437500Y-101450000D03*
X142437500Y-99550000D03*
%TD*%
D12*
%TO.C,D7*%
X115000000Y-83562500D03*
X115000000Y-85437500D03*
%TD*%
D10*
%TO.C,R8*%
X124000000Y-88912500D03*
X124000000Y-87087500D03*
%TD*%
D29*
%TO.C,C2*%
X144462500Y-99550000D03*
X147412500Y-99550000D03*
%TD*%
D35*
%TO.C,BT1*%
X134500000Y-103000000D03*
D36*
X114500000Y-103000000D03*
%TD*%
M02*
