M48
; DRILL file {KiCad 9.0.0} date 2025-03-28T15:43:33+0700
; FORMAT={-:-/ absolute / metric / decimal}
; #@! TF.CreationDate,2025-03-28T15:43:33+07:00
; #@! TF.GenerationSoftware,Kicad,Pcbnew,9.0.0
; #@! TF.FileFunction,Plated,1,2,PTH
FMAT,2
METRIC
; #@! TA.AperFunction,Plated,PTH,ViaDrill
T1C0.300
; #@! TA.AperFunction,Plated,PTH,ComponentDrill
T2C0.700
; #@! TA.AperFunction,Plated,PTH,ComponentDrill
T3C0.800
; #@! TA.AperFunction,Plated,PTH,ComponentDrill
T4C1.000
; #@! TA.AperFunction,Plated,PTH,ComponentDrill
T5C1.100
; #@! TA.AperFunction,Plated,PTH,ComponentDrill
T6C1.300
; #@! TA.AperFunction,Plated,PTH,ComponentDrill
T7C1.500
%
G90
G05
T1
X108.25Y-109.75
X113.0Y-100.5
X114.5Y-100.5
X117.0Y-98.5
X117.5Y-103.5
X118.0Y-102.0
X118.75Y-103.25
X120.25Y-104.25
X121.009Y-104.503
X121.5Y-105.5
X122.0Y-108.0
X124.01Y-108.5
X125.0Y-109.5
X126.674Y-105.174
X127.0Y-104.0
X127.0Y-106.0
X127.5Y-100.5
X127.5Y-101.5
X127.5Y-107.4
X128.121Y-102.727
X129.1Y-101.5
X129.5Y-105.5
X130.0Y-100.0
X130.0Y-108.5
X131.0Y-106.0
X133.0Y-113.5
X135.5Y-83.5
X141.0Y-98.5
X141.5Y-109.5
X146.0Y-102.0
X147.0Y-104.5
T2
X145.062Y-90.6
X145.062Y-92.2
X146.812Y-89.8
X146.812Y-91.4
X146.812Y-93.0
T3
X96.5Y-100.0
X96.5Y-102.0
X96.5Y-104.0
T4
X98.5Y-84.9
X98.5Y-92.5
X101.703Y-98.46
X101.703Y-101.0
X101.703Y-103.54
X101.703Y-106.08
X136.96Y-85.0
X139.5Y-85.0
X142.04Y-85.0
X144.58Y-85.0
X147.12Y-85.0
T5
X94.75Y-115.087
X94.75Y-119.587
X101.25Y-115.087
X101.25Y-119.587
X104.75Y-115.087
X104.75Y-119.587
X111.25Y-115.087
X111.25Y-119.587
X129.75Y-114.75
X129.75Y-119.25
X136.25Y-114.75
X136.25Y-119.25
X139.75Y-114.75
X139.75Y-119.25
X146.25Y-114.75
X146.25Y-119.25
T6
X114.5Y-103.0
X134.5Y-103.0
T7
X96.5Y-97.9
X96.5Y-106.1
T2
G00X145.287Y-87.75
M15
G01X146.588Y-87.75
M16
G05
G00X145.287Y-95.05
M15
G01X146.588Y-95.05
M16
G05
M30
