%TF.GenerationSoftware,KiCad,Pcbnew,9.0.0*%
%TF.CreationDate,2025-03-28T15:43:29+07:00*%
%TF.ProjectId,PIC18F27Q43_OLED_Board,50494331-3846-4323-9751-34335f4f4c45,rev?*%
%TF.SameCoordinates,Original*%
%TF.FileFunction,Paste,Top*%
%TF.FilePolarity,Positive*%
%FSLAX46Y46*%
G04 Gerber Fmt 4.6, Leading zero omitted, Abs format (unit mm)*
G04 Created by KiCad (PCBNEW 9.0.0) date 2025-03-28 15:43:29*
%MOMM*%
%LPD*%
G01*
G04 APERTURE LIST*
G04 Aperture macros list*
%AMRoundRect*
0 Rectangle with rounded corners*
0 $1 Rounding radius*
0 $2 $3 $4 $5 $6 $7 $8 $9 X,Y pos of 4 corners*
0 Add a 4 corners polygon primitive as box body*
4,1,4,$2,$3,$4,$5,$6,$7,$8,$9,$2,$3,0*
0 Add four circle primitives for the rounded corners*
1,1,$1+$1,$2,$3*
1,1,$1+$1,$4,$5*
1,1,$1+$1,$6,$7*
1,1,$1+$1,$8,$9*
0 Add four rect primitives between the rounded corners*
20,1,$1+$1,$2,$3,$4,$5,0*
20,1,$1+$1,$4,$5,$6,$7,0*
20,1,$1+$1,$6,$7,$8,$9,0*
20,1,$1+$1,$8,$9,$2,$3,0*%
G04 Aperture macros list end*
%ADD10C,0.000000*%
%ADD11RoundRect,0.250000X0.450000X-0.262500X0.450000X0.262500X-0.450000X0.262500X-0.450000X-0.262500X0*%
%ADD12RoundRect,0.250000X0.262500X0.450000X-0.262500X0.450000X-0.262500X-0.450000X0.262500X-0.450000X0*%
%ADD13RoundRect,0.243750X-0.456250X0.243750X-0.456250X-0.243750X0.456250X-0.243750X0.456250X0.243750X0*%
%ADD14RoundRect,0.250000X-0.450000X0.262500X-0.450000X-0.262500X0.450000X-0.262500X0.450000X0.262500X0*%
%ADD15R,0.203200X0.812800*%
%ADD16R,0.812800X0.203200*%
%ADD17R,2.743200X2.743200*%
%ADD18RoundRect,0.250000X-0.262500X-0.450000X0.262500X-0.450000X0.262500X0.450000X-0.262500X0.450000X0*%
%ADD19RoundRect,0.243750X-0.243750X-0.456250X0.243750X-0.456250X0.243750X0.456250X-0.243750X0.456250X0*%
%ADD20RoundRect,0.250000X-0.325000X-0.650000X0.325000X-0.650000X0.325000X0.650000X-0.325000X0.650000X0*%
%ADD21RoundRect,0.243750X0.243750X0.456250X-0.243750X0.456250X-0.243750X-0.456250X0.243750X-0.456250X0*%
%ADD22RoundRect,0.218750X0.218750X0.256250X-0.218750X0.256250X-0.218750X-0.256250X0.218750X-0.256250X0*%
%ADD23RoundRect,0.150000X-0.587500X-0.150000X0.587500X-0.150000X0.587500X0.150000X-0.587500X0.150000X0*%
%ADD24RoundRect,0.218750X0.256250X-0.218750X0.256250X0.218750X-0.256250X0.218750X-0.256250X-0.218750X0*%
%ADD25RoundRect,0.150000X-0.512500X-0.150000X0.512500X-0.150000X0.512500X0.150000X-0.512500X0.150000X0*%
G04 APERTURE END LIST*
D10*
%TO.C,U1*%
G36*
X123292300Y-101792300D02*
G01*
X122120700Y-101792300D01*
X122120700Y-100620700D01*
X123292300Y-100620700D01*
X123292300Y-101792300D01*
G37*
G36*
X123292300Y-103163900D02*
G01*
X122120700Y-103163900D01*
X122120700Y-101992300D01*
X123292300Y-101992300D01*
X123292300Y-103163900D01*
G37*
G36*
X124663900Y-101792300D02*
G01*
X123492300Y-101792300D01*
X123492300Y-100620700D01*
X124663900Y-100620700D01*
X124663900Y-101792300D01*
G37*
G36*
X124663900Y-103163900D02*
G01*
X123492300Y-103163900D01*
X123492300Y-101992300D01*
X124663900Y-101992300D01*
X124663900Y-103163900D01*
G37*
%TD*%
D11*
%TO.C,R6*%
X130500000Y-88912500D03*
X130500000Y-87087500D03*
%TD*%
D12*
%TO.C,R21*%
X140762500Y-93550000D03*
X138937500Y-93550000D03*
%TD*%
D13*
%TO.C,D2*%
X130500000Y-83500000D03*
X130500000Y-85375000D03*
%TD*%
D11*
%TO.C,R9*%
X121000000Y-88912500D03*
X121000000Y-87087500D03*
%TD*%
%TO.C,R11*%
X115000000Y-88912500D03*
X115000000Y-87087500D03*
%TD*%
D14*
%TO.C,R19*%
X145500000Y-110087500D03*
X145500000Y-111912500D03*
%TD*%
%TO.C,R15*%
X100500000Y-110175000D03*
X100500000Y-112000000D03*
%TD*%
D13*
%TO.C,D8*%
X112000000Y-83562500D03*
X112000000Y-85437500D03*
%TD*%
D15*
%TO.C,U1*%
X124592300Y-100000000D03*
X124192301Y-100000000D03*
X123792299Y-100000000D03*
X123392300Y-100000000D03*
X122992301Y-100000000D03*
X122592299Y-100000000D03*
X122192300Y-100000000D03*
D16*
X121500000Y-100692300D03*
X121500000Y-101092299D03*
X121500000Y-101492301D03*
X121500000Y-101892300D03*
X121500000Y-102292299D03*
X121500000Y-102692301D03*
X121500000Y-103092300D03*
D15*
X122192300Y-103784600D03*
X122592299Y-103784600D03*
X122992301Y-103784600D03*
X123392300Y-103784600D03*
X123792299Y-103784600D03*
X124192301Y-103784600D03*
X124592300Y-103784600D03*
D16*
X125284600Y-103092300D03*
X125284600Y-102692301D03*
X125284600Y-102292299D03*
X125284600Y-101892300D03*
X125284600Y-101492301D03*
X125284600Y-101092299D03*
X125284600Y-100692300D03*
D17*
X123392300Y-101892300D03*
%TD*%
D18*
%TO.C,R20*%
X141025000Y-105550000D03*
X142850000Y-105550000D03*
%TD*%
D13*
%TO.C,D1*%
X134000000Y-83500000D03*
X134000000Y-85375000D03*
%TD*%
%TO.C,D5*%
X121000000Y-83500000D03*
X121000000Y-85375000D03*
%TD*%
D14*
%TO.C,R17*%
X136000000Y-110087500D03*
X136000000Y-111912500D03*
%TD*%
D11*
%TO.C,R4*%
X130000000Y-112000000D03*
X130000000Y-110175000D03*
%TD*%
%TO.C,R5*%
X139587500Y-112000000D03*
X139587500Y-110175000D03*
%TD*%
%TO.C,R10*%
X118000000Y-88912500D03*
X118000000Y-87087500D03*
%TD*%
%TO.C,R14*%
X106000000Y-88912500D03*
X106000000Y-87087500D03*
%TD*%
D19*
%TO.C,D11*%
X96562500Y-112087500D03*
X98437500Y-112087500D03*
%TD*%
D13*
%TO.C,D10*%
X106000000Y-83562500D03*
X106000000Y-85437500D03*
%TD*%
D20*
%TO.C,C1*%
X144462500Y-97050000D03*
X147412500Y-97050000D03*
%TD*%
D11*
%TO.C,R2*%
X134000000Y-88912500D03*
X134000000Y-87087500D03*
%TD*%
D21*
%TO.C,D16*%
X146937500Y-106550000D03*
X145062500Y-106550000D03*
%TD*%
D13*
%TO.C,D3*%
X127000000Y-83500000D03*
X127000000Y-85375000D03*
%TD*%
D11*
%TO.C,R1*%
X94500000Y-112500000D03*
X94500000Y-110675000D03*
%TD*%
D13*
%TO.C,D9*%
X109000000Y-83562500D03*
X109000000Y-85437500D03*
%TD*%
D11*
%TO.C,R12*%
X112000000Y-88912500D03*
X112000000Y-87087500D03*
%TD*%
D18*
%TO.C,R18*%
X141025000Y-103550000D03*
X142850000Y-103550000D03*
%TD*%
D13*
%TO.C,D6*%
X118000000Y-83500000D03*
X118000000Y-85375000D03*
%TD*%
D19*
%TO.C,D15*%
X141625000Y-112000000D03*
X143500000Y-112000000D03*
%TD*%
D22*
%TO.C,D18*%
X137787500Y-99500000D03*
X136212500Y-99500000D03*
%TD*%
D19*
%TO.C,D12*%
X107062500Y-112087500D03*
X108937500Y-112087500D03*
%TD*%
D21*
%TO.C,D14*%
X147000000Y-104500000D03*
X145125000Y-104500000D03*
%TD*%
D13*
%TO.C,D4*%
X124000000Y-83562500D03*
X124000000Y-85437500D03*
%TD*%
D11*
%TO.C,R3*%
X105000000Y-112412500D03*
X105000000Y-110587500D03*
%TD*%
D23*
%TO.C,Q1*%
X138500000Y-95600000D03*
X138500000Y-97500000D03*
X140375000Y-96550000D03*
%TD*%
D20*
%TO.C,C3*%
X144437500Y-102050000D03*
X147387500Y-102050000D03*
%TD*%
D24*
%TO.C,D17*%
X142437500Y-97337500D03*
X142437500Y-95762500D03*
%TD*%
D11*
%TO.C,R7*%
X127000000Y-88912500D03*
X127000000Y-87087500D03*
%TD*%
D14*
%TO.C,R16*%
X111000000Y-110087500D03*
X111000000Y-111912500D03*
%TD*%
D19*
%TO.C,D13*%
X132125000Y-112000000D03*
X134000000Y-112000000D03*
%TD*%
D11*
%TO.C,R13*%
X109000000Y-88912500D03*
X109000000Y-87087500D03*
%TD*%
D25*
%TO.C,U2*%
X140162500Y-99550000D03*
X140162500Y-100500000D03*
X140162500Y-101450000D03*
X142437500Y-101450000D03*
X142437500Y-99550000D03*
%TD*%
D13*
%TO.C,D7*%
X115000000Y-83562500D03*
X115000000Y-85437500D03*
%TD*%
D11*
%TO.C,R8*%
X124000000Y-88912500D03*
X124000000Y-87087500D03*
%TD*%
D20*
%TO.C,C2*%
X144462500Y-99550000D03*
X147412500Y-99550000D03*
%TD*%
M02*
