%TF.GenerationSoftware,KiCad,Pcbnew,9.0.0*%
%TF.CreationDate,2025-03-28T15:43:29+07:00*%
%TF.ProjectId,PIC18F27Q43_OLED_Board,50494331-3846-4323-9751-34335f4f4c45,rev?*%
%TF.SameCoordinates,Original*%
%TF.FileFunction,Copper,L1,Top*%
%TF.FilePolarity,Positive*%
%FSLAX46Y46*%
G04 Gerber Fmt 4.6, Leading zero omitted, Abs format (unit mm)*
G04 Created by KiCad (PCBNEW 9.0.0) date 2025-03-28 15:43:29*
%MOMM*%
%LPD*%
G01*
G04 APERTURE LIST*
G04 Aperture macros list*
%AMRoundRect*
0 Rectangle with rounded corners*
0 $1 Rounding radius*
0 $2 $3 $4 $5 $6 $7 $8 $9 X,Y pos of 4 corners*
0 Add a 4 corners polygon primitive as box body*
4,1,4,$2,$3,$4,$5,$6,$7,$8,$9,$2,$3,0*
0 Add four circle primitives for the rounded corners*
1,1,$1+$1,$2,$3*
1,1,$1+$1,$4,$5*
1,1,$1+$1,$6,$7*
1,1,$1+$1,$8,$9*
0 Add four rect primitives between the rounded corners*
20,1,$1+$1,$2,$3,$4,$5,0*
20,1,$1+$1,$4,$5,$6,$7,0*
20,1,$1+$1,$6,$7,$8,$9,0*
20,1,$1+$1,$8,$9,$2,$3,0*%
G04 Aperture macros list end*
%TA.AperFunction,SMDPad,CuDef*%
%ADD10RoundRect,0.250000X0.450000X-0.262500X0.450000X0.262500X-0.450000X0.262500X-0.450000X-0.262500X0*%
%TD*%
%TA.AperFunction,SMDPad,CuDef*%
%ADD11RoundRect,0.250000X0.262500X0.450000X-0.262500X0.450000X-0.262500X-0.450000X0.262500X-0.450000X0*%
%TD*%
%TA.AperFunction,SMDPad,CuDef*%
%ADD12RoundRect,0.243750X-0.456250X0.243750X-0.456250X-0.243750X0.456250X-0.243750X0.456250X0.243750X0*%
%TD*%
%TA.AperFunction,ComponentPad*%
%ADD13C,2.000000*%
%TD*%
%TA.AperFunction,SMDPad,CuDef*%
%ADD14RoundRect,0.250000X-0.450000X0.262500X-0.450000X-0.262500X0.450000X-0.262500X0.450000X0.262500X0*%
%TD*%
%TA.AperFunction,SMDPad,CuDef*%
%ADD15R,0.203200X0.812800*%
%TD*%
%TA.AperFunction,SMDPad,CuDef*%
%ADD16R,0.812800X0.203200*%
%TD*%
%TA.AperFunction,SMDPad,CuDef*%
%ADD17R,2.743200X2.743200*%
%TD*%
%TA.AperFunction,SMDPad,CuDef*%
%ADD18RoundRect,0.250000X-0.262500X-0.450000X0.262500X-0.450000X0.262500X0.450000X-0.262500X0.450000X0*%
%TD*%
%TA.AperFunction,ComponentPad*%
%ADD19R,1.100000X1.100000*%
%TD*%
%TA.AperFunction,ComponentPad*%
%ADD20C,1.100000*%
%TD*%
%TA.AperFunction,ComponentPad*%
%ADD21O,2.400000X1.100000*%
%TD*%
%TA.AperFunction,ComponentPad*%
%ADD22O,3.500000X2.200000*%
%TD*%
%TA.AperFunction,ComponentPad*%
%ADD23R,2.500000X1.500000*%
%TD*%
%TA.AperFunction,ComponentPad*%
%ADD24O,2.500000X1.500000*%
%TD*%
%TA.AperFunction,ComponentPad*%
%ADD25R,1.700000X1.700000*%
%TD*%
%TA.AperFunction,ComponentPad*%
%ADD26O,1.700000X1.700000*%
%TD*%
%TA.AperFunction,SMDPad,CuDef*%
%ADD27RoundRect,0.243750X-0.243750X-0.456250X0.243750X-0.456250X0.243750X0.456250X-0.243750X0.456250X0*%
%TD*%
%TA.AperFunction,ComponentPad*%
%ADD28R,2.000000X2.000000*%
%TD*%
%TA.AperFunction,SMDPad,CuDef*%
%ADD29RoundRect,0.250000X-0.325000X-0.650000X0.325000X-0.650000X0.325000X0.650000X-0.325000X0.650000X0*%
%TD*%
%TA.AperFunction,SMDPad,CuDef*%
%ADD30RoundRect,0.243750X0.243750X0.456250X-0.243750X0.456250X-0.243750X-0.456250X0.243750X-0.456250X0*%
%TD*%
%TA.AperFunction,SMDPad,CuDef*%
%ADD31RoundRect,0.218750X0.218750X0.256250X-0.218750X0.256250X-0.218750X-0.256250X0.218750X-0.256250X0*%
%TD*%
%TA.AperFunction,SMDPad,CuDef*%
%ADD32RoundRect,0.150000X-0.587500X-0.150000X0.587500X-0.150000X0.587500X0.150000X-0.587500X0.150000X0*%
%TD*%
%TA.AperFunction,SMDPad,CuDef*%
%ADD33RoundRect,0.218750X0.256250X-0.218750X0.256250X0.218750X-0.256250X0.218750X-0.256250X-0.218750X0*%
%TD*%
%TA.AperFunction,SMDPad,CuDef*%
%ADD34RoundRect,0.150000X-0.512500X-0.150000X0.512500X-0.150000X0.512500X0.150000X-0.512500X0.150000X0*%
%TD*%
%TA.AperFunction,ComponentPad*%
%ADD35R,2.100000X2.100000*%
%TD*%
%TA.AperFunction,ComponentPad*%
%ADD36C,2.100000*%
%TD*%
%TA.AperFunction,ViaPad*%
%ADD37C,0.600000*%
%TD*%
%TA.AperFunction,Conductor*%
%ADD38C,0.200000*%
%TD*%
%TA.AperFunction,Conductor*%
%ADD39C,0.180000*%
%TD*%
G04 APERTURE END LIST*
D10*
%TO.P,R6,1*%
%TO.N,/RA1*%
X130500000Y-88912500D03*
%TO.P,R6,2*%
%TO.N,Net-(D2-A)*%
X130500000Y-87087500D03*
%TD*%
D11*
%TO.P,R21,1*%
%TO.N,GND*%
X140762500Y-93550000D03*
%TO.P,R21,2*%
%TO.N,Net-(D17-K)*%
X138937500Y-93550000D03*
%TD*%
D12*
%TO.P,D2,1,K*%
%TO.N,GND*%
X130500000Y-83500000D03*
%TO.P,D2,2,A*%
%TO.N,Net-(D2-A)*%
X130500000Y-85375000D03*
%TD*%
D13*
%TO.P,SW2,1,1*%
%TO.N,/RB3*%
X104750000Y-115087500D03*
X111250000Y-115087500D03*
%TO.P,SW2,2,2*%
%TO.N,VCC*%
X104750000Y-119587500D03*
X111250000Y-119587500D03*
%TD*%
D10*
%TO.P,R9,1*%
%TO.N,/RA4*%
X121000000Y-88912500D03*
%TO.P,R9,2*%
%TO.N,Net-(D5-A)*%
X121000000Y-87087500D03*
%TD*%
%TO.P,R11,1*%
%TO.N,/RA6*%
X115000000Y-88912500D03*
%TO.P,R11,2*%
%TO.N,Net-(D7-A)*%
X115000000Y-87087500D03*
%TD*%
D14*
%TO.P,R19,1*%
%TO.N,/RC7*%
X145500000Y-110087500D03*
%TO.P,R19,2*%
%TO.N,Net-(D15-A)*%
X145500000Y-111912500D03*
%TD*%
%TO.P,R15,1*%
%TO.N,/RC2*%
X100500000Y-110175000D03*
%TO.P,R15,2*%
%TO.N,Net-(D11-A)*%
X100500000Y-112000000D03*
%TD*%
D12*
%TO.P,D8,1,K*%
%TO.N,GND*%
X112000000Y-83562500D03*
%TO.P,D8,2,A*%
%TO.N,Net-(D8-A)*%
X112000000Y-85437500D03*
%TD*%
D15*
%TO.P,U1,1,RA2*%
%TO.N,/RA2*%
X124592300Y-100000000D03*
%TO.P,U1,2,RA3*%
%TO.N,/RA3*%
X124192301Y-100000000D03*
%TO.P,U1,3,RA4*%
%TO.N,/RA4*%
X123792299Y-100000000D03*
%TO.P,U1,4,RA5*%
%TO.N,/RA5*%
X123392300Y-100000000D03*
%TO.P,U1,5,VSS*%
%TO.N,GND*%
X122992301Y-100000000D03*
%TO.P,U1,6,RA7*%
%TO.N,/RA7*%
X122592299Y-100000000D03*
%TO.P,U1,7,RA6*%
%TO.N,/RA6*%
X122192300Y-100000000D03*
D16*
%TO.P,U1,8,RC0*%
%TO.N,/RC0*%
X121500000Y-100692300D03*
%TO.P,U1,9,RC1*%
%TO.N,/RC1*%
X121500000Y-101092299D03*
%TO.P,U1,10,RC2*%
%TO.N,/RC2*%
X121500000Y-101492301D03*
%TO.P,U1,11,RC3/SCL1/SCK1*%
%TO.N,/SCL*%
X121500000Y-101892300D03*
%TO.P,U1,12,RC4/SDA/SDI1*%
%TO.N,/SDA*%
X121500000Y-102292299D03*
%TO.P,U1,13,RC5*%
%TO.N,/RC5*%
X121500000Y-102692301D03*
%TO.P,U1,14,RC6*%
%TO.N,/RC6*%
X121500000Y-103092300D03*
D15*
%TO.P,U1,15,RC7*%
%TO.N,/RC7*%
X122192300Y-103784600D03*
%TO.P,U1,16,VSS*%
%TO.N,GND*%
X122592299Y-103784600D03*
%TO.P,U1,17,VDD*%
%TO.N,VCC*%
X122992301Y-103784600D03*
%TO.P,U1,18,RB0*%
%TO.N,/RB0*%
X123392300Y-103784600D03*
%TO.P,U1,19,RB1*%
%TO.N,/RB1*%
X123792299Y-103784600D03*
%TO.P,U1,20,RB2/SDI2*%
%TO.N,/RB2*%
X124192301Y-103784600D03*
%TO.P,U1,21,RB3/SCK2*%
%TO.N,/RB3*%
X124592300Y-103784600D03*
D16*
%TO.P,U1,22,RB4*%
%TO.N,/RB4*%
X125284600Y-103092300D03*
%TO.P,U1,23,RB5*%
%TO.N,/RB5*%
X125284600Y-102692301D03*
%TO.P,U1,24,RB6/ICSPCLK*%
%TO.N,/PGC*%
X125284600Y-102292299D03*
%TO.P,U1,25,RB7/ICSPDAT/PWM3ERS*%
%TO.N,/PGD*%
X125284600Y-101892300D03*
%TO.P,U1,26,RE3/\u002AMCLR/VPP*%
%TO.N,/MCLR*%
X125284600Y-101492301D03*
%TO.P,U1,27,RA0*%
%TO.N,/RA0*%
X125284600Y-101092299D03*
%TO.P,U1,28,RA1*%
%TO.N,/RA1*%
X125284600Y-100692300D03*
D17*
%TO.P,U1,29,VSS*%
%TO.N,GND*%
X123392300Y-101892300D03*
%TD*%
D18*
%TO.P,R20,1*%
%TO.N,/RB0*%
X141025000Y-105550000D03*
%TO.P,R20,2*%
%TO.N,Net-(D16-A)*%
X142850000Y-105550000D03*
%TD*%
D12*
%TO.P,D1,1,K*%
%TO.N,GND*%
X134000000Y-83500000D03*
%TO.P,D1,2,A*%
%TO.N,Net-(D1-A)*%
X134000000Y-85375000D03*
%TD*%
%TO.P,D5,1,K*%
%TO.N,GND*%
X121000000Y-83500000D03*
%TO.P,D5,2,A*%
%TO.N,Net-(D5-A)*%
X121000000Y-85375000D03*
%TD*%
D14*
%TO.P,R17,1*%
%TO.N,/RC6*%
X136000000Y-110087500D03*
%TO.P,R17,2*%
%TO.N,Net-(D13-A)*%
X136000000Y-111912500D03*
%TD*%
D10*
%TO.P,R4,1*%
%TO.N,GND*%
X130000000Y-112000000D03*
%TO.P,R4,2*%
%TO.N,/RB2*%
X130000000Y-110175000D03*
%TD*%
%TO.P,R5,1*%
%TO.N,GND*%
X139587500Y-112000000D03*
%TO.P,R5,2*%
%TO.N,/RB1*%
X139587500Y-110175000D03*
%TD*%
%TO.P,R10,1*%
%TO.N,/RA5*%
X118000000Y-88912500D03*
%TO.P,R10,2*%
%TO.N,Net-(D6-A)*%
X118000000Y-87087500D03*
%TD*%
%TO.P,R14,1*%
%TO.N,/RC1*%
X106000000Y-88912500D03*
%TO.P,R14,2*%
%TO.N,Net-(D10-A)*%
X106000000Y-87087500D03*
%TD*%
D13*
%TO.P,SW3,1,1*%
%TO.N,/RB2*%
X129750000Y-114750000D03*
X136250000Y-114750000D03*
%TO.P,SW3,2,2*%
%TO.N,VCC*%
X129750000Y-119250000D03*
X136250000Y-119250000D03*
%TD*%
D19*
%TO.P,J4,1,VBUS*%
%TO.N,Net-(D17-A)*%
X146812500Y-93000000D03*
D20*
%TO.P,J4,2,D-*%
%TO.N,unconnected-(J4-D--Pad2)*%
X145062500Y-92200000D03*
%TO.P,J4,3,D+*%
%TO.N,unconnected-(J4-D+-Pad3)*%
X146812500Y-91400000D03*
%TO.P,J4,4,ID*%
%TO.N,unconnected-(J4-ID-Pad4)*%
X145062500Y-90600000D03*
%TO.P,J4,5,GND*%
%TO.N,GND*%
X146812500Y-89800000D03*
D21*
%TO.P,J4,6,Shield*%
X145937500Y-95050000D03*
X145937500Y-87750000D03*
%TD*%
D13*
%TO.P,SW4,1,1*%
%TO.N,/RB1*%
X139750000Y-114750000D03*
X146250000Y-114750000D03*
%TO.P,SW4,2,2*%
%TO.N,VCC*%
X139750000Y-119250000D03*
X146250000Y-119250000D03*
%TD*%
D22*
%TO.P,SW5,*%
%TO.N,*%
X96500000Y-106100000D03*
X96500000Y-97900000D03*
D23*
%TO.P,SW5,1,A*%
%TO.N,VCC*%
X96500000Y-104000000D03*
D24*
%TO.P,SW5,2,B*%
%TO.N,Net-(SW5-B)*%
X96500000Y-102000000D03*
%TO.P,SW5,3,C*%
%TO.N,unconnected-(SW5-C-Pad3)*%
X96500000Y-100000000D03*
%TD*%
D25*
%TO.P,J2,1,Pin_1*%
%TO.N,/SDA*%
X101702500Y-98460000D03*
D26*
%TO.P,J2,2,Pin_2*%
%TO.N,/SCL*%
X101702500Y-101000000D03*
%TO.P,J2,3,Pin_3*%
%TO.N,VCC*%
X101702500Y-103540000D03*
%TO.P,J2,4,Pin_4*%
%TO.N,GND*%
X101702500Y-106080000D03*
%TD*%
D27*
%TO.P,D11,1,K*%
%TO.N,GND*%
X96562500Y-112087500D03*
%TO.P,D11,2,A*%
%TO.N,Net-(D11-A)*%
X98437500Y-112087500D03*
%TD*%
D12*
%TO.P,D10,1,K*%
%TO.N,GND*%
X106000000Y-83562500D03*
%TO.P,D10,2,A*%
%TO.N,Net-(D10-A)*%
X106000000Y-85437500D03*
%TD*%
D25*
%TO.P,J1,1,~{MCLR}/VPP*%
%TO.N,/MCLR*%
X147120000Y-85000000D03*
D26*
%TO.P,J1,2,VDD*%
%TO.N,VCC*%
X144580000Y-85000000D03*
%TO.P,J1,3,VSS*%
%TO.N,GND*%
X142040000Y-85000000D03*
%TO.P,J1,4,PGD/ICSPDAT*%
%TO.N,/PGD*%
X139500000Y-85000000D03*
%TO.P,J1,5,PGC/ICSPCLK*%
%TO.N,/PGC*%
X136960000Y-85000000D03*
%TD*%
D28*
%TO.P,LS1,1,1*%
%TO.N,/RB5*%
X98500000Y-92500000D03*
D13*
%TO.P,LS1,2,2*%
%TO.N,GND*%
X98500000Y-84900000D03*
%TD*%
D29*
%TO.P,C1,1*%
%TO.N,Net-(D17-K)*%
X144462500Y-97050000D03*
%TO.P,C1,2*%
%TO.N,GND*%
X147412500Y-97050000D03*
%TD*%
D10*
%TO.P,R2,1*%
%TO.N,/RA0*%
X134000000Y-88912500D03*
%TO.P,R2,2*%
%TO.N,Net-(D1-A)*%
X134000000Y-87087500D03*
%TD*%
D30*
%TO.P,D16,1,K*%
%TO.N,GND*%
X146937500Y-106550000D03*
%TO.P,D16,2,A*%
%TO.N,Net-(D16-A)*%
X145062500Y-106550000D03*
%TD*%
D12*
%TO.P,D3,1,K*%
%TO.N,GND*%
X127000000Y-83500000D03*
%TO.P,D3,2,A*%
%TO.N,Net-(D3-A)*%
X127000000Y-85375000D03*
%TD*%
D10*
%TO.P,R1,1*%
%TO.N,GND*%
X94500000Y-112500000D03*
%TO.P,R1,2*%
%TO.N,/RB4*%
X94500000Y-110675000D03*
%TD*%
D12*
%TO.P,D9,1,K*%
%TO.N,GND*%
X109000000Y-83562500D03*
%TO.P,D9,2,A*%
%TO.N,Net-(D9-A)*%
X109000000Y-85437500D03*
%TD*%
D10*
%TO.P,R12,1*%
%TO.N,/RA7*%
X112000000Y-88912500D03*
%TO.P,R12,2*%
%TO.N,Net-(D8-A)*%
X112000000Y-87087500D03*
%TD*%
D18*
%TO.P,R18,1*%
%TO.N,VCC*%
X141025000Y-103550000D03*
%TO.P,R18,2*%
%TO.N,Net-(D14-A)*%
X142850000Y-103550000D03*
%TD*%
D12*
%TO.P,D6,1,K*%
%TO.N,GND*%
X118000000Y-83500000D03*
%TO.P,D6,2,A*%
%TO.N,Net-(D6-A)*%
X118000000Y-85375000D03*
%TD*%
D27*
%TO.P,D15,1,K*%
%TO.N,GND*%
X141625000Y-112000000D03*
%TO.P,D15,2,A*%
%TO.N,Net-(D15-A)*%
X143500000Y-112000000D03*
%TD*%
D13*
%TO.P,SW1,1,1*%
%TO.N,/RB4*%
X94750000Y-115087500D03*
X101250000Y-115087500D03*
%TO.P,SW1,2,2*%
%TO.N,VCC*%
X94750000Y-119587500D03*
X101250000Y-119587500D03*
%TD*%
D31*
%TO.P,D18,1,K*%
%TO.N,Net-(D18-K)*%
X137787500Y-99500000D03*
%TO.P,D18,2,A*%
%TO.N,Net-(BT1-+)*%
X136212500Y-99500000D03*
%TD*%
D27*
%TO.P,D12,1,K*%
%TO.N,GND*%
X107062500Y-112087500D03*
%TO.P,D12,2,A*%
%TO.N,Net-(D12-A)*%
X108937500Y-112087500D03*
%TD*%
D30*
%TO.P,D14,1,K*%
%TO.N,GND*%
X147000000Y-104500000D03*
%TO.P,D14,2,A*%
%TO.N,Net-(D14-A)*%
X145125000Y-104500000D03*
%TD*%
D12*
%TO.P,D4,1,K*%
%TO.N,GND*%
X124000000Y-83562500D03*
%TO.P,D4,2,A*%
%TO.N,Net-(D4-A)*%
X124000000Y-85437500D03*
%TD*%
D10*
%TO.P,R3,1*%
%TO.N,GND*%
X105000000Y-112412500D03*
%TO.P,R3,2*%
%TO.N,/RB3*%
X105000000Y-110587500D03*
%TD*%
D32*
%TO.P,Q1,1,G*%
%TO.N,Net-(D17-K)*%
X138500000Y-95600000D03*
%TO.P,Q1,2,S*%
%TO.N,Net-(D18-K)*%
X138500000Y-97500000D03*
%TO.P,Q1,3,D*%
%TO.N,Net-(D17-K)*%
X140375000Y-96550000D03*
%TD*%
D29*
%TO.P,C3,1*%
%TO.N,VCC*%
X144437500Y-102050000D03*
%TO.P,C3,2*%
%TO.N,GND*%
X147387500Y-102050000D03*
%TD*%
D33*
%TO.P,D17,1,K*%
%TO.N,Net-(D17-K)*%
X142437500Y-97337500D03*
%TO.P,D17,2,A*%
%TO.N,Net-(D17-A)*%
X142437500Y-95762500D03*
%TD*%
D10*
%TO.P,R7,1*%
%TO.N,/RA2*%
X127000000Y-88912500D03*
%TO.P,R7,2*%
%TO.N,Net-(D3-A)*%
X127000000Y-87087500D03*
%TD*%
D14*
%TO.P,R16,1*%
%TO.N,/RC5*%
X111000000Y-110087500D03*
%TO.P,R16,2*%
%TO.N,Net-(D12-A)*%
X111000000Y-111912500D03*
%TD*%
D27*
%TO.P,D13,1,K*%
%TO.N,GND*%
X132125000Y-112000000D03*
%TO.P,D13,2,A*%
%TO.N,Net-(D13-A)*%
X134000000Y-112000000D03*
%TD*%
D10*
%TO.P,R13,1*%
%TO.N,/RC0*%
X109000000Y-88912500D03*
%TO.P,R13,2*%
%TO.N,Net-(D9-A)*%
X109000000Y-87087500D03*
%TD*%
D34*
%TO.P,U2,1,VIN*%
%TO.N,Net-(D17-K)*%
X140162500Y-99550000D03*
%TO.P,U2,2,GND*%
%TO.N,GND*%
X140162500Y-100500000D03*
%TO.P,U2,3,EN*%
%TO.N,unconnected-(U2-EN-Pad3)*%
X140162500Y-101450000D03*
%TO.P,U2,4,NC*%
%TO.N,unconnected-(U2-NC-Pad4)*%
X142437500Y-101450000D03*
%TO.P,U2,5,VOUT*%
%TO.N,Net-(SW5-B)*%
X142437500Y-99550000D03*
%TD*%
D12*
%TO.P,D7,1,K*%
%TO.N,GND*%
X115000000Y-83562500D03*
%TO.P,D7,2,A*%
%TO.N,Net-(D7-A)*%
X115000000Y-85437500D03*
%TD*%
D10*
%TO.P,R8,1*%
%TO.N,/RA3*%
X124000000Y-88912500D03*
%TO.P,R8,2*%
%TO.N,Net-(D4-A)*%
X124000000Y-87087500D03*
%TD*%
D29*
%TO.P,C2,1*%
%TO.N,Net-(SW5-B)*%
X144462500Y-99550000D03*
%TO.P,C2,2*%
%TO.N,GND*%
X147412500Y-99550000D03*
%TD*%
D35*
%TO.P,BT1,1,+*%
%TO.N,Net-(BT1-+)*%
X134500000Y-103000000D03*
D36*
%TO.P,BT1,2,-*%
%TO.N,GND*%
X114500000Y-103000000D03*
%TD*%
D37*
%TO.N,GND*%
X135500000Y-83500000D03*
X108250000Y-109750000D03*
X125000000Y-109500000D03*
X147000000Y-104500000D03*
X141500000Y-109500000D03*
X146000000Y-102000000D03*
X122000000Y-108000000D03*
X133000000Y-113500000D03*
%TO.N,Net-(SW5-B)*%
X141000000Y-98500000D03*
%TO.N,/MCLR*%
X130000000Y-100000000D03*
X127500000Y-100500000D03*
%TO.N,/PGD*%
X127500000Y-101500000D03*
X129100000Y-101500000D03*
%TO.N,/SDA*%
X114500000Y-100500000D03*
X117500000Y-103500000D03*
%TO.N,/SCL*%
X118000000Y-102000000D03*
X113000000Y-100500000D03*
%TO.N,/RB5*%
X128120938Y-102727311D03*
X117000000Y-98500000D03*
%TO.N,/RB4*%
X118750000Y-103250000D03*
X127000000Y-104000000D03*
%TO.N,/RB3*%
X126674265Y-105174265D03*
X121008949Y-104502983D03*
%TO.N,/RB2*%
X127500000Y-107400000D03*
X127000000Y-106000000D03*
%TO.N,/RC6*%
X120250000Y-104250000D03*
X130000000Y-108500000D03*
%TO.N,/RC7*%
X129500000Y-105500000D03*
X121500000Y-105500000D03*
%TO.N,/RB0*%
X124009502Y-108500000D03*
X131000000Y-106000000D03*
%TD*%
D38*
%TO.N,Net-(BT1-+)*%
X136212500Y-99500000D02*
X136212500Y-101287500D01*
X136212500Y-101287500D02*
X134500000Y-103000000D01*
%TO.N,GND*%
X96150000Y-112500000D02*
X96562500Y-112087500D01*
X122592299Y-103784600D02*
X122592299Y-107500000D01*
X135500000Y-83500000D02*
X134000000Y-83500000D01*
X122992301Y-101492301D02*
X122992301Y-100000000D01*
X130000000Y-112000000D02*
X127500000Y-112000000D01*
X107062500Y-110937500D02*
X108250000Y-109750000D01*
X123392300Y-101892300D02*
X122992301Y-101492301D01*
X123392300Y-101892300D02*
X122592299Y-102692301D01*
X122592299Y-102692301D02*
X122592299Y-103784600D01*
X106737500Y-112412500D02*
X107062500Y-112087500D01*
X94500000Y-112500000D02*
X96150000Y-112500000D01*
X125000000Y-109500000D02*
X126750000Y-111250000D01*
X122000000Y-108000000D02*
X122092299Y-108000000D01*
X122092299Y-108000000D02*
X122592299Y-107500000D01*
X105000000Y-112412500D02*
X106737500Y-112412500D01*
X107062500Y-112087500D02*
X107062500Y-110937500D01*
X127500000Y-112000000D02*
X126750000Y-111250000D01*
%TO.N,Net-(D17-K)*%
X142725000Y-97050000D02*
X142437500Y-97337500D01*
X140162500Y-96762500D02*
X140375000Y-96550000D01*
X140375000Y-96550000D02*
X139450000Y-96550000D01*
X144462500Y-97050000D02*
X142725000Y-97050000D01*
X141650000Y-96550000D02*
X142437500Y-97337500D01*
X138500000Y-95600000D02*
X138937500Y-95162500D01*
X139450000Y-96550000D02*
X138500000Y-95600000D01*
X140375000Y-96550000D02*
X141650000Y-96550000D01*
X140162500Y-99550000D02*
X140162500Y-96762500D01*
X138937500Y-95162500D02*
X138937500Y-93550000D01*
%TO.N,Net-(SW5-B)*%
X142437500Y-99550000D02*
X142050000Y-99550000D01*
X144462500Y-99550000D02*
X142500000Y-99550000D01*
X142050000Y-99550000D02*
X141000000Y-98500000D01*
X142500000Y-99550000D02*
X142437500Y-99550000D01*
%TO.N,VCC*%
X143987500Y-102500000D02*
X144437500Y-102050000D01*
X147499999Y-103500000D02*
X148500000Y-104500001D01*
X129750000Y-119250000D02*
X123000000Y-112500000D01*
X148500000Y-117000000D02*
X146250000Y-119250000D01*
X146250000Y-119250000D02*
X129750000Y-119250000D01*
D39*
X122992301Y-104492301D02*
X122992301Y-103784600D01*
D38*
X96500000Y-104000000D02*
X97000000Y-104000000D01*
X145887500Y-103500000D02*
X147499999Y-103500000D01*
X142075000Y-102500000D02*
X143987500Y-102500000D01*
X97460000Y-103540000D02*
X101702500Y-103540000D01*
X144437500Y-102050000D02*
X145887500Y-103500000D01*
D39*
X123000000Y-112500000D02*
X123000000Y-104500000D01*
X123000000Y-104500000D02*
X122992301Y-104492301D01*
D38*
X129412500Y-119587500D02*
X129750000Y-119250000D01*
X141025000Y-103550000D02*
X142075000Y-102500000D01*
X148500000Y-104500001D02*
X148500000Y-117000000D01*
X104750000Y-119587500D02*
X111250000Y-119587500D01*
X111250000Y-119587500D02*
X129412500Y-119587500D01*
X94750000Y-119587500D02*
X104750000Y-119587500D01*
X97000000Y-104000000D02*
X97460000Y-103540000D01*
%TO.N,Net-(D1-A)*%
X134000000Y-87087500D02*
X134000000Y-85375000D01*
%TO.N,Net-(D2-A)*%
X130500000Y-87087500D02*
X130500000Y-85375000D01*
%TO.N,Net-(D3-A)*%
X127000000Y-85375000D02*
X127000000Y-87087500D01*
%TO.N,Net-(D4-A)*%
X124000000Y-85312500D02*
X124000000Y-87087500D01*
%TO.N,Net-(D5-A)*%
X121000000Y-85375000D02*
X121000000Y-87087500D01*
%TO.N,Net-(D6-A)*%
X118000000Y-85375000D02*
X118000000Y-87087500D01*
%TO.N,Net-(D7-A)*%
X115000000Y-85437500D02*
X115000000Y-87087500D01*
%TO.N,Net-(D8-A)*%
X112000000Y-85437500D02*
X112000000Y-87087500D01*
%TO.N,Net-(D9-A)*%
X109000000Y-85437500D02*
X109000000Y-87087500D01*
%TO.N,Net-(D10-A)*%
X106000000Y-85437500D02*
X106000000Y-87087500D01*
%TO.N,Net-(D11-A)*%
X98437500Y-112087500D02*
X100412500Y-112087500D01*
X100412500Y-112087500D02*
X100500000Y-112000000D01*
%TO.N,Net-(D12-A)*%
X110825000Y-112087500D02*
X111000000Y-111912500D01*
X108937500Y-112087500D02*
X110825000Y-112087500D01*
%TO.N,Net-(D13-A)*%
X135912500Y-112000000D02*
X136000000Y-111912500D01*
X134000000Y-112000000D02*
X135912500Y-112000000D01*
%TO.N,Net-(D14-A)*%
X144576000Y-103951000D02*
X142850000Y-103951000D01*
X145125000Y-104500000D02*
X144576000Y-103951000D01*
X142937500Y-103550000D02*
X142850000Y-103550000D01*
%TO.N,Net-(D15-A)*%
X143500000Y-112000000D02*
X144000000Y-112000000D01*
X144087500Y-111912500D02*
X145500000Y-111912500D01*
X144000000Y-112000000D02*
X144087500Y-111912500D01*
%TO.N,Net-(D16-A)*%
X144062500Y-105550000D02*
X145062500Y-106550000D01*
X142850000Y-105550000D02*
X144062500Y-105550000D01*
%TO.N,Net-(D17-A)*%
X146761500Y-93051000D02*
X145949000Y-93051000D01*
X146812500Y-93000000D02*
X146761500Y-93051000D01*
X143237500Y-95762500D02*
X142437500Y-95762500D01*
X145949000Y-93051000D02*
X143237500Y-95762500D01*
%TO.N,Net-(D18-K)*%
X137787500Y-98212500D02*
X138500000Y-97500000D01*
X137787500Y-99500000D02*
X137787500Y-98212500D01*
%TO.N,/MCLR*%
X145620000Y-86500000D02*
X144500000Y-86500000D01*
X127500000Y-100500000D02*
X126507699Y-101492301D01*
D39*
X126507699Y-101492301D02*
X125284600Y-101492301D01*
D38*
X130000000Y-98000000D02*
X130000000Y-100000000D01*
X144500000Y-86500000D02*
X140750000Y-90250000D01*
X140750000Y-90250000D02*
X137750000Y-90250000D01*
X147500000Y-84500000D02*
X147500000Y-84620000D01*
X147500000Y-84620000D02*
X145620000Y-86500000D01*
X137750000Y-90250000D02*
X130000000Y-98000000D01*
D39*
%TO.N,/PGC*%
X127194601Y-102292299D02*
X125284600Y-102292299D01*
D38*
X136960000Y-88040000D02*
X128500000Y-96500000D01*
X127707701Y-102292299D02*
X127194601Y-102292299D01*
X128500000Y-101500000D02*
X127707701Y-102292299D01*
X136960000Y-84880000D02*
X136960000Y-88040000D01*
X128500000Y-96500000D02*
X128500000Y-101500000D01*
%TO.N,/PGD*%
X129100000Y-97400000D02*
X139500000Y-87000000D01*
D39*
X127107700Y-101892300D02*
X125284600Y-101892300D01*
D38*
X139500000Y-87000000D02*
X139500000Y-84880000D01*
X129100000Y-101500000D02*
X129100000Y-97400000D01*
X127500000Y-101500000D02*
X127107700Y-101892300D01*
%TO.N,/SDA*%
X114500000Y-100500000D02*
X112460000Y-98460000D01*
X117500000Y-103500000D02*
X118500000Y-102500000D01*
X118500000Y-102500000D02*
X119947042Y-102500000D01*
X119947042Y-102500000D02*
X120154743Y-102292299D01*
D39*
X120154743Y-102292299D02*
X121500000Y-102292299D01*
D38*
X112460000Y-98460000D02*
X101702500Y-98460000D01*
%TO.N,/SCL*%
X112500000Y-100000000D02*
X113000000Y-100500000D01*
X102702500Y-100000000D02*
X107000000Y-100000000D01*
D39*
X121498999Y-101891299D02*
X121500000Y-101892300D01*
D38*
X118108701Y-101891299D02*
X120490000Y-101891299D01*
X101702500Y-101000000D02*
X102702500Y-100000000D01*
X118000000Y-102000000D02*
X118108701Y-101891299D01*
X107000000Y-100000000D02*
X112500000Y-100000000D01*
D39*
X120490000Y-101891299D02*
X121498999Y-101891299D01*
D38*
%TO.N,/RB5*%
X98500000Y-92500000D02*
X111000000Y-92500000D01*
X111000000Y-92500000D02*
X117000000Y-98500000D01*
D39*
X128085928Y-102692301D02*
X125284600Y-102692301D01*
D38*
X128120938Y-102727311D02*
X128085928Y-102692301D01*
%TO.N,/RB4*%
X126094901Y-103094901D02*
X125284600Y-103094901D01*
X102000000Y-114337500D02*
X102000000Y-110500000D01*
X93000000Y-111500000D02*
X93000000Y-113337500D01*
X117500000Y-104500000D02*
X118750000Y-103250000D01*
X108000000Y-104500000D02*
X117500000Y-104500000D01*
X93825000Y-110675000D02*
X93000000Y-111500000D01*
X94500000Y-110675000D02*
X93825000Y-110675000D01*
X93000000Y-113337500D02*
X94750000Y-115087500D01*
X101250000Y-115087500D02*
X102000000Y-114337500D01*
X94750000Y-115087500D02*
X101250000Y-115087500D01*
X102000000Y-110500000D02*
X108000000Y-104500000D01*
X127000000Y-104000000D02*
X126094901Y-103094901D01*
%TO.N,/RA0*%
X134000000Y-88912500D02*
X132587500Y-88912500D01*
D39*
X125992000Y-95508000D02*
X125992000Y-101092299D01*
D38*
X132587500Y-88912500D02*
X125992000Y-95508000D01*
D39*
X125992000Y-101092299D02*
X125284600Y-101092299D01*
D38*
%TO.N,/RB3*%
X125500000Y-104000000D02*
X124689802Y-104000000D01*
X104750000Y-115087500D02*
X103000000Y-113337500D01*
X121008949Y-104502983D02*
X120000000Y-105511932D01*
X103000000Y-113337500D02*
X103000000Y-112000000D01*
X119500000Y-108500000D02*
X117837500Y-108500000D01*
X117837500Y-108500000D02*
X111250000Y-115087500D01*
X124594901Y-104094901D02*
X124594901Y-103784600D01*
X124689802Y-104000000D02*
X124594901Y-104094901D01*
X104750000Y-115087500D02*
X111250000Y-115087500D01*
X126674265Y-105174265D02*
X125500000Y-104000000D01*
X120000000Y-105511932D02*
X120000000Y-108000000D01*
X104412500Y-110587500D02*
X105000000Y-110587500D01*
X120000000Y-108000000D02*
X119500000Y-108500000D01*
X103000000Y-112000000D02*
X104412500Y-110587500D01*
%TO.N,/RB2*%
X137500000Y-113500000D02*
X137500000Y-111500000D01*
X127500000Y-108000000D02*
X129675000Y-110175000D01*
X127500000Y-107400000D02*
X127500000Y-108000000D01*
X136250000Y-114750000D02*
X137500000Y-113500000D01*
X130825000Y-111000000D02*
X130000000Y-110175000D01*
X137500000Y-111500000D02*
X137000000Y-111000000D01*
X129675000Y-110175000D02*
X130000000Y-110175000D01*
X136250000Y-114750000D02*
X129750000Y-114750000D01*
X127000000Y-106000000D02*
X125000000Y-106000000D01*
X137000000Y-111000000D02*
X130825000Y-111000000D01*
D39*
X124192301Y-105192301D02*
X124192301Y-103784600D01*
X125000000Y-106000000D02*
X124192301Y-105192301D01*
D38*
%TO.N,/RB1*%
X139750000Y-114750000D02*
X138500000Y-113500000D01*
D39*
X123783300Y-105000000D02*
X123792299Y-104991001D01*
D38*
X123783300Y-105783300D02*
X124799000Y-106799000D01*
X124799000Y-106799000D02*
X128299000Y-106799000D01*
X138500000Y-110500000D02*
X138825000Y-110175000D01*
X129000000Y-107500000D02*
X130500000Y-107500000D01*
D39*
X123792299Y-104991001D02*
X123792299Y-103784600D01*
D38*
X136912500Y-107500000D02*
X130500000Y-107500000D01*
X138500000Y-113500000D02*
X138500000Y-110500000D01*
D39*
X123783300Y-105783300D02*
X123783300Y-105000000D01*
D38*
X146250000Y-114750000D02*
X139750000Y-114750000D01*
X139587500Y-110175000D02*
X136912500Y-107500000D01*
X128299000Y-106799000D02*
X129000000Y-107500000D01*
X138825000Y-110175000D02*
X139587500Y-110175000D01*
%TO.N,/RA1*%
X125284600Y-94215400D02*
X125284600Y-100689699D01*
X130500000Y-88912500D02*
X130500000Y-89000000D01*
X130500000Y-89000000D02*
X125284600Y-94215400D01*
%TO.N,/RA2*%
X124594901Y-93905099D02*
X124594901Y-100000000D01*
X127000000Y-88912500D02*
X127000000Y-91500000D01*
X127000000Y-91500000D02*
X124594901Y-93905099D01*
D39*
%TO.N,/RA3*%
X124192301Y-89104801D02*
X124192301Y-100000000D01*
D38*
X124192301Y-89104801D02*
X124000000Y-88912500D01*
%TO.N,/RA4*%
X121000000Y-88912500D02*
X123000301Y-90912801D01*
D39*
X123792299Y-97292299D02*
X123792299Y-100000000D01*
X123000301Y-96000000D02*
X123000301Y-96500301D01*
D38*
X123000301Y-90912801D02*
X123000301Y-96000000D01*
D39*
X123000301Y-96500301D02*
X123792299Y-97292299D01*
%TO.N,/RA5*%
X122609301Y-94676702D02*
X122609301Y-96161958D01*
X122609301Y-96161958D02*
X122619301Y-96171958D01*
D38*
X120000000Y-92067401D02*
X120466299Y-92533700D01*
D39*
X123392300Y-97431116D02*
X123392300Y-100000000D01*
X120466299Y-92533701D02*
X122609301Y-94676702D01*
D38*
X120000000Y-90912500D02*
X120000000Y-92067401D01*
D39*
X122619301Y-96658117D02*
X122842486Y-96881301D01*
X122842486Y-96881301D02*
X123392300Y-97431116D01*
D38*
X118000000Y-88912500D02*
X120000000Y-90912500D01*
D39*
X122619301Y-96171958D02*
X122619301Y-96658117D01*
D38*
%TO.N,/RA6*%
X115000000Y-92810301D02*
X122189699Y-100000000D01*
X115000000Y-88912500D02*
X115000000Y-92810301D01*
%TO.N,/RA7*%
X116500000Y-88913840D02*
X116500000Y-91533700D01*
D39*
X122379641Y-99000000D02*
X122584900Y-99205259D01*
D38*
X115685160Y-88099000D02*
X116500000Y-88913840D01*
D39*
X116940400Y-91974101D02*
X122379641Y-97413342D01*
D38*
X112813500Y-88099000D02*
X115685160Y-88099000D01*
D39*
X122584900Y-99302600D02*
X122592299Y-99309999D01*
X122592299Y-99309999D02*
X122592299Y-100000000D01*
X122584900Y-99205259D02*
X122584900Y-99302600D01*
D38*
X112000000Y-88912500D02*
X112813500Y-88099000D01*
D39*
X122379641Y-97413342D02*
X122379641Y-99000000D01*
D38*
X116500000Y-91533700D02*
X116940400Y-91974100D01*
%TO.N,/RC0*%
X109722801Y-88912500D02*
X121500000Y-100689699D01*
X109000000Y-88912500D02*
X109722801Y-88912500D01*
D39*
%TO.N,/RC1*%
X121492601Y-101084900D02*
X121500000Y-101092299D01*
D38*
X106000000Y-88912500D02*
X107087500Y-90000000D01*
X110743201Y-90500000D02*
X120792600Y-100549399D01*
D39*
X120802600Y-101084900D02*
X121492601Y-101084900D01*
D38*
X109088840Y-90500000D02*
X110743201Y-90500000D01*
D39*
X120802600Y-100549399D02*
X120802600Y-101084900D01*
X120792600Y-100549399D02*
X120802600Y-100549399D01*
D38*
X107087500Y-90000000D02*
X108588840Y-90000000D01*
X108588840Y-90000000D02*
X109088840Y-90500000D01*
D39*
%TO.N,/RC2*%
X121500000Y-101492301D02*
X109182699Y-101492301D01*
X109182699Y-101492301D02*
X100500000Y-110175000D01*
%TO.N,/RC5*%
X120307699Y-102692301D02*
X121500000Y-102692301D01*
D38*
X112912500Y-110087500D02*
X120000000Y-103000000D01*
D39*
X120000000Y-103000000D02*
X120307699Y-102692301D01*
D38*
X111000000Y-110087500D02*
X112912500Y-110087500D01*
%TO.N,/RC6*%
X136000000Y-110000000D02*
X134500000Y-108500000D01*
X136000000Y-110087500D02*
X136000000Y-110000000D01*
X120250000Y-103750000D02*
X120905099Y-103094901D01*
X134500000Y-108500000D02*
X130000000Y-108500000D01*
X120250000Y-104250000D02*
X120250000Y-103750000D01*
X120905099Y-103094901D02*
X121500000Y-103094901D01*
%TO.N,/RC7*%
X121500000Y-105000000D02*
X122189699Y-104310301D01*
X121500000Y-105500000D02*
X121500000Y-105000000D01*
X142412500Y-107000000D02*
X137000000Y-107000000D01*
X131000000Y-107000000D02*
X129500000Y-105500000D01*
X145500000Y-110087500D02*
X142412500Y-107000000D01*
X137000000Y-107000000D02*
X131000000Y-107000000D01*
X122189699Y-104310301D02*
X122189699Y-103787201D01*
D39*
%TO.N,/RB0*%
X124009502Y-108500000D02*
X124009502Y-107009502D01*
X123392300Y-106392300D02*
X123392300Y-103784600D01*
D38*
X131000000Y-106000000D02*
X131450000Y-105550000D01*
X131450000Y-105550000D02*
X141025000Y-105550000D01*
D39*
X124009502Y-107009502D02*
X123392300Y-106392300D01*
%TD*%
%TA.AperFunction,Conductor*%
%TO.N,GND*%
G36*
X122368363Y-105896224D02*
G01*
X122405082Y-105955668D01*
X122409500Y-105988473D01*
X122409500Y-112367293D01*
X122405275Y-112399384D01*
X122399499Y-112420938D01*
X122399499Y-112579054D01*
X122399498Y-112579054D01*
X122416809Y-112643657D01*
X122440423Y-112731785D01*
X122519481Y-112868716D01*
X122519483Y-112868718D01*
X128297200Y-118646435D01*
X128304492Y-118659790D01*
X128315706Y-118670082D01*
X128320897Y-118689834D01*
X128330685Y-118707758D01*
X128329873Y-118723981D01*
X128333468Y-118737656D01*
X128327450Y-118772433D01*
X128285574Y-118901317D01*
X128246137Y-118958993D01*
X128181779Y-118986192D01*
X128167643Y-118987000D01*
X112704068Y-118987000D01*
X112637029Y-118967315D01*
X112593583Y-118919295D01*
X112584423Y-118901317D01*
X112533343Y-118801067D01*
X112394517Y-118609990D01*
X112227510Y-118442983D01*
X112036433Y-118304157D01*
X111825996Y-118196933D01*
X111601368Y-118123946D01*
X111368097Y-118087000D01*
X111368092Y-118087000D01*
X111131908Y-118087000D01*
X111131903Y-118087000D01*
X110898631Y-118123946D01*
X110674003Y-118196933D01*
X110463566Y-118304157D01*
X110354550Y-118383362D01*
X110272490Y-118442983D01*
X110272488Y-118442985D01*
X110272487Y-118442985D01*
X110105485Y-118609987D01*
X110105485Y-118609988D01*
X110105483Y-118609990D01*
X110047473Y-118689834D01*
X109966657Y-118801066D01*
X109934060Y-118865040D01*
X109916944Y-118898635D01*
X109906417Y-118919295D01*
X109858442Y-118970091D01*
X109795932Y-118987000D01*
X106204068Y-118987000D01*
X106137029Y-118967315D01*
X106093583Y-118919295D01*
X106084423Y-118901317D01*
X106033343Y-118801067D01*
X105894517Y-118609990D01*
X105727510Y-118442983D01*
X105536433Y-118304157D01*
X105325996Y-118196933D01*
X105101368Y-118123946D01*
X104868097Y-118087000D01*
X104868092Y-118087000D01*
X104631908Y-118087000D01*
X104631903Y-118087000D01*
X104398631Y-118123946D01*
X104174003Y-118196933D01*
X103963566Y-118304157D01*
X103854550Y-118383362D01*
X103772490Y-118442983D01*
X103772488Y-118442985D01*
X103772487Y-118442985D01*
X103605485Y-118609987D01*
X103605485Y-118609988D01*
X103605483Y-118609990D01*
X103547473Y-118689834D01*
X103466657Y-118801066D01*
X103434060Y-118865040D01*
X103416944Y-118898635D01*
X103406417Y-118919295D01*
X103358442Y-118970091D01*
X103295932Y-118987000D01*
X102704068Y-118987000D01*
X102637029Y-118967315D01*
X102593583Y-118919295D01*
X102584423Y-118901317D01*
X102533343Y-118801067D01*
X102394517Y-118609990D01*
X102227510Y-118442983D01*
X102036433Y-118304157D01*
X101825996Y-118196933D01*
X101601368Y-118123946D01*
X101368097Y-118087000D01*
X101368092Y-118087000D01*
X101131908Y-118087000D01*
X101131903Y-118087000D01*
X100898631Y-118123946D01*
X100674003Y-118196933D01*
X100463566Y-118304157D01*
X100354550Y-118383362D01*
X100272490Y-118442983D01*
X100272488Y-118442985D01*
X100272487Y-118442985D01*
X100105485Y-118609987D01*
X100105485Y-118609988D01*
X100105483Y-118609990D01*
X100047473Y-118689834D01*
X99966657Y-118801066D01*
X99934060Y-118865040D01*
X99916944Y-118898635D01*
X99906417Y-118919295D01*
X99858442Y-118970091D01*
X99795932Y-118987000D01*
X96204068Y-118987000D01*
X96137029Y-118967315D01*
X96093583Y-118919295D01*
X96084423Y-118901317D01*
X96033343Y-118801067D01*
X95894517Y-118609990D01*
X95727510Y-118442983D01*
X95536433Y-118304157D01*
X95325996Y-118196933D01*
X95101368Y-118123946D01*
X94868097Y-118087000D01*
X94868092Y-118087000D01*
X94631908Y-118087000D01*
X94631903Y-118087000D01*
X94398631Y-118123946D01*
X94174003Y-118196933D01*
X93963566Y-118304157D01*
X93854550Y-118383362D01*
X93772490Y-118442983D01*
X93772488Y-118442985D01*
X93772487Y-118442985D01*
X93605485Y-118609987D01*
X93605485Y-118609988D01*
X93605483Y-118609990D01*
X93547473Y-118689834D01*
X93466657Y-118801066D01*
X93359433Y-119011503D01*
X93286446Y-119236131D01*
X93249500Y-119469402D01*
X93249500Y-119705597D01*
X93286446Y-119938868D01*
X93359433Y-120163496D01*
X93466657Y-120373933D01*
X93605483Y-120565010D01*
X93772490Y-120732017D01*
X93963567Y-120870843D01*
X94062991Y-120921502D01*
X94174003Y-120978066D01*
X94174005Y-120978066D01*
X94174008Y-120978068D01*
X94294412Y-121017189D01*
X94398631Y-121051053D01*
X94631903Y-121088000D01*
X94631908Y-121088000D01*
X94868097Y-121088000D01*
X95101368Y-121051053D01*
X95325992Y-120978068D01*
X95536433Y-120870843D01*
X95727510Y-120732017D01*
X95894517Y-120565010D01*
X96033343Y-120373933D01*
X96093583Y-120255704D01*
X96141558Y-120204909D01*
X96204068Y-120188000D01*
X99795932Y-120188000D01*
X99862971Y-120207685D01*
X99906416Y-120255703D01*
X99966657Y-120373933D01*
X100105483Y-120565010D01*
X100272490Y-120732017D01*
X100463567Y-120870843D01*
X100562991Y-120921502D01*
X100674003Y-120978066D01*
X100674005Y-120978066D01*
X100674008Y-120978068D01*
X100794412Y-121017189D01*
X100898631Y-121051053D01*
X101131903Y-121088000D01*
X101131908Y-121088000D01*
X101368097Y-121088000D01*
X101601368Y-121051053D01*
X101825992Y-120978068D01*
X102036433Y-120870843D01*
X102227510Y-120732017D01*
X102394517Y-120565010D01*
X102533343Y-120373933D01*
X102593583Y-120255704D01*
X102641558Y-120204909D01*
X102704068Y-120188000D01*
X103295932Y-120188000D01*
X103362971Y-120207685D01*
X103406416Y-120255703D01*
X103466657Y-120373933D01*
X103605483Y-120565010D01*
X103772490Y-120732017D01*
X103963567Y-120870843D01*
X104062991Y-120921502D01*
X104174003Y-120978066D01*
X104174005Y-120978066D01*
X104174008Y-120978068D01*
X104294412Y-121017189D01*
X104398631Y-121051053D01*
X104631903Y-121088000D01*
X104631908Y-121088000D01*
X104868097Y-121088000D01*
X105101368Y-121051053D01*
X105325992Y-120978068D01*
X105536433Y-120870843D01*
X105727510Y-120732017D01*
X105894517Y-120565010D01*
X106033343Y-120373933D01*
X106093583Y-120255704D01*
X106141558Y-120204909D01*
X106204068Y-120188000D01*
X109795932Y-120188000D01*
X109862971Y-120207685D01*
X109906416Y-120255703D01*
X109966657Y-120373933D01*
X110105483Y-120565010D01*
X110272490Y-120732017D01*
X110463567Y-120870843D01*
X110562991Y-120921502D01*
X110674003Y-120978066D01*
X110674005Y-120978066D01*
X110674008Y-120978068D01*
X110794412Y-121017189D01*
X110898631Y-121051053D01*
X111131903Y-121088000D01*
X111131908Y-121088000D01*
X111368097Y-121088000D01*
X111601368Y-121051053D01*
X111825992Y-120978068D01*
X112036433Y-120870843D01*
X112227510Y-120732017D01*
X112394517Y-120565010D01*
X112533343Y-120373933D01*
X112593583Y-120255704D01*
X112641558Y-120204909D01*
X112704068Y-120188000D01*
X128514611Y-120188000D01*
X128581650Y-120207685D01*
X128602292Y-120224319D01*
X128605483Y-120227510D01*
X128772490Y-120394517D01*
X128963567Y-120533343D01*
X129025717Y-120565010D01*
X129174003Y-120640566D01*
X129174005Y-120640566D01*
X129174008Y-120640568D01*
X129294412Y-120679689D01*
X129398631Y-120713553D01*
X129631903Y-120750500D01*
X129631908Y-120750500D01*
X129868097Y-120750500D01*
X130101368Y-120713553D01*
X130101836Y-120713401D01*
X130325992Y-120640568D01*
X130536433Y-120533343D01*
X130727510Y-120394517D01*
X130894517Y-120227510D01*
X131033343Y-120036433D01*
X131093583Y-119918204D01*
X131141558Y-119867409D01*
X131204068Y-119850500D01*
X134795932Y-119850500D01*
X134862971Y-119870185D01*
X134906416Y-119918203D01*
X134966657Y-120036433D01*
X135105483Y-120227510D01*
X135272490Y-120394517D01*
X135463567Y-120533343D01*
X135525717Y-120565010D01*
X135674003Y-120640566D01*
X135674005Y-120640566D01*
X135674008Y-120640568D01*
X135794412Y-120679689D01*
X135898631Y-120713553D01*
X136131903Y-120750500D01*
X136131908Y-120750500D01*
X136368097Y-120750500D01*
X136601368Y-120713553D01*
X136601836Y-120713401D01*
X136825992Y-120640568D01*
X137036433Y-120533343D01*
X137227510Y-120394517D01*
X137394517Y-120227510D01*
X137533343Y-120036433D01*
X137593583Y-119918204D01*
X137641558Y-119867409D01*
X137704068Y-119850500D01*
X138295932Y-119850500D01*
X138362971Y-119870185D01*
X138406416Y-119918203D01*
X138466657Y-120036433D01*
X138605483Y-120227510D01*
X138772490Y-120394517D01*
X138963567Y-120533343D01*
X139025717Y-120565010D01*
X139174003Y-120640566D01*
X139174005Y-120640566D01*
X139174008Y-120640568D01*
X139294412Y-120679689D01*
X139398631Y-120713553D01*
X139631903Y-120750500D01*
X139631908Y-120750500D01*
X139868097Y-120750500D01*
X140101368Y-120713553D01*
X140101836Y-120713401D01*
X140325992Y-120640568D01*
X140536433Y-120533343D01*
X140727510Y-120394517D01*
X140894517Y-120227510D01*
X141033343Y-120036433D01*
X141093583Y-119918204D01*
X141141558Y-119867409D01*
X141204068Y-119850500D01*
X144795932Y-119850500D01*
X144862971Y-119870185D01*
X144906416Y-119918203D01*
X144966657Y-120036433D01*
X145105483Y-120227510D01*
X145272490Y-120394517D01*
X145463567Y-120533343D01*
X145525717Y-120565010D01*
X145674003Y-120640566D01*
X145674005Y-120640566D01*
X145674008Y-120640568D01*
X145794412Y-120679689D01*
X145898631Y-120713553D01*
X146131903Y-120750500D01*
X146131908Y-120750500D01*
X146368097Y-120750500D01*
X146601368Y-120713553D01*
X146601836Y-120713401D01*
X146825992Y-120640568D01*
X147036433Y-120533343D01*
X147227510Y-120394517D01*
X147394517Y-120227510D01*
X147533343Y-120036433D01*
X147640568Y-119825992D01*
X147713553Y-119601368D01*
X147750500Y-119368097D01*
X147750500Y-119131902D01*
X147723113Y-118958993D01*
X147713553Y-118898632D01*
X147672547Y-118772433D01*
X147670553Y-118702593D01*
X147702796Y-118646437D01*
X148787820Y-117561415D01*
X148849142Y-117527931D01*
X148918834Y-117532915D01*
X148974767Y-117574787D01*
X148999184Y-117640251D01*
X148999500Y-117649097D01*
X148999500Y-120495572D01*
X148999184Y-120504418D01*
X148999184Y-120504419D01*
X148984869Y-120704557D01*
X148982351Y-120722068D01*
X148940646Y-120913787D01*
X148935662Y-120930763D01*
X148867090Y-121114609D01*
X148859740Y-121130701D01*
X148765711Y-121302904D01*
X148756146Y-121317789D01*
X148638558Y-121474867D01*
X148626972Y-121488237D01*
X148488237Y-121626972D01*
X148474867Y-121638558D01*
X148317789Y-121756146D01*
X148302904Y-121765711D01*
X148130701Y-121859740D01*
X148114609Y-121867090D01*
X147930763Y-121935662D01*
X147913787Y-121940646D01*
X147722068Y-121982351D01*
X147704557Y-121984869D01*
X147523779Y-121997799D01*
X147504417Y-121999184D01*
X147495572Y-121999500D01*
X94004428Y-121999500D01*
X93995582Y-121999184D01*
X93973622Y-121997613D01*
X93795442Y-121984869D01*
X93777931Y-121982351D01*
X93586212Y-121940646D01*
X93569236Y-121935662D01*
X93385390Y-121867090D01*
X93369298Y-121859740D01*
X93197095Y-121765711D01*
X93182210Y-121756146D01*
X93025132Y-121638558D01*
X93011762Y-121626972D01*
X92873027Y-121488237D01*
X92861441Y-121474867D01*
X92743849Y-121317784D01*
X92734288Y-121302904D01*
X92640259Y-121130701D01*
X92632909Y-121114609D01*
X92622984Y-121088000D01*
X92564334Y-120930755D01*
X92559355Y-120913797D01*
X92517647Y-120722063D01*
X92515130Y-120704556D01*
X92510553Y-120640566D01*
X92500816Y-120504418D01*
X92500500Y-120495572D01*
X92500500Y-113986597D01*
X92520185Y-113919558D01*
X92572989Y-113873803D01*
X92642147Y-113863859D01*
X92705703Y-113892884D01*
X92712181Y-113898916D01*
X93297200Y-114483935D01*
X93330685Y-114545258D01*
X93327450Y-114609933D01*
X93286447Y-114736128D01*
X93249500Y-114969402D01*
X93249500Y-115205597D01*
X93286446Y-115438868D01*
X93359433Y-115663496D01*
X93466657Y-115873933D01*
X93605483Y-116065010D01*
X93772490Y-116232017D01*
X93963567Y-116370843D01*
X94062991Y-116421502D01*
X94174003Y-116478066D01*
X94174005Y-116478066D01*
X94174008Y-116478068D01*
X94294412Y-116517189D01*
X94398631Y-116551053D01*
X94631903Y-116588000D01*
X94631908Y-116588000D01*
X94868097Y-116588000D01*
X95101368Y-116551053D01*
X95325992Y-116478068D01*
X95536433Y-116370843D01*
X95727510Y-116232017D01*
X95894517Y-116065010D01*
X96033343Y-115873933D01*
X96093583Y-115755704D01*
X96141558Y-115704909D01*
X96204068Y-115688000D01*
X99795932Y-115688000D01*
X99862971Y-115707685D01*
X99906416Y-115755703D01*
X99966657Y-115873933D01*
X100105483Y-116065010D01*
X100272490Y-116232017D01*
X100463567Y-116370843D01*
X100562991Y-116421502D01*
X100674003Y-116478066D01*
X100674005Y-116478066D01*
X100674008Y-116478068D01*
X100794412Y-116517189D01*
X100898631Y-116551053D01*
X101131903Y-116588000D01*
X101131908Y-116588000D01*
X101368097Y-116588000D01*
X101601368Y-116551053D01*
X101825992Y-116478068D01*
X102036433Y-116370843D01*
X102227510Y-116232017D01*
X102394517Y-116065010D01*
X102533343Y-115873933D01*
X102640568Y-115663492D01*
X102713553Y-115438868D01*
X102733649Y-115311986D01*
X102750500Y-115205597D01*
X102750500Y-114969402D01*
X102713553Y-114736131D01*
X102679688Y-114631908D01*
X102640568Y-114511508D01*
X102640566Y-114511505D01*
X102640565Y-114511500D01*
X102614015Y-114459393D01*
X102600500Y-114403099D01*
X102600500Y-114086597D01*
X102620185Y-114019558D01*
X102672989Y-113973803D01*
X102742147Y-113963859D01*
X102805703Y-113992884D01*
X102812181Y-113998916D01*
X103297200Y-114483935D01*
X103330685Y-114545258D01*
X103327450Y-114609933D01*
X103286447Y-114736128D01*
X103249500Y-114969402D01*
X103249500Y-115205597D01*
X103286446Y-115438868D01*
X103359433Y-115663496D01*
X103466657Y-115873933D01*
X103605483Y-116065010D01*
X103772490Y-116232017D01*
X103963567Y-116370843D01*
X104062991Y-116421502D01*
X104174003Y-116478066D01*
X104174005Y-116478066D01*
X104174008Y-116478068D01*
X104294412Y-116517189D01*
X104398631Y-116551053D01*
X104631903Y-116588000D01*
X104631908Y-116588000D01*
X104868097Y-116588000D01*
X105101368Y-116551053D01*
X105325992Y-116478068D01*
X105536433Y-116370843D01*
X105727510Y-116232017D01*
X105894517Y-116065010D01*
X106033343Y-115873933D01*
X106093583Y-115755704D01*
X106141558Y-115704909D01*
X106204068Y-115688000D01*
X109795932Y-115688000D01*
X109862971Y-115707685D01*
X109906416Y-115755703D01*
X109966657Y-115873933D01*
X110105483Y-116065010D01*
X110272490Y-116232017D01*
X110463567Y-116370843D01*
X110562991Y-116421502D01*
X110674003Y-116478066D01*
X110674005Y-116478066D01*
X110674008Y-116478068D01*
X110794412Y-116517189D01*
X110898631Y-116551053D01*
X111131903Y-116588000D01*
X111131908Y-116588000D01*
X111368097Y-116588000D01*
X111601368Y-116551053D01*
X111825992Y-116478068D01*
X112036433Y-116370843D01*
X112227510Y-116232017D01*
X112394517Y-116065010D01*
X112533343Y-115873933D01*
X112640568Y-115663492D01*
X112713553Y-115438868D01*
X112733649Y-115311986D01*
X112750500Y-115205597D01*
X112750500Y-114969402D01*
X112713553Y-114736135D01*
X112713553Y-114736132D01*
X112672547Y-114609933D01*
X112670553Y-114540093D01*
X112702796Y-114483937D01*
X118049916Y-109136819D01*
X118111239Y-109103334D01*
X118137597Y-109100500D01*
X119413331Y-109100500D01*
X119413347Y-109100501D01*
X119420943Y-109100501D01*
X119579054Y-109100501D01*
X119579057Y-109100501D01*
X119731785Y-109059577D01*
X119781904Y-109030639D01*
X119868716Y-108980520D01*
X119980520Y-108868716D01*
X119980521Y-108868714D01*
X120480520Y-108368716D01*
X120559577Y-108231784D01*
X120600501Y-108079057D01*
X120600501Y-107920942D01*
X120600501Y-107913347D01*
X120600500Y-107913329D01*
X120600500Y-106003439D01*
X120620185Y-105936400D01*
X120672989Y-105890645D01*
X120742147Y-105880701D01*
X120805703Y-105909726D01*
X120827602Y-105934548D01*
X120878210Y-106010288D01*
X120878213Y-106010292D01*
X120989707Y-106121786D01*
X120989711Y-106121789D01*
X121120814Y-106209390D01*
X121120827Y-106209397D01*
X121266498Y-106269735D01*
X121266503Y-106269737D01*
X121414964Y-106299268D01*
X121421153Y-106300499D01*
X121421156Y-106300500D01*
X121421158Y-106300500D01*
X121578844Y-106300500D01*
X121578845Y-106300499D01*
X121733497Y-106269737D01*
X121879179Y-106209394D01*
X122010289Y-106121789D01*
X122121789Y-106010289D01*
X122172398Y-105934548D01*
X122182398Y-105919582D01*
X122236010Y-105874777D01*
X122305335Y-105866070D01*
X122368363Y-105896224D01*
G37*
%TD.AperFunction*%
%TA.AperFunction,Conductor*%
G36*
X126612415Y-107408444D02*
G01*
X126643314Y-107415746D01*
X126645699Y-107418217D01*
X126648993Y-107419185D01*
X126669774Y-107443167D01*
X126691830Y-107466025D01*
X126693374Y-107470404D01*
X126694748Y-107471989D01*
X126703571Y-107499309D01*
X126730261Y-107633489D01*
X126730264Y-107633501D01*
X126790602Y-107779172D01*
X126790609Y-107779185D01*
X126878601Y-107910873D01*
X126899479Y-107977550D01*
X126899499Y-107979764D01*
X126899499Y-108079054D01*
X126899498Y-108079054D01*
X126926859Y-108181166D01*
X126940423Y-108231785D01*
X126960468Y-108266503D01*
X126986840Y-108312181D01*
X127019479Y-108368715D01*
X127138349Y-108487585D01*
X127138355Y-108487590D01*
X128763181Y-110112416D01*
X128796666Y-110173739D01*
X128799500Y-110200097D01*
X128799500Y-110487500D01*
X128799501Y-110487519D01*
X128810000Y-110590296D01*
X128810001Y-110590299D01*
X128842377Y-110688001D01*
X128865186Y-110756834D01*
X128953501Y-110900017D01*
X128957289Y-110906157D01*
X129051304Y-111000172D01*
X129084789Y-111061495D01*
X129079805Y-111131187D01*
X129051305Y-111175534D01*
X128957682Y-111269157D01*
X128865643Y-111418375D01*
X128865641Y-111418380D01*
X128810494Y-111584802D01*
X128810493Y-111584809D01*
X128800000Y-111687513D01*
X128800000Y-111750000D01*
X132001000Y-111750000D01*
X132068039Y-111769685D01*
X132113794Y-111822489D01*
X132125000Y-111874000D01*
X132125000Y-112000000D01*
X132251000Y-112000000D01*
X132318039Y-112019685D01*
X132363794Y-112072489D01*
X132375000Y-112124000D01*
X132375000Y-113200000D01*
X132418303Y-113200000D01*
X132418315Y-113199999D01*
X132520173Y-113189592D01*
X132685209Y-113134905D01*
X132685214Y-113134903D01*
X132833191Y-113043629D01*
X132956128Y-112920692D01*
X132956659Y-112919832D01*
X132957180Y-112919363D01*
X132960612Y-112915023D01*
X132961353Y-112915608D01*
X133008601Y-112873102D01*
X133077563Y-112861872D01*
X133141648Y-112889708D01*
X133163913Y-112915398D01*
X133163993Y-112915336D01*
X133165390Y-112917103D01*
X133167738Y-112919812D01*
X133168468Y-112920995D01*
X133168474Y-112921003D01*
X133291496Y-113044025D01*
X133291500Y-113044028D01*
X133439566Y-113135357D01*
X133439569Y-113135358D01*
X133439575Y-113135362D01*
X133604725Y-113190087D01*
X133706652Y-113200500D01*
X133706657Y-113200500D01*
X134293343Y-113200500D01*
X134293348Y-113200500D01*
X134395275Y-113190087D01*
X134560425Y-113135362D01*
X134708503Y-113044026D01*
X134831526Y-112921003D01*
X134903830Y-112803779D01*
X134955776Y-112757058D01*
X135024739Y-112745835D01*
X135073696Y-112766352D01*
X135075197Y-112763920D01*
X135081342Y-112767710D01*
X135081344Y-112767712D01*
X135230666Y-112859814D01*
X135397203Y-112914999D01*
X135499991Y-112925500D01*
X136500008Y-112925499D01*
X136500016Y-112925498D01*
X136500019Y-112925498D01*
X136560076Y-112919363D01*
X136602797Y-112914999D01*
X136736497Y-112870694D01*
X136764960Y-112869715D01*
X136793147Y-112865663D01*
X136799425Y-112868530D01*
X136806324Y-112868293D01*
X136830798Y-112882858D01*
X136856703Y-112894688D01*
X136860434Y-112900494D01*
X136866366Y-112904024D01*
X136879081Y-112929509D01*
X136894477Y-112953466D01*
X136895871Y-112963161D01*
X136897559Y-112966545D01*
X136899500Y-112988401D01*
X136899500Y-113199901D01*
X136879815Y-113266940D01*
X136863181Y-113287582D01*
X136853563Y-113297200D01*
X136830120Y-113310000D01*
X136827011Y-113312695D01*
X136824533Y-113313051D01*
X136792240Y-113330685D01*
X136727564Y-113327450D01*
X136601370Y-113286447D01*
X136368097Y-113249500D01*
X136368092Y-113249500D01*
X136131908Y-113249500D01*
X136131903Y-113249500D01*
X135898631Y-113286446D01*
X135674003Y-113359433D01*
X135463566Y-113466657D01*
X135376329Y-113530039D01*
X135272490Y-113605483D01*
X135272488Y-113605485D01*
X135272487Y-113605485D01*
X135105485Y-113772487D01*
X135105485Y-113772488D01*
X135105483Y-113772490D01*
X135072403Y-113818021D01*
X134966657Y-113963566D01*
X134906417Y-114081795D01*
X134858442Y-114132591D01*
X134795932Y-114149500D01*
X131204068Y-114149500D01*
X131137029Y-114129815D01*
X131093583Y-114081795D01*
X131033343Y-113963567D01*
X130894517Y-113772490D01*
X130727510Y-113605483D01*
X130536433Y-113466657D01*
X130516395Y-113456447D01*
X130325996Y-113359433D01*
X130101368Y-113286446D01*
X129868097Y-113249500D01*
X129868092Y-113249500D01*
X129812362Y-113249500D01*
X129745323Y-113229815D01*
X129699568Y-113177011D01*
X129689624Y-113107853D01*
X129718649Y-113044297D01*
X129724680Y-113037819D01*
X129749999Y-113012499D01*
X130250000Y-113012499D01*
X130499972Y-113012499D01*
X130499986Y-113012498D01*
X130602697Y-113002005D01*
X130769119Y-112946858D01*
X130769124Y-112946856D01*
X130918342Y-112854817D01*
X131014584Y-112758575D01*
X131075907Y-112725090D01*
X131145599Y-112730074D01*
X131201533Y-112771945D01*
X131207804Y-112781159D01*
X131293866Y-112920686D01*
X131293869Y-112920690D01*
X131416808Y-113043629D01*
X131564785Y-113134903D01*
X131564790Y-113134905D01*
X131729826Y-113189592D01*
X131831684Y-113199999D01*
X131831697Y-113200000D01*
X131875000Y-113200000D01*
X131875000Y-112250000D01*
X130250000Y-112250000D01*
X130250000Y-113012499D01*
X129749999Y-113012499D01*
X129750000Y-113012498D01*
X129750000Y-112250000D01*
X128800001Y-112250000D01*
X128800001Y-112312486D01*
X128810494Y-112415197D01*
X128865641Y-112581619D01*
X128865643Y-112581624D01*
X128957684Y-112730845D01*
X129081654Y-112854815D01*
X129230875Y-112946856D01*
X129230880Y-112946858D01*
X129397302Y-113002005D01*
X129397309Y-113002006D01*
X129500019Y-113012499D01*
X129552694Y-113012499D01*
X129619734Y-113032182D01*
X129665489Y-113084986D01*
X129675434Y-113154144D01*
X129646410Y-113217700D01*
X129587633Y-113255476D01*
X129572095Y-113258972D01*
X129398630Y-113286447D01*
X129174003Y-113359433D01*
X128963566Y-113466657D01*
X128876329Y-113530039D01*
X128772490Y-113605483D01*
X128772488Y-113605485D01*
X128772487Y-113605485D01*
X128605485Y-113772487D01*
X128605485Y-113772488D01*
X128605483Y-113772490D01*
X128572403Y-113818021D01*
X128466657Y-113963566D01*
X128359433Y-114174003D01*
X128286446Y-114398631D01*
X128249500Y-114631902D01*
X128249500Y-114868097D01*
X128286446Y-115101368D01*
X128359433Y-115325996D01*
X128416945Y-115438868D01*
X128466657Y-115536433D01*
X128605483Y-115727510D01*
X128772490Y-115894517D01*
X128963567Y-116033343D01*
X129025717Y-116065010D01*
X129174003Y-116140566D01*
X129174005Y-116140566D01*
X129174008Y-116140568D01*
X129294412Y-116179689D01*
X129398631Y-116213553D01*
X129631903Y-116250500D01*
X129631908Y-116250500D01*
X129868097Y-116250500D01*
X130101368Y-116213553D01*
X130325992Y-116140568D01*
X130536433Y-116033343D01*
X130727510Y-115894517D01*
X130894517Y-115727510D01*
X131033343Y-115536433D01*
X131093583Y-115418204D01*
X131141558Y-115367409D01*
X131204068Y-115350500D01*
X134795932Y-115350500D01*
X134862971Y-115370185D01*
X134906416Y-115418203D01*
X134966657Y-115536433D01*
X135105483Y-115727510D01*
X135272490Y-115894517D01*
X135463567Y-116033343D01*
X135525717Y-116065010D01*
X135674003Y-116140566D01*
X135674005Y-116140566D01*
X135674008Y-116140568D01*
X135794412Y-116179689D01*
X135898631Y-116213553D01*
X136131903Y-116250500D01*
X136131908Y-116250500D01*
X136368097Y-116250500D01*
X136601368Y-116213553D01*
X136825992Y-116140568D01*
X137036433Y-116033343D01*
X137227510Y-115894517D01*
X137394517Y-115727510D01*
X137533343Y-115536433D01*
X137640568Y-115325992D01*
X137713553Y-115101368D01*
X137750500Y-114868097D01*
X137750500Y-114631902D01*
X137724431Y-114467315D01*
X137713553Y-114398632D01*
X137672547Y-114272433D01*
X137672113Y-114257221D01*
X137666795Y-114242962D01*
X137671136Y-114223006D01*
X137670553Y-114202593D01*
X137678641Y-114188506D01*
X137681647Y-114174689D01*
X137702795Y-114146438D01*
X137858506Y-113990728D01*
X137858511Y-113990724D01*
X137868714Y-113980520D01*
X137868716Y-113980520D01*
X137912319Y-113936917D01*
X137973642Y-113903432D01*
X138043334Y-113908416D01*
X138087681Y-113936917D01*
X138138349Y-113987585D01*
X138138355Y-113987590D01*
X138297200Y-114146435D01*
X138330685Y-114207758D01*
X138327450Y-114272433D01*
X138286447Y-114398628D01*
X138249500Y-114631902D01*
X138249500Y-114868097D01*
X138286446Y-115101368D01*
X138359433Y-115325996D01*
X138416945Y-115438868D01*
X138466657Y-115536433D01*
X138605483Y-115727510D01*
X138772490Y-115894517D01*
X138963567Y-116033343D01*
X139025717Y-116065010D01*
X139174003Y-116140566D01*
X139174005Y-116140566D01*
X139174008Y-116140568D01*
X139294412Y-116179689D01*
X139398631Y-116213553D01*
X139631903Y-116250500D01*
X139631908Y-116250500D01*
X139868097Y-116250500D01*
X140101368Y-116213553D01*
X140325992Y-116140568D01*
X140536433Y-116033343D01*
X140727510Y-115894517D01*
X140894517Y-115727510D01*
X141033343Y-115536433D01*
X141093583Y-115418204D01*
X141141558Y-115367409D01*
X141204068Y-115350500D01*
X144795932Y-115350500D01*
X144862971Y-115370185D01*
X144906416Y-115418203D01*
X144966657Y-115536433D01*
X145105483Y-115727510D01*
X145272490Y-115894517D01*
X145463567Y-116033343D01*
X145525717Y-116065010D01*
X145674003Y-116140566D01*
X145674005Y-116140566D01*
X145674008Y-116140568D01*
X145794412Y-116179689D01*
X145898631Y-116213553D01*
X146131903Y-116250500D01*
X146131908Y-116250500D01*
X146368097Y-116250500D01*
X146601368Y-116213553D01*
X146825992Y-116140568D01*
X147036433Y-116033343D01*
X147227510Y-115894517D01*
X147394517Y-115727510D01*
X147533343Y-115536433D01*
X147640568Y-115325992D01*
X147657569Y-115273665D01*
X147697007Y-115215992D01*
X147761366Y-115188794D01*
X147830212Y-115200709D01*
X147881688Y-115247953D01*
X147899500Y-115311986D01*
X147899500Y-116699902D01*
X147879815Y-116766941D01*
X147863181Y-116787583D01*
X146853563Y-117797200D01*
X146792240Y-117830685D01*
X146727564Y-117827450D01*
X146601370Y-117786447D01*
X146368097Y-117749500D01*
X146368092Y-117749500D01*
X146131908Y-117749500D01*
X146131903Y-117749500D01*
X145898631Y-117786446D01*
X145674003Y-117859433D01*
X145463566Y-117966657D01*
X145354550Y-118045862D01*
X145272490Y-118105483D01*
X145272488Y-118105485D01*
X145272487Y-118105485D01*
X145105485Y-118272487D01*
X145105485Y-118272488D01*
X145105483Y-118272490D01*
X145082476Y-118304157D01*
X144966657Y-118463566D01*
X144906417Y-118581795D01*
X144858442Y-118632591D01*
X144795932Y-118649500D01*
X141204068Y-118649500D01*
X141137029Y-118629815D01*
X141093583Y-118581795D01*
X141033342Y-118463566D01*
X141018389Y-118442985D01*
X140894517Y-118272490D01*
X140727510Y-118105483D01*
X140536433Y-117966657D01*
X140325996Y-117859433D01*
X140101368Y-117786446D01*
X139868097Y-117749500D01*
X139868092Y-117749500D01*
X139631908Y-117749500D01*
X139631903Y-117749500D01*
X139398631Y-117786446D01*
X139174003Y-117859433D01*
X138963566Y-117966657D01*
X138854550Y-118045862D01*
X138772490Y-118105483D01*
X138772488Y-118105485D01*
X138772487Y-118105485D01*
X138605485Y-118272487D01*
X138605485Y-118272488D01*
X138605483Y-118272490D01*
X138582476Y-118304157D01*
X138466657Y-118463566D01*
X138406417Y-118581795D01*
X138358442Y-118632591D01*
X138295932Y-118649500D01*
X137704068Y-118649500D01*
X137637029Y-118629815D01*
X137593583Y-118581795D01*
X137533342Y-118463566D01*
X137518389Y-118442985D01*
X137394517Y-118272490D01*
X137227510Y-118105483D01*
X137036433Y-117966657D01*
X136825996Y-117859433D01*
X136601368Y-117786446D01*
X136368097Y-117749500D01*
X136368092Y-117749500D01*
X136131908Y-117749500D01*
X136131903Y-117749500D01*
X135898631Y-117786446D01*
X135674003Y-117859433D01*
X135463566Y-117966657D01*
X135354550Y-118045862D01*
X135272490Y-118105483D01*
X135272488Y-118105485D01*
X135272487Y-118105485D01*
X135105485Y-118272487D01*
X135105485Y-118272488D01*
X135105483Y-118272490D01*
X135082476Y-118304157D01*
X134966657Y-118463566D01*
X134906417Y-118581795D01*
X134858442Y-118632591D01*
X134795932Y-118649500D01*
X131204068Y-118649500D01*
X131137029Y-118629815D01*
X131093583Y-118581795D01*
X131033342Y-118463566D01*
X131018389Y-118442985D01*
X130894517Y-118272490D01*
X130727510Y-118105483D01*
X130536433Y-117966657D01*
X130325996Y-117859433D01*
X130101368Y-117786446D01*
X129868097Y-117749500D01*
X129868092Y-117749500D01*
X129631908Y-117749500D01*
X129631903Y-117749500D01*
X129398628Y-117786447D01*
X129272433Y-117827450D01*
X129202592Y-117829445D01*
X129146435Y-117797200D01*
X123626819Y-112277583D01*
X123593334Y-112216260D01*
X123590500Y-112189902D01*
X123590500Y-109378477D01*
X123610185Y-109311438D01*
X123662989Y-109265683D01*
X123732147Y-109255739D01*
X123761954Y-109263917D01*
X123775999Y-109269735D01*
X123776001Y-109269735D01*
X123776005Y-109269737D01*
X123930655Y-109300499D01*
X123930658Y-109300500D01*
X123930660Y-109300500D01*
X124088346Y-109300500D01*
X124088347Y-109300499D01*
X124242999Y-109269737D01*
X124388681Y-109209394D01*
X124519791Y-109121789D01*
X124631291Y-109010289D01*
X124718896Y-108879179D01*
X124779239Y-108733497D01*
X124810002Y-108578842D01*
X124810002Y-108421158D01*
X124810002Y-108421155D01*
X124810001Y-108421153D01*
X124799571Y-108368717D01*
X124779239Y-108266503D01*
X124772759Y-108250858D01*
X124718899Y-108120827D01*
X124718892Y-108120814D01*
X124631293Y-107989713D01*
X124628144Y-107985876D01*
X124600835Y-107921564D01*
X124600002Y-107907216D01*
X124600002Y-107523501D01*
X124619687Y-107456462D01*
X124672491Y-107410707D01*
X124724002Y-107399501D01*
X124885654Y-107399501D01*
X124885670Y-107399500D01*
X126581954Y-107399500D01*
X126612415Y-107408444D01*
G37*
%TD.AperFunction*%
%TA.AperFunction,Conductor*%
G36*
X104761006Y-83020185D02*
G01*
X104806761Y-83072989D01*
X104816705Y-83142147D01*
X104811675Y-83163499D01*
X104810407Y-83167326D01*
X104800000Y-83269184D01*
X104800000Y-83312500D01*
X107200000Y-83312500D01*
X107200000Y-83269197D01*
X107199999Y-83269184D01*
X107189592Y-83167326D01*
X107188325Y-83163499D01*
X107188239Y-83161001D01*
X107188176Y-83160706D01*
X107188228Y-83160694D01*
X107185927Y-83093670D01*
X107221661Y-83033630D01*
X107284183Y-83002440D01*
X107306033Y-83000500D01*
X107693967Y-83000500D01*
X107761006Y-83020185D01*
X107806761Y-83072989D01*
X107816705Y-83142147D01*
X107811675Y-83163499D01*
X107810407Y-83167326D01*
X107800000Y-83269184D01*
X107800000Y-83312500D01*
X110200000Y-83312500D01*
X110200000Y-83269197D01*
X110199999Y-83269184D01*
X110189592Y-83167326D01*
X110188325Y-83163499D01*
X110188239Y-83161001D01*
X110188176Y-83160706D01*
X110188228Y-83160694D01*
X110185927Y-83093670D01*
X110221661Y-83033630D01*
X110284183Y-83002440D01*
X110306033Y-83000500D01*
X110693967Y-83000500D01*
X110761006Y-83020185D01*
X110806761Y-83072989D01*
X110816705Y-83142147D01*
X110811675Y-83163499D01*
X110810407Y-83167326D01*
X110800000Y-83269184D01*
X110800000Y-83312500D01*
X113200000Y-83312500D01*
X113200000Y-83269197D01*
X113199999Y-83269184D01*
X113189592Y-83167326D01*
X113188325Y-83163499D01*
X113188239Y-83161001D01*
X113188176Y-83160706D01*
X113188228Y-83160694D01*
X113185927Y-83093670D01*
X113221661Y-83033630D01*
X113284183Y-83002440D01*
X113306033Y-83000500D01*
X113693967Y-83000500D01*
X113761006Y-83020185D01*
X113806761Y-83072989D01*
X113816705Y-83142147D01*
X113811675Y-83163499D01*
X113810407Y-83167326D01*
X113800000Y-83269184D01*
X113800000Y-83312500D01*
X116200000Y-83312500D01*
X116200000Y-83269197D01*
X116199999Y-83269184D01*
X116189592Y-83167326D01*
X116188325Y-83163499D01*
X116188239Y-83161001D01*
X116188176Y-83160706D01*
X116188228Y-83160694D01*
X116185927Y-83093670D01*
X116221661Y-83033630D01*
X116284183Y-83002440D01*
X116306033Y-83000500D01*
X116683751Y-83000500D01*
X116750790Y-83020185D01*
X116796545Y-83072989D01*
X116807109Y-83137102D01*
X116800000Y-83206682D01*
X116800000Y-83250000D01*
X119200000Y-83250000D01*
X119200000Y-83206697D01*
X119199999Y-83206682D01*
X119192891Y-83137102D01*
X119205660Y-83068409D01*
X119253541Y-83017525D01*
X119316249Y-83000500D01*
X119683751Y-83000500D01*
X119750790Y-83020185D01*
X119796545Y-83072989D01*
X119807109Y-83137102D01*
X119800000Y-83206682D01*
X119800000Y-83250000D01*
X122200000Y-83250000D01*
X122200000Y-83206697D01*
X122199999Y-83206682D01*
X122192891Y-83137102D01*
X122205660Y-83068409D01*
X122253541Y-83017525D01*
X122316249Y-83000500D01*
X122693967Y-83000500D01*
X122761006Y-83020185D01*
X122806761Y-83072989D01*
X122816705Y-83142147D01*
X122811675Y-83163499D01*
X122810407Y-83167326D01*
X122800000Y-83269184D01*
X122800000Y-83312500D01*
X125200000Y-83312500D01*
X125200000Y-83269197D01*
X125199999Y-83269184D01*
X125189592Y-83167326D01*
X125188325Y-83163499D01*
X125188239Y-83161001D01*
X125188176Y-83160706D01*
X125188228Y-83160694D01*
X125185927Y-83093670D01*
X125221661Y-83033630D01*
X125284183Y-83002440D01*
X125306033Y-83000500D01*
X125683751Y-83000500D01*
X125750790Y-83020185D01*
X125796545Y-83072989D01*
X125807109Y-83137102D01*
X125800000Y-83206682D01*
X125800000Y-83250000D01*
X128200000Y-83250000D01*
X128200000Y-83206697D01*
X128199999Y-83206682D01*
X128192891Y-83137102D01*
X128205660Y-83068409D01*
X128253541Y-83017525D01*
X128316249Y-83000500D01*
X129183751Y-83000500D01*
X129250790Y-83020185D01*
X129296545Y-83072989D01*
X129307109Y-83137102D01*
X129300000Y-83206682D01*
X129300000Y-83250000D01*
X131700000Y-83250000D01*
X131700000Y-83206697D01*
X131699999Y-83206682D01*
X131692891Y-83137102D01*
X131705660Y-83068409D01*
X131753541Y-83017525D01*
X131816249Y-83000500D01*
X132683751Y-83000500D01*
X132750790Y-83020185D01*
X132796545Y-83072989D01*
X132807109Y-83137102D01*
X132800000Y-83206682D01*
X132800000Y-83250000D01*
X135200000Y-83250000D01*
X135200000Y-83206697D01*
X135199999Y-83206682D01*
X135192891Y-83137102D01*
X135205660Y-83068409D01*
X135253541Y-83017525D01*
X135316249Y-83000500D01*
X147434108Y-83000500D01*
X147495572Y-83000500D01*
X147504418Y-83000816D01*
X147704561Y-83015130D01*
X147722063Y-83017647D01*
X147913797Y-83059355D01*
X147930755Y-83064334D01*
X148114609Y-83132909D01*
X148130701Y-83140259D01*
X148302904Y-83234288D01*
X148317784Y-83243849D01*
X148351644Y-83269197D01*
X148474867Y-83361441D01*
X148488237Y-83373027D01*
X148626972Y-83511762D01*
X148638558Y-83525132D01*
X148756146Y-83682210D01*
X148765711Y-83697095D01*
X148859740Y-83869298D01*
X148867090Y-83885390D01*
X148935662Y-84069236D01*
X148940646Y-84086212D01*
X148982351Y-84277931D01*
X148984869Y-84295442D01*
X148999184Y-84495580D01*
X148999500Y-84504427D01*
X148999500Y-103850904D01*
X148979815Y-103917943D01*
X148927011Y-103963698D01*
X148857853Y-103973642D01*
X148794297Y-103944617D01*
X148787819Y-103938585D01*
X148248878Y-103399644D01*
X148215393Y-103338321D01*
X148220377Y-103268629D01*
X148248878Y-103224281D01*
X148304817Y-103168342D01*
X148396856Y-103019124D01*
X148396858Y-103019119D01*
X148452005Y-102852697D01*
X148452006Y-102852690D01*
X148462499Y-102749986D01*
X148462500Y-102749973D01*
X148462500Y-102300000D01*
X146312501Y-102300000D01*
X146312501Y-102749981D01*
X146313821Y-102762896D01*
X146311018Y-102777970D01*
X146313201Y-102793147D01*
X146304763Y-102811622D01*
X146301052Y-102831589D01*
X146290546Y-102842754D01*
X146284176Y-102856703D01*
X146267089Y-102867683D01*
X146253173Y-102882474D01*
X146237419Y-102886750D01*
X146225398Y-102894477D01*
X146190463Y-102899500D01*
X146187598Y-102899500D01*
X146120559Y-102879815D01*
X146099917Y-102863181D01*
X145549318Y-102312582D01*
X145515833Y-102251259D01*
X145512999Y-102224901D01*
X145512999Y-101350013D01*
X146312500Y-101350013D01*
X146312500Y-101800000D01*
X147137500Y-101800000D01*
X147137500Y-101077272D01*
X147637500Y-101077272D01*
X147637500Y-101800000D01*
X148462499Y-101800000D01*
X148462499Y-101350028D01*
X148462498Y-101350013D01*
X148452005Y-101247302D01*
X148396858Y-101080880D01*
X148396856Y-101080875D01*
X148304815Y-100931654D01*
X148273342Y-100900181D01*
X148239857Y-100838858D01*
X148244841Y-100769166D01*
X148273342Y-100724819D01*
X148329815Y-100668345D01*
X148421856Y-100519124D01*
X148421858Y-100519119D01*
X148477005Y-100352697D01*
X148477006Y-100352690D01*
X148487499Y-100249986D01*
X148487500Y-100249973D01*
X148487500Y-99800000D01*
X147662500Y-99800000D01*
X147662500Y-101003638D01*
X147653855Y-101033078D01*
X147647332Y-101063065D01*
X147643577Y-101068080D01*
X147642815Y-101070677D01*
X147637500Y-101077272D01*
X147137500Y-101077272D01*
X147137500Y-100596362D01*
X147157185Y-100529323D01*
X147162500Y-100522727D01*
X147162500Y-99800000D01*
X146337501Y-99800000D01*
X146337501Y-100249986D01*
X146347994Y-100352697D01*
X146403141Y-100519119D01*
X146403143Y-100519124D01*
X146495184Y-100668345D01*
X146526657Y-100699818D01*
X146560142Y-100761141D01*
X146555158Y-100830833D01*
X146526659Y-100875179D01*
X146470182Y-100931656D01*
X146378143Y-101080875D01*
X146378141Y-101080880D01*
X146322994Y-101247302D01*
X146322993Y-101247309D01*
X146312500Y-101350013D01*
X145512999Y-101350013D01*
X145512999Y-101349998D01*
X145512998Y-101349981D01*
X145502499Y-101247203D01*
X145502498Y-101247200D01*
X145489655Y-101208442D01*
X145447314Y-101080666D01*
X145355212Y-100931344D01*
X145324049Y-100900181D01*
X145290564Y-100838858D01*
X145295548Y-100769166D01*
X145324049Y-100724819D01*
X145350614Y-100698254D01*
X145380212Y-100668656D01*
X145472314Y-100519334D01*
X145527499Y-100352797D01*
X145538000Y-100250009D01*
X145537999Y-98850013D01*
X146337500Y-98850013D01*
X146337500Y-99300000D01*
X147162500Y-99300000D01*
X147662500Y-99300000D01*
X148487499Y-99300000D01*
X148487499Y-98850028D01*
X148487498Y-98850013D01*
X148477005Y-98747302D01*
X148421858Y-98580880D01*
X148421856Y-98580875D01*
X148329815Y-98431654D01*
X148285842Y-98387681D01*
X148252357Y-98326358D01*
X148257341Y-98256666D01*
X148285842Y-98212319D01*
X148329815Y-98168345D01*
X148421856Y-98019124D01*
X148421858Y-98019119D01*
X148477005Y-97852697D01*
X148477006Y-97852690D01*
X148487499Y-97749986D01*
X148487500Y-97749973D01*
X148487500Y-97300000D01*
X147662500Y-97300000D01*
X147662500Y-99300000D01*
X147162500Y-99300000D01*
X147162500Y-97300000D01*
X146337501Y-97300000D01*
X146337501Y-97749986D01*
X146347994Y-97852697D01*
X146403141Y-98019119D01*
X146403143Y-98019124D01*
X146495184Y-98168345D01*
X146539158Y-98212319D01*
X146572643Y-98273642D01*
X146567659Y-98343334D01*
X146539158Y-98387681D01*
X146495184Y-98431654D01*
X146403143Y-98580875D01*
X146403141Y-98580880D01*
X146347994Y-98747302D01*
X146347993Y-98747309D01*
X146337500Y-98850013D01*
X145537999Y-98850013D01*
X145537999Y-98849992D01*
X145532341Y-98794608D01*
X145527499Y-98747203D01*
X145527498Y-98747200D01*
X145520577Y-98726314D01*
X145472314Y-98580666D01*
X145380212Y-98431344D01*
X145336548Y-98387680D01*
X145303064Y-98326358D01*
X145308048Y-98256666D01*
X145336549Y-98212319D01*
X145380212Y-98168656D01*
X145472314Y-98019334D01*
X145527499Y-97852797D01*
X145538000Y-97750009D01*
X145537999Y-96349992D01*
X145527499Y-96247203D01*
X145527498Y-96247202D01*
X145526811Y-96240468D01*
X145528814Y-96240263D01*
X145533301Y-96180287D01*
X145575355Y-96124491D01*
X145640899Y-96100288D01*
X145649341Y-96100000D01*
X145687500Y-96100000D01*
X145687500Y-95400000D01*
X146187500Y-95400000D01*
X146187500Y-96100000D01*
X146226173Y-96100000D01*
X146293212Y-96119685D01*
X146338967Y-96172489D01*
X146348911Y-96241647D01*
X146348119Y-96246078D01*
X146337500Y-96350013D01*
X146337500Y-96800000D01*
X148487499Y-96800000D01*
X148487499Y-96350028D01*
X148487498Y-96350013D01*
X148477005Y-96247302D01*
X148421858Y-96080880D01*
X148421856Y-96080875D01*
X148329815Y-95931654D01*
X148205845Y-95807684D01*
X148056624Y-95715643D01*
X148056619Y-95715641D01*
X147890197Y-95660494D01*
X147890190Y-95660493D01*
X147787486Y-95650000D01*
X147661063Y-95650000D01*
X147594024Y-95630315D01*
X147548269Y-95577511D01*
X147538325Y-95508353D01*
X147546502Y-95478547D01*
X147597148Y-95356276D01*
X147597149Y-95356274D01*
X147608343Y-95300000D01*
X146832475Y-95300000D01*
X146867570Y-95264905D01*
X146913648Y-95185095D01*
X146937500Y-95096078D01*
X146937500Y-95003922D01*
X146913648Y-94914905D01*
X146867570Y-94835095D01*
X146832475Y-94800000D01*
X147608343Y-94800000D01*
X147597149Y-94743725D01*
X147597148Y-94743723D01*
X147517999Y-94552641D01*
X147517994Y-94552631D01*
X147403089Y-94380664D01*
X147403086Y-94380660D01*
X147284606Y-94262180D01*
X147251121Y-94200857D01*
X147256105Y-94131165D01*
X147297977Y-94075232D01*
X147363441Y-94050815D01*
X147372286Y-94050499D01*
X147410372Y-94050499D01*
X147469983Y-94044091D01*
X147604831Y-93993796D01*
X147720046Y-93907546D01*
X147806296Y-93792331D01*
X147856591Y-93657483D01*
X147863000Y-93597873D01*
X147862999Y-92402128D01*
X147856591Y-92342517D01*
X147840431Y-92299191D01*
X147806297Y-92207671D01*
X147806296Y-92207669D01*
X147760471Y-92146455D01*
X147720046Y-92092454D01*
X147720045Y-92092453D01*
X147716197Y-92087313D01*
X147691780Y-92021849D01*
X147706631Y-91953576D01*
X147712355Y-91944120D01*
X147743441Y-91897598D01*
X147822630Y-91706420D01*
X147863000Y-91503465D01*
X147863000Y-91296535D01*
X147822630Y-91093580D01*
X147743441Y-90902402D01*
X147628477Y-90730345D01*
X147628475Y-90730342D01*
X147482157Y-90584024D01*
X147351219Y-90496535D01*
X147310098Y-90469059D01*
X147272255Y-90453384D01*
X147118920Y-90389870D01*
X147118912Y-90389868D01*
X147068301Y-90379801D01*
X147006390Y-90347417D01*
X147004811Y-90345865D01*
X146808946Y-90150000D01*
X146858578Y-90150000D01*
X146947595Y-90126148D01*
X147027405Y-90080070D01*
X147092570Y-90014905D01*
X147138648Y-89935095D01*
X147162500Y-89846078D01*
X147162500Y-89799999D01*
X147166054Y-89799999D01*
X147166054Y-89800000D01*
X147711120Y-90345067D01*
X147711121Y-90345066D01*
X147742995Y-90297366D01*
X147822149Y-90106274D01*
X147822151Y-90106266D01*
X147862499Y-89903420D01*
X147862500Y-89903417D01*
X147862500Y-89696583D01*
X147862499Y-89696579D01*
X147822151Y-89493733D01*
X147822149Y-89493725D01*
X147742998Y-89302639D01*
X147742995Y-89302633D01*
X147711121Y-89254932D01*
X147711120Y-89254931D01*
X147166054Y-89799999D01*
X147162500Y-89799999D01*
X147162500Y-89753922D01*
X147138648Y-89664905D01*
X147092570Y-89585095D01*
X147027405Y-89519930D01*
X146947595Y-89473852D01*
X146858578Y-89450000D01*
X146766422Y-89450000D01*
X146677405Y-89473852D01*
X146597595Y-89519930D01*
X146532430Y-89585095D01*
X146486352Y-89664905D01*
X146462500Y-89753922D01*
X146462500Y-89803554D01*
X145913878Y-89254932D01*
X145913877Y-89254932D01*
X145882005Y-89302631D01*
X145882000Y-89302641D01*
X145802850Y-89493725D01*
X145802848Y-89493733D01*
X145779791Y-89609648D01*
X145747406Y-89671559D01*
X145686690Y-89706133D01*
X145616921Y-89702394D01*
X145589285Y-89688560D01*
X145560099Y-89669059D01*
X145368920Y-89589870D01*
X145368912Y-89589868D01*
X145165969Y-89549500D01*
X145165965Y-89549500D01*
X144959035Y-89549500D01*
X144959030Y-89549500D01*
X144756087Y-89589868D01*
X144756079Y-89589870D01*
X144564903Y-89669058D01*
X144392842Y-89784024D01*
X144246524Y-89930342D01*
X144131558Y-90102403D01*
X144052370Y-90293579D01*
X144052368Y-90293587D01*
X144012000Y-90496530D01*
X144012000Y-90703469D01*
X144052368Y-90906412D01*
X144052370Y-90906420D01*
X144129897Y-91093587D01*
X144131559Y-91097598D01*
X144161529Y-91142452D01*
X144246524Y-91269657D01*
X144289186Y-91312319D01*
X144322671Y-91373642D01*
X144317687Y-91443334D01*
X144289186Y-91487681D01*
X144246525Y-91530341D01*
X144246524Y-91530342D01*
X144131558Y-91702403D01*
X144052370Y-91893579D01*
X144052368Y-91893587D01*
X144012000Y-92096530D01*
X144012000Y-92303469D01*
X144052368Y-92506412D01*
X144052370Y-92506420D01*
X144105542Y-92634789D01*
X144131559Y-92697598D01*
X144159866Y-92739962D01*
X144246524Y-92869657D01*
X144392842Y-93015975D01*
X144564905Y-93130943D01*
X144715126Y-93193166D01*
X144769530Y-93237007D01*
X144791595Y-93303301D01*
X144774316Y-93371000D01*
X144755355Y-93395408D01*
X143232107Y-94918656D01*
X143170784Y-94952141D01*
X143101092Y-94947157D01*
X143079329Y-94936513D01*
X142999795Y-94887455D01*
X142999789Y-94887452D01*
X142999787Y-94887451D01*
X142840185Y-94834564D01*
X142840183Y-94834563D01*
X142741681Y-94824500D01*
X142741674Y-94824500D01*
X142133326Y-94824500D01*
X142133318Y-94824500D01*
X142034816Y-94834563D01*
X142034815Y-94834564D01*
X141955719Y-94860773D01*
X141875215Y-94887450D01*
X141875204Y-94887455D01*
X141732112Y-94975716D01*
X141732108Y-94975719D01*
X141613219Y-95094608D01*
X141613216Y-95094612D01*
X141524955Y-95237704D01*
X141524951Y-95237713D01*
X141472064Y-95397315D01*
X141472064Y-95397316D01*
X141472063Y-95397316D01*
X141462000Y-95495818D01*
X141462000Y-95722265D01*
X141442315Y-95789304D01*
X141389511Y-95835059D01*
X141320353Y-95845003D01*
X141274880Y-95828998D01*
X141256447Y-95818097D01*
X141222898Y-95798256D01*
X141222894Y-95798255D01*
X141222893Y-95798254D01*
X141065073Y-95752402D01*
X141065067Y-95752401D01*
X141028201Y-95749500D01*
X141028194Y-95749500D01*
X139862000Y-95749500D01*
X139794961Y-95729815D01*
X139749206Y-95677011D01*
X139738000Y-95625500D01*
X139738000Y-95384313D01*
X139737999Y-95384298D01*
X139735098Y-95347432D01*
X139735097Y-95347426D01*
X139689245Y-95189606D01*
X139689244Y-95189603D01*
X139689244Y-95189602D01*
X139605581Y-95048135D01*
X139605579Y-95048133D01*
X139605576Y-95048129D01*
X139574319Y-95016872D01*
X139559615Y-94989944D01*
X139543023Y-94964126D01*
X139542131Y-94957925D01*
X139540834Y-94955549D01*
X139538000Y-94929191D01*
X139538000Y-94742507D01*
X139557685Y-94675468D01*
X139596903Y-94636968D01*
X139668656Y-94592712D01*
X139762675Y-94498692D01*
X139823994Y-94465210D01*
X139893686Y-94470194D01*
X139938034Y-94498695D01*
X140031654Y-94592315D01*
X140180875Y-94684356D01*
X140180880Y-94684358D01*
X140347302Y-94739505D01*
X140347309Y-94739506D01*
X140450019Y-94749999D01*
X141012500Y-94749999D01*
X141074972Y-94749999D01*
X141074986Y-94749998D01*
X141177697Y-94739505D01*
X141344119Y-94684358D01*
X141344124Y-94684356D01*
X141493345Y-94592315D01*
X141617315Y-94468345D01*
X141709356Y-94319124D01*
X141709358Y-94319119D01*
X141764505Y-94152697D01*
X141764506Y-94152690D01*
X141774999Y-94049986D01*
X141775000Y-94049973D01*
X141775000Y-93800000D01*
X141012500Y-93800000D01*
X141012500Y-94749999D01*
X140450019Y-94749999D01*
X140512499Y-94749998D01*
X140512500Y-94749998D01*
X140512500Y-93300000D01*
X141012500Y-93300000D01*
X141774999Y-93300000D01*
X141774999Y-93050028D01*
X141774998Y-93050013D01*
X141764505Y-92947302D01*
X141709358Y-92780880D01*
X141709356Y-92780875D01*
X141617315Y-92631654D01*
X141493345Y-92507684D01*
X141344124Y-92415643D01*
X141344119Y-92415641D01*
X141177697Y-92360494D01*
X141177690Y-92360493D01*
X141074986Y-92350000D01*
X141012500Y-92350000D01*
X141012500Y-93300000D01*
X140512500Y-93300000D01*
X140512500Y-92350000D01*
X140512499Y-92349999D01*
X140450028Y-92350000D01*
X140450011Y-92350001D01*
X140347302Y-92360494D01*
X140180880Y-92415641D01*
X140180875Y-92415643D01*
X140031657Y-92507682D01*
X139938034Y-92601305D01*
X139876710Y-92634789D01*
X139807019Y-92629805D01*
X139762672Y-92601304D01*
X139668657Y-92507289D01*
X139668656Y-92507288D01*
X139560539Y-92440601D01*
X139519336Y-92415187D01*
X139519331Y-92415185D01*
X139517862Y-92414698D01*
X139352797Y-92360001D01*
X139352795Y-92360000D01*
X139250010Y-92349500D01*
X138624998Y-92349500D01*
X138624980Y-92349501D01*
X138522203Y-92360000D01*
X138522200Y-92360001D01*
X138355668Y-92415185D01*
X138355663Y-92415187D01*
X138206342Y-92507289D01*
X138082289Y-92631342D01*
X137990187Y-92780663D01*
X137990185Y-92780668D01*
X137990115Y-92780880D01*
X137935001Y-92947203D01*
X137935001Y-92947204D01*
X137935000Y-92947204D01*
X137924500Y-93049983D01*
X137924500Y-94050001D01*
X137924501Y-94050019D01*
X137935000Y-94152796D01*
X137935001Y-94152799D01*
X137971247Y-94262180D01*
X137990186Y-94319334D01*
X138082096Y-94468345D01*
X138082289Y-94468657D01*
X138201451Y-94587819D01*
X138234936Y-94649142D01*
X138229952Y-94718834D01*
X138188080Y-94774767D01*
X138122616Y-94799184D01*
X138113770Y-94799500D01*
X137846798Y-94799500D01*
X137809932Y-94802401D01*
X137809926Y-94802402D01*
X137652106Y-94848254D01*
X137652103Y-94848255D01*
X137510637Y-94931917D01*
X137510629Y-94931923D01*
X137394423Y-95048129D01*
X137394417Y-95048137D01*
X137310755Y-95189603D01*
X137310754Y-95189606D01*
X137264902Y-95347426D01*
X137264901Y-95347432D01*
X137262000Y-95384298D01*
X137262000Y-95815701D01*
X137264901Y-95852567D01*
X137264902Y-95852573D01*
X137310754Y-96010393D01*
X137310755Y-96010396D01*
X137310756Y-96010398D01*
X137314108Y-96016066D01*
X137394417Y-96151862D01*
X137394423Y-96151870D01*
X137510629Y-96268076D01*
X137510633Y-96268079D01*
X137510635Y-96268081D01*
X137652102Y-96351744D01*
X137693724Y-96363836D01*
X137809926Y-96397597D01*
X137809929Y-96397597D01*
X137809931Y-96397598D01*
X137846806Y-96400500D01*
X138399903Y-96400500D01*
X138429343Y-96409144D01*
X138459330Y-96415668D01*
X138464345Y-96419422D01*
X138466942Y-96420185D01*
X138487584Y-96436819D01*
X138538584Y-96487819D01*
X138572069Y-96549142D01*
X138567085Y-96618834D01*
X138525213Y-96674767D01*
X138459749Y-96699184D01*
X138450903Y-96699500D01*
X137846798Y-96699500D01*
X137809932Y-96702401D01*
X137809926Y-96702402D01*
X137652106Y-96748254D01*
X137652103Y-96748255D01*
X137510637Y-96831917D01*
X137510629Y-96831923D01*
X137394423Y-96948129D01*
X137394417Y-96948137D01*
X137310755Y-97089603D01*
X137310754Y-97089606D01*
X137264902Y-97247426D01*
X137264901Y-97247432D01*
X137262000Y-97284298D01*
X137262000Y-97715701D01*
X137264901Y-97752567D01*
X137264902Y-97752570D01*
X137281861Y-97810941D01*
X137281662Y-97880811D01*
X137270172Y-97907537D01*
X137227924Y-97980711D01*
X137227923Y-97980715D01*
X137186999Y-98133443D01*
X137186999Y-98133445D01*
X137186999Y-98301546D01*
X137187000Y-98301559D01*
X137187000Y-98564944D01*
X137167315Y-98631983D01*
X137144566Y-98658341D01*
X137136831Y-98665095D01*
X137119609Y-98675719D01*
X137084730Y-98710597D01*
X137081565Y-98713362D01*
X137053490Y-98726314D01*
X137026355Y-98741132D01*
X137022044Y-98740823D01*
X137018123Y-98742633D01*
X136987505Y-98738352D01*
X136956664Y-98736146D01*
X136952477Y-98733455D01*
X136948926Y-98732959D01*
X136940697Y-98725884D01*
X136912318Y-98707646D01*
X136880391Y-98675719D01*
X136880387Y-98675716D01*
X136737295Y-98587455D01*
X136737289Y-98587452D01*
X136737287Y-98587451D01*
X136577685Y-98534564D01*
X136577683Y-98534563D01*
X136479181Y-98524500D01*
X136479174Y-98524500D01*
X135945826Y-98524500D01*
X135945818Y-98524500D01*
X135847316Y-98534563D01*
X135847315Y-98534564D01*
X135804550Y-98548735D01*
X135687715Y-98587450D01*
X135687704Y-98587455D01*
X135544612Y-98675716D01*
X135544608Y-98675719D01*
X135425719Y-98794608D01*
X135425716Y-98794612D01*
X135337455Y-98937704D01*
X135337450Y-98937715D01*
X135335813Y-98942656D01*
X135284564Y-99097315D01*
X135284564Y-99097316D01*
X135284563Y-99097316D01*
X135274500Y-99195818D01*
X135274500Y-99804181D01*
X135284563Y-99902683D01*
X135337450Y-100062284D01*
X135337455Y-100062295D01*
X135425716Y-100205387D01*
X135425719Y-100205391D01*
X135544608Y-100324280D01*
X135544612Y-100324283D01*
X135553097Y-100329517D01*
X135599822Y-100381465D01*
X135612000Y-100435055D01*
X135612000Y-100987402D01*
X135592315Y-101054441D01*
X135575681Y-101075083D01*
X135237582Y-101413181D01*
X135176259Y-101446666D01*
X135149901Y-101449500D01*
X133402129Y-101449500D01*
X133402123Y-101449501D01*
X133342516Y-101455908D01*
X133207671Y-101506202D01*
X133207664Y-101506206D01*
X133092455Y-101592452D01*
X133092452Y-101592455D01*
X133006206Y-101707664D01*
X133006202Y-101707671D01*
X132955908Y-101842517D01*
X132949501Y-101902116D01*
X132949500Y-101902135D01*
X132949500Y-104097870D01*
X132949501Y-104097876D01*
X132955908Y-104157483D01*
X133006202Y-104292328D01*
X133006206Y-104292335D01*
X133092452Y-104407544D01*
X133092455Y-104407547D01*
X133207664Y-104493793D01*
X133207671Y-104493797D01*
X133342517Y-104544091D01*
X133342516Y-104544091D01*
X133349444Y-104544835D01*
X133402127Y-104550500D01*
X135597872Y-104550499D01*
X135657483Y-104544091D01*
X135792331Y-104493796D01*
X135907546Y-104407546D01*
X135993796Y-104292331D01*
X136044091Y-104157483D01*
X136050500Y-104097873D01*
X136050499Y-102350097D01*
X136070184Y-102283059D01*
X136086818Y-102262417D01*
X136353533Y-101995702D01*
X136693020Y-101656216D01*
X136772077Y-101519284D01*
X136813001Y-101366557D01*
X136813001Y-101208442D01*
X136813001Y-101200847D01*
X136813000Y-101200829D01*
X136813000Y-100435055D01*
X136832685Y-100368016D01*
X136855433Y-100341659D01*
X136863165Y-100334905D01*
X136880391Y-100324281D01*
X136915282Y-100289389D01*
X136918433Y-100286638D01*
X136946508Y-100273683D01*
X136973642Y-100258868D01*
X136977951Y-100259176D01*
X136981875Y-100257366D01*
X137012491Y-100261646D01*
X137043334Y-100263852D01*
X137047522Y-100266543D01*
X137051072Y-100267040D01*
X137059296Y-100274110D01*
X137087681Y-100292353D01*
X137119608Y-100324280D01*
X137119612Y-100324283D01*
X137262704Y-100412544D01*
X137262707Y-100412545D01*
X137262713Y-100412549D01*
X137422315Y-100465436D01*
X137520826Y-100475500D01*
X137520831Y-100475500D01*
X138054169Y-100475500D01*
X138054174Y-100475500D01*
X138152685Y-100465436D01*
X138312287Y-100412549D01*
X138455391Y-100324281D01*
X138574281Y-100205391D01*
X138662549Y-100062287D01*
X138715436Y-99902685D01*
X138725500Y-99804174D01*
X138725500Y-99195826D01*
X138715436Y-99097315D01*
X138662549Y-98937713D01*
X138662545Y-98937707D01*
X138662544Y-98937704D01*
X138574283Y-98794612D01*
X138574282Y-98794611D01*
X138574281Y-98794609D01*
X138455391Y-98675719D01*
X138455390Y-98675718D01*
X138455388Y-98675716D01*
X138446901Y-98670481D01*
X138440078Y-98662895D01*
X138430797Y-98658657D01*
X138417108Y-98637356D01*
X138400177Y-98618532D01*
X138397533Y-98606896D01*
X138393023Y-98599879D01*
X138388000Y-98564944D01*
X138388000Y-98512597D01*
X138407685Y-98445558D01*
X138424319Y-98424916D01*
X138512416Y-98336819D01*
X138573739Y-98303334D01*
X138600097Y-98300500D01*
X139153186Y-98300500D01*
X139153194Y-98300500D01*
X139190069Y-98297598D01*
X139190071Y-98297597D01*
X139190073Y-98297597D01*
X139347892Y-98251746D01*
X139347892Y-98251745D01*
X139347898Y-98251744D01*
X139374881Y-98235786D01*
X139442602Y-98218604D01*
X139508865Y-98240764D01*
X139552628Y-98295229D01*
X139562000Y-98342519D01*
X139562000Y-98655067D01*
X139542315Y-98722106D01*
X139489511Y-98767861D01*
X139472596Y-98774143D01*
X139389604Y-98798254D01*
X139389603Y-98798255D01*
X139248137Y-98881917D01*
X139248129Y-98881923D01*
X139131923Y-98998129D01*
X139131917Y-98998137D01*
X139048255Y-99139603D01*
X139048254Y-99139606D01*
X139002402Y-99297426D01*
X139002401Y-99297432D01*
X138999500Y-99334298D01*
X138999500Y-99765701D01*
X139002401Y-99802567D01*
X139002402Y-99802573D01*
X139048254Y-99960393D01*
X139048256Y-99960399D01*
X139049426Y-99962377D01*
X139049869Y-99964126D01*
X139051353Y-99967554D01*
X139050799Y-99967793D01*
X139066603Y-100030102D01*
X139051249Y-100082395D01*
X139051817Y-100082641D01*
X139049827Y-100087239D01*
X139049428Y-100088599D01*
X139048722Y-100089791D01*
X139048716Y-100089806D01*
X139002900Y-100247505D01*
X139002899Y-100247511D01*
X139002704Y-100249998D01*
X139002705Y-100250000D01*
X139268185Y-100250000D01*
X139331306Y-100267268D01*
X139389602Y-100301744D01*
X139431224Y-100313836D01*
X139547426Y-100347597D01*
X139547429Y-100347597D01*
X139547431Y-100347598D01*
X139584306Y-100350500D01*
X139584314Y-100350500D01*
X140740686Y-100350500D01*
X140740694Y-100350500D01*
X140777569Y-100347598D01*
X140777571Y-100347597D01*
X140777573Y-100347597D01*
X140819191Y-100335505D01*
X140935398Y-100301744D01*
X140993694Y-100267268D01*
X141056815Y-100250000D01*
X141322294Y-100250000D01*
X141346557Y-100223752D01*
X141406518Y-100187885D01*
X141476352Y-100190129D01*
X141516012Y-100214530D01*
X141516969Y-100213298D01*
X141523132Y-100218078D01*
X141523135Y-100218081D01*
X141664602Y-100301744D01*
X141706224Y-100313836D01*
X141822426Y-100347597D01*
X141822429Y-100347597D01*
X141822431Y-100347598D01*
X141859306Y-100350500D01*
X141859314Y-100350500D01*
X143015686Y-100350500D01*
X143015694Y-100350500D01*
X143052569Y-100347598D01*
X143052571Y-100347597D01*
X143052573Y-100347597D01*
X143094191Y-100335505D01*
X143210398Y-100301744D01*
X143220265Y-100295908D01*
X143287986Y-100278725D01*
X143354249Y-100300884D01*
X143398014Y-100355349D01*
X143401092Y-100363635D01*
X143417299Y-100412544D01*
X143452616Y-100519124D01*
X143452686Y-100519333D01*
X143452689Y-100519340D01*
X143501854Y-100599049D01*
X143520294Y-100666441D01*
X143499371Y-100733105D01*
X143445729Y-100777874D01*
X143376398Y-100786535D01*
X143333194Y-100770877D01*
X143279840Y-100739324D01*
X143210398Y-100698256D01*
X143210397Y-100698255D01*
X143210396Y-100698255D01*
X143210393Y-100698254D01*
X143052573Y-100652402D01*
X143052567Y-100652401D01*
X143015701Y-100649500D01*
X143015694Y-100649500D01*
X141859306Y-100649500D01*
X141859298Y-100649500D01*
X141822432Y-100652401D01*
X141822426Y-100652402D01*
X141664606Y-100698254D01*
X141664603Y-100698255D01*
X141523137Y-100781917D01*
X141516969Y-100786702D01*
X141515664Y-100785019D01*
X141463954Y-100813246D01*
X141394263Y-100808251D01*
X141346558Y-100776247D01*
X141322296Y-100750000D01*
X141056815Y-100750000D01*
X140993694Y-100732732D01*
X140954231Y-100709394D01*
X140935398Y-100698256D01*
X140935397Y-100698255D01*
X140935396Y-100698255D01*
X140935393Y-100698254D01*
X140777573Y-100652402D01*
X140777567Y-100652401D01*
X140740701Y-100649500D01*
X140740694Y-100649500D01*
X139584306Y-100649500D01*
X139584298Y-100649500D01*
X139547432Y-100652401D01*
X139547426Y-100652402D01*
X139389606Y-100698254D01*
X139389603Y-100698255D01*
X139331306Y-100732732D01*
X139268185Y-100750000D01*
X139002705Y-100750000D01*
X139002704Y-100750001D01*
X139002899Y-100752488D01*
X139002900Y-100752494D01*
X139048716Y-100910193D01*
X139048720Y-100910203D01*
X139049427Y-100911398D01*
X139049695Y-100912454D01*
X139051816Y-100917356D01*
X139051024Y-100917698D01*
X139066603Y-100979123D01*
X139050993Y-101032284D01*
X139051355Y-101032441D01*
X139050087Y-101035369D01*
X139049427Y-101037620D01*
X139048259Y-101039594D01*
X139048254Y-101039607D01*
X139002402Y-101197426D01*
X139002401Y-101197432D01*
X138999500Y-101234298D01*
X138999500Y-101665701D01*
X139002401Y-101702567D01*
X139002402Y-101702573D01*
X139048254Y-101860393D01*
X139048255Y-101860396D01*
X139131732Y-102001550D01*
X139131918Y-102001864D01*
X139131923Y-102001870D01*
X139248129Y-102118076D01*
X139248132Y-102118078D01*
X139248135Y-102118081D01*
X139389602Y-102201744D01*
X139415933Y-102209394D01*
X139547426Y-102247597D01*
X139547429Y-102247597D01*
X139547431Y-102247598D01*
X139584306Y-102250500D01*
X139584314Y-102250500D01*
X140272926Y-102250500D01*
X140339965Y-102270185D01*
X140385720Y-102322989D01*
X140395664Y-102392147D01*
X140366639Y-102455703D01*
X140338022Y-102480039D01*
X140293844Y-102507287D01*
X140169789Y-102631342D01*
X140077687Y-102780663D01*
X140077685Y-102780668D01*
X140060614Y-102832185D01*
X140022501Y-102947203D01*
X140022501Y-102947204D01*
X140022500Y-102947204D01*
X140012000Y-103049983D01*
X140012000Y-104050001D01*
X140012001Y-104050019D01*
X140022500Y-104152796D01*
X140022501Y-104152799D01*
X140077685Y-104319331D01*
X140077687Y-104319336D01*
X140169789Y-104468657D01*
X140173295Y-104473091D01*
X140199434Y-104537887D01*
X140186392Y-104606529D01*
X140173295Y-104626909D01*
X140169789Y-104631342D01*
X140077687Y-104780663D01*
X140077685Y-104780668D01*
X140049905Y-104864504D01*
X140010132Y-104921949D01*
X139945616Y-104948772D01*
X139932199Y-104949500D01*
X131370943Y-104949500D01*
X131218213Y-104990423D01*
X131178640Y-105013272D01*
X131178639Y-105013272D01*
X131081287Y-105069477D01*
X130985337Y-105165427D01*
X130924014Y-105198911D01*
X130921848Y-105199362D01*
X130766508Y-105230261D01*
X130766498Y-105230264D01*
X130620827Y-105290602D01*
X130620814Y-105290609D01*
X130489711Y-105378210D01*
X130489708Y-105378212D01*
X130488798Y-105379123D01*
X130488204Y-105379446D01*
X130485001Y-105382076D01*
X130484502Y-105381468D01*
X130427471Y-105412602D01*
X130357780Y-105407611D01*
X130301851Y-105365734D01*
X130279508Y-105315624D01*
X130272451Y-105280147D01*
X130269737Y-105266503D01*
X130264188Y-105253107D01*
X130209397Y-105120827D01*
X130209390Y-105120814D01*
X130121789Y-104989711D01*
X130121786Y-104989707D01*
X130010292Y-104878213D01*
X130010288Y-104878210D01*
X129879185Y-104790609D01*
X129879172Y-104790602D01*
X129733501Y-104730264D01*
X129733489Y-104730261D01*
X129578845Y-104699500D01*
X129578842Y-104699500D01*
X129421158Y-104699500D01*
X129421155Y-104699500D01*
X129266510Y-104730261D01*
X129266498Y-104730264D01*
X129120827Y-104790602D01*
X129120814Y-104790609D01*
X128989711Y-104878210D01*
X128989707Y-104878213D01*
X128878213Y-104989707D01*
X128878210Y-104989711D01*
X128790609Y-105120814D01*
X128790602Y-105120827D01*
X128730264Y-105266498D01*
X128730261Y-105266510D01*
X128699500Y-105421153D01*
X128699500Y-105578846D01*
X128730261Y-105733489D01*
X128730264Y-105733501D01*
X128790602Y-105879172D01*
X128790609Y-105879185D01*
X128878210Y-106010288D01*
X128878213Y-106010292D01*
X128989707Y-106121786D01*
X128989711Y-106121789D01*
X129120814Y-106209390D01*
X129120827Y-106209397D01*
X129266498Y-106269735D01*
X129266503Y-106269737D01*
X129331147Y-106282595D01*
X129421849Y-106300638D01*
X129483760Y-106333023D01*
X129485339Y-106334574D01*
X129838584Y-106687819D01*
X129872069Y-106749142D01*
X129867085Y-106818834D01*
X129825213Y-106874767D01*
X129759749Y-106899184D01*
X129750903Y-106899500D01*
X129300098Y-106899500D01*
X129233059Y-106879815D01*
X129212417Y-106863181D01*
X128786590Y-106437355D01*
X128786588Y-106437352D01*
X128667717Y-106318481D01*
X128667712Y-106318477D01*
X128559180Y-106255817D01*
X128559178Y-106255816D01*
X128530787Y-106239424D01*
X128530786Y-106239423D01*
X128530785Y-106239423D01*
X128378057Y-106198499D01*
X128219943Y-106198499D01*
X128212347Y-106198499D01*
X128212331Y-106198500D01*
X127924500Y-106198500D01*
X127857461Y-106178815D01*
X127811706Y-106126011D01*
X127800500Y-106074500D01*
X127800500Y-105921155D01*
X127800499Y-105921153D01*
X127795540Y-105896224D01*
X127769737Y-105766503D01*
X127752635Y-105725214D01*
X127709397Y-105620827D01*
X127709390Y-105620814D01*
X127621789Y-105489711D01*
X127621786Y-105489707D01*
X127506769Y-105374690D01*
X127473284Y-105313367D01*
X127472834Y-105262814D01*
X127474765Y-105253107D01*
X127474765Y-105095423D01*
X127474765Y-105095420D01*
X127474764Y-105095418D01*
X127467191Y-105057345D01*
X127444002Y-104940768D01*
X127393829Y-104819640D01*
X127386361Y-104750174D01*
X127417636Y-104687694D01*
X127439495Y-104669092D01*
X127510289Y-104621789D01*
X127621789Y-104510289D01*
X127709394Y-104379179D01*
X127769737Y-104233497D01*
X127800500Y-104078842D01*
X127800500Y-103921158D01*
X127800500Y-103921155D01*
X127800499Y-103921153D01*
X127795418Y-103895608D01*
X127769737Y-103766503D01*
X127725192Y-103658962D01*
X127717724Y-103589496D01*
X127748999Y-103527016D01*
X127809088Y-103491364D01*
X127878913Y-103493858D01*
X127887199Y-103496947D01*
X127887441Y-103497048D01*
X128038099Y-103527016D01*
X128042091Y-103527810D01*
X128042094Y-103527811D01*
X128042096Y-103527811D01*
X128199782Y-103527811D01*
X128199783Y-103527810D01*
X128354435Y-103497048D01*
X128500117Y-103436705D01*
X128631227Y-103349100D01*
X128742727Y-103237600D01*
X128830332Y-103106490D01*
X128890675Y-102960808D01*
X128921438Y-102806153D01*
X128921438Y-102648469D01*
X128921438Y-102648466D01*
X128921437Y-102648464D01*
X128906330Y-102572516D01*
X128890675Y-102493814D01*
X128880473Y-102469185D01*
X128873004Y-102399718D01*
X128904278Y-102337239D01*
X128964366Y-102301585D01*
X129015061Y-102300227D01*
X129015093Y-102299903D01*
X129017677Y-102300157D01*
X129019228Y-102300116D01*
X129021158Y-102300500D01*
X129178844Y-102300500D01*
X129178845Y-102300499D01*
X129333497Y-102269737D01*
X129479179Y-102209394D01*
X129610289Y-102121789D01*
X129721789Y-102010289D01*
X129809394Y-101879179D01*
X129869737Y-101733497D01*
X129900500Y-101578842D01*
X129900500Y-101421158D01*
X129900500Y-101421155D01*
X129900499Y-101421153D01*
X129886342Y-101349981D01*
X129869737Y-101266503D01*
X129861743Y-101247203D01*
X129809397Y-101120827D01*
X129809390Y-101120814D01*
X129721398Y-100989125D01*
X129715747Y-100971078D01*
X129705523Y-100955169D01*
X129701071Y-100924207D01*
X129700520Y-100922447D01*
X129700500Y-100920234D01*
X129700500Y-100907702D01*
X129720185Y-100840663D01*
X129772989Y-100794908D01*
X129842147Y-100784964D01*
X129848667Y-100786080D01*
X129905435Y-100797372D01*
X129921157Y-100800500D01*
X129921158Y-100800500D01*
X130078844Y-100800500D01*
X130078845Y-100800499D01*
X130233497Y-100769737D01*
X130379179Y-100709394D01*
X130510289Y-100621789D01*
X130621789Y-100510289D01*
X130709394Y-100379179D01*
X130715833Y-100363635D01*
X130724935Y-100341659D01*
X130769737Y-100233497D01*
X130800500Y-100078842D01*
X130800500Y-99921158D01*
X130800500Y-99921155D01*
X130800499Y-99921153D01*
X130785341Y-99844949D01*
X130769737Y-99766503D01*
X130757178Y-99736182D01*
X130709397Y-99620827D01*
X130709390Y-99620814D01*
X130621398Y-99489125D01*
X130600520Y-99422447D01*
X130600500Y-99420234D01*
X130600500Y-98300097D01*
X130620185Y-98233058D01*
X130636819Y-98212416D01*
X137962416Y-90886819D01*
X138023739Y-90853334D01*
X138050097Y-90850500D01*
X140663331Y-90850500D01*
X140663347Y-90850501D01*
X140670943Y-90850501D01*
X140829054Y-90850501D01*
X140829057Y-90850501D01*
X140981785Y-90809577D01*
X141031904Y-90780639D01*
X141118716Y-90730520D01*
X141230520Y-90618716D01*
X141230520Y-90618714D01*
X141240728Y-90608507D01*
X141240729Y-90608504D01*
X144033368Y-87815866D01*
X144094685Y-87782385D01*
X144164377Y-87787369D01*
X144220310Y-87829241D01*
X144242660Y-87879360D01*
X144277848Y-88056267D01*
X144277850Y-88056274D01*
X144357000Y-88247358D01*
X144357005Y-88247368D01*
X144471910Y-88419335D01*
X144471913Y-88419339D01*
X144618160Y-88565586D01*
X144618164Y-88565589D01*
X144790131Y-88680494D01*
X144790141Y-88680499D01*
X144981225Y-88759649D01*
X144981233Y-88759651D01*
X145184079Y-88799999D01*
X145184083Y-88800000D01*
X145687500Y-88800000D01*
X145687500Y-88100000D01*
X146187500Y-88100000D01*
X146187500Y-88800000D01*
X146206994Y-88819494D01*
X146207643Y-88819685D01*
X146210615Y-88823115D01*
X146223819Y-88836319D01*
X146222874Y-88837263D01*
X146253398Y-88872489D01*
X146256368Y-88890314D01*
X146812500Y-89446446D01*
X146812501Y-89446446D01*
X147357567Y-88901378D01*
X147357567Y-88901377D01*
X147309859Y-88869500D01*
X147210678Y-88828418D01*
X147156275Y-88784577D01*
X147134210Y-88718282D01*
X147151489Y-88650583D01*
X147189241Y-88610754D01*
X147256838Y-88565587D01*
X147403086Y-88419339D01*
X147403089Y-88419335D01*
X147517994Y-88247368D01*
X147517999Y-88247358D01*
X147597148Y-88056276D01*
X147597149Y-88056274D01*
X147608343Y-88000000D01*
X146832475Y-88000000D01*
X146867570Y-87964905D01*
X146913648Y-87885095D01*
X146937500Y-87796078D01*
X146937500Y-87703922D01*
X146913648Y-87614905D01*
X146867570Y-87535095D01*
X146832475Y-87500000D01*
X147608343Y-87500000D01*
X147597149Y-87443725D01*
X147597148Y-87443723D01*
X147517999Y-87252641D01*
X147517994Y-87252631D01*
X147403089Y-87080664D01*
X147403086Y-87080660D01*
X147256839Y-86934413D01*
X147256835Y-86934410D01*
X147084868Y-86819505D01*
X147084858Y-86819500D01*
X146893774Y-86740350D01*
X146893766Y-86740348D01*
X146690920Y-86700000D01*
X146568596Y-86700000D01*
X146547350Y-86693761D01*
X146525262Y-86692182D01*
X146514478Y-86684109D01*
X146501557Y-86680315D01*
X146487057Y-86663581D01*
X146469329Y-86650310D01*
X146464621Y-86637689D01*
X146455802Y-86627511D01*
X146452650Y-86605593D01*
X146444912Y-86584846D01*
X146447774Y-86571685D01*
X146445858Y-86558353D01*
X146455057Y-86538209D01*
X146459764Y-86516573D01*
X146473032Y-86498847D01*
X146474883Y-86494797D01*
X146480915Y-86488319D01*
X146582416Y-86386818D01*
X146643739Y-86353333D01*
X146670097Y-86350499D01*
X148017871Y-86350499D01*
X148017872Y-86350499D01*
X148077483Y-86344091D01*
X148212331Y-86293796D01*
X148327546Y-86207546D01*
X148413796Y-86092331D01*
X148464091Y-85957483D01*
X148470500Y-85897873D01*
X148470499Y-84102128D01*
X148464091Y-84042517D01*
X148462810Y-84039083D01*
X148413797Y-83907671D01*
X148413793Y-83907664D01*
X148327547Y-83792455D01*
X148327544Y-83792452D01*
X148212335Y-83706206D01*
X148212328Y-83706202D01*
X148077482Y-83655908D01*
X148077483Y-83655908D01*
X148017883Y-83649501D01*
X148017881Y-83649500D01*
X148017873Y-83649500D01*
X148017864Y-83649500D01*
X146222129Y-83649500D01*
X146222123Y-83649501D01*
X146162516Y-83655908D01*
X146027671Y-83706202D01*
X146027664Y-83706206D01*
X145912455Y-83792452D01*
X145912452Y-83792455D01*
X145826206Y-83907664D01*
X145826203Y-83907669D01*
X145777189Y-84039083D01*
X145735317Y-84095016D01*
X145669853Y-84119433D01*
X145601580Y-84104581D01*
X145573326Y-84083430D01*
X145459786Y-83969890D01*
X145287820Y-83844951D01*
X145098414Y-83748444D01*
X145098413Y-83748443D01*
X145098412Y-83748443D01*
X144896243Y-83682754D01*
X144896241Y-83682753D01*
X144896240Y-83682753D01*
X144734957Y-83657208D01*
X144686287Y-83649500D01*
X144473713Y-83649500D01*
X144425042Y-83657208D01*
X144263760Y-83682753D01*
X144061585Y-83748444D01*
X143872179Y-83844951D01*
X143700213Y-83969890D01*
X143549890Y-84120213D01*
X143424949Y-84292182D01*
X143420202Y-84301499D01*
X143372227Y-84352293D01*
X143304405Y-84369087D01*
X143238271Y-84346548D01*
X143199234Y-84301495D01*
X143194622Y-84292444D01*
X143069727Y-84120540D01*
X143069723Y-84120535D01*
X142919464Y-83970276D01*
X142919459Y-83970272D01*
X142747557Y-83845379D01*
X142558215Y-83748903D01*
X142356124Y-83683241D01*
X142290000Y-83672768D01*
X142290000Y-84566988D01*
X142232993Y-84534075D01*
X142105826Y-84500000D01*
X141974174Y-84500000D01*
X141847007Y-84534075D01*
X141790000Y-84566988D01*
X141790000Y-83672768D01*
X141789999Y-83672768D01*
X141723875Y-83683241D01*
X141521784Y-83748903D01*
X141332442Y-83845379D01*
X141160540Y-83970272D01*
X141160535Y-83970276D01*
X141010276Y-84120535D01*
X141010272Y-84120540D01*
X140885378Y-84292443D01*
X140880762Y-84301502D01*
X140832784Y-84352295D01*
X140764963Y-84369087D01*
X140698829Y-84346546D01*
X140659794Y-84301493D01*
X140655051Y-84292184D01*
X140655049Y-84292181D01*
X140655048Y-84292179D01*
X140530109Y-84120213D01*
X140379786Y-83969890D01*
X140207820Y-83844951D01*
X140018414Y-83748444D01*
X140018413Y-83748443D01*
X140018412Y-83748443D01*
X139816243Y-83682754D01*
X139816241Y-83682753D01*
X139816240Y-83682753D01*
X139654957Y-83657208D01*
X139606287Y-83649500D01*
X139393713Y-83649500D01*
X139345042Y-83657208D01*
X139183760Y-83682753D01*
X138981585Y-83748444D01*
X138792179Y-83844951D01*
X138620213Y-83969890D01*
X138469890Y-84120213D01*
X138344949Y-84292182D01*
X138340484Y-84300946D01*
X138292509Y-84351742D01*
X138224688Y-84368536D01*
X138158553Y-84345998D01*
X138119516Y-84300946D01*
X138115050Y-84292182D01*
X137990109Y-84120213D01*
X137839786Y-83969890D01*
X137667820Y-83844951D01*
X137478414Y-83748444D01*
X137478413Y-83748443D01*
X137478412Y-83748443D01*
X137276243Y-83682754D01*
X137276241Y-83682753D01*
X137276240Y-83682753D01*
X137114957Y-83657208D01*
X137066287Y-83649500D01*
X136853713Y-83649500D01*
X136805042Y-83657208D01*
X136643760Y-83682753D01*
X136441585Y-83748444D01*
X136252179Y-83844951D01*
X136080213Y-83969890D01*
X135929890Y-84120213D01*
X135804951Y-84292179D01*
X135708444Y-84481585D01*
X135642753Y-84683760D01*
X135609500Y-84893713D01*
X135609500Y-85106286D01*
X135632459Y-85251247D01*
X135642754Y-85316243D01*
X135669968Y-85400000D01*
X135708444Y-85518414D01*
X135804951Y-85707820D01*
X135929890Y-85879786D01*
X136080213Y-86030109D01*
X136252184Y-86155051D01*
X136252184Y-86155052D01*
X136291793Y-86175233D01*
X136342590Y-86223206D01*
X136359500Y-86285718D01*
X136359500Y-87739901D01*
X136339815Y-87806940D01*
X136323181Y-87827582D01*
X135412180Y-88738583D01*
X135350857Y-88772068D01*
X135281165Y-88767084D01*
X135225232Y-88725212D01*
X135200815Y-88659748D01*
X135200499Y-88650902D01*
X135200499Y-88599998D01*
X135200498Y-88599981D01*
X135189999Y-88497203D01*
X135189998Y-88497200D01*
X135189998Y-88497199D01*
X135134814Y-88330666D01*
X135042712Y-88181344D01*
X134949049Y-88087681D01*
X134915564Y-88026358D01*
X134920548Y-87956666D01*
X134949049Y-87912319D01*
X134987368Y-87874000D01*
X135042712Y-87818656D01*
X135134814Y-87669334D01*
X135189999Y-87502797D01*
X135200500Y-87400009D01*
X135200499Y-86774992D01*
X135192838Y-86700000D01*
X135189999Y-86672203D01*
X135189998Y-86672200D01*
X135178562Y-86637689D01*
X135134814Y-86505666D01*
X135042712Y-86356344D01*
X134994628Y-86308260D01*
X134961144Y-86246938D01*
X134966128Y-86177246D01*
X134994628Y-86132900D01*
X135044026Y-86083503D01*
X135135362Y-85935425D01*
X135190087Y-85770275D01*
X135200500Y-85668348D01*
X135200500Y-85081652D01*
X135190087Y-84979725D01*
X135135362Y-84814575D01*
X135135358Y-84814569D01*
X135135357Y-84814566D01*
X135044028Y-84666500D01*
X135044025Y-84666496D01*
X134921003Y-84543474D01*
X134920995Y-84543468D01*
X134919812Y-84542738D01*
X134919171Y-84542025D01*
X134915336Y-84538993D01*
X134915854Y-84538337D01*
X134873091Y-84490787D01*
X134861875Y-84421823D01*
X134889723Y-84357743D01*
X134915123Y-84335738D01*
X134915023Y-84335612D01*
X134917842Y-84333382D01*
X134919832Y-84331659D01*
X134920692Y-84331128D01*
X135043629Y-84208191D01*
X135134903Y-84060214D01*
X135134905Y-84060209D01*
X135189592Y-83895173D01*
X135199999Y-83793315D01*
X135200000Y-83793302D01*
X135200000Y-83750000D01*
X132800000Y-83750000D01*
X132800000Y-83793315D01*
X132810407Y-83895173D01*
X132865094Y-84060209D01*
X132865096Y-84060214D01*
X132956370Y-84208191D01*
X133079309Y-84331130D01*
X133080173Y-84331663D01*
X133080641Y-84332183D01*
X133084977Y-84335612D01*
X133084391Y-84336352D01*
X133126901Y-84383608D01*
X133138126Y-84452570D01*
X133110286Y-84516654D01*
X133084601Y-84538914D01*
X133084664Y-84538993D01*
X133082912Y-84540378D01*
X133080194Y-84542734D01*
X133079005Y-84543467D01*
X133078996Y-84543474D01*
X132955974Y-84666496D01*
X132955971Y-84666500D01*
X132864642Y-84814566D01*
X132864637Y-84814577D01*
X132809913Y-84979723D01*
X132799500Y-85081644D01*
X132799500Y-85668355D01*
X132809913Y-85770276D01*
X132864637Y-85935422D01*
X132864642Y-85935433D01*
X132955971Y-86083499D01*
X132955974Y-86083503D01*
X133005370Y-86132899D01*
X133038855Y-86194222D01*
X133033871Y-86263914D01*
X133005371Y-86308260D01*
X132957289Y-86356342D01*
X132865187Y-86505663D01*
X132865185Y-86505668D01*
X132854402Y-86538209D01*
X132810001Y-86672203D01*
X132810001Y-86672204D01*
X132810000Y-86672204D01*
X132799500Y-86774983D01*
X132799500Y-87400001D01*
X132799501Y-87400019D01*
X132810000Y-87502796D01*
X132810001Y-87502799D01*
X132865185Y-87669331D01*
X132865187Y-87669336D01*
X132957289Y-87818657D01*
X133050951Y-87912319D01*
X133052468Y-87915097D01*
X133055169Y-87916750D01*
X133069103Y-87945563D01*
X133084436Y-87973642D01*
X133084210Y-87976799D01*
X133085589Y-87979650D01*
X133081734Y-88011416D01*
X133079452Y-88043334D01*
X133077439Y-88046812D01*
X133077173Y-88049011D01*
X133070326Y-88059108D01*
X133058751Y-88079116D01*
X133055052Y-88083579D01*
X132957288Y-88181344D01*
X132908491Y-88260456D01*
X132902973Y-88267116D01*
X132880888Y-88282007D01*
X132861083Y-88299821D01*
X132851107Y-88302087D01*
X132845042Y-88306178D01*
X132831827Y-88306469D01*
X132807492Y-88312000D01*
X132674170Y-88312000D01*
X132674154Y-88311999D01*
X132666558Y-88311999D01*
X132508443Y-88311999D01*
X132438771Y-88330668D01*
X132355714Y-88352923D01*
X132355709Y-88352926D01*
X132218790Y-88431975D01*
X132218782Y-88431981D01*
X131912180Y-88738583D01*
X131850857Y-88772068D01*
X131781165Y-88767084D01*
X131725232Y-88725212D01*
X131700815Y-88659748D01*
X131700499Y-88650902D01*
X131700499Y-88599998D01*
X131700498Y-88599981D01*
X131689999Y-88497203D01*
X131689998Y-88497200D01*
X131689998Y-88497199D01*
X131634814Y-88330666D01*
X131542712Y-88181344D01*
X131449049Y-88087681D01*
X131415564Y-88026358D01*
X131420548Y-87956666D01*
X131449049Y-87912319D01*
X131487368Y-87874000D01*
X131542712Y-87818656D01*
X131634814Y-87669334D01*
X131689999Y-87502797D01*
X131700500Y-87400009D01*
X131700499Y-86774992D01*
X131692838Y-86700000D01*
X131689999Y-86672203D01*
X131689998Y-86672200D01*
X131678562Y-86637689D01*
X131634814Y-86505666D01*
X131542712Y-86356344D01*
X131494628Y-86308260D01*
X131461144Y-86246938D01*
X131466128Y-86177246D01*
X131494628Y-86132900D01*
X131544026Y-86083503D01*
X131635362Y-85935425D01*
X131690087Y-85770275D01*
X131700500Y-85668348D01*
X131700500Y-85081652D01*
X131690087Y-84979725D01*
X131635362Y-84814575D01*
X131635358Y-84814569D01*
X131635357Y-84814566D01*
X131544028Y-84666500D01*
X131544025Y-84666496D01*
X131421003Y-84543474D01*
X131420995Y-84543468D01*
X131419812Y-84542738D01*
X131419171Y-84542025D01*
X131415336Y-84538993D01*
X131415854Y-84538337D01*
X131373091Y-84490787D01*
X131361875Y-84421823D01*
X131389723Y-84357743D01*
X131415123Y-84335738D01*
X131415023Y-84335612D01*
X131417842Y-84333382D01*
X131419832Y-84331659D01*
X131420692Y-84331128D01*
X131543629Y-84208191D01*
X131634903Y-84060214D01*
X131634905Y-84060209D01*
X131689592Y-83895173D01*
X131699999Y-83793315D01*
X131700000Y-83793302D01*
X131700000Y-83750000D01*
X129300000Y-83750000D01*
X129300000Y-83793315D01*
X129310407Y-83895173D01*
X129365094Y-84060209D01*
X129365096Y-84060214D01*
X129456370Y-84208191D01*
X129579309Y-84331130D01*
X129580173Y-84331663D01*
X129580641Y-84332183D01*
X129584977Y-84335612D01*
X129584391Y-84336352D01*
X129626901Y-84383608D01*
X129638126Y-84452570D01*
X129610286Y-84516654D01*
X129584601Y-84538914D01*
X129584664Y-84538993D01*
X129582912Y-84540378D01*
X129580194Y-84542734D01*
X129579005Y-84543467D01*
X129578996Y-84543474D01*
X129455974Y-84666496D01*
X129455971Y-84666500D01*
X129364642Y-84814566D01*
X129364637Y-84814577D01*
X129309913Y-84979723D01*
X129299500Y-85081644D01*
X129299500Y-85668355D01*
X129309913Y-85770276D01*
X129364637Y-85935422D01*
X129364642Y-85935433D01*
X129455971Y-86083499D01*
X129455974Y-86083503D01*
X129505370Y-86132899D01*
X129538855Y-86194222D01*
X129533871Y-86263914D01*
X129505371Y-86308260D01*
X129457289Y-86356342D01*
X129365187Y-86505663D01*
X129365185Y-86505668D01*
X129354402Y-86538209D01*
X129310001Y-86672203D01*
X129310001Y-86672204D01*
X129310000Y-86672204D01*
X129299500Y-86774983D01*
X129299500Y-87400001D01*
X129299501Y-87400019D01*
X129310000Y-87502796D01*
X129310001Y-87502799D01*
X129365185Y-87669331D01*
X129365187Y-87669336D01*
X129457289Y-87818657D01*
X129550951Y-87912319D01*
X129584436Y-87973642D01*
X129579452Y-88043334D01*
X129550951Y-88087681D01*
X129457289Y-88181342D01*
X129365187Y-88330663D01*
X129365185Y-88330668D01*
X129357810Y-88352926D01*
X129310001Y-88497203D01*
X129310001Y-88497204D01*
X129310000Y-88497204D01*
X129299500Y-88599983D01*
X129299500Y-89225001D01*
X129299502Y-89225022D01*
X129305214Y-89280945D01*
X129292443Y-89349638D01*
X129269537Y-89381226D01*
X127812181Y-90838583D01*
X127750858Y-90872068D01*
X127681166Y-90867084D01*
X127625233Y-90825212D01*
X127600816Y-90759748D01*
X127600500Y-90750902D01*
X127600500Y-90005300D01*
X127620185Y-89938261D01*
X127672989Y-89892506D01*
X127685482Y-89887599D01*
X127769334Y-89859814D01*
X127918656Y-89767712D01*
X128042712Y-89643656D01*
X128134814Y-89494334D01*
X128189999Y-89327797D01*
X128200500Y-89225009D01*
X128200499Y-88599992D01*
X128196984Y-88565587D01*
X128189999Y-88497203D01*
X128189998Y-88497200D01*
X128189998Y-88497199D01*
X128134814Y-88330666D01*
X128042712Y-88181344D01*
X127949049Y-88087681D01*
X127915564Y-88026358D01*
X127920548Y-87956666D01*
X127949049Y-87912319D01*
X127987368Y-87874000D01*
X128042712Y-87818656D01*
X128134814Y-87669334D01*
X128189999Y-87502797D01*
X128200500Y-87400009D01*
X128200499Y-86774992D01*
X128192838Y-86700000D01*
X128189999Y-86672203D01*
X128189998Y-86672200D01*
X128178562Y-86637689D01*
X128134814Y-86505666D01*
X128042712Y-86356344D01*
X127994628Y-86308260D01*
X127961144Y-86246938D01*
X127966128Y-86177246D01*
X127994628Y-86132900D01*
X128044026Y-86083503D01*
X128135362Y-85935425D01*
X128190087Y-85770275D01*
X128200500Y-85668348D01*
X128200500Y-85081652D01*
X128190087Y-84979725D01*
X128135362Y-84814575D01*
X128135358Y-84814569D01*
X128135357Y-84814566D01*
X128044028Y-84666500D01*
X128044025Y-84666496D01*
X127921003Y-84543474D01*
X127920995Y-84543468D01*
X127919812Y-84542738D01*
X127919171Y-84542025D01*
X127915336Y-84538993D01*
X127915854Y-84538337D01*
X127873091Y-84490787D01*
X127861875Y-84421823D01*
X127889723Y-84357743D01*
X127915123Y-84335738D01*
X127915023Y-84335612D01*
X127917842Y-84333382D01*
X127919832Y-84331659D01*
X127920692Y-84331128D01*
X128043629Y-84208191D01*
X128134903Y-84060214D01*
X128134905Y-84060209D01*
X128189592Y-83895173D01*
X128199999Y-83793315D01*
X128200000Y-83793302D01*
X128200000Y-83750000D01*
X125800000Y-83750000D01*
X125800000Y-83793315D01*
X125810407Y-83895173D01*
X125865094Y-84060209D01*
X125865096Y-84060214D01*
X125956370Y-84208191D01*
X126079309Y-84331130D01*
X126080173Y-84331663D01*
X126080641Y-84332183D01*
X126084977Y-84335612D01*
X126084391Y-84336352D01*
X126126901Y-84383608D01*
X126138126Y-84452570D01*
X126110286Y-84516654D01*
X126084601Y-84538914D01*
X126084664Y-84538993D01*
X126082912Y-84540378D01*
X126080194Y-84542734D01*
X126079005Y-84543467D01*
X126078996Y-84543474D01*
X125955974Y-84666496D01*
X125955971Y-84666500D01*
X125864642Y-84814566D01*
X125864637Y-84814577D01*
X125809913Y-84979723D01*
X125799500Y-85081644D01*
X125799500Y-85668355D01*
X125809913Y-85770276D01*
X125864637Y-85935422D01*
X125864642Y-85935433D01*
X125955971Y-86083499D01*
X125955974Y-86083503D01*
X126005370Y-86132899D01*
X126038855Y-86194222D01*
X126033871Y-86263914D01*
X126005371Y-86308260D01*
X125957289Y-86356342D01*
X125865187Y-86505663D01*
X125865185Y-86505668D01*
X125854402Y-86538209D01*
X125810001Y-86672203D01*
X125810001Y-86672204D01*
X125810000Y-86672204D01*
X125799500Y-86774983D01*
X125799500Y-87400001D01*
X125799501Y-87400019D01*
X125810000Y-87502796D01*
X125810001Y-87502799D01*
X125865185Y-87669331D01*
X125865187Y-87669336D01*
X125957289Y-87818657D01*
X126050951Y-87912319D01*
X126084436Y-87973642D01*
X126079452Y-88043334D01*
X126050951Y-88087681D01*
X125957289Y-88181342D01*
X125865187Y-88330663D01*
X125865185Y-88330668D01*
X125857810Y-88352926D01*
X125810001Y-88497203D01*
X125810001Y-88497204D01*
X125810000Y-88497204D01*
X125799500Y-88599983D01*
X125799500Y-89225001D01*
X125799501Y-89225019D01*
X125810000Y-89327796D01*
X125810001Y-89327799D01*
X125865185Y-89494331D01*
X125865187Y-89494336D01*
X125876699Y-89513000D01*
X125957288Y-89643656D01*
X126081344Y-89767712D01*
X126230666Y-89859814D01*
X126314505Y-89887595D01*
X126371948Y-89927366D01*
X126398772Y-89991882D01*
X126399500Y-90005300D01*
X126399500Y-91199902D01*
X126379815Y-91266941D01*
X126363181Y-91287583D01*
X124994482Y-92656282D01*
X124933159Y-92689767D01*
X124863467Y-92684783D01*
X124807534Y-92642911D01*
X124783117Y-92577447D01*
X124782801Y-92568601D01*
X124782801Y-89920713D01*
X124802486Y-89853674D01*
X124841701Y-89815177D01*
X124918656Y-89767712D01*
X125042712Y-89643656D01*
X125134814Y-89494334D01*
X125189999Y-89327797D01*
X125200500Y-89225009D01*
X125200499Y-88599992D01*
X125196984Y-88565587D01*
X125189999Y-88497203D01*
X125189998Y-88497200D01*
X125189998Y-88497199D01*
X125134814Y-88330666D01*
X125042712Y-88181344D01*
X124949049Y-88087681D01*
X124915564Y-88026358D01*
X124920548Y-87956666D01*
X124949049Y-87912319D01*
X124987368Y-87874000D01*
X125042712Y-87818656D01*
X125134814Y-87669334D01*
X125189999Y-87502797D01*
X125200500Y-87400009D01*
X125200499Y-86774992D01*
X125192838Y-86700000D01*
X125189999Y-86672203D01*
X125189998Y-86672200D01*
X125178562Y-86637689D01*
X125134814Y-86505666D01*
X125042712Y-86356344D01*
X125025879Y-86339511D01*
X124992394Y-86278188D01*
X124997378Y-86208496D01*
X125025881Y-86164147D01*
X125044026Y-86146003D01*
X125135362Y-85997925D01*
X125190087Y-85832775D01*
X125200500Y-85730848D01*
X125200500Y-85144152D01*
X125190087Y-85042225D01*
X125135362Y-84877075D01*
X125135358Y-84877069D01*
X125135357Y-84877066D01*
X125044028Y-84729000D01*
X125044025Y-84728996D01*
X124921003Y-84605974D01*
X124920995Y-84605968D01*
X124919812Y-84605238D01*
X124919171Y-84604525D01*
X124915336Y-84601493D01*
X124915854Y-84600837D01*
X124873091Y-84553287D01*
X124861875Y-84484323D01*
X124889723Y-84420243D01*
X124915123Y-84398238D01*
X124915023Y-84398112D01*
X124917842Y-84395882D01*
X124919832Y-84394159D01*
X124920692Y-84393628D01*
X125043629Y-84270691D01*
X125134903Y-84122714D01*
X125134905Y-84122709D01*
X125189592Y-83957673D01*
X125199999Y-83855815D01*
X125200000Y-83855802D01*
X125200000Y-83812500D01*
X122800000Y-83812500D01*
X122800000Y-83855815D01*
X122810407Y-83957673D01*
X122865094Y-84122709D01*
X122865096Y-84122714D01*
X122956370Y-84270691D01*
X123079309Y-84393630D01*
X123080173Y-84394163D01*
X123080641Y-84394683D01*
X123084977Y-84398112D01*
X123084391Y-84398852D01*
X123126901Y-84446108D01*
X123138126Y-84515070D01*
X123110286Y-84579154D01*
X123084601Y-84601414D01*
X123084664Y-84601493D01*
X123082912Y-84602878D01*
X123080194Y-84605234D01*
X123079005Y-84605967D01*
X123078996Y-84605974D01*
X122955974Y-84728996D01*
X122955971Y-84729000D01*
X122864642Y-84877066D01*
X122864637Y-84877077D01*
X122809913Y-85042223D01*
X122799500Y-85144144D01*
X122799500Y-85730855D01*
X122809913Y-85832776D01*
X122864637Y-85997922D01*
X122864642Y-85997933D01*
X122955971Y-86145999D01*
X122955974Y-86146003D01*
X122974119Y-86164148D01*
X123007604Y-86225471D01*
X123002620Y-86295163D01*
X122974123Y-86339506D01*
X122957293Y-86356337D01*
X122957289Y-86356342D01*
X122957288Y-86356344D01*
X122938492Y-86386818D01*
X122865187Y-86505663D01*
X122865185Y-86505668D01*
X122854402Y-86538209D01*
X122810001Y-86672203D01*
X122810001Y-86672204D01*
X122810000Y-86672204D01*
X122799500Y-86774983D01*
X122799500Y-87400001D01*
X122799501Y-87400019D01*
X122810000Y-87502796D01*
X122810001Y-87502799D01*
X122865185Y-87669331D01*
X122865187Y-87669336D01*
X122957289Y-87818657D01*
X123050951Y-87912319D01*
X123084436Y-87973642D01*
X123079452Y-88043334D01*
X123050951Y-88087681D01*
X122957289Y-88181342D01*
X122865187Y-88330663D01*
X122865185Y-88330668D01*
X122857810Y-88352926D01*
X122810001Y-88497203D01*
X122810001Y-88497204D01*
X122810000Y-88497204D01*
X122799500Y-88599983D01*
X122799500Y-89225001D01*
X122799501Y-89225019D01*
X122810000Y-89327796D01*
X122810001Y-89327799D01*
X122865185Y-89494331D01*
X122865187Y-89494336D01*
X122876699Y-89513000D01*
X122957288Y-89643656D01*
X123081344Y-89767712D01*
X123230666Y-89859814D01*
X123397203Y-89914999D01*
X123490404Y-89924520D01*
X123555095Y-89950916D01*
X123595246Y-90008096D01*
X123601801Y-90047878D01*
X123601801Y-90365703D01*
X123582116Y-90432742D01*
X123529312Y-90478497D01*
X123460154Y-90488441D01*
X123396598Y-90459416D01*
X123390120Y-90453384D01*
X122236818Y-89300083D01*
X122203333Y-89238760D01*
X122200499Y-89212411D01*
X122200499Y-88599992D01*
X122196984Y-88565587D01*
X122189999Y-88497203D01*
X122189998Y-88497200D01*
X122189998Y-88497199D01*
X122134814Y-88330666D01*
X122042712Y-88181344D01*
X121949049Y-88087681D01*
X121915564Y-88026358D01*
X121920548Y-87956666D01*
X121949049Y-87912319D01*
X121987368Y-87874000D01*
X122042712Y-87818656D01*
X122134814Y-87669334D01*
X122189999Y-87502797D01*
X122200500Y-87400009D01*
X122200499Y-86774992D01*
X122192838Y-86700000D01*
X122189999Y-86672203D01*
X122189998Y-86672200D01*
X122178562Y-86637689D01*
X122134814Y-86505666D01*
X122042712Y-86356344D01*
X121994628Y-86308260D01*
X121961144Y-86246938D01*
X121966128Y-86177246D01*
X121994628Y-86132900D01*
X122044026Y-86083503D01*
X122135362Y-85935425D01*
X122190087Y-85770275D01*
X122200500Y-85668348D01*
X122200500Y-85081652D01*
X122190087Y-84979725D01*
X122135362Y-84814575D01*
X122135358Y-84814569D01*
X122135357Y-84814566D01*
X122044028Y-84666500D01*
X122044025Y-84666496D01*
X121921003Y-84543474D01*
X121920995Y-84543468D01*
X121919812Y-84542738D01*
X121919171Y-84542025D01*
X121915336Y-84538993D01*
X121915854Y-84538337D01*
X121873091Y-84490787D01*
X121861875Y-84421823D01*
X121889723Y-84357743D01*
X121915123Y-84335738D01*
X121915023Y-84335612D01*
X121917842Y-84333382D01*
X121919832Y-84331659D01*
X121920692Y-84331128D01*
X122043629Y-84208191D01*
X122134903Y-84060214D01*
X122134905Y-84060209D01*
X122189592Y-83895173D01*
X122199999Y-83793315D01*
X122200000Y-83793302D01*
X122200000Y-83750000D01*
X119800000Y-83750000D01*
X119800000Y-83793315D01*
X119810407Y-83895173D01*
X119865094Y-84060209D01*
X119865096Y-84060214D01*
X119956370Y-84208191D01*
X120079309Y-84331130D01*
X120080173Y-84331663D01*
X120080641Y-84332183D01*
X120084977Y-84335612D01*
X120084391Y-84336352D01*
X120126901Y-84383608D01*
X120138126Y-84452570D01*
X120110286Y-84516654D01*
X120084601Y-84538914D01*
X120084664Y-84538993D01*
X120082912Y-84540378D01*
X120080194Y-84542734D01*
X120079005Y-84543467D01*
X120078996Y-84543474D01*
X119955974Y-84666496D01*
X119955971Y-84666500D01*
X119864642Y-84814566D01*
X119864637Y-84814577D01*
X119809913Y-84979723D01*
X119799500Y-85081644D01*
X119799500Y-85668355D01*
X119809913Y-85770276D01*
X119864637Y-85935422D01*
X119864642Y-85935433D01*
X119955971Y-86083499D01*
X119955974Y-86083503D01*
X120005370Y-86132899D01*
X120038855Y-86194222D01*
X120033871Y-86263914D01*
X120005371Y-86308260D01*
X119957289Y-86356342D01*
X119865187Y-86505663D01*
X119865185Y-86505668D01*
X119854402Y-86538209D01*
X119810001Y-86672203D01*
X119810001Y-86672204D01*
X119810000Y-86672204D01*
X119799500Y-86774983D01*
X119799500Y-87400001D01*
X119799501Y-87400019D01*
X119810000Y-87502796D01*
X119810001Y-87502799D01*
X119865185Y-87669331D01*
X119865187Y-87669336D01*
X119957289Y-87818657D01*
X120050951Y-87912319D01*
X120084436Y-87973642D01*
X120079452Y-88043334D01*
X120050951Y-88087681D01*
X119957289Y-88181342D01*
X119865187Y-88330663D01*
X119865185Y-88330668D01*
X119857810Y-88352926D01*
X119810001Y-88497203D01*
X119810001Y-88497204D01*
X119810000Y-88497204D01*
X119799500Y-88599983D01*
X119799500Y-89225001D01*
X119799501Y-89225019D01*
X119810000Y-89327796D01*
X119810001Y-89327799D01*
X119865185Y-89494331D01*
X119865187Y-89494336D01*
X119876699Y-89513000D01*
X119957288Y-89643656D01*
X120081344Y-89767712D01*
X120230666Y-89859814D01*
X120397203Y-89914999D01*
X120499991Y-89925500D01*
X121112402Y-89925499D01*
X121179441Y-89945183D01*
X121200083Y-89961818D01*
X122363482Y-91125217D01*
X122396967Y-91186540D01*
X122399801Y-91212898D01*
X122399801Y-93332747D01*
X122380116Y-93399786D01*
X122327312Y-93445541D01*
X122258154Y-93455485D01*
X122194598Y-93426460D01*
X122188120Y-93420428D01*
X120977682Y-92209991D01*
X120957975Y-92184309D01*
X120946818Y-92164984D01*
X120636819Y-91854985D01*
X120603334Y-91793662D01*
X120600500Y-91767304D01*
X120600500Y-90833445D01*
X120600500Y-90833443D01*
X120559658Y-90681017D01*
X120559577Y-90680715D01*
X120530639Y-90630595D01*
X120480520Y-90543784D01*
X120368716Y-90431980D01*
X120368715Y-90431979D01*
X120364385Y-90427649D01*
X120364374Y-90427639D01*
X119236818Y-89300083D01*
X119203333Y-89238760D01*
X119200499Y-89212411D01*
X119200499Y-88599992D01*
X119196984Y-88565587D01*
X119189999Y-88497203D01*
X119189998Y-88497200D01*
X119189998Y-88497199D01*
X119134814Y-88330666D01*
X119042712Y-88181344D01*
X118949049Y-88087681D01*
X118915564Y-88026358D01*
X118920548Y-87956666D01*
X118949049Y-87912319D01*
X118987368Y-87874000D01*
X119042712Y-87818656D01*
X119134814Y-87669334D01*
X119189999Y-87502797D01*
X119200500Y-87400009D01*
X119200499Y-86774992D01*
X119192838Y-86700000D01*
X119189999Y-86672203D01*
X119189998Y-86672200D01*
X119178562Y-86637689D01*
X119134814Y-86505666D01*
X119042712Y-86356344D01*
X118994628Y-86308260D01*
X118961144Y-86246938D01*
X118966128Y-86177246D01*
X118994628Y-86132900D01*
X119044026Y-86083503D01*
X119135362Y-85935425D01*
X119190087Y-85770275D01*
X119200500Y-85668348D01*
X119200500Y-85081652D01*
X119190087Y-84979725D01*
X119135362Y-84814575D01*
X119135358Y-84814569D01*
X119135357Y-84814566D01*
X119044028Y-84666500D01*
X119044025Y-84666496D01*
X118921003Y-84543474D01*
X118920995Y-84543468D01*
X118919812Y-84542738D01*
X118919171Y-84542025D01*
X118915336Y-84538993D01*
X118915854Y-84538337D01*
X118873091Y-84490787D01*
X118861875Y-84421823D01*
X118889723Y-84357743D01*
X118915123Y-84335738D01*
X118915023Y-84335612D01*
X118917842Y-84333382D01*
X118919832Y-84331659D01*
X118920692Y-84331128D01*
X119043629Y-84208191D01*
X119134903Y-84060214D01*
X119134905Y-84060209D01*
X119189592Y-83895173D01*
X119199999Y-83793315D01*
X119200000Y-83793302D01*
X119200000Y-83750000D01*
X116800000Y-83750000D01*
X116800000Y-83793315D01*
X116810407Y-83895173D01*
X116865094Y-84060209D01*
X116865096Y-84060214D01*
X116956370Y-84208191D01*
X117079309Y-84331130D01*
X117080173Y-84331663D01*
X117080641Y-84332183D01*
X117084977Y-84335612D01*
X117084391Y-84336352D01*
X117126901Y-84383608D01*
X117138126Y-84452570D01*
X117110286Y-84516654D01*
X117084601Y-84538914D01*
X117084664Y-84538993D01*
X117082912Y-84540378D01*
X117080194Y-84542734D01*
X117079005Y-84543467D01*
X117078996Y-84543474D01*
X116955974Y-84666496D01*
X116955971Y-84666500D01*
X116864642Y-84814566D01*
X116864637Y-84814577D01*
X116809913Y-84979723D01*
X116799500Y-85081644D01*
X116799500Y-85668355D01*
X116809913Y-85770276D01*
X116864637Y-85935422D01*
X116864642Y-85935433D01*
X116955971Y-86083499D01*
X116955974Y-86083503D01*
X117005370Y-86132899D01*
X117038855Y-86194222D01*
X117033871Y-86263914D01*
X117005371Y-86308260D01*
X116957289Y-86356342D01*
X116865187Y-86505663D01*
X116865185Y-86505668D01*
X116854402Y-86538209D01*
X116810001Y-86672203D01*
X116810001Y-86672204D01*
X116810000Y-86672204D01*
X116799500Y-86774983D01*
X116799500Y-87400001D01*
X116799501Y-87400019D01*
X116810000Y-87502796D01*
X116810001Y-87502799D01*
X116865185Y-87669331D01*
X116865187Y-87669336D01*
X116957289Y-87818657D01*
X117050951Y-87912319D01*
X117084436Y-87973642D01*
X117079452Y-88043334D01*
X117050951Y-88087681D01*
X116957289Y-88181342D01*
X116957288Y-88181344D01*
X116916565Y-88247368D01*
X116909699Y-88258499D01*
X116857751Y-88305223D01*
X116788788Y-88316446D01*
X116724706Y-88288602D01*
X116716479Y-88281083D01*
X116181408Y-87746013D01*
X116147923Y-87684690D01*
X116151382Y-87619333D01*
X116189999Y-87502797D01*
X116200500Y-87400009D01*
X116200499Y-86774992D01*
X116192838Y-86700000D01*
X116189999Y-86672203D01*
X116189998Y-86672200D01*
X116178562Y-86637689D01*
X116134814Y-86505666D01*
X116042712Y-86356344D01*
X116025879Y-86339511D01*
X115992394Y-86278188D01*
X115997378Y-86208496D01*
X116025881Y-86164147D01*
X116044026Y-86146003D01*
X116135362Y-85997925D01*
X116190087Y-85832775D01*
X116200500Y-85730848D01*
X116200500Y-85144152D01*
X116190087Y-85042225D01*
X116135362Y-84877075D01*
X116135358Y-84877069D01*
X116135357Y-84877066D01*
X116044028Y-84729000D01*
X116044025Y-84728996D01*
X115921003Y-84605974D01*
X115920995Y-84605968D01*
X115919812Y-84605238D01*
X115919171Y-84604525D01*
X115915336Y-84601493D01*
X115915854Y-84600837D01*
X115873091Y-84553287D01*
X115861875Y-84484323D01*
X115889723Y-84420243D01*
X115915123Y-84398238D01*
X115915023Y-84398112D01*
X115917842Y-84395882D01*
X115919832Y-84394159D01*
X115920692Y-84393628D01*
X116043629Y-84270691D01*
X116134903Y-84122714D01*
X116134905Y-84122709D01*
X116189592Y-83957673D01*
X116199999Y-83855815D01*
X116200000Y-83855802D01*
X116200000Y-83812500D01*
X113800000Y-83812500D01*
X113800000Y-83855815D01*
X113810407Y-83957673D01*
X113865094Y-84122709D01*
X113865096Y-84122714D01*
X113956370Y-84270691D01*
X114079309Y-84393630D01*
X114080173Y-84394163D01*
X114080641Y-84394683D01*
X114084977Y-84398112D01*
X114084391Y-84398852D01*
X114126901Y-84446108D01*
X114138126Y-84515070D01*
X114110286Y-84579154D01*
X114084601Y-84601414D01*
X114084664Y-84601493D01*
X114082912Y-84602878D01*
X114080194Y-84605234D01*
X114079005Y-84605967D01*
X114078996Y-84605974D01*
X113955974Y-84728996D01*
X113955971Y-84729000D01*
X113864642Y-84877066D01*
X113864637Y-84877077D01*
X113809913Y-85042223D01*
X113799500Y-85144144D01*
X113799500Y-85730855D01*
X113809913Y-85832776D01*
X113864637Y-85997922D01*
X113864642Y-85997933D01*
X113955971Y-86145999D01*
X113955974Y-86146003D01*
X113974119Y-86164148D01*
X114007604Y-86225471D01*
X114002620Y-86295163D01*
X113974123Y-86339506D01*
X113957293Y-86356337D01*
X113957289Y-86356342D01*
X113957288Y-86356344D01*
X113938492Y-86386818D01*
X113865187Y-86505663D01*
X113865185Y-86505668D01*
X113854402Y-86538209D01*
X113810001Y-86672203D01*
X113810001Y-86672204D01*
X113810000Y-86672204D01*
X113799500Y-86774983D01*
X113799500Y-86774991D01*
X113799500Y-87080664D01*
X113799501Y-87374500D01*
X113779817Y-87441539D01*
X113727013Y-87487294D01*
X113675501Y-87498500D01*
X113324500Y-87498500D01*
X113257461Y-87478815D01*
X113211706Y-87426011D01*
X113200500Y-87374500D01*
X113200499Y-86774998D01*
X113200498Y-86774980D01*
X113189999Y-86672203D01*
X113189998Y-86672200D01*
X113178562Y-86637689D01*
X113134814Y-86505666D01*
X113042712Y-86356344D01*
X113025879Y-86339511D01*
X112992394Y-86278188D01*
X112997378Y-86208496D01*
X113025881Y-86164147D01*
X113044026Y-86146003D01*
X113135362Y-85997925D01*
X113190087Y-85832775D01*
X113200500Y-85730848D01*
X113200500Y-85144152D01*
X113190087Y-85042225D01*
X113135362Y-84877075D01*
X113135358Y-84877069D01*
X113135357Y-84877066D01*
X113044028Y-84729000D01*
X113044025Y-84728996D01*
X112921003Y-84605974D01*
X112920995Y-84605968D01*
X112919812Y-84605238D01*
X112919171Y-84604525D01*
X112915336Y-84601493D01*
X112915854Y-84600837D01*
X112873091Y-84553287D01*
X112861875Y-84484323D01*
X112889723Y-84420243D01*
X112915123Y-84398238D01*
X112915023Y-84398112D01*
X112917842Y-84395882D01*
X112919832Y-84394159D01*
X112920692Y-84393628D01*
X113043629Y-84270691D01*
X113134903Y-84122714D01*
X113134905Y-84122709D01*
X113189592Y-83957673D01*
X113199999Y-83855815D01*
X113200000Y-83855802D01*
X113200000Y-83812500D01*
X110800000Y-83812500D01*
X110800000Y-83855815D01*
X110810407Y-83957673D01*
X110865094Y-84122709D01*
X110865096Y-84122714D01*
X110956370Y-84270691D01*
X111079309Y-84393630D01*
X111080173Y-84394163D01*
X111080641Y-84394683D01*
X111084977Y-84398112D01*
X111084391Y-84398852D01*
X111126901Y-84446108D01*
X111138126Y-84515070D01*
X111110286Y-84579154D01*
X111084601Y-84601414D01*
X111084664Y-84601493D01*
X111082912Y-84602878D01*
X111080194Y-84605234D01*
X111079005Y-84605967D01*
X111078996Y-84605974D01*
X110955974Y-84728996D01*
X110955971Y-84729000D01*
X110864642Y-84877066D01*
X110864637Y-84877077D01*
X110809913Y-85042223D01*
X110799500Y-85144144D01*
X110799500Y-85730855D01*
X110809913Y-85832776D01*
X110864637Y-85997922D01*
X110864642Y-85997933D01*
X110955971Y-86145999D01*
X110955974Y-86146003D01*
X110974119Y-86164148D01*
X111007604Y-86225471D01*
X111002620Y-86295163D01*
X110974123Y-86339506D01*
X110957293Y-86356337D01*
X110957289Y-86356342D01*
X110957288Y-86356344D01*
X110938492Y-86386818D01*
X110865187Y-86505663D01*
X110865185Y-86505668D01*
X110854402Y-86538209D01*
X110810001Y-86672203D01*
X110810001Y-86672204D01*
X110810000Y-86672204D01*
X110799500Y-86774983D01*
X110799500Y-87400001D01*
X110799501Y-87400019D01*
X110810000Y-87502796D01*
X110810001Y-87502799D01*
X110865185Y-87669331D01*
X110865187Y-87669336D01*
X110957289Y-87818657D01*
X111050951Y-87912319D01*
X111084436Y-87973642D01*
X111079452Y-88043334D01*
X111050951Y-88087681D01*
X110957289Y-88181342D01*
X110865187Y-88330663D01*
X110865185Y-88330668D01*
X110857810Y-88352926D01*
X110810001Y-88497203D01*
X110810001Y-88497204D01*
X110810000Y-88497204D01*
X110799500Y-88599983D01*
X110799500Y-88840602D01*
X110779815Y-88907641D01*
X110727011Y-88953396D01*
X110657853Y-88963340D01*
X110594297Y-88934315D01*
X110587819Y-88928283D01*
X110224961Y-88565425D01*
X110191476Y-88504102D01*
X110191387Y-88503690D01*
X110189998Y-88497199D01*
X110171822Y-88442351D01*
X110134814Y-88330666D01*
X110042712Y-88181344D01*
X109949049Y-88087681D01*
X109915564Y-88026358D01*
X109920548Y-87956666D01*
X109949049Y-87912319D01*
X109987368Y-87874000D01*
X110042712Y-87818656D01*
X110134814Y-87669334D01*
X110189999Y-87502797D01*
X110200500Y-87400009D01*
X110200499Y-86774992D01*
X110192838Y-86700000D01*
X110189999Y-86672203D01*
X110189998Y-86672200D01*
X110178562Y-86637689D01*
X110134814Y-86505666D01*
X110042712Y-86356344D01*
X110025879Y-86339511D01*
X109992394Y-86278188D01*
X109997378Y-86208496D01*
X110025881Y-86164147D01*
X110044026Y-86146003D01*
X110135362Y-85997925D01*
X110190087Y-85832775D01*
X110200500Y-85730848D01*
X110200500Y-85144152D01*
X110190087Y-85042225D01*
X110135362Y-84877075D01*
X110135358Y-84877069D01*
X110135357Y-84877066D01*
X110044028Y-84729000D01*
X110044025Y-84728996D01*
X109921003Y-84605974D01*
X109920995Y-84605968D01*
X109919812Y-84605238D01*
X109919171Y-84604525D01*
X109915336Y-84601493D01*
X109915854Y-84600837D01*
X109873091Y-84553287D01*
X109861875Y-84484323D01*
X109889723Y-84420243D01*
X109915123Y-84398238D01*
X109915023Y-84398112D01*
X109917842Y-84395882D01*
X109919832Y-84394159D01*
X109920692Y-84393628D01*
X110043629Y-84270691D01*
X110134903Y-84122714D01*
X110134905Y-84122709D01*
X110189592Y-83957673D01*
X110199999Y-83855815D01*
X110200000Y-83855802D01*
X110200000Y-83812500D01*
X107800000Y-83812500D01*
X107800000Y-83855815D01*
X107810407Y-83957673D01*
X107865094Y-84122709D01*
X107865096Y-84122714D01*
X107956370Y-84270691D01*
X108079309Y-84393630D01*
X108080173Y-84394163D01*
X108080641Y-84394683D01*
X108084977Y-84398112D01*
X108084391Y-84398852D01*
X108126901Y-84446108D01*
X108138126Y-84515070D01*
X108110286Y-84579154D01*
X108084601Y-84601414D01*
X108084664Y-84601493D01*
X108082912Y-84602878D01*
X108080194Y-84605234D01*
X108079005Y-84605967D01*
X108078996Y-84605974D01*
X107955974Y-84728996D01*
X107955971Y-84729000D01*
X107864642Y-84877066D01*
X107864637Y-84877077D01*
X107809913Y-85042223D01*
X107799500Y-85144144D01*
X107799500Y-85730855D01*
X107809913Y-85832776D01*
X107864637Y-85997922D01*
X107864642Y-85997933D01*
X107955971Y-86145999D01*
X107955974Y-86146003D01*
X107974119Y-86164148D01*
X108007604Y-86225471D01*
X108002620Y-86295163D01*
X107974123Y-86339506D01*
X107957293Y-86356337D01*
X107957289Y-86356342D01*
X107957288Y-86356344D01*
X107938492Y-86386818D01*
X107865187Y-86505663D01*
X107865185Y-86505668D01*
X107854402Y-86538209D01*
X107810001Y-86672203D01*
X107810001Y-86672204D01*
X107810000Y-86672204D01*
X107799500Y-86774983D01*
X107799500Y-87400001D01*
X107799501Y-87400019D01*
X107810000Y-87502796D01*
X107810001Y-87502799D01*
X107865185Y-87669331D01*
X107865187Y-87669336D01*
X107957289Y-87818657D01*
X108050951Y-87912319D01*
X108084436Y-87973642D01*
X108079452Y-88043334D01*
X108050951Y-88087681D01*
X107957289Y-88181342D01*
X107865187Y-88330663D01*
X107865185Y-88330668D01*
X107857810Y-88352926D01*
X107810001Y-88497203D01*
X107810001Y-88497204D01*
X107810000Y-88497204D01*
X107799500Y-88599983D01*
X107799500Y-89225001D01*
X107799502Y-89225022D01*
X107803371Y-89262900D01*
X107790601Y-89331593D01*
X107742719Y-89382476D01*
X107680013Y-89399500D01*
X107387597Y-89399500D01*
X107358156Y-89390855D01*
X107328170Y-89384332D01*
X107323154Y-89380577D01*
X107320558Y-89379815D01*
X107299916Y-89363181D01*
X107236818Y-89300083D01*
X107203333Y-89238760D01*
X107200499Y-89212411D01*
X107200499Y-88599992D01*
X107196984Y-88565587D01*
X107189999Y-88497203D01*
X107189998Y-88497200D01*
X107189998Y-88497199D01*
X107134814Y-88330666D01*
X107042712Y-88181344D01*
X106949049Y-88087681D01*
X106915564Y-88026358D01*
X106920548Y-87956666D01*
X106949049Y-87912319D01*
X106987368Y-87874000D01*
X107042712Y-87818656D01*
X107134814Y-87669334D01*
X107189999Y-87502797D01*
X107200500Y-87400009D01*
X107200499Y-86774992D01*
X107192838Y-86700000D01*
X107189999Y-86672203D01*
X107189998Y-86672200D01*
X107178562Y-86637689D01*
X107134814Y-86505666D01*
X107042712Y-86356344D01*
X107025879Y-86339511D01*
X106992394Y-86278188D01*
X106997378Y-86208496D01*
X107025881Y-86164147D01*
X107044026Y-86146003D01*
X107135362Y-85997925D01*
X107190087Y-85832775D01*
X107200500Y-85730848D01*
X107200500Y-85144152D01*
X107190087Y-85042225D01*
X107135362Y-84877075D01*
X107135358Y-84877069D01*
X107135357Y-84877066D01*
X107044028Y-84729000D01*
X107044025Y-84728996D01*
X106921003Y-84605974D01*
X106920995Y-84605968D01*
X106919812Y-84605238D01*
X106919171Y-84604525D01*
X106915336Y-84601493D01*
X106915854Y-84600837D01*
X106873091Y-84553287D01*
X106861875Y-84484323D01*
X106889723Y-84420243D01*
X106915123Y-84398238D01*
X106915023Y-84398112D01*
X106917842Y-84395882D01*
X106919832Y-84394159D01*
X106920692Y-84393628D01*
X107043629Y-84270691D01*
X107134903Y-84122714D01*
X107134905Y-84122709D01*
X107189592Y-83957673D01*
X107199999Y-83855815D01*
X107200000Y-83855802D01*
X107200000Y-83812500D01*
X104800000Y-83812500D01*
X104800000Y-83855815D01*
X104810407Y-83957673D01*
X104865094Y-84122709D01*
X104865096Y-84122714D01*
X104956370Y-84270691D01*
X105079309Y-84393630D01*
X105080173Y-84394163D01*
X105080641Y-84394683D01*
X105084977Y-84398112D01*
X105084391Y-84398852D01*
X105126901Y-84446108D01*
X105138126Y-84515070D01*
X105110286Y-84579154D01*
X105084601Y-84601414D01*
X105084664Y-84601493D01*
X105082912Y-84602878D01*
X105080194Y-84605234D01*
X105079005Y-84605967D01*
X105078996Y-84605974D01*
X104955974Y-84728996D01*
X104955971Y-84729000D01*
X104864642Y-84877066D01*
X104864637Y-84877077D01*
X104809913Y-85042223D01*
X104799500Y-85144144D01*
X104799500Y-85730855D01*
X104809913Y-85832776D01*
X104864637Y-85997922D01*
X104864642Y-85997933D01*
X104955971Y-86145999D01*
X104955974Y-86146003D01*
X104974119Y-86164148D01*
X105007604Y-86225471D01*
X105002620Y-86295163D01*
X104974123Y-86339506D01*
X104957293Y-86356337D01*
X104957289Y-86356342D01*
X104957288Y-86356344D01*
X104938492Y-86386818D01*
X104865187Y-86505663D01*
X104865185Y-86505668D01*
X104854402Y-86538209D01*
X104810001Y-86672203D01*
X104810001Y-86672204D01*
X104810000Y-86672204D01*
X104799500Y-86774983D01*
X104799500Y-87400001D01*
X104799501Y-87400019D01*
X104810000Y-87502796D01*
X104810001Y-87502799D01*
X104865185Y-87669331D01*
X104865187Y-87669336D01*
X104957289Y-87818657D01*
X105050951Y-87912319D01*
X105084436Y-87973642D01*
X105079452Y-88043334D01*
X105050951Y-88087681D01*
X104957289Y-88181342D01*
X104865187Y-88330663D01*
X104865185Y-88330668D01*
X104857810Y-88352926D01*
X104810001Y-88497203D01*
X104810001Y-88497204D01*
X104810000Y-88497204D01*
X104799500Y-88599983D01*
X104799500Y-89225001D01*
X104799501Y-89225019D01*
X104810000Y-89327796D01*
X104810001Y-89327799D01*
X104865185Y-89494331D01*
X104865187Y-89494336D01*
X104876699Y-89513000D01*
X104957288Y-89643656D01*
X105081344Y-89767712D01*
X105230666Y-89859814D01*
X105397203Y-89914999D01*
X105499991Y-89925500D01*
X106112402Y-89925499D01*
X106179441Y-89945183D01*
X106200083Y-89961818D01*
X106602639Y-90364374D01*
X106602649Y-90364385D01*
X106606979Y-90368715D01*
X106606980Y-90368716D01*
X106718784Y-90480520D01*
X106746524Y-90496535D01*
X106805595Y-90530639D01*
X106805597Y-90530641D01*
X106855713Y-90559576D01*
X106855715Y-90559577D01*
X107008442Y-90600500D01*
X107008443Y-90600500D01*
X108288743Y-90600500D01*
X108355782Y-90620185D01*
X108376423Y-90636818D01*
X108720124Y-90980520D01*
X108720126Y-90980521D01*
X108720130Y-90980524D01*
X108764099Y-91005909D01*
X108857056Y-91059577D01*
X109009783Y-91100501D01*
X109009785Y-91100501D01*
X109175494Y-91100501D01*
X109175510Y-91100500D01*
X110443104Y-91100500D01*
X110510143Y-91120185D01*
X110530785Y-91136819D01*
X111081784Y-91687818D01*
X111092394Y-91707250D01*
X111106897Y-91723986D01*
X111108814Y-91737319D01*
X111115269Y-91749141D01*
X111113689Y-91771226D01*
X111116841Y-91793145D01*
X111111245Y-91805397D01*
X111110285Y-91818833D01*
X111097015Y-91836558D01*
X111087817Y-91856701D01*
X111076484Y-91863984D01*
X111068413Y-91874766D01*
X111047668Y-91882503D01*
X111029039Y-91894476D01*
X111007119Y-91897627D01*
X111002949Y-91899183D01*
X110994105Y-91899499D01*
X110920943Y-91899499D01*
X110920939Y-91899499D01*
X110913333Y-91899500D01*
X110913332Y-91899499D01*
X110913331Y-91899500D01*
X100124499Y-91899500D01*
X100057460Y-91879815D01*
X100011705Y-91827011D01*
X100000499Y-91775500D01*
X100000499Y-91452129D01*
X100000498Y-91452123D01*
X100000497Y-91452116D01*
X99994091Y-91392517D01*
X99967522Y-91321283D01*
X99943797Y-91257671D01*
X99943793Y-91257664D01*
X99857547Y-91142455D01*
X99857544Y-91142452D01*
X99742335Y-91056206D01*
X99742328Y-91056202D01*
X99607482Y-91005908D01*
X99607483Y-91005908D01*
X99547883Y-90999501D01*
X99547881Y-90999500D01*
X99547873Y-90999500D01*
X99547864Y-90999500D01*
X97452129Y-90999500D01*
X97452123Y-90999501D01*
X97392516Y-91005908D01*
X97257671Y-91056202D01*
X97257664Y-91056206D01*
X97142455Y-91142452D01*
X97142452Y-91142455D01*
X97056206Y-91257664D01*
X97056202Y-91257671D01*
X97005908Y-91392517D01*
X97005104Y-91400000D01*
X96999501Y-91452123D01*
X96999500Y-91452135D01*
X96999500Y-93547870D01*
X96999501Y-93547876D01*
X97005908Y-93607483D01*
X97056202Y-93742328D01*
X97056206Y-93742335D01*
X97142452Y-93857544D01*
X97142455Y-93857547D01*
X97257664Y-93943793D01*
X97257671Y-93943797D01*
X97392517Y-93994091D01*
X97392516Y-93994091D01*
X97399444Y-93994835D01*
X97452127Y-94000500D01*
X99547872Y-94000499D01*
X99607483Y-93994091D01*
X99742331Y-93943796D01*
X99857546Y-93857546D01*
X99943796Y-93742331D01*
X99994091Y-93607483D01*
X100000500Y-93547873D01*
X100000500Y-93224500D01*
X100020185Y-93157461D01*
X100072989Y-93111706D01*
X100124500Y-93100500D01*
X110699903Y-93100500D01*
X110766942Y-93120185D01*
X110787584Y-93136819D01*
X116165425Y-98514660D01*
X116198910Y-98575983D01*
X116199361Y-98578149D01*
X116230261Y-98733491D01*
X116230264Y-98733501D01*
X116290602Y-98879172D01*
X116290609Y-98879185D01*
X116378210Y-99010288D01*
X116378213Y-99010292D01*
X116489707Y-99121786D01*
X116489711Y-99121789D01*
X116620814Y-99209390D01*
X116620827Y-99209397D01*
X116734949Y-99256667D01*
X116766503Y-99269737D01*
X116905704Y-99297426D01*
X116921153Y-99300499D01*
X116921156Y-99300500D01*
X116921158Y-99300500D01*
X117078844Y-99300500D01*
X117078845Y-99300499D01*
X117233497Y-99269737D01*
X117379179Y-99209394D01*
X117510289Y-99121789D01*
X117621789Y-99010289D01*
X117709394Y-98879179D01*
X117769737Y-98733497D01*
X117783829Y-98662648D01*
X117816213Y-98600740D01*
X117876928Y-98566166D01*
X117946698Y-98569905D01*
X117993127Y-98599161D01*
X120084086Y-100690120D01*
X120117571Y-100751443D01*
X120112587Y-100821135D01*
X120070715Y-100877068D01*
X120005251Y-100901485D01*
X119996405Y-100901801D01*
X115385602Y-100901801D01*
X115318563Y-100882116D01*
X115272808Y-100829312D01*
X115262864Y-100760154D01*
X115268532Y-100739494D01*
X115267969Y-100739324D01*
X115269731Y-100733509D01*
X115269737Y-100733497D01*
X115300500Y-100578842D01*
X115300500Y-100421158D01*
X115300500Y-100421155D01*
X115300499Y-100421153D01*
X115298787Y-100412544D01*
X115269737Y-100266503D01*
X115262901Y-100250000D01*
X115209397Y-100120827D01*
X115209390Y-100120814D01*
X115121789Y-99989711D01*
X115121786Y-99989707D01*
X115010292Y-99878213D01*
X115010288Y-99878210D01*
X114879185Y-99790609D01*
X114879172Y-99790602D01*
X114733501Y-99730264D01*
X114733491Y-99730261D01*
X114578151Y-99699362D01*
X114516241Y-99666977D01*
X114514662Y-99665426D01*
X112947590Y-98098355D01*
X112947588Y-98098352D01*
X112828717Y-97979481D01*
X112828716Y-97979480D01*
X112727326Y-97920943D01*
X112727325Y-97920942D01*
X112701307Y-97905921D01*
X112691785Y-97900423D01*
X112691784Y-97900422D01*
X112691783Y-97900422D01*
X112618593Y-97880811D01*
X112539057Y-97859499D01*
X112380943Y-97859499D01*
X112373347Y-97859499D01*
X112373331Y-97859500D01*
X103176999Y-97859500D01*
X103109960Y-97839815D01*
X103064205Y-97787011D01*
X103052999Y-97735500D01*
X103052999Y-97562129D01*
X103052998Y-97562123D01*
X103052997Y-97562116D01*
X103046591Y-97502517D01*
X103036141Y-97474500D01*
X102996297Y-97367671D01*
X102996293Y-97367664D01*
X102910047Y-97252455D01*
X102910044Y-97252452D01*
X102794835Y-97166206D01*
X102794828Y-97166202D01*
X102659982Y-97115908D01*
X102659983Y-97115908D01*
X102600383Y-97109501D01*
X102600381Y-97109500D01*
X102600373Y-97109500D01*
X102600364Y-97109500D01*
X100804629Y-97109500D01*
X100804623Y-97109501D01*
X100745016Y-97115908D01*
X100610171Y-97166202D01*
X100610164Y-97166206D01*
X100494955Y-97252452D01*
X100494952Y-97252455D01*
X100408706Y-97367664D01*
X100408702Y-97367671D01*
X100358408Y-97502517D01*
X100352001Y-97562116D01*
X100352001Y-97562123D01*
X100352000Y-97562135D01*
X100352000Y-99357870D01*
X100352001Y-99357876D01*
X100358408Y-99417483D01*
X100408702Y-99552328D01*
X100408706Y-99552335D01*
X100494952Y-99667544D01*
X100494955Y-99667547D01*
X100610164Y-99753793D01*
X100610171Y-99753797D01*
X100741582Y-99802810D01*
X100797516Y-99844681D01*
X100821933Y-99910145D01*
X100807082Y-99978418D01*
X100785931Y-100006673D01*
X100672389Y-100120215D01*
X100547451Y-100292179D01*
X100450944Y-100481585D01*
X100450943Y-100481587D01*
X100450943Y-100481588D01*
X100438679Y-100519333D01*
X100385253Y-100683760D01*
X100352000Y-100893713D01*
X100352000Y-101106286D01*
X100381461Y-101292300D01*
X100385254Y-101316243D01*
X100446976Y-101506204D01*
X100450944Y-101518414D01*
X100547451Y-101707820D01*
X100672390Y-101879786D01*
X100822713Y-102030109D01*
X100994682Y-102155050D01*
X101003446Y-102159516D01*
X101054242Y-102207491D01*
X101071036Y-102275312D01*
X101048498Y-102341447D01*
X101003446Y-102380484D01*
X100994682Y-102384949D01*
X100822713Y-102509890D01*
X100672390Y-102660213D01*
X100547448Y-102832184D01*
X100547447Y-102832185D01*
X100527265Y-102871795D01*
X100479291Y-102922591D01*
X100416781Y-102939500D01*
X98204835Y-102939500D01*
X98137796Y-102919815D01*
X98125528Y-102910822D01*
X98114308Y-102901487D01*
X98107546Y-102892454D01*
X98066689Y-102861869D01*
X98064227Y-102859820D01*
X98046463Y-102833362D01*
X98027351Y-102807829D01*
X98027116Y-102804544D01*
X98025281Y-102801811D01*
X98024641Y-102769937D01*
X98022368Y-102738137D01*
X98023933Y-102734642D01*
X98023880Y-102731956D01*
X98028521Y-102724405D01*
X98043214Y-102691616D01*
X98069524Y-102655405D01*
X98158884Y-102480025D01*
X98219709Y-102292826D01*
X98226245Y-102251557D01*
X98250500Y-102098422D01*
X98250500Y-101901577D01*
X98219709Y-101707173D01*
X98158882Y-101519970D01*
X98072292Y-101350028D01*
X98069524Y-101344595D01*
X97953828Y-101185354D01*
X97856155Y-101087681D01*
X97822670Y-101026358D01*
X97827654Y-100956666D01*
X97856155Y-100912319D01*
X97900858Y-100867616D01*
X97953828Y-100814646D01*
X98069524Y-100655405D01*
X98158884Y-100480025D01*
X98219709Y-100292826D01*
X98225325Y-100257366D01*
X98250500Y-100098422D01*
X98250500Y-99901577D01*
X98219709Y-99707173D01*
X98158882Y-99519970D01*
X98067647Y-99340912D01*
X98054751Y-99272243D01*
X98081027Y-99207502D01*
X98105248Y-99184298D01*
X98192652Y-99120796D01*
X98192652Y-99120795D01*
X98192656Y-99120793D01*
X98370793Y-98942656D01*
X98518870Y-98738845D01*
X98633241Y-98514379D01*
X98711090Y-98274785D01*
X98750500Y-98025962D01*
X98750500Y-97774038D01*
X98711090Y-97525215D01*
X98633241Y-97285621D01*
X98633239Y-97285618D01*
X98633239Y-97285616D01*
X98572394Y-97166202D01*
X98518870Y-97061155D01*
X98436758Y-96948137D01*
X98370798Y-96857350D01*
X98370794Y-96857345D01*
X98192654Y-96679205D01*
X98192649Y-96679201D01*
X97988848Y-96531132D01*
X97988847Y-96531131D01*
X97988845Y-96531130D01*
X97903842Y-96487819D01*
X97764383Y-96416760D01*
X97524785Y-96338910D01*
X97275962Y-96299500D01*
X95724038Y-96299500D01*
X95599626Y-96319205D01*
X95475214Y-96338910D01*
X95235616Y-96416760D01*
X95011151Y-96531132D01*
X94807350Y-96679201D01*
X94807345Y-96679205D01*
X94629205Y-96857345D01*
X94629201Y-96857350D01*
X94481132Y-97061151D01*
X94366760Y-97285616D01*
X94288910Y-97525214D01*
X94263929Y-97682939D01*
X94249500Y-97774038D01*
X94249500Y-98025962D01*
X94266524Y-98133445D01*
X94288910Y-98274785D01*
X94366760Y-98514383D01*
X94426681Y-98631983D01*
X94478407Y-98733501D01*
X94481132Y-98738848D01*
X94629201Y-98942649D01*
X94629205Y-98942654D01*
X94807349Y-99120798D01*
X94894752Y-99184299D01*
X94937418Y-99239628D01*
X94943397Y-99309242D01*
X94932352Y-99340911D01*
X94841118Y-99519967D01*
X94780290Y-99707173D01*
X94749500Y-99901577D01*
X94749500Y-100098422D01*
X94780290Y-100292826D01*
X94841117Y-100480029D01*
X94927467Y-100649500D01*
X94930476Y-100655405D01*
X95046172Y-100814646D01*
X95046174Y-100814648D01*
X95143845Y-100912319D01*
X95177330Y-100973642D01*
X95172346Y-101043334D01*
X95143845Y-101087681D01*
X95046174Y-101185351D01*
X95046174Y-101185352D01*
X95046172Y-101185354D01*
X95005182Y-101241772D01*
X94930476Y-101344594D01*
X94841117Y-101519970D01*
X94780290Y-101707173D01*
X94749500Y-101901577D01*
X94749500Y-102098422D01*
X94780290Y-102292826D01*
X94841117Y-102480029D01*
X94913348Y-102621789D01*
X94930476Y-102655405D01*
X94956781Y-102691611D01*
X94956783Y-102691613D01*
X94980263Y-102757419D01*
X94964438Y-102825473D01*
X94930777Y-102863765D01*
X94892452Y-102892455D01*
X94806206Y-103007664D01*
X94806202Y-103007671D01*
X94755908Y-103142517D01*
X94749501Y-103202116D01*
X94749500Y-103202135D01*
X94749500Y-104797870D01*
X94749501Y-104797876D01*
X94756669Y-104864555D01*
X94744262Y-104933314D01*
X94721061Y-104965488D01*
X94629205Y-105057345D01*
X94629201Y-105057350D01*
X94481132Y-105261151D01*
X94366760Y-105485616D01*
X94288910Y-105725214D01*
X94264525Y-105879172D01*
X94249500Y-105974038D01*
X94249500Y-106225962D01*
X94267517Y-106339718D01*
X94288910Y-106474785D01*
X94366760Y-106714383D01*
X94481132Y-106938848D01*
X94629201Y-107142649D01*
X94629205Y-107142654D01*
X94807345Y-107320794D01*
X94807350Y-107320798D01*
X94931100Y-107410707D01*
X95011155Y-107468870D01*
X95118375Y-107523501D01*
X95235616Y-107583239D01*
X95235618Y-107583239D01*
X95235621Y-107583241D01*
X95475215Y-107661090D01*
X95724038Y-107700500D01*
X95724039Y-107700500D01*
X97275961Y-107700500D01*
X97275962Y-107700500D01*
X97524785Y-107661090D01*
X97764379Y-107583241D01*
X97988845Y-107468870D01*
X98192656Y-107320793D01*
X98370793Y-107142656D01*
X98518870Y-106938845D01*
X98633241Y-106714379D01*
X98711090Y-106474785D01*
X98735846Y-106318481D01*
X98742947Y-106273650D01*
X98742964Y-106273539D01*
X98750500Y-106225962D01*
X98750500Y-105974038D01*
X98711090Y-105725215D01*
X98633241Y-105485621D01*
X98633239Y-105485618D01*
X98633239Y-105485616D01*
X98579142Y-105379446D01*
X98518870Y-105261155D01*
X98469930Y-105193795D01*
X98370798Y-105057350D01*
X98370794Y-105057345D01*
X98278939Y-104965490D01*
X98245454Y-104904167D01*
X98243331Y-104864554D01*
X98248159Y-104819643D01*
X98250500Y-104797873D01*
X98250500Y-104264500D01*
X98270185Y-104197461D01*
X98322989Y-104151706D01*
X98374500Y-104140500D01*
X100416781Y-104140500D01*
X100483820Y-104160185D01*
X100527265Y-104208205D01*
X100547447Y-104247814D01*
X100547448Y-104247815D01*
X100672390Y-104419786D01*
X100822713Y-104570109D01*
X100994679Y-104695048D01*
X100994681Y-104695049D01*
X100994684Y-104695051D01*
X101003993Y-104699794D01*
X101054790Y-104747766D01*
X101071587Y-104815587D01*
X101049052Y-104881722D01*
X101004002Y-104920762D01*
X100994943Y-104925378D01*
X100823040Y-105050272D01*
X100823035Y-105050276D01*
X100672776Y-105200535D01*
X100672772Y-105200540D01*
X100547879Y-105372442D01*
X100451404Y-105561782D01*
X100385742Y-105763870D01*
X100385742Y-105763873D01*
X100375269Y-105830000D01*
X101269488Y-105830000D01*
X101236575Y-105887007D01*
X101202500Y-106014174D01*
X101202500Y-106145826D01*
X101236575Y-106272993D01*
X101269488Y-106330000D01*
X100375269Y-106330000D01*
X100385742Y-106396126D01*
X100385742Y-106396129D01*
X100451404Y-106598217D01*
X100547879Y-106787557D01*
X100672772Y-106959459D01*
X100672776Y-106959464D01*
X100823035Y-107109723D01*
X100823040Y-107109727D01*
X100994942Y-107234620D01*
X101184282Y-107331095D01*
X101386371Y-107396757D01*
X101452500Y-107407231D01*
X101452500Y-106513012D01*
X101509507Y-106545925D01*
X101636674Y-106580000D01*
X101768326Y-106580000D01*
X101895493Y-106545925D01*
X101952500Y-106513012D01*
X101952500Y-107407230D01*
X102018626Y-107396757D01*
X102018629Y-107396757D01*
X102156254Y-107352040D01*
X102226095Y-107350045D01*
X102285928Y-107386125D01*
X102316756Y-107448826D01*
X102308791Y-107518240D01*
X102282253Y-107557652D01*
X100714224Y-109125681D01*
X100652901Y-109159166D01*
X100626543Y-109162000D01*
X99999998Y-109162000D01*
X99999980Y-109162001D01*
X99897203Y-109172500D01*
X99897200Y-109172501D01*
X99730668Y-109227685D01*
X99730663Y-109227687D01*
X99581342Y-109319789D01*
X99457289Y-109443842D01*
X99365187Y-109593163D01*
X99365186Y-109593166D01*
X99310001Y-109759703D01*
X99310001Y-109759704D01*
X99310000Y-109759704D01*
X99299500Y-109862483D01*
X99299500Y-110487501D01*
X99299501Y-110487519D01*
X99310000Y-110590296D01*
X99310001Y-110590299D01*
X99342377Y-110688001D01*
X99365186Y-110756834D01*
X99453501Y-110900017D01*
X99457289Y-110906157D01*
X99550951Y-110999819D01*
X99555289Y-111007763D01*
X99562538Y-111013190D01*
X99571773Y-111037952D01*
X99584436Y-111061142D01*
X99583790Y-111070172D01*
X99586954Y-111078655D01*
X99581337Y-111104475D01*
X99579452Y-111130834D01*
X99573633Y-111139887D01*
X99572102Y-111146928D01*
X99550953Y-111175178D01*
X99516237Y-111209895D01*
X99490783Y-111235349D01*
X99429459Y-111268833D01*
X99359767Y-111263848D01*
X99303834Y-111221977D01*
X99297563Y-111212763D01*
X99282288Y-111187999D01*
X99269026Y-111166497D01*
X99146003Y-111043474D01*
X99145999Y-111043471D01*
X98997933Y-110952142D01*
X98997927Y-110952139D01*
X98997925Y-110952138D01*
X98963984Y-110940891D01*
X98832776Y-110897413D01*
X98730855Y-110887000D01*
X98730848Y-110887000D01*
X98144152Y-110887000D01*
X98144144Y-110887000D01*
X98042223Y-110897413D01*
X97877077Y-110952137D01*
X97877066Y-110952142D01*
X97729000Y-111043471D01*
X97728996Y-111043474D01*
X97605974Y-111166496D01*
X97605967Y-111166505D01*
X97605234Y-111167694D01*
X97604519Y-111168336D01*
X97601493Y-111172164D01*
X97600838Y-111171646D01*
X97553280Y-111214411D01*
X97484316Y-111225623D01*
X97420238Y-111197771D01*
X97398238Y-111172377D01*
X97398112Y-111172477D01*
X97395885Y-111169661D01*
X97394163Y-111167673D01*
X97393630Y-111166809D01*
X97270691Y-111043870D01*
X97122714Y-110952596D01*
X97122709Y-110952594D01*
X96957673Y-110897907D01*
X96855815Y-110887500D01*
X96812500Y-110887500D01*
X96812500Y-113287500D01*
X96855803Y-113287500D01*
X96855815Y-113287499D01*
X96957673Y-113277092D01*
X97122709Y-113222405D01*
X97122714Y-113222403D01*
X97270691Y-113131129D01*
X97393628Y-113008192D01*
X97394159Y-113007332D01*
X97394680Y-113006863D01*
X97398112Y-113002523D01*
X97398853Y-113003108D01*
X97446101Y-112960602D01*
X97515063Y-112949372D01*
X97579148Y-112977208D01*
X97601413Y-113002898D01*
X97601493Y-113002836D01*
X97602890Y-113004603D01*
X97605238Y-113007312D01*
X97605968Y-113008495D01*
X97605974Y-113008503D01*
X97728996Y-113131525D01*
X97729000Y-113131528D01*
X97877066Y-113222857D01*
X97877069Y-113222858D01*
X97877075Y-113222862D01*
X98042225Y-113277587D01*
X98144152Y-113288000D01*
X98144157Y-113288000D01*
X98730843Y-113288000D01*
X98730848Y-113288000D01*
X98832775Y-113277587D01*
X98997925Y-113222862D01*
X99146003Y-113131526D01*
X99269026Y-113008503D01*
X99323732Y-112919812D01*
X99364154Y-112854278D01*
X99366881Y-112855960D01*
X99403601Y-112814238D01*
X99470790Y-112795070D01*
X99537676Y-112815270D01*
X99557517Y-112831385D01*
X99581344Y-112855212D01*
X99730666Y-112947314D01*
X99897203Y-113002499D01*
X99999991Y-113013000D01*
X101000008Y-113012999D01*
X101000016Y-113012998D01*
X101000019Y-113012998D01*
X101076052Y-113005231D01*
X101102797Y-113002499D01*
X101236497Y-112958194D01*
X101306324Y-112955793D01*
X101366366Y-112991524D01*
X101397559Y-113054045D01*
X101399500Y-113075901D01*
X101399500Y-113463000D01*
X101379815Y-113530039D01*
X101327011Y-113575794D01*
X101275500Y-113587000D01*
X101131903Y-113587000D01*
X100898631Y-113623946D01*
X100674003Y-113696933D01*
X100463566Y-113804157D01*
X100374709Y-113868716D01*
X100272490Y-113942983D01*
X100272488Y-113942985D01*
X100272487Y-113942985D01*
X100105485Y-114109987D01*
X100105485Y-114109988D01*
X100105483Y-114109990D01*
X100079004Y-114146435D01*
X99966657Y-114301066D01*
X99934060Y-114365040D01*
X99916944Y-114398635D01*
X99906417Y-114419295D01*
X99858442Y-114470091D01*
X99795932Y-114487000D01*
X96204068Y-114487000D01*
X96137029Y-114467315D01*
X96093583Y-114419295D01*
X96085331Y-114403099D01*
X96033343Y-114301067D01*
X95894517Y-114109990D01*
X95727510Y-113942983D01*
X95536433Y-113804157D01*
X95503224Y-113787236D01*
X95325992Y-113696931D01*
X95275623Y-113680565D01*
X95217948Y-113641127D01*
X95190751Y-113576768D01*
X95202667Y-113507922D01*
X95249912Y-113456447D01*
X95262853Y-113450497D01*
X95262579Y-113449908D01*
X95269124Y-113446856D01*
X95418345Y-113354815D01*
X95542317Y-113230843D01*
X95617052Y-113109678D01*
X95669000Y-113062953D01*
X95737962Y-113051730D01*
X95802044Y-113079573D01*
X95810272Y-113087093D01*
X95854308Y-113131129D01*
X96002285Y-113222403D01*
X96002290Y-113222405D01*
X96167326Y-113277092D01*
X96269184Y-113287499D01*
X96269197Y-113287500D01*
X96312500Y-113287500D01*
X96312500Y-110887500D01*
X96269184Y-110887500D01*
X96167326Y-110897907D01*
X96002290Y-110952594D01*
X96002281Y-110952598D01*
X95889595Y-111022104D01*
X95822203Y-111040544D01*
X95755540Y-111019621D01*
X95710770Y-110965979D01*
X95700499Y-110916569D01*
X95700499Y-110362492D01*
X95699301Y-110350769D01*
X95689999Y-110259703D01*
X95689998Y-110259700D01*
X95661513Y-110173739D01*
X95634814Y-110093166D01*
X95542712Y-109943844D01*
X95418656Y-109819788D01*
X95269334Y-109727686D01*
X95102797Y-109672501D01*
X95102795Y-109672500D01*
X95000010Y-109662000D01*
X93999998Y-109662000D01*
X93999980Y-109662001D01*
X93897203Y-109672500D01*
X93897200Y-109672501D01*
X93730668Y-109727685D01*
X93730663Y-109727687D01*
X93581342Y-109819789D01*
X93457289Y-109943842D01*
X93365187Y-110093163D01*
X93365185Y-110093168D01*
X93310001Y-110259701D01*
X93310000Y-110259708D01*
X93305260Y-110306103D01*
X93278863Y-110370795D01*
X93269583Y-110381180D01*
X92712181Y-110938583D01*
X92650858Y-110972068D01*
X92581167Y-110967084D01*
X92525233Y-110925213D01*
X92500816Y-110859748D01*
X92500500Y-110850902D01*
X92500500Y-84781947D01*
X97000000Y-84781947D01*
X97000000Y-85018052D01*
X97036934Y-85251247D01*
X97109897Y-85475802D01*
X97217087Y-85686174D01*
X97277338Y-85769104D01*
X97277340Y-85769105D01*
X98017037Y-85029408D01*
X98034075Y-85092993D01*
X98099901Y-85207007D01*
X98192993Y-85300099D01*
X98307007Y-85365925D01*
X98370590Y-85382962D01*
X97630893Y-86122658D01*
X97713828Y-86182914D01*
X97924197Y-86290102D01*
X98148752Y-86363065D01*
X98148751Y-86363065D01*
X98381948Y-86400000D01*
X98618052Y-86400000D01*
X98851247Y-86363065D01*
X99075802Y-86290102D01*
X99286163Y-86182918D01*
X99286169Y-86182914D01*
X99369104Y-86122658D01*
X99369105Y-86122658D01*
X98629408Y-85382962D01*
X98692993Y-85365925D01*
X98807007Y-85300099D01*
X98900099Y-85207007D01*
X98965925Y-85092993D01*
X98982962Y-85029408D01*
X99722658Y-85769105D01*
X99722658Y-85769104D01*
X99782914Y-85686169D01*
X99782918Y-85686163D01*
X99890102Y-85475802D01*
X99963065Y-85251247D01*
X100000000Y-85018052D01*
X100000000Y-84781947D01*
X99963065Y-84548752D01*
X99890102Y-84324197D01*
X99782914Y-84113828D01*
X99722658Y-84030894D01*
X99722658Y-84030893D01*
X98982962Y-84770590D01*
X98965925Y-84707007D01*
X98900099Y-84592993D01*
X98807007Y-84499901D01*
X98692993Y-84434075D01*
X98629409Y-84417037D01*
X99369105Y-83677340D01*
X99369104Y-83677338D01*
X99286174Y-83617087D01*
X99075802Y-83509897D01*
X98851247Y-83436934D01*
X98851248Y-83436934D01*
X98618052Y-83400000D01*
X98381948Y-83400000D01*
X98148752Y-83436934D01*
X97924197Y-83509897D01*
X97713830Y-83617084D01*
X97630894Y-83677340D01*
X98370591Y-84417037D01*
X98307007Y-84434075D01*
X98192993Y-84499901D01*
X98099901Y-84592993D01*
X98034075Y-84707007D01*
X98017037Y-84770591D01*
X97277340Y-84030894D01*
X97217084Y-84113830D01*
X97109897Y-84324197D01*
X97036934Y-84548752D01*
X97000000Y-84781947D01*
X92500500Y-84781947D01*
X92500500Y-84504427D01*
X92500816Y-84495581D01*
X92507947Y-84395882D01*
X92515131Y-84295434D01*
X92517646Y-84277938D01*
X92559356Y-84086199D01*
X92564333Y-84069248D01*
X92632911Y-83885385D01*
X92640259Y-83869298D01*
X92653553Y-83844951D01*
X92734291Y-83697089D01*
X92743854Y-83682210D01*
X92861448Y-83525123D01*
X92873020Y-83511769D01*
X93011769Y-83373020D01*
X93025123Y-83361448D01*
X93182221Y-83243845D01*
X93197089Y-83234291D01*
X93369298Y-83140258D01*
X93385385Y-83132911D01*
X93569248Y-83064333D01*
X93586199Y-83059356D01*
X93777938Y-83017646D01*
X93795436Y-83015130D01*
X93995582Y-83000816D01*
X94004428Y-83000500D01*
X94065892Y-83000500D01*
X104693967Y-83000500D01*
X104761006Y-83020185D01*
G37*
%TD.AperFunction*%
%TA.AperFunction,Conductor*%
G36*
X119409538Y-104502594D02*
G01*
X119442334Y-104503765D01*
X119444219Y-104505074D01*
X119446509Y-104505238D01*
X119472777Y-104524902D01*
X119499726Y-104543614D01*
X119501287Y-104546245D01*
X119502442Y-104547110D01*
X119517736Y-104573967D01*
X119540604Y-104629175D01*
X119540609Y-104629185D01*
X119628210Y-104760288D01*
X119628213Y-104760292D01*
X119677627Y-104809706D01*
X119681964Y-104817650D01*
X119689212Y-104823075D01*
X119698447Y-104847836D01*
X119711112Y-104871029D01*
X119710466Y-104880058D01*
X119713630Y-104888540D01*
X119708013Y-104914362D01*
X119706128Y-104940721D01*
X119700310Y-104949773D01*
X119698779Y-104956813D01*
X119677628Y-104985067D01*
X119631287Y-105031409D01*
X119631286Y-105031410D01*
X119519481Y-105143214D01*
X119519479Y-105143216D01*
X119502291Y-105172989D01*
X119490278Y-105193796D01*
X119440423Y-105280147D01*
X119399499Y-105432875D01*
X119399499Y-105432877D01*
X119399499Y-105600978D01*
X119399500Y-105600991D01*
X119399500Y-107699901D01*
X119390856Y-107729337D01*
X119384333Y-107759327D01*
X119380577Y-107764344D01*
X119379815Y-107766940D01*
X119363182Y-107787582D01*
X119287584Y-107863181D01*
X119226261Y-107896666D01*
X119199902Y-107899500D01*
X117924169Y-107899500D01*
X117924153Y-107899499D01*
X117916557Y-107899499D01*
X117758443Y-107899499D01*
X117676097Y-107921564D01*
X117605710Y-107940424D01*
X117605709Y-107940425D01*
X117555596Y-107969359D01*
X117555595Y-107969360D01*
X117526988Y-107985876D01*
X117468785Y-108019479D01*
X117468782Y-108019481D01*
X117356978Y-108131286D01*
X111853563Y-113634700D01*
X111792240Y-113668185D01*
X111727564Y-113664950D01*
X111601370Y-113623947D01*
X111368097Y-113587000D01*
X111368092Y-113587000D01*
X111131908Y-113587000D01*
X111131903Y-113587000D01*
X110898631Y-113623946D01*
X110674003Y-113696933D01*
X110463566Y-113804157D01*
X110374709Y-113868716D01*
X110272490Y-113942983D01*
X110272488Y-113942985D01*
X110272487Y-113942985D01*
X110105485Y-114109987D01*
X110105485Y-114109988D01*
X110105483Y-114109990D01*
X110079004Y-114146435D01*
X109966657Y-114301066D01*
X109934060Y-114365040D01*
X109916944Y-114398635D01*
X109906417Y-114419295D01*
X109858442Y-114470091D01*
X109795932Y-114487000D01*
X106204068Y-114487000D01*
X106137029Y-114467315D01*
X106093583Y-114419295D01*
X106085331Y-114403099D01*
X106033343Y-114301067D01*
X105894517Y-114109990D01*
X105727510Y-113942983D01*
X105536433Y-113804157D01*
X105503224Y-113787236D01*
X105325996Y-113696933D01*
X105271475Y-113679218D01*
X105233654Y-113666929D01*
X105175980Y-113627492D01*
X105148782Y-113563133D01*
X105160697Y-113494287D01*
X105207941Y-113442811D01*
X105271974Y-113424999D01*
X105499971Y-113424999D01*
X105499987Y-113424998D01*
X105602697Y-113414505D01*
X105769119Y-113359358D01*
X105769124Y-113359356D01*
X105918345Y-113267315D01*
X106042317Y-113143343D01*
X106083671Y-113076297D01*
X106135618Y-113029572D01*
X106204580Y-113018349D01*
X106268663Y-113046192D01*
X106276891Y-113053712D01*
X106354308Y-113131129D01*
X106502285Y-113222403D01*
X106502290Y-113222405D01*
X106667326Y-113277092D01*
X106769184Y-113287499D01*
X106769197Y-113287500D01*
X106812500Y-113287500D01*
X106812500Y-110887500D01*
X106769184Y-110887500D01*
X106667326Y-110897907D01*
X106502290Y-110952594D01*
X106502281Y-110952598D01*
X106388479Y-111022792D01*
X106321087Y-111041232D01*
X106254423Y-111020309D01*
X106209654Y-110966667D01*
X106200027Y-110904635D01*
X106200499Y-110900017D01*
X106200500Y-110900009D01*
X106200499Y-110274992D01*
X106192848Y-110200097D01*
X106189999Y-110172201D01*
X106189998Y-110172200D01*
X106176439Y-110131282D01*
X106134814Y-110005666D01*
X106042712Y-109856344D01*
X105918656Y-109732288D01*
X105769334Y-109640186D01*
X105602797Y-109585001D01*
X105602795Y-109585000D01*
X105500010Y-109574500D01*
X104499998Y-109574500D01*
X104499980Y-109574501D01*
X104397203Y-109585000D01*
X104397200Y-109585001D01*
X104230668Y-109640185D01*
X104230663Y-109640187D01*
X104081342Y-109732289D01*
X103957289Y-109856342D01*
X103865187Y-110005663D01*
X103865186Y-110005666D01*
X103829813Y-110112416D01*
X103810002Y-110172201D01*
X103810000Y-110172204D01*
X103799500Y-110274983D01*
X103799500Y-110299902D01*
X103779815Y-110366941D01*
X103763181Y-110387583D01*
X102812181Y-111338583D01*
X102750858Y-111372068D01*
X102681166Y-111367084D01*
X102625233Y-111325212D01*
X102600816Y-111259748D01*
X102600500Y-111250902D01*
X102600500Y-110800097D01*
X102620185Y-110733058D01*
X102636819Y-110712416D01*
X108212416Y-105136819D01*
X108273739Y-105103334D01*
X108300097Y-105100500D01*
X116750902Y-105100500D01*
X116817941Y-105120185D01*
X116863696Y-105172989D01*
X116873640Y-105242147D01*
X116844615Y-105305703D01*
X116838583Y-105312181D01*
X112700084Y-109450681D01*
X112638761Y-109484166D01*
X112612403Y-109487000D01*
X112192508Y-109487000D01*
X112125469Y-109467315D01*
X112086969Y-109428097D01*
X112042712Y-109356344D01*
X111918656Y-109232288D01*
X111769334Y-109140186D01*
X111602797Y-109085001D01*
X111602795Y-109085000D01*
X111500010Y-109074500D01*
X110499998Y-109074500D01*
X110499980Y-109074501D01*
X110397203Y-109085000D01*
X110397200Y-109085001D01*
X110230668Y-109140185D01*
X110230663Y-109140187D01*
X110081342Y-109232289D01*
X109957289Y-109356342D01*
X109865187Y-109505663D01*
X109865186Y-109505666D01*
X109810001Y-109672203D01*
X109810001Y-109672204D01*
X109810000Y-109672204D01*
X109799500Y-109774983D01*
X109799500Y-110400001D01*
X109799501Y-110400019D01*
X109810000Y-110502796D01*
X109810001Y-110502799D01*
X109842377Y-110600501D01*
X109865186Y-110669334D01*
X109951895Y-110809913D01*
X109957289Y-110818657D01*
X110050951Y-110912319D01*
X110055288Y-110920263D01*
X110062538Y-110925690D01*
X110071773Y-110950452D01*
X110084436Y-110973642D01*
X110083790Y-110982672D01*
X110086954Y-110991155D01*
X110081337Y-111016975D01*
X110079452Y-111043334D01*
X110073633Y-111052388D01*
X110072102Y-111059427D01*
X110050953Y-111087678D01*
X110000941Y-111137691D01*
X109957237Y-111181395D01*
X109895913Y-111214879D01*
X109826222Y-111209895D01*
X109772294Y-111170629D01*
X109769027Y-111166498D01*
X109646003Y-111043474D01*
X109645999Y-111043471D01*
X109497933Y-110952142D01*
X109497927Y-110952139D01*
X109497925Y-110952138D01*
X109463984Y-110940891D01*
X109332776Y-110897413D01*
X109230855Y-110887000D01*
X109230848Y-110887000D01*
X108644152Y-110887000D01*
X108644144Y-110887000D01*
X108542223Y-110897413D01*
X108377077Y-110952137D01*
X108377066Y-110952142D01*
X108229000Y-111043471D01*
X108228996Y-111043474D01*
X108105974Y-111166496D01*
X108105967Y-111166505D01*
X108105234Y-111167694D01*
X108104519Y-111168336D01*
X108101493Y-111172164D01*
X108100838Y-111171646D01*
X108053280Y-111214411D01*
X107984316Y-111225623D01*
X107920238Y-111197771D01*
X107898238Y-111172377D01*
X107898112Y-111172477D01*
X107895885Y-111169661D01*
X107894163Y-111167673D01*
X107893630Y-111166809D01*
X107770691Y-111043870D01*
X107622714Y-110952596D01*
X107622709Y-110952594D01*
X107457673Y-110897907D01*
X107355815Y-110887500D01*
X107312500Y-110887500D01*
X107312500Y-113287500D01*
X107355803Y-113287500D01*
X107355815Y-113287499D01*
X107457673Y-113277092D01*
X107622709Y-113222405D01*
X107622714Y-113222403D01*
X107770691Y-113131129D01*
X107893628Y-113008192D01*
X107894159Y-113007332D01*
X107894680Y-113006863D01*
X107898112Y-113002523D01*
X107898853Y-113003108D01*
X107946101Y-112960602D01*
X108015063Y-112949372D01*
X108079148Y-112977208D01*
X108101413Y-113002898D01*
X108101493Y-113002836D01*
X108102890Y-113004603D01*
X108105238Y-113007312D01*
X108105968Y-113008495D01*
X108105974Y-113008503D01*
X108228996Y-113131525D01*
X108229000Y-113131528D01*
X108377066Y-113222857D01*
X108377069Y-113222858D01*
X108377075Y-113222862D01*
X108542225Y-113277587D01*
X108644152Y-113288000D01*
X108644157Y-113288000D01*
X109230843Y-113288000D01*
X109230848Y-113288000D01*
X109332775Y-113277587D01*
X109497925Y-113222862D01*
X109646003Y-113131526D01*
X109769026Y-113008503D01*
X109860362Y-112860425D01*
X109875204Y-112815634D01*
X109914975Y-112758191D01*
X109979490Y-112731367D01*
X110048266Y-112743681D01*
X110075585Y-112763354D01*
X110075681Y-112763234D01*
X110078356Y-112765349D01*
X110080590Y-112766958D01*
X110081344Y-112767712D01*
X110230666Y-112859814D01*
X110397203Y-112914999D01*
X110499991Y-112925500D01*
X111500008Y-112925499D01*
X111500016Y-112925498D01*
X111500019Y-112925498D01*
X111560076Y-112919363D01*
X111602797Y-112914999D01*
X111769334Y-112859814D01*
X111918656Y-112767712D01*
X112042712Y-112643656D01*
X112134814Y-112494334D01*
X112189999Y-112327797D01*
X112200500Y-112225009D01*
X112200499Y-111599992D01*
X112198947Y-111584802D01*
X112189999Y-111497203D01*
X112189998Y-111497200D01*
X112171942Y-111442712D01*
X112134814Y-111330666D01*
X112042712Y-111181344D01*
X111949049Y-111087681D01*
X111947531Y-111084902D01*
X111944831Y-111083250D01*
X111930896Y-111054436D01*
X111915564Y-111026358D01*
X111915789Y-111023200D01*
X111914411Y-111020350D01*
X111918265Y-110988583D01*
X111920548Y-110956666D01*
X111922560Y-110953187D01*
X111922827Y-110950989D01*
X111929673Y-110940891D01*
X111941249Y-110920884D01*
X111944947Y-110916420D01*
X112042712Y-110818656D01*
X112091508Y-110739543D01*
X112097027Y-110732884D01*
X112119111Y-110717992D01*
X112138917Y-110700179D01*
X112148892Y-110697912D01*
X112154958Y-110693822D01*
X112168172Y-110693530D01*
X112192508Y-110688000D01*
X112825831Y-110688000D01*
X112825847Y-110688001D01*
X112833443Y-110688001D01*
X112991554Y-110688001D01*
X112991557Y-110688001D01*
X113144285Y-110647077D01*
X113224958Y-110600500D01*
X113281216Y-110568020D01*
X113393020Y-110456216D01*
X113393020Y-110456214D01*
X113403224Y-110446011D01*
X113403227Y-110446006D01*
X119315498Y-104533736D01*
X119344284Y-104518018D01*
X119372509Y-104501272D01*
X119374802Y-104501353D01*
X119376817Y-104500254D01*
X119409538Y-104502594D01*
G37*
%TD.AperFunction*%
%TA.AperFunction,Conductor*%
G36*
X147193039Y-104519685D02*
G01*
X147238794Y-104572489D01*
X147250000Y-104624000D01*
X147250000Y-105716138D01*
X147230315Y-105783177D01*
X147213681Y-105803819D01*
X147187500Y-105830000D01*
X147187500Y-107750000D01*
X147230803Y-107750000D01*
X147230815Y-107749999D01*
X147332673Y-107739592D01*
X147497709Y-107684905D01*
X147497714Y-107684903D01*
X147645691Y-107593629D01*
X147687819Y-107551502D01*
X147749142Y-107518017D01*
X147818834Y-107523001D01*
X147874767Y-107564873D01*
X147899184Y-107630337D01*
X147899500Y-107639183D01*
X147899500Y-114188013D01*
X147879815Y-114255052D01*
X147827011Y-114300807D01*
X147757853Y-114310751D01*
X147694297Y-114281726D01*
X147657569Y-114226332D01*
X147649856Y-114202593D01*
X147640568Y-114174008D01*
X147640566Y-114174005D01*
X147640566Y-114174003D01*
X147551354Y-113998916D01*
X147533343Y-113963567D01*
X147394517Y-113772490D01*
X147227510Y-113605483D01*
X147036433Y-113466657D01*
X147016395Y-113456447D01*
X146825996Y-113359433D01*
X146601368Y-113286446D01*
X146368097Y-113249500D01*
X146368092Y-113249500D01*
X146131908Y-113249500D01*
X146131903Y-113249500D01*
X145898631Y-113286446D01*
X145674003Y-113359433D01*
X145463566Y-113466657D01*
X145376329Y-113530039D01*
X145272490Y-113605483D01*
X145272488Y-113605485D01*
X145272487Y-113605485D01*
X145105485Y-113772487D01*
X145105485Y-113772488D01*
X145105483Y-113772490D01*
X145072403Y-113818021D01*
X144966657Y-113963566D01*
X144906417Y-114081795D01*
X144858442Y-114132591D01*
X144795932Y-114149500D01*
X141204068Y-114149500D01*
X141137029Y-114129815D01*
X141093583Y-114081795D01*
X141033343Y-113963567D01*
X140894517Y-113772490D01*
X140727510Y-113605483D01*
X140536433Y-113466657D01*
X140516395Y-113456447D01*
X140325996Y-113359433D01*
X140101368Y-113286446D01*
X139933623Y-113259878D01*
X139933612Y-113259877D01*
X139868092Y-113249500D01*
X139631908Y-113249500D01*
X139631903Y-113249500D01*
X139398628Y-113286447D01*
X139272433Y-113327450D01*
X139257221Y-113327884D01*
X139242962Y-113333203D01*
X139223006Y-113328861D01*
X139202592Y-113329445D01*
X139188505Y-113321356D01*
X139174689Y-113318351D01*
X139146435Y-113297200D01*
X139136819Y-113287584D01*
X139103334Y-113226261D01*
X139100500Y-113199903D01*
X139100500Y-113136499D01*
X139120185Y-113069460D01*
X139172989Y-113023705D01*
X139224500Y-113012499D01*
X139337500Y-113012499D01*
X139337500Y-113005231D01*
X139837500Y-113005231D01*
X139951261Y-113012499D01*
X140087472Y-113012499D01*
X140087486Y-113012498D01*
X140190197Y-113002005D01*
X140356619Y-112946858D01*
X140356624Y-112946856D01*
X140505845Y-112854815D01*
X140547965Y-112812695D01*
X140609288Y-112779209D01*
X140678979Y-112784193D01*
X140734913Y-112826064D01*
X140741185Y-112835277D01*
X140793868Y-112920689D01*
X140916808Y-113043629D01*
X141064785Y-113134903D01*
X141064790Y-113134905D01*
X141229826Y-113189592D01*
X141331684Y-113199999D01*
X141331697Y-113200000D01*
X141375000Y-113200000D01*
X141375000Y-112250000D01*
X139837500Y-112250000D01*
X139837500Y-113005231D01*
X139337500Y-113005231D01*
X139337500Y-112124000D01*
X139357185Y-112056961D01*
X139409989Y-112011206D01*
X139461500Y-112000000D01*
X139587500Y-112000000D01*
X139587500Y-111874000D01*
X139607185Y-111806961D01*
X139659989Y-111761206D01*
X139711500Y-111750000D01*
X141375000Y-111750000D01*
X141375000Y-110800000D01*
X141331684Y-110800000D01*
X141229826Y-110810407D01*
X141064790Y-110865094D01*
X141064785Y-110865096D01*
X140916811Y-110956368D01*
X140838218Y-111034961D01*
X140776894Y-111068445D01*
X140707203Y-111063461D01*
X140651269Y-111021589D01*
X140626853Y-110956124D01*
X140641705Y-110887851D01*
X140644978Y-110882215D01*
X140722314Y-110756834D01*
X140777499Y-110590297D01*
X140788000Y-110487509D01*
X140787999Y-109862492D01*
X140786328Y-109846137D01*
X140777499Y-109759703D01*
X140777498Y-109759700D01*
X140768415Y-109732289D01*
X140722314Y-109593166D01*
X140630212Y-109443844D01*
X140506156Y-109319788D01*
X140356834Y-109227686D01*
X140190297Y-109172501D01*
X140190295Y-109172500D01*
X140087516Y-109162000D01*
X140087509Y-109162000D01*
X139475097Y-109162000D01*
X139408058Y-109142315D01*
X139387416Y-109125681D01*
X138073916Y-107812181D01*
X138040431Y-107750858D01*
X138045415Y-107681166D01*
X138087287Y-107625233D01*
X138152751Y-107600816D01*
X138161597Y-107600500D01*
X142112403Y-107600500D01*
X142179442Y-107620185D01*
X142200084Y-107636819D01*
X144263181Y-109699916D01*
X144296666Y-109761239D01*
X144299500Y-109787597D01*
X144299500Y-110400001D01*
X144299501Y-110400019D01*
X144310000Y-110502796D01*
X144310001Y-110502799D01*
X144342377Y-110600501D01*
X144365186Y-110669334D01*
X144451895Y-110809913D01*
X144457289Y-110818657D01*
X144550951Y-110912319D01*
X144584436Y-110973642D01*
X144579452Y-111043334D01*
X144550949Y-111087683D01*
X144529438Y-111109193D01*
X144468114Y-111142677D01*
X144398423Y-111137691D01*
X144342490Y-111095818D01*
X144336222Y-111086610D01*
X144335359Y-111085211D01*
X144331526Y-111078997D01*
X144208503Y-110955974D01*
X144208499Y-110955971D01*
X144060433Y-110864642D01*
X144060427Y-110864639D01*
X144060425Y-110864638D01*
X144045668Y-110859748D01*
X143895276Y-110809913D01*
X143793355Y-110799500D01*
X143793348Y-110799500D01*
X143206652Y-110799500D01*
X143206644Y-110799500D01*
X143104723Y-110809913D01*
X142939577Y-110864637D01*
X142939566Y-110864642D01*
X142791500Y-110955971D01*
X142791496Y-110955974D01*
X142668474Y-111078996D01*
X142668467Y-111079005D01*
X142667734Y-111080194D01*
X142667019Y-111080836D01*
X142663993Y-111084664D01*
X142663338Y-111084146D01*
X142615780Y-111126911D01*
X142546816Y-111138123D01*
X142482738Y-111110271D01*
X142460738Y-111084877D01*
X142460612Y-111084977D01*
X142458385Y-111082161D01*
X142456663Y-111080173D01*
X142456130Y-111079309D01*
X142333191Y-110956370D01*
X142185214Y-110865096D01*
X142185209Y-110865094D01*
X142020173Y-110810407D01*
X141918315Y-110800000D01*
X141875000Y-110800000D01*
X141875000Y-113200000D01*
X141918303Y-113200000D01*
X141918315Y-113199999D01*
X142020173Y-113189592D01*
X142185209Y-113134905D01*
X142185214Y-113134903D01*
X142333191Y-113043629D01*
X142456128Y-112920692D01*
X142456659Y-112919832D01*
X142457180Y-112919363D01*
X142460612Y-112915023D01*
X142461353Y-112915608D01*
X142508601Y-112873102D01*
X142577563Y-112861872D01*
X142641648Y-112889708D01*
X142663913Y-112915398D01*
X142663993Y-112915336D01*
X142665390Y-112917103D01*
X142667738Y-112919812D01*
X142668468Y-112920995D01*
X142668474Y-112921003D01*
X142791496Y-113044025D01*
X142791500Y-113044028D01*
X142939566Y-113135357D01*
X142939569Y-113135358D01*
X142939575Y-113135362D01*
X143104725Y-113190087D01*
X143206652Y-113200500D01*
X143206657Y-113200500D01*
X143793343Y-113200500D01*
X143793348Y-113200500D01*
X143895275Y-113190087D01*
X144060425Y-113135362D01*
X144208503Y-113044026D01*
X144331526Y-112921003D01*
X144403830Y-112803779D01*
X144455776Y-112757058D01*
X144524739Y-112745835D01*
X144573696Y-112766352D01*
X144575197Y-112763920D01*
X144581342Y-112767710D01*
X144581344Y-112767712D01*
X144730666Y-112859814D01*
X144897203Y-112914999D01*
X144999991Y-112925500D01*
X146000008Y-112925499D01*
X146000016Y-112925498D01*
X146000019Y-112925498D01*
X146060076Y-112919363D01*
X146102797Y-112914999D01*
X146269334Y-112859814D01*
X146418656Y-112767712D01*
X146542712Y-112643656D01*
X146634814Y-112494334D01*
X146689999Y-112327797D01*
X146700500Y-112225009D01*
X146700499Y-111599992D01*
X146698947Y-111584802D01*
X146689999Y-111497203D01*
X146689998Y-111497200D01*
X146671942Y-111442712D01*
X146634814Y-111330666D01*
X146542712Y-111181344D01*
X146449049Y-111087681D01*
X146415564Y-111026358D01*
X146420548Y-110956666D01*
X146449049Y-110912319D01*
X146487728Y-110873640D01*
X146542712Y-110818656D01*
X146634814Y-110669334D01*
X146689999Y-110502797D01*
X146700500Y-110400009D01*
X146700499Y-109774992D01*
X146698937Y-109759704D01*
X146689999Y-109672203D01*
X146689998Y-109672200D01*
X146679390Y-109640187D01*
X146634814Y-109505666D01*
X146542712Y-109356344D01*
X146418656Y-109232288D01*
X146269334Y-109140186D01*
X146102797Y-109085001D01*
X146102795Y-109085000D01*
X146000016Y-109074500D01*
X146000009Y-109074500D01*
X145387597Y-109074500D01*
X145320558Y-109054815D01*
X145299916Y-109038181D01*
X143209417Y-106947682D01*
X143175932Y-106886359D01*
X143180916Y-106816667D01*
X143222788Y-106760734D01*
X143259504Y-106744042D01*
X143258870Y-106742129D01*
X143298875Y-106728872D01*
X143431834Y-106684814D01*
X143581156Y-106592712D01*
X143705212Y-106468656D01*
X143785672Y-106338207D01*
X143802961Y-106322656D01*
X143816899Y-106304039D01*
X143828449Y-106299730D01*
X143837617Y-106291485D01*
X143860573Y-106287749D01*
X143882363Y-106279622D01*
X143894409Y-106282242D01*
X143906580Y-106280262D01*
X143927912Y-106289530D01*
X143950636Y-106294474D01*
X143966330Y-106306223D01*
X143970662Y-106308105D01*
X143978890Y-106315625D01*
X144038181Y-106374916D01*
X144071666Y-106436239D01*
X144074500Y-106462597D01*
X144074500Y-107055855D01*
X144084913Y-107157776D01*
X144139637Y-107322922D01*
X144139642Y-107322933D01*
X144230971Y-107470999D01*
X144230974Y-107471003D01*
X144353996Y-107594025D01*
X144354000Y-107594028D01*
X144502066Y-107685357D01*
X144502069Y-107685358D01*
X144502075Y-107685362D01*
X144667225Y-107740087D01*
X144769152Y-107750500D01*
X144769157Y-107750500D01*
X145355843Y-107750500D01*
X145355848Y-107750500D01*
X145457775Y-107740087D01*
X145622925Y-107685362D01*
X145771003Y-107594026D01*
X145894026Y-107471003D01*
X145894755Y-107469821D01*
X145895466Y-107469181D01*
X145898507Y-107465336D01*
X145899163Y-107465855D01*
X145946701Y-107423097D01*
X146015664Y-107411873D01*
X146079746Y-107439715D01*
X146101761Y-107465123D01*
X146101888Y-107465023D01*
X146104113Y-107467838D01*
X146105833Y-107469822D01*
X146106365Y-107470685D01*
X146106369Y-107470690D01*
X146229308Y-107593629D01*
X146377285Y-107684903D01*
X146377290Y-107684905D01*
X146542326Y-107739592D01*
X146644184Y-107749999D01*
X146644197Y-107750000D01*
X146687500Y-107750000D01*
X146687500Y-105333862D01*
X146707185Y-105266823D01*
X146723819Y-105246181D01*
X146750000Y-105220000D01*
X146750000Y-104624000D01*
X146769685Y-104556961D01*
X146822489Y-104511206D01*
X146874000Y-104500000D01*
X147126000Y-104500000D01*
X147193039Y-104519685D01*
G37*
%TD.AperFunction*%
%TA.AperFunction,Conductor*%
G36*
X112130706Y-100608916D02*
G01*
X112159990Y-100614872D01*
X112163879Y-100618656D01*
X112169083Y-100620185D01*
X112188641Y-100642757D01*
X112210061Y-100663603D01*
X112212567Y-100670369D01*
X112214838Y-100672989D01*
X112222842Y-100696502D01*
X112223280Y-100698393D01*
X112230263Y-100733497D01*
X112232882Y-100739820D01*
X112235196Y-100749803D01*
X112233745Y-100774860D01*
X112236429Y-100799811D01*
X112231760Y-100809139D01*
X112231157Y-100819556D01*
X112216390Y-100839849D01*
X112205158Y-100862292D01*
X112196185Y-100867616D01*
X112190047Y-100876052D01*
X112166652Y-100885140D01*
X112145071Y-100897947D01*
X112128249Y-100900060D01*
X112124920Y-100901354D01*
X112122260Y-100900813D01*
X112114398Y-100901801D01*
X109104958Y-100901801D01*
X108962405Y-100939997D01*
X108962406Y-100939998D01*
X108954778Y-100942042D01*
X108954774Y-100942043D01*
X108820125Y-101019782D01*
X108820122Y-101019784D01*
X103180152Y-106659753D01*
X103118829Y-106693238D01*
X103049137Y-106688254D01*
X102993204Y-106646382D01*
X102968787Y-106580918D01*
X102974540Y-106533754D01*
X103019257Y-106396129D01*
X103019257Y-106396126D01*
X103029731Y-106330000D01*
X102135512Y-106330000D01*
X102168425Y-106272993D01*
X102202500Y-106145826D01*
X102202500Y-106014174D01*
X102168425Y-105887007D01*
X102135512Y-105830000D01*
X103029731Y-105830000D01*
X103019257Y-105763873D01*
X103019257Y-105763870D01*
X102953595Y-105561782D01*
X102857120Y-105372442D01*
X102732227Y-105200540D01*
X102732223Y-105200535D01*
X102581964Y-105050276D01*
X102581959Y-105050272D01*
X102410055Y-104925377D01*
X102401000Y-104920763D01*
X102350206Y-104872788D01*
X102333412Y-104804966D01*
X102355951Y-104738832D01*
X102401008Y-104699793D01*
X102410316Y-104695051D01*
X102490466Y-104636819D01*
X102582286Y-104570109D01*
X102582288Y-104570106D01*
X102582292Y-104570104D01*
X102732604Y-104419792D01*
X102732606Y-104419788D01*
X102732609Y-104419786D01*
X102857548Y-104247820D01*
X102857547Y-104247820D01*
X102857551Y-104247816D01*
X102954057Y-104058412D01*
X103019746Y-103856243D01*
X103053000Y-103646287D01*
X103053000Y-103433713D01*
X103019746Y-103223757D01*
X102954057Y-103021588D01*
X102857551Y-102832184D01*
X102857549Y-102832181D01*
X102857548Y-102832179D01*
X102732609Y-102660213D01*
X102582286Y-102509890D01*
X102410320Y-102384951D01*
X102409615Y-102384591D01*
X102401554Y-102380485D01*
X102350759Y-102332512D01*
X102333963Y-102264692D01*
X102356499Y-102198556D01*
X102401554Y-102159515D01*
X102410316Y-102155051D01*
X102445228Y-102129686D01*
X102582286Y-102030109D01*
X102582288Y-102030106D01*
X102582292Y-102030104D01*
X102732604Y-101879792D01*
X102732606Y-101879788D01*
X102732609Y-101879786D01*
X102857548Y-101707820D01*
X102857547Y-101707820D01*
X102857551Y-101707816D01*
X102954057Y-101518412D01*
X103019746Y-101316243D01*
X103053000Y-101106287D01*
X103053000Y-100893713D01*
X103050203Y-100876052D01*
X103029272Y-100743897D01*
X103038227Y-100674604D01*
X103083223Y-100621152D01*
X103149975Y-100600513D01*
X103151745Y-100600500D01*
X106920943Y-100600500D01*
X112102044Y-100600500D01*
X112130706Y-100608916D01*
G37*
%TD.AperFunction*%
%TA.AperFunction,Conductor*%
G36*
X142290000Y-86327230D02*
G01*
X142356126Y-86316757D01*
X142356129Y-86316757D01*
X142558217Y-86251095D01*
X142747557Y-86154620D01*
X142919459Y-86029727D01*
X142919464Y-86029723D01*
X143069723Y-85879464D01*
X143069727Y-85879459D01*
X143194620Y-85707558D01*
X143199232Y-85698507D01*
X143247205Y-85647709D01*
X143315025Y-85630912D01*
X143381161Y-85653447D01*
X143420204Y-85698504D01*
X143424949Y-85707817D01*
X143549890Y-85879786D01*
X143549896Y-85879792D01*
X143700208Y-86030104D01*
X143826274Y-86121696D01*
X143868939Y-86177024D01*
X143874918Y-86246637D01*
X143842313Y-86308433D01*
X143841069Y-86309694D01*
X140537584Y-89613181D01*
X140476261Y-89646666D01*
X140449903Y-89649500D01*
X137999097Y-89649500D01*
X137932058Y-89629815D01*
X137886303Y-89577011D01*
X137876359Y-89507853D01*
X137905384Y-89444297D01*
X137911416Y-89437819D01*
X138395839Y-88953396D01*
X139868713Y-87480521D01*
X139868716Y-87480520D01*
X139980520Y-87368716D01*
X140030639Y-87281904D01*
X140059577Y-87231785D01*
X140100501Y-87079057D01*
X140100501Y-86920943D01*
X140100501Y-86913348D01*
X140100500Y-86913330D01*
X140100500Y-86285718D01*
X140120185Y-86218679D01*
X140168207Y-86175233D01*
X140207815Y-86155052D01*
X140207815Y-86155051D01*
X140207816Y-86155051D01*
X140306294Y-86083503D01*
X140379786Y-86030109D01*
X140379788Y-86030106D01*
X140379792Y-86030104D01*
X140530104Y-85879792D01*
X140530106Y-85879788D01*
X140530109Y-85879786D01*
X140638317Y-85730848D01*
X140655051Y-85707816D01*
X140659793Y-85698508D01*
X140707763Y-85647711D01*
X140775583Y-85630911D01*
X140841719Y-85653445D01*
X140880763Y-85698500D01*
X140885377Y-85707555D01*
X141010272Y-85879459D01*
X141010276Y-85879464D01*
X141160535Y-86029723D01*
X141160540Y-86029727D01*
X141332442Y-86154620D01*
X141521782Y-86251095D01*
X141723871Y-86316757D01*
X141790000Y-86327231D01*
X141790000Y-85433012D01*
X141847007Y-85465925D01*
X141974174Y-85500000D01*
X142105826Y-85500000D01*
X142232993Y-85465925D01*
X142290000Y-85433012D01*
X142290000Y-86327230D01*
G37*
%TD.AperFunction*%
%TD*%
M02*
