%TF.GenerationSoftware,KiCad,Pcbnew,9.0.0*%
%TF.CreationDate,2025-03-28T15:43:29+07:00*%
%TF.ProjectId,PIC18F27Q43_OLED_Board,50494331-3846-4323-9751-34335f4f4c45,rev?*%
%TF.SameCoordinates,Original*%
%TF.FileFunction,Legend,Top*%
%TF.FilePolarity,Positive*%
%FSLAX46Y46*%
G04 Gerber Fmt 4.6, Leading zero omitted, Abs format (unit mm)*
G04 Created by KiCad (PCBNEW 9.0.0) date 2025-03-28 15:43:29*
%MOMM*%
%LPD*%
G01*
G04 APERTURE LIST*
%ADD10C,0.100000*%
%ADD11C,0.200000*%
%ADD12C,0.150000*%
%ADD13C,0.120000*%
%ADD14C,0.152400*%
%ADD15C,0.000000*%
G04 APERTURE END LIST*
D10*
X103756265Y-101324800D02*
X103899122Y-101372419D01*
X103899122Y-101372419D02*
X104137217Y-101372419D01*
X104137217Y-101372419D02*
X104232455Y-101324800D01*
X104232455Y-101324800D02*
X104280074Y-101277180D01*
X104280074Y-101277180D02*
X104327693Y-101181942D01*
X104327693Y-101181942D02*
X104327693Y-101086704D01*
X104327693Y-101086704D02*
X104280074Y-100991466D01*
X104280074Y-100991466D02*
X104232455Y-100943847D01*
X104232455Y-100943847D02*
X104137217Y-100896228D01*
X104137217Y-100896228D02*
X103946741Y-100848609D01*
X103946741Y-100848609D02*
X103851503Y-100800990D01*
X103851503Y-100800990D02*
X103803884Y-100753371D01*
X103803884Y-100753371D02*
X103756265Y-100658133D01*
X103756265Y-100658133D02*
X103756265Y-100562895D01*
X103756265Y-100562895D02*
X103803884Y-100467657D01*
X103803884Y-100467657D02*
X103851503Y-100420038D01*
X103851503Y-100420038D02*
X103946741Y-100372419D01*
X103946741Y-100372419D02*
X104184836Y-100372419D01*
X104184836Y-100372419D02*
X104327693Y-100420038D01*
X105327693Y-101277180D02*
X105280074Y-101324800D01*
X105280074Y-101324800D02*
X105137217Y-101372419D01*
X105137217Y-101372419D02*
X105041979Y-101372419D01*
X105041979Y-101372419D02*
X104899122Y-101324800D01*
X104899122Y-101324800D02*
X104803884Y-101229561D01*
X104803884Y-101229561D02*
X104756265Y-101134323D01*
X104756265Y-101134323D02*
X104708646Y-100943847D01*
X104708646Y-100943847D02*
X104708646Y-100800990D01*
X104708646Y-100800990D02*
X104756265Y-100610514D01*
X104756265Y-100610514D02*
X104803884Y-100515276D01*
X104803884Y-100515276D02*
X104899122Y-100420038D01*
X104899122Y-100420038D02*
X105041979Y-100372419D01*
X105041979Y-100372419D02*
X105137217Y-100372419D01*
X105137217Y-100372419D02*
X105280074Y-100420038D01*
X105280074Y-100420038D02*
X105327693Y-100467657D01*
X105756265Y-101372419D02*
X105756265Y-100372419D01*
X106327693Y-101372419D02*
X105899122Y-100800990D01*
X106327693Y-100372419D02*
X105756265Y-100943847D01*
X107470550Y-100324800D02*
X106613408Y-101610514D01*
X107756265Y-101324800D02*
X107899122Y-101372419D01*
X107899122Y-101372419D02*
X108137217Y-101372419D01*
X108137217Y-101372419D02*
X108232455Y-101324800D01*
X108232455Y-101324800D02*
X108280074Y-101277180D01*
X108280074Y-101277180D02*
X108327693Y-101181942D01*
X108327693Y-101181942D02*
X108327693Y-101086704D01*
X108327693Y-101086704D02*
X108280074Y-100991466D01*
X108280074Y-100991466D02*
X108232455Y-100943847D01*
X108232455Y-100943847D02*
X108137217Y-100896228D01*
X108137217Y-100896228D02*
X107946741Y-100848609D01*
X107946741Y-100848609D02*
X107851503Y-100800990D01*
X107851503Y-100800990D02*
X107803884Y-100753371D01*
X107803884Y-100753371D02*
X107756265Y-100658133D01*
X107756265Y-100658133D02*
X107756265Y-100562895D01*
X107756265Y-100562895D02*
X107803884Y-100467657D01*
X107803884Y-100467657D02*
X107851503Y-100420038D01*
X107851503Y-100420038D02*
X107946741Y-100372419D01*
X107946741Y-100372419D02*
X108184836Y-100372419D01*
X108184836Y-100372419D02*
X108327693Y-100420038D01*
X109327693Y-101277180D02*
X109280074Y-101324800D01*
X109280074Y-101324800D02*
X109137217Y-101372419D01*
X109137217Y-101372419D02*
X109041979Y-101372419D01*
X109041979Y-101372419D02*
X108899122Y-101324800D01*
X108899122Y-101324800D02*
X108803884Y-101229561D01*
X108803884Y-101229561D02*
X108756265Y-101134323D01*
X108756265Y-101134323D02*
X108708646Y-100943847D01*
X108708646Y-100943847D02*
X108708646Y-100800990D01*
X108708646Y-100800990D02*
X108756265Y-100610514D01*
X108756265Y-100610514D02*
X108803884Y-100515276D01*
X108803884Y-100515276D02*
X108899122Y-100420038D01*
X108899122Y-100420038D02*
X109041979Y-100372419D01*
X109041979Y-100372419D02*
X109137217Y-100372419D01*
X109137217Y-100372419D02*
X109280074Y-100420038D01*
X109280074Y-100420038D02*
X109327693Y-100467657D01*
X110232455Y-101372419D02*
X109756265Y-101372419D01*
X109756265Y-101372419D02*
X109756265Y-100372419D01*
D11*
G36*
X141850598Y-87501335D02*
G01*
X141883116Y-87528434D01*
X141917292Y-87585393D01*
X141917292Y-87672853D01*
X141883116Y-87729812D01*
X141850598Y-87756911D01*
X141768720Y-87791028D01*
X141431578Y-87791028D01*
X141431578Y-87467219D01*
X141768720Y-87467219D01*
X141850598Y-87501335D01*
G37*
G36*
X142228403Y-88578330D02*
G01*
X138206181Y-88578330D01*
X138206181Y-87367219D01*
X138317292Y-87367219D01*
X138317292Y-88367219D01*
X138319213Y-88386728D01*
X138334145Y-88422776D01*
X138361735Y-88450366D01*
X138397783Y-88465298D01*
X138436801Y-88465298D01*
X138472849Y-88450366D01*
X138500439Y-88422776D01*
X138515371Y-88386728D01*
X138517292Y-88367219D01*
X138517292Y-87795790D01*
X138831578Y-87795790D01*
X138831578Y-87938647D01*
X138832274Y-87945724D01*
X138832029Y-87948144D01*
X138833003Y-87953120D01*
X138833499Y-87958156D01*
X138834427Y-87960398D01*
X138835795Y-87967382D01*
X138892938Y-88157858D01*
X138894349Y-88161296D01*
X138894582Y-88162856D01*
X138897653Y-88169341D01*
X138900384Y-88175992D01*
X138901382Y-88177215D01*
X138902972Y-88180573D01*
X138960115Y-88275811D01*
X138966895Y-88284945D01*
X138968088Y-88287217D01*
X138970092Y-88289251D01*
X138971799Y-88291551D01*
X138973865Y-88293081D01*
X138981845Y-88301183D01*
X139096130Y-88396422D01*
X139112347Y-88407436D01*
X139113859Y-88407907D01*
X139115102Y-88408879D01*
X139133385Y-88415952D01*
X139304814Y-88463571D01*
X139310146Y-88464501D01*
X139312069Y-88465298D01*
X139318130Y-88465894D01*
X139324125Y-88466941D01*
X139326189Y-88466688D01*
X139331578Y-88467219D01*
X139445864Y-88467219D01*
X139451252Y-88466688D01*
X139453317Y-88466941D01*
X139459311Y-88465894D01*
X139465373Y-88465298D01*
X139467295Y-88464501D01*
X139472628Y-88463571D01*
X139644057Y-88415952D01*
X139662340Y-88408879D01*
X139663585Y-88407905D01*
X139665094Y-88407435D01*
X139681311Y-88396422D01*
X139738454Y-88348802D01*
X139752211Y-88334836D01*
X139770345Y-88300288D01*
X139773877Y-88261430D01*
X139762270Y-88224178D01*
X139737291Y-88194204D01*
X139702743Y-88176070D01*
X139663885Y-88172538D01*
X139626633Y-88184145D01*
X139610416Y-88195158D01*
X139569799Y-88229006D01*
X139432233Y-88267219D01*
X139345209Y-88267219D01*
X139207640Y-88229005D01*
X139122895Y-88158383D01*
X139080909Y-88088404D01*
X139031578Y-87923968D01*
X139031578Y-87810468D01*
X139080909Y-87646032D01*
X139122895Y-87576054D01*
X139207641Y-87505432D01*
X139345209Y-87467219D01*
X139432233Y-87467219D01*
X139569800Y-87505432D01*
X139610416Y-87539279D01*
X139626633Y-87550293D01*
X139663886Y-87561899D01*
X139702743Y-87558366D01*
X139704021Y-87557695D01*
X140031578Y-87557695D01*
X140031578Y-87652933D01*
X140033499Y-87672442D01*
X140036344Y-87679311D01*
X140037439Y-87686666D01*
X140045829Y-87704383D01*
X140102972Y-87799621D01*
X140109751Y-87808753D01*
X140110945Y-87811028D01*
X140112951Y-87813064D01*
X140114656Y-87815361D01*
X140116721Y-87816891D01*
X140124703Y-87824993D01*
X140181845Y-87872612D01*
X140188348Y-87877028D01*
X140190133Y-87878821D01*
X140194219Y-87881016D01*
X140198062Y-87883626D01*
X140200479Y-87884379D01*
X140207402Y-87888098D01*
X140321687Y-87935717D01*
X140330748Y-87938486D01*
X140339754Y-87941307D01*
X140559026Y-87986988D01*
X140650596Y-88025142D01*
X140683116Y-88052243D01*
X140717292Y-88109202D01*
X140717292Y-88149043D01*
X140683115Y-88206003D01*
X140650596Y-88233104D01*
X140568721Y-88267219D01*
X140316638Y-88267219D01*
X140158342Y-88223248D01*
X140139031Y-88219878D01*
X140100302Y-88224617D01*
X140066334Y-88243816D01*
X140042299Y-88274553D01*
X140031856Y-88312147D01*
X140036595Y-88350876D01*
X140055794Y-88384844D01*
X140086531Y-88408879D01*
X140104814Y-88415952D01*
X140276243Y-88463571D01*
X140281575Y-88464501D01*
X140283498Y-88465298D01*
X140289559Y-88465894D01*
X140295554Y-88466941D01*
X140297618Y-88466688D01*
X140303007Y-88467219D01*
X140588721Y-88467219D01*
X140608230Y-88465298D01*
X140608328Y-88465257D01*
X140608435Y-88465257D01*
X140627182Y-88459527D01*
X140741469Y-88411908D01*
X140748394Y-88408187D01*
X140750810Y-88407435D01*
X140754649Y-88404827D01*
X140758738Y-88402631D01*
X140760523Y-88400837D01*
X140767027Y-88396421D01*
X140824169Y-88348801D01*
X140832150Y-88340699D01*
X140834214Y-88339170D01*
X140835918Y-88336874D01*
X140837926Y-88334836D01*
X140839120Y-88332560D01*
X140845898Y-88323430D01*
X140903041Y-88228191D01*
X140911431Y-88210474D01*
X140912525Y-88203121D01*
X140915371Y-88196251D01*
X140917292Y-88176742D01*
X140917292Y-88081504D01*
X140915371Y-88061995D01*
X140912525Y-88055124D01*
X140911431Y-88047772D01*
X140903041Y-88030055D01*
X140845898Y-87934816D01*
X140839120Y-87925685D01*
X140837926Y-87923410D01*
X140835918Y-87921372D01*
X140834214Y-87919076D01*
X140832148Y-87917545D01*
X140824168Y-87909445D01*
X140767026Y-87861825D01*
X140760523Y-87857409D01*
X140758738Y-87855616D01*
X140754646Y-87853417D01*
X140750809Y-87850812D01*
X140748395Y-87850060D01*
X140741469Y-87846339D01*
X140627182Y-87798720D01*
X140618120Y-87795950D01*
X140609117Y-87793130D01*
X140389846Y-87747448D01*
X140298273Y-87709293D01*
X140265753Y-87682193D01*
X140231578Y-87625234D01*
X140231578Y-87585393D01*
X140265753Y-87528434D01*
X140298273Y-87501334D01*
X140380150Y-87467219D01*
X140632233Y-87467219D01*
X140790528Y-87511190D01*
X140809839Y-87514560D01*
X140848568Y-87509821D01*
X140882536Y-87490622D01*
X140906571Y-87459886D01*
X140917014Y-87422291D01*
X140912275Y-87383562D01*
X140903038Y-87367219D01*
X141231578Y-87367219D01*
X141231578Y-88367219D01*
X141233499Y-88386728D01*
X141248431Y-88422776D01*
X141276021Y-88450366D01*
X141312069Y-88465298D01*
X141351087Y-88465298D01*
X141387135Y-88450366D01*
X141414725Y-88422776D01*
X141429657Y-88386728D01*
X141431578Y-88367219D01*
X141431578Y-87991028D01*
X141788721Y-87991028D01*
X141808230Y-87989107D01*
X141808328Y-87989066D01*
X141808436Y-87989066D01*
X141827183Y-87983336D01*
X141941468Y-87935717D01*
X141948391Y-87931997D01*
X141950807Y-87931245D01*
X141954645Y-87928637D01*
X141958737Y-87926440D01*
X141960523Y-87924645D01*
X141967024Y-87920231D01*
X142024167Y-87872613D01*
X142032147Y-87864510D01*
X142034214Y-87862980D01*
X142035920Y-87860680D01*
X142037924Y-87858647D01*
X142039115Y-87856376D01*
X142045898Y-87847240D01*
X142103041Y-87752001D01*
X142111431Y-87734284D01*
X142112525Y-87726931D01*
X142115371Y-87720061D01*
X142117292Y-87700552D01*
X142117292Y-87557695D01*
X142115371Y-87538186D01*
X142112525Y-87531315D01*
X142111431Y-87523963D01*
X142103041Y-87506246D01*
X142045898Y-87411007D01*
X142039115Y-87401870D01*
X142037924Y-87399600D01*
X142035920Y-87397566D01*
X142034214Y-87395267D01*
X142032147Y-87393736D01*
X142024167Y-87385634D01*
X141967024Y-87338016D01*
X141960523Y-87333601D01*
X141958737Y-87331807D01*
X141954645Y-87329609D01*
X141950807Y-87327002D01*
X141948391Y-87326249D01*
X141941468Y-87322530D01*
X141827183Y-87274911D01*
X141808436Y-87269181D01*
X141808328Y-87269180D01*
X141808230Y-87269140D01*
X141788721Y-87267219D01*
X141331578Y-87267219D01*
X141312069Y-87269140D01*
X141276021Y-87284072D01*
X141248431Y-87311662D01*
X141233499Y-87347710D01*
X141231578Y-87367219D01*
X140903038Y-87367219D01*
X140893076Y-87349594D01*
X140862340Y-87325559D01*
X140844057Y-87318486D01*
X140672628Y-87270867D01*
X140667295Y-87269936D01*
X140665373Y-87269140D01*
X140659311Y-87268543D01*
X140653317Y-87267497D01*
X140651252Y-87267749D01*
X140645864Y-87267219D01*
X140360149Y-87267219D01*
X140340640Y-87269140D01*
X140340541Y-87269180D01*
X140340435Y-87269181D01*
X140321687Y-87274911D01*
X140207402Y-87322530D01*
X140200479Y-87326248D01*
X140198062Y-87327002D01*
X140194219Y-87329611D01*
X140190133Y-87331807D01*
X140188348Y-87333599D01*
X140181845Y-87338016D01*
X140124703Y-87385635D01*
X140116721Y-87393736D01*
X140114656Y-87395267D01*
X140112951Y-87397563D01*
X140110945Y-87399600D01*
X140109751Y-87401874D01*
X140102972Y-87411007D01*
X140045829Y-87506245D01*
X140037439Y-87523962D01*
X140036344Y-87531316D01*
X140033499Y-87538186D01*
X140031578Y-87557695D01*
X139704021Y-87557695D01*
X139737292Y-87540233D01*
X139762271Y-87510258D01*
X139773877Y-87473006D01*
X139770344Y-87434148D01*
X139752210Y-87399600D01*
X139738453Y-87385634D01*
X139681310Y-87338016D01*
X139665093Y-87327002D01*
X139663584Y-87326531D01*
X139662340Y-87325559D01*
X139644057Y-87318486D01*
X139472628Y-87270867D01*
X139467295Y-87269936D01*
X139465373Y-87269140D01*
X139459311Y-87268543D01*
X139453317Y-87267497D01*
X139451252Y-87267749D01*
X139445864Y-87267219D01*
X139331578Y-87267219D01*
X139326189Y-87267749D01*
X139324125Y-87267497D01*
X139318130Y-87268543D01*
X139312069Y-87269140D01*
X139310146Y-87269936D01*
X139304814Y-87270867D01*
X139133385Y-87318486D01*
X139115102Y-87325559D01*
X139113859Y-87326530D01*
X139112347Y-87327002D01*
X139096130Y-87338016D01*
X138981845Y-87433254D01*
X138973862Y-87441356D01*
X138971799Y-87442886D01*
X138970094Y-87445182D01*
X138968088Y-87447219D01*
X138966894Y-87449493D01*
X138960115Y-87458626D01*
X138902972Y-87553864D01*
X138901382Y-87557221D01*
X138900384Y-87558445D01*
X138897653Y-87565095D01*
X138894582Y-87571581D01*
X138894349Y-87573140D01*
X138892938Y-87576579D01*
X138835795Y-87767055D01*
X138834427Y-87774038D01*
X138833499Y-87776281D01*
X138833003Y-87781316D01*
X138832029Y-87786293D01*
X138832274Y-87788712D01*
X138831578Y-87795790D01*
X138517292Y-87795790D01*
X138517292Y-87367219D01*
X138515371Y-87347710D01*
X138500439Y-87311662D01*
X138472849Y-87284072D01*
X138436801Y-87269140D01*
X138397783Y-87269140D01*
X138361735Y-87284072D01*
X138334145Y-87311662D01*
X138319213Y-87347710D01*
X138317292Y-87367219D01*
X138206181Y-87367219D01*
X138206181Y-87156108D01*
X142228403Y-87156108D01*
X142228403Y-88578330D01*
G37*
D10*
X103661027Y-102872419D02*
X103994360Y-103872419D01*
X103994360Y-103872419D02*
X104327693Y-102872419D01*
X105232455Y-103777180D02*
X105184836Y-103824800D01*
X105184836Y-103824800D02*
X105041979Y-103872419D01*
X105041979Y-103872419D02*
X104946741Y-103872419D01*
X104946741Y-103872419D02*
X104803884Y-103824800D01*
X104803884Y-103824800D02*
X104708646Y-103729561D01*
X104708646Y-103729561D02*
X104661027Y-103634323D01*
X104661027Y-103634323D02*
X104613408Y-103443847D01*
X104613408Y-103443847D02*
X104613408Y-103300990D01*
X104613408Y-103300990D02*
X104661027Y-103110514D01*
X104661027Y-103110514D02*
X104708646Y-103015276D01*
X104708646Y-103015276D02*
X104803884Y-102920038D01*
X104803884Y-102920038D02*
X104946741Y-102872419D01*
X104946741Y-102872419D02*
X105041979Y-102872419D01*
X105041979Y-102872419D02*
X105184836Y-102920038D01*
X105184836Y-102920038D02*
X105232455Y-102967657D01*
X106232455Y-103777180D02*
X106184836Y-103824800D01*
X106184836Y-103824800D02*
X106041979Y-103872419D01*
X106041979Y-103872419D02*
X105946741Y-103872419D01*
X105946741Y-103872419D02*
X105803884Y-103824800D01*
X105803884Y-103824800D02*
X105708646Y-103729561D01*
X105708646Y-103729561D02*
X105661027Y-103634323D01*
X105661027Y-103634323D02*
X105613408Y-103443847D01*
X105613408Y-103443847D02*
X105613408Y-103300990D01*
X105613408Y-103300990D02*
X105661027Y-103110514D01*
X105661027Y-103110514D02*
X105708646Y-103015276D01*
X105708646Y-103015276D02*
X105803884Y-102920038D01*
X105803884Y-102920038D02*
X105946741Y-102872419D01*
X105946741Y-102872419D02*
X106041979Y-102872419D01*
X106041979Y-102872419D02*
X106184836Y-102920038D01*
X106184836Y-102920038D02*
X106232455Y-102967657D01*
X104327693Y-105920038D02*
X104232455Y-105872419D01*
X104232455Y-105872419D02*
X104089598Y-105872419D01*
X104089598Y-105872419D02*
X103946741Y-105920038D01*
X103946741Y-105920038D02*
X103851503Y-106015276D01*
X103851503Y-106015276D02*
X103803884Y-106110514D01*
X103803884Y-106110514D02*
X103756265Y-106300990D01*
X103756265Y-106300990D02*
X103756265Y-106443847D01*
X103756265Y-106443847D02*
X103803884Y-106634323D01*
X103803884Y-106634323D02*
X103851503Y-106729561D01*
X103851503Y-106729561D02*
X103946741Y-106824800D01*
X103946741Y-106824800D02*
X104089598Y-106872419D01*
X104089598Y-106872419D02*
X104184836Y-106872419D01*
X104184836Y-106872419D02*
X104327693Y-106824800D01*
X104327693Y-106824800D02*
X104375312Y-106777180D01*
X104375312Y-106777180D02*
X104375312Y-106443847D01*
X104375312Y-106443847D02*
X104184836Y-106443847D01*
X104803884Y-106872419D02*
X104803884Y-105872419D01*
X104803884Y-105872419D02*
X105375312Y-106872419D01*
X105375312Y-106872419D02*
X105375312Y-105872419D01*
X105851503Y-106872419D02*
X105851503Y-105872419D01*
X105851503Y-105872419D02*
X106089598Y-105872419D01*
X106089598Y-105872419D02*
X106232455Y-105920038D01*
X106232455Y-105920038D02*
X106327693Y-106015276D01*
X106327693Y-106015276D02*
X106375312Y-106110514D01*
X106375312Y-106110514D02*
X106422931Y-106300990D01*
X106422931Y-106300990D02*
X106422931Y-106443847D01*
X106422931Y-106443847D02*
X106375312Y-106634323D01*
X106375312Y-106634323D02*
X106327693Y-106729561D01*
X106327693Y-106729561D02*
X106232455Y-106824800D01*
X106232455Y-106824800D02*
X106089598Y-106872419D01*
X106089598Y-106872419D02*
X105851503Y-106872419D01*
X103756265Y-98824800D02*
X103899122Y-98872419D01*
X103899122Y-98872419D02*
X104137217Y-98872419D01*
X104137217Y-98872419D02*
X104232455Y-98824800D01*
X104232455Y-98824800D02*
X104280074Y-98777180D01*
X104280074Y-98777180D02*
X104327693Y-98681942D01*
X104327693Y-98681942D02*
X104327693Y-98586704D01*
X104327693Y-98586704D02*
X104280074Y-98491466D01*
X104280074Y-98491466D02*
X104232455Y-98443847D01*
X104232455Y-98443847D02*
X104137217Y-98396228D01*
X104137217Y-98396228D02*
X103946741Y-98348609D01*
X103946741Y-98348609D02*
X103851503Y-98300990D01*
X103851503Y-98300990D02*
X103803884Y-98253371D01*
X103803884Y-98253371D02*
X103756265Y-98158133D01*
X103756265Y-98158133D02*
X103756265Y-98062895D01*
X103756265Y-98062895D02*
X103803884Y-97967657D01*
X103803884Y-97967657D02*
X103851503Y-97920038D01*
X103851503Y-97920038D02*
X103946741Y-97872419D01*
X103946741Y-97872419D02*
X104184836Y-97872419D01*
X104184836Y-97872419D02*
X104327693Y-97920038D01*
X104756265Y-98872419D02*
X104756265Y-97872419D01*
X104756265Y-97872419D02*
X104994360Y-97872419D01*
X104994360Y-97872419D02*
X105137217Y-97920038D01*
X105137217Y-97920038D02*
X105232455Y-98015276D01*
X105232455Y-98015276D02*
X105280074Y-98110514D01*
X105280074Y-98110514D02*
X105327693Y-98300990D01*
X105327693Y-98300990D02*
X105327693Y-98443847D01*
X105327693Y-98443847D02*
X105280074Y-98634323D01*
X105280074Y-98634323D02*
X105232455Y-98729561D01*
X105232455Y-98729561D02*
X105137217Y-98824800D01*
X105137217Y-98824800D02*
X104994360Y-98872419D01*
X104994360Y-98872419D02*
X104756265Y-98872419D01*
X105708646Y-98586704D02*
X106184836Y-98586704D01*
X105613408Y-98872419D02*
X105946741Y-97872419D01*
X105946741Y-97872419D02*
X106280074Y-98872419D01*
D12*
X130954819Y-91166666D02*
X130478628Y-91499999D01*
X130954819Y-91738094D02*
X129954819Y-91738094D01*
X129954819Y-91738094D02*
X129954819Y-91357142D01*
X129954819Y-91357142D02*
X130002438Y-91261904D01*
X130002438Y-91261904D02*
X130050057Y-91214285D01*
X130050057Y-91214285D02*
X130145295Y-91166666D01*
X130145295Y-91166666D02*
X130288152Y-91166666D01*
X130288152Y-91166666D02*
X130383390Y-91214285D01*
X130383390Y-91214285D02*
X130431009Y-91261904D01*
X130431009Y-91261904D02*
X130478628Y-91357142D01*
X130478628Y-91357142D02*
X130478628Y-91738094D01*
X129954819Y-90309523D02*
X129954819Y-90499999D01*
X129954819Y-90499999D02*
X130002438Y-90595237D01*
X130002438Y-90595237D02*
X130050057Y-90642856D01*
X130050057Y-90642856D02*
X130192914Y-90738094D01*
X130192914Y-90738094D02*
X130383390Y-90785713D01*
X130383390Y-90785713D02*
X130764342Y-90785713D01*
X130764342Y-90785713D02*
X130859580Y-90738094D01*
X130859580Y-90738094D02*
X130907200Y-90690475D01*
X130907200Y-90690475D02*
X130954819Y-90595237D01*
X130954819Y-90595237D02*
X130954819Y-90404761D01*
X130954819Y-90404761D02*
X130907200Y-90309523D01*
X130907200Y-90309523D02*
X130859580Y-90261904D01*
X130859580Y-90261904D02*
X130764342Y-90214285D01*
X130764342Y-90214285D02*
X130526247Y-90214285D01*
X130526247Y-90214285D02*
X130431009Y-90261904D01*
X130431009Y-90261904D02*
X130383390Y-90309523D01*
X130383390Y-90309523D02*
X130335771Y-90404761D01*
X130335771Y-90404761D02*
X130335771Y-90595237D01*
X130335771Y-90595237D02*
X130383390Y-90690475D01*
X130383390Y-90690475D02*
X130431009Y-90738094D01*
X130431009Y-90738094D02*
X130526247Y-90785713D01*
X139551785Y-92269771D02*
X139351785Y-91984057D01*
X139208928Y-92269771D02*
X139208928Y-91669771D01*
X139208928Y-91669771D02*
X139437499Y-91669771D01*
X139437499Y-91669771D02*
X139494642Y-91698342D01*
X139494642Y-91698342D02*
X139523213Y-91726914D01*
X139523213Y-91726914D02*
X139551785Y-91784057D01*
X139551785Y-91784057D02*
X139551785Y-91869771D01*
X139551785Y-91869771D02*
X139523213Y-91926914D01*
X139523213Y-91926914D02*
X139494642Y-91955485D01*
X139494642Y-91955485D02*
X139437499Y-91984057D01*
X139437499Y-91984057D02*
X139208928Y-91984057D01*
X139780356Y-91726914D02*
X139808928Y-91698342D01*
X139808928Y-91698342D02*
X139866071Y-91669771D01*
X139866071Y-91669771D02*
X140008928Y-91669771D01*
X140008928Y-91669771D02*
X140066071Y-91698342D01*
X140066071Y-91698342D02*
X140094642Y-91726914D01*
X140094642Y-91726914D02*
X140123213Y-91784057D01*
X140123213Y-91784057D02*
X140123213Y-91841200D01*
X140123213Y-91841200D02*
X140094642Y-91926914D01*
X140094642Y-91926914D02*
X139751785Y-92269771D01*
X139751785Y-92269771D02*
X140123213Y-92269771D01*
X140694642Y-92269771D02*
X140351785Y-92269771D01*
X140523214Y-92269771D02*
X140523214Y-91669771D01*
X140523214Y-91669771D02*
X140466071Y-91755485D01*
X140466071Y-91755485D02*
X140408928Y-91812628D01*
X140408928Y-91812628D02*
X140351785Y-91841200D01*
X129269771Y-84537856D02*
X128669771Y-84537856D01*
X128669771Y-84537856D02*
X128669771Y-84394999D01*
X128669771Y-84394999D02*
X128698342Y-84309285D01*
X128698342Y-84309285D02*
X128755485Y-84252142D01*
X128755485Y-84252142D02*
X128812628Y-84223571D01*
X128812628Y-84223571D02*
X128926914Y-84194999D01*
X128926914Y-84194999D02*
X129012628Y-84194999D01*
X129012628Y-84194999D02*
X129126914Y-84223571D01*
X129126914Y-84223571D02*
X129184057Y-84252142D01*
X129184057Y-84252142D02*
X129241200Y-84309285D01*
X129241200Y-84309285D02*
X129269771Y-84394999D01*
X129269771Y-84394999D02*
X129269771Y-84537856D01*
X128726914Y-83966428D02*
X128698342Y-83937856D01*
X128698342Y-83937856D02*
X128669771Y-83880714D01*
X128669771Y-83880714D02*
X128669771Y-83737856D01*
X128669771Y-83737856D02*
X128698342Y-83680714D01*
X128698342Y-83680714D02*
X128726914Y-83652142D01*
X128726914Y-83652142D02*
X128784057Y-83623571D01*
X128784057Y-83623571D02*
X128841200Y-83623571D01*
X128841200Y-83623571D02*
X128926914Y-83652142D01*
X128926914Y-83652142D02*
X129269771Y-83994999D01*
X129269771Y-83994999D02*
X129269771Y-83623571D01*
X106666667Y-121907200D02*
X106809524Y-121954819D01*
X106809524Y-121954819D02*
X107047619Y-121954819D01*
X107047619Y-121954819D02*
X107142857Y-121907200D01*
X107142857Y-121907200D02*
X107190476Y-121859580D01*
X107190476Y-121859580D02*
X107238095Y-121764342D01*
X107238095Y-121764342D02*
X107238095Y-121669104D01*
X107238095Y-121669104D02*
X107190476Y-121573866D01*
X107190476Y-121573866D02*
X107142857Y-121526247D01*
X107142857Y-121526247D02*
X107047619Y-121478628D01*
X107047619Y-121478628D02*
X106857143Y-121431009D01*
X106857143Y-121431009D02*
X106761905Y-121383390D01*
X106761905Y-121383390D02*
X106714286Y-121335771D01*
X106714286Y-121335771D02*
X106666667Y-121240533D01*
X106666667Y-121240533D02*
X106666667Y-121145295D01*
X106666667Y-121145295D02*
X106714286Y-121050057D01*
X106714286Y-121050057D02*
X106761905Y-121002438D01*
X106761905Y-121002438D02*
X106857143Y-120954819D01*
X106857143Y-120954819D02*
X107095238Y-120954819D01*
X107095238Y-120954819D02*
X107238095Y-121002438D01*
X107571429Y-120954819D02*
X107809524Y-121954819D01*
X107809524Y-121954819D02*
X108000000Y-121240533D01*
X108000000Y-121240533D02*
X108190476Y-121954819D01*
X108190476Y-121954819D02*
X108428572Y-120954819D01*
X108761905Y-121050057D02*
X108809524Y-121002438D01*
X108809524Y-121002438D02*
X108904762Y-120954819D01*
X108904762Y-120954819D02*
X109142857Y-120954819D01*
X109142857Y-120954819D02*
X109238095Y-121002438D01*
X109238095Y-121002438D02*
X109285714Y-121050057D01*
X109285714Y-121050057D02*
X109333333Y-121145295D01*
X109333333Y-121145295D02*
X109333333Y-121240533D01*
X109333333Y-121240533D02*
X109285714Y-121383390D01*
X109285714Y-121383390D02*
X108714286Y-121954819D01*
X108714286Y-121954819D02*
X109333333Y-121954819D01*
X121454819Y-91079166D02*
X120978628Y-91412499D01*
X121454819Y-91650594D02*
X120454819Y-91650594D01*
X120454819Y-91650594D02*
X120454819Y-91269642D01*
X120454819Y-91269642D02*
X120502438Y-91174404D01*
X120502438Y-91174404D02*
X120550057Y-91126785D01*
X120550057Y-91126785D02*
X120645295Y-91079166D01*
X120645295Y-91079166D02*
X120788152Y-91079166D01*
X120788152Y-91079166D02*
X120883390Y-91126785D01*
X120883390Y-91126785D02*
X120931009Y-91174404D01*
X120931009Y-91174404D02*
X120978628Y-91269642D01*
X120978628Y-91269642D02*
X120978628Y-91650594D01*
X121454819Y-90602975D02*
X121454819Y-90412499D01*
X121454819Y-90412499D02*
X121407200Y-90317261D01*
X121407200Y-90317261D02*
X121359580Y-90269642D01*
X121359580Y-90269642D02*
X121216723Y-90174404D01*
X121216723Y-90174404D02*
X121026247Y-90126785D01*
X121026247Y-90126785D02*
X120645295Y-90126785D01*
X120645295Y-90126785D02*
X120550057Y-90174404D01*
X120550057Y-90174404D02*
X120502438Y-90222023D01*
X120502438Y-90222023D02*
X120454819Y-90317261D01*
X120454819Y-90317261D02*
X120454819Y-90507737D01*
X120454819Y-90507737D02*
X120502438Y-90602975D01*
X120502438Y-90602975D02*
X120550057Y-90650594D01*
X120550057Y-90650594D02*
X120645295Y-90698213D01*
X120645295Y-90698213D02*
X120883390Y-90698213D01*
X120883390Y-90698213D02*
X120978628Y-90650594D01*
X120978628Y-90650594D02*
X121026247Y-90602975D01*
X121026247Y-90602975D02*
X121073866Y-90507737D01*
X121073866Y-90507737D02*
X121073866Y-90317261D01*
X121073866Y-90317261D02*
X121026247Y-90222023D01*
X121026247Y-90222023D02*
X120978628Y-90174404D01*
X120978628Y-90174404D02*
X120883390Y-90126785D01*
X115454819Y-92142857D02*
X114978628Y-92476190D01*
X115454819Y-92714285D02*
X114454819Y-92714285D01*
X114454819Y-92714285D02*
X114454819Y-92333333D01*
X114454819Y-92333333D02*
X114502438Y-92238095D01*
X114502438Y-92238095D02*
X114550057Y-92190476D01*
X114550057Y-92190476D02*
X114645295Y-92142857D01*
X114645295Y-92142857D02*
X114788152Y-92142857D01*
X114788152Y-92142857D02*
X114883390Y-92190476D01*
X114883390Y-92190476D02*
X114931009Y-92238095D01*
X114931009Y-92238095D02*
X114978628Y-92333333D01*
X114978628Y-92333333D02*
X114978628Y-92714285D01*
X115454819Y-91190476D02*
X115454819Y-91761904D01*
X115454819Y-91476190D02*
X114454819Y-91476190D01*
X114454819Y-91476190D02*
X114597676Y-91571428D01*
X114597676Y-91571428D02*
X114692914Y-91666666D01*
X114692914Y-91666666D02*
X114740533Y-91761904D01*
X115454819Y-90238095D02*
X115454819Y-90809523D01*
X115454819Y-90523809D02*
X114454819Y-90523809D01*
X114454819Y-90523809D02*
X114597676Y-90619047D01*
X114597676Y-90619047D02*
X114692914Y-90714285D01*
X114692914Y-90714285D02*
X114740533Y-90809523D01*
X147604819Y-111642857D02*
X147128628Y-111976190D01*
X147604819Y-112214285D02*
X146604819Y-112214285D01*
X146604819Y-112214285D02*
X146604819Y-111833333D01*
X146604819Y-111833333D02*
X146652438Y-111738095D01*
X146652438Y-111738095D02*
X146700057Y-111690476D01*
X146700057Y-111690476D02*
X146795295Y-111642857D01*
X146795295Y-111642857D02*
X146938152Y-111642857D01*
X146938152Y-111642857D02*
X147033390Y-111690476D01*
X147033390Y-111690476D02*
X147081009Y-111738095D01*
X147081009Y-111738095D02*
X147128628Y-111833333D01*
X147128628Y-111833333D02*
X147128628Y-112214285D01*
X147604819Y-110690476D02*
X147604819Y-111261904D01*
X147604819Y-110976190D02*
X146604819Y-110976190D01*
X146604819Y-110976190D02*
X146747676Y-111071428D01*
X146747676Y-111071428D02*
X146842914Y-111166666D01*
X146842914Y-111166666D02*
X146890533Y-111261904D01*
X147604819Y-110214285D02*
X147604819Y-110023809D01*
X147604819Y-110023809D02*
X147557200Y-109928571D01*
X147557200Y-109928571D02*
X147509580Y-109880952D01*
X147509580Y-109880952D02*
X147366723Y-109785714D01*
X147366723Y-109785714D02*
X147176247Y-109738095D01*
X147176247Y-109738095D02*
X146795295Y-109738095D01*
X146795295Y-109738095D02*
X146700057Y-109785714D01*
X146700057Y-109785714D02*
X146652438Y-109833333D01*
X146652438Y-109833333D02*
X146604819Y-109928571D01*
X146604819Y-109928571D02*
X146604819Y-110119047D01*
X146604819Y-110119047D02*
X146652438Y-110214285D01*
X146652438Y-110214285D02*
X146700057Y-110261904D01*
X146700057Y-110261904D02*
X146795295Y-110309523D01*
X146795295Y-110309523D02*
X147033390Y-110309523D01*
X147033390Y-110309523D02*
X147128628Y-110261904D01*
X147128628Y-110261904D02*
X147176247Y-110214285D01*
X147176247Y-110214285D02*
X147223866Y-110119047D01*
X147223866Y-110119047D02*
X147223866Y-109928571D01*
X147223866Y-109928571D02*
X147176247Y-109833333D01*
X147176247Y-109833333D02*
X147128628Y-109785714D01*
X147128628Y-109785714D02*
X147033390Y-109738095D01*
X102954819Y-111730357D02*
X102478628Y-112063690D01*
X102954819Y-112301785D02*
X101954819Y-112301785D01*
X101954819Y-112301785D02*
X101954819Y-111920833D01*
X101954819Y-111920833D02*
X102002438Y-111825595D01*
X102002438Y-111825595D02*
X102050057Y-111777976D01*
X102050057Y-111777976D02*
X102145295Y-111730357D01*
X102145295Y-111730357D02*
X102288152Y-111730357D01*
X102288152Y-111730357D02*
X102383390Y-111777976D01*
X102383390Y-111777976D02*
X102431009Y-111825595D01*
X102431009Y-111825595D02*
X102478628Y-111920833D01*
X102478628Y-111920833D02*
X102478628Y-112301785D01*
X102954819Y-110777976D02*
X102954819Y-111349404D01*
X102954819Y-111063690D02*
X101954819Y-111063690D01*
X101954819Y-111063690D02*
X102097676Y-111158928D01*
X102097676Y-111158928D02*
X102192914Y-111254166D01*
X102192914Y-111254166D02*
X102240533Y-111349404D01*
X101954819Y-109873214D02*
X101954819Y-110349404D01*
X101954819Y-110349404D02*
X102431009Y-110397023D01*
X102431009Y-110397023D02*
X102383390Y-110349404D01*
X102383390Y-110349404D02*
X102335771Y-110254166D01*
X102335771Y-110254166D02*
X102335771Y-110016071D01*
X102335771Y-110016071D02*
X102383390Y-109920833D01*
X102383390Y-109920833D02*
X102431009Y-109873214D01*
X102431009Y-109873214D02*
X102526247Y-109825595D01*
X102526247Y-109825595D02*
X102764342Y-109825595D01*
X102764342Y-109825595D02*
X102859580Y-109873214D01*
X102859580Y-109873214D02*
X102907200Y-109920833D01*
X102907200Y-109920833D02*
X102954819Y-110016071D01*
X102954819Y-110016071D02*
X102954819Y-110254166D01*
X102954819Y-110254166D02*
X102907200Y-110349404D01*
X102907200Y-110349404D02*
X102859580Y-110397023D01*
X110769771Y-84600356D02*
X110169771Y-84600356D01*
X110169771Y-84600356D02*
X110169771Y-84457499D01*
X110169771Y-84457499D02*
X110198342Y-84371785D01*
X110198342Y-84371785D02*
X110255485Y-84314642D01*
X110255485Y-84314642D02*
X110312628Y-84286071D01*
X110312628Y-84286071D02*
X110426914Y-84257499D01*
X110426914Y-84257499D02*
X110512628Y-84257499D01*
X110512628Y-84257499D02*
X110626914Y-84286071D01*
X110626914Y-84286071D02*
X110684057Y-84314642D01*
X110684057Y-84314642D02*
X110741200Y-84371785D01*
X110741200Y-84371785D02*
X110769771Y-84457499D01*
X110769771Y-84457499D02*
X110769771Y-84600356D01*
X110426914Y-83914642D02*
X110398342Y-83971785D01*
X110398342Y-83971785D02*
X110369771Y-84000356D01*
X110369771Y-84000356D02*
X110312628Y-84028928D01*
X110312628Y-84028928D02*
X110284057Y-84028928D01*
X110284057Y-84028928D02*
X110226914Y-84000356D01*
X110226914Y-84000356D02*
X110198342Y-83971785D01*
X110198342Y-83971785D02*
X110169771Y-83914642D01*
X110169771Y-83914642D02*
X110169771Y-83800356D01*
X110169771Y-83800356D02*
X110198342Y-83743214D01*
X110198342Y-83743214D02*
X110226914Y-83714642D01*
X110226914Y-83714642D02*
X110284057Y-83686071D01*
X110284057Y-83686071D02*
X110312628Y-83686071D01*
X110312628Y-83686071D02*
X110369771Y-83714642D01*
X110369771Y-83714642D02*
X110398342Y-83743214D01*
X110398342Y-83743214D02*
X110426914Y-83800356D01*
X110426914Y-83800356D02*
X110426914Y-83914642D01*
X110426914Y-83914642D02*
X110455485Y-83971785D01*
X110455485Y-83971785D02*
X110484057Y-84000356D01*
X110484057Y-84000356D02*
X110541200Y-84028928D01*
X110541200Y-84028928D02*
X110655485Y-84028928D01*
X110655485Y-84028928D02*
X110712628Y-84000356D01*
X110712628Y-84000356D02*
X110741200Y-83971785D01*
X110741200Y-83971785D02*
X110769771Y-83914642D01*
X110769771Y-83914642D02*
X110769771Y-83800356D01*
X110769771Y-83800356D02*
X110741200Y-83743214D01*
X110741200Y-83743214D02*
X110712628Y-83714642D01*
X110712628Y-83714642D02*
X110655485Y-83686071D01*
X110655485Y-83686071D02*
X110541200Y-83686071D01*
X110541200Y-83686071D02*
X110484057Y-83714642D01*
X110484057Y-83714642D02*
X110455485Y-83743214D01*
X110455485Y-83743214D02*
X110426914Y-83800356D01*
X139769771Y-105935714D02*
X139484057Y-106135714D01*
X139769771Y-106278571D02*
X139169771Y-106278571D01*
X139169771Y-106278571D02*
X139169771Y-106050000D01*
X139169771Y-106050000D02*
X139198342Y-105992857D01*
X139198342Y-105992857D02*
X139226914Y-105964286D01*
X139226914Y-105964286D02*
X139284057Y-105935714D01*
X139284057Y-105935714D02*
X139369771Y-105935714D01*
X139369771Y-105935714D02*
X139426914Y-105964286D01*
X139426914Y-105964286D02*
X139455485Y-105992857D01*
X139455485Y-105992857D02*
X139484057Y-106050000D01*
X139484057Y-106050000D02*
X139484057Y-106278571D01*
X139226914Y-105707143D02*
X139198342Y-105678571D01*
X139198342Y-105678571D02*
X139169771Y-105621429D01*
X139169771Y-105621429D02*
X139169771Y-105478571D01*
X139169771Y-105478571D02*
X139198342Y-105421429D01*
X139198342Y-105421429D02*
X139226914Y-105392857D01*
X139226914Y-105392857D02*
X139284057Y-105364286D01*
X139284057Y-105364286D02*
X139341200Y-105364286D01*
X139341200Y-105364286D02*
X139426914Y-105392857D01*
X139426914Y-105392857D02*
X139769771Y-105735714D01*
X139769771Y-105735714D02*
X139769771Y-105364286D01*
X139169771Y-104992857D02*
X139169771Y-104935714D01*
X139169771Y-104935714D02*
X139198342Y-104878571D01*
X139198342Y-104878571D02*
X139226914Y-104850000D01*
X139226914Y-104850000D02*
X139284057Y-104821428D01*
X139284057Y-104821428D02*
X139398342Y-104792857D01*
X139398342Y-104792857D02*
X139541200Y-104792857D01*
X139541200Y-104792857D02*
X139655485Y-104821428D01*
X139655485Y-104821428D02*
X139712628Y-104850000D01*
X139712628Y-104850000D02*
X139741200Y-104878571D01*
X139741200Y-104878571D02*
X139769771Y-104935714D01*
X139769771Y-104935714D02*
X139769771Y-104992857D01*
X139769771Y-104992857D02*
X139741200Y-105050000D01*
X139741200Y-105050000D02*
X139712628Y-105078571D01*
X139712628Y-105078571D02*
X139655485Y-105107142D01*
X139655485Y-105107142D02*
X139541200Y-105135714D01*
X139541200Y-105135714D02*
X139398342Y-105135714D01*
X139398342Y-105135714D02*
X139284057Y-105107142D01*
X139284057Y-105107142D02*
X139226914Y-105078571D01*
X139226914Y-105078571D02*
X139198342Y-105050000D01*
X139198342Y-105050000D02*
X139169771Y-104992857D01*
X132769771Y-84537856D02*
X132169771Y-84537856D01*
X132169771Y-84537856D02*
X132169771Y-84394999D01*
X132169771Y-84394999D02*
X132198342Y-84309285D01*
X132198342Y-84309285D02*
X132255485Y-84252142D01*
X132255485Y-84252142D02*
X132312628Y-84223571D01*
X132312628Y-84223571D02*
X132426914Y-84194999D01*
X132426914Y-84194999D02*
X132512628Y-84194999D01*
X132512628Y-84194999D02*
X132626914Y-84223571D01*
X132626914Y-84223571D02*
X132684057Y-84252142D01*
X132684057Y-84252142D02*
X132741200Y-84309285D01*
X132741200Y-84309285D02*
X132769771Y-84394999D01*
X132769771Y-84394999D02*
X132769771Y-84537856D01*
X132769771Y-83623571D02*
X132769771Y-83966428D01*
X132769771Y-83794999D02*
X132169771Y-83794999D01*
X132169771Y-83794999D02*
X132255485Y-83852142D01*
X132255485Y-83852142D02*
X132312628Y-83909285D01*
X132312628Y-83909285D02*
X132341200Y-83966428D01*
X119769771Y-84537856D02*
X119169771Y-84537856D01*
X119169771Y-84537856D02*
X119169771Y-84394999D01*
X119169771Y-84394999D02*
X119198342Y-84309285D01*
X119198342Y-84309285D02*
X119255485Y-84252142D01*
X119255485Y-84252142D02*
X119312628Y-84223571D01*
X119312628Y-84223571D02*
X119426914Y-84194999D01*
X119426914Y-84194999D02*
X119512628Y-84194999D01*
X119512628Y-84194999D02*
X119626914Y-84223571D01*
X119626914Y-84223571D02*
X119684057Y-84252142D01*
X119684057Y-84252142D02*
X119741200Y-84309285D01*
X119741200Y-84309285D02*
X119769771Y-84394999D01*
X119769771Y-84394999D02*
X119769771Y-84537856D01*
X119169771Y-83652142D02*
X119169771Y-83937856D01*
X119169771Y-83937856D02*
X119455485Y-83966428D01*
X119455485Y-83966428D02*
X119426914Y-83937856D01*
X119426914Y-83937856D02*
X119398342Y-83880714D01*
X119398342Y-83880714D02*
X119398342Y-83737856D01*
X119398342Y-83737856D02*
X119426914Y-83680714D01*
X119426914Y-83680714D02*
X119455485Y-83652142D01*
X119455485Y-83652142D02*
X119512628Y-83623571D01*
X119512628Y-83623571D02*
X119655485Y-83623571D01*
X119655485Y-83623571D02*
X119712628Y-83652142D01*
X119712628Y-83652142D02*
X119741200Y-83680714D01*
X119741200Y-83680714D02*
X119769771Y-83737856D01*
X119769771Y-83737856D02*
X119769771Y-83880714D01*
X119769771Y-83880714D02*
X119741200Y-83937856D01*
X119741200Y-83937856D02*
X119712628Y-83966428D01*
X138104819Y-111642857D02*
X137628628Y-111976190D01*
X138104819Y-112214285D02*
X137104819Y-112214285D01*
X137104819Y-112214285D02*
X137104819Y-111833333D01*
X137104819Y-111833333D02*
X137152438Y-111738095D01*
X137152438Y-111738095D02*
X137200057Y-111690476D01*
X137200057Y-111690476D02*
X137295295Y-111642857D01*
X137295295Y-111642857D02*
X137438152Y-111642857D01*
X137438152Y-111642857D02*
X137533390Y-111690476D01*
X137533390Y-111690476D02*
X137581009Y-111738095D01*
X137581009Y-111738095D02*
X137628628Y-111833333D01*
X137628628Y-111833333D02*
X137628628Y-112214285D01*
X138104819Y-110690476D02*
X138104819Y-111261904D01*
X138104819Y-110976190D02*
X137104819Y-110976190D01*
X137104819Y-110976190D02*
X137247676Y-111071428D01*
X137247676Y-111071428D02*
X137342914Y-111166666D01*
X137342914Y-111166666D02*
X137390533Y-111261904D01*
X137104819Y-110357142D02*
X137104819Y-109690476D01*
X137104819Y-109690476D02*
X138104819Y-110119047D01*
X128804819Y-111254166D02*
X128328628Y-111587499D01*
X128804819Y-111825594D02*
X127804819Y-111825594D01*
X127804819Y-111825594D02*
X127804819Y-111444642D01*
X127804819Y-111444642D02*
X127852438Y-111349404D01*
X127852438Y-111349404D02*
X127900057Y-111301785D01*
X127900057Y-111301785D02*
X127995295Y-111254166D01*
X127995295Y-111254166D02*
X128138152Y-111254166D01*
X128138152Y-111254166D02*
X128233390Y-111301785D01*
X128233390Y-111301785D02*
X128281009Y-111349404D01*
X128281009Y-111349404D02*
X128328628Y-111444642D01*
X128328628Y-111444642D02*
X128328628Y-111825594D01*
X128138152Y-110397023D02*
X128804819Y-110397023D01*
X127757200Y-110635118D02*
X128471485Y-110873213D01*
X128471485Y-110873213D02*
X128471485Y-110254166D01*
X139954819Y-108666666D02*
X139478628Y-108999999D01*
X139954819Y-109238094D02*
X138954819Y-109238094D01*
X138954819Y-109238094D02*
X138954819Y-108857142D01*
X138954819Y-108857142D02*
X139002438Y-108761904D01*
X139002438Y-108761904D02*
X139050057Y-108714285D01*
X139050057Y-108714285D02*
X139145295Y-108666666D01*
X139145295Y-108666666D02*
X139288152Y-108666666D01*
X139288152Y-108666666D02*
X139383390Y-108714285D01*
X139383390Y-108714285D02*
X139431009Y-108761904D01*
X139431009Y-108761904D02*
X139478628Y-108857142D01*
X139478628Y-108857142D02*
X139478628Y-109238094D01*
X138954819Y-107761904D02*
X138954819Y-108238094D01*
X138954819Y-108238094D02*
X139431009Y-108285713D01*
X139431009Y-108285713D02*
X139383390Y-108238094D01*
X139383390Y-108238094D02*
X139335771Y-108142856D01*
X139335771Y-108142856D02*
X139335771Y-107904761D01*
X139335771Y-107904761D02*
X139383390Y-107809523D01*
X139383390Y-107809523D02*
X139431009Y-107761904D01*
X139431009Y-107761904D02*
X139526247Y-107714285D01*
X139526247Y-107714285D02*
X139764342Y-107714285D01*
X139764342Y-107714285D02*
X139859580Y-107761904D01*
X139859580Y-107761904D02*
X139907200Y-107809523D01*
X139907200Y-107809523D02*
X139954819Y-107904761D01*
X139954819Y-107904761D02*
X139954819Y-108142856D01*
X139954819Y-108142856D02*
X139907200Y-108238094D01*
X139907200Y-108238094D02*
X139859580Y-108285713D01*
X118454819Y-92055357D02*
X117978628Y-92388690D01*
X118454819Y-92626785D02*
X117454819Y-92626785D01*
X117454819Y-92626785D02*
X117454819Y-92245833D01*
X117454819Y-92245833D02*
X117502438Y-92150595D01*
X117502438Y-92150595D02*
X117550057Y-92102976D01*
X117550057Y-92102976D02*
X117645295Y-92055357D01*
X117645295Y-92055357D02*
X117788152Y-92055357D01*
X117788152Y-92055357D02*
X117883390Y-92102976D01*
X117883390Y-92102976D02*
X117931009Y-92150595D01*
X117931009Y-92150595D02*
X117978628Y-92245833D01*
X117978628Y-92245833D02*
X117978628Y-92626785D01*
X118454819Y-91102976D02*
X118454819Y-91674404D01*
X118454819Y-91388690D02*
X117454819Y-91388690D01*
X117454819Y-91388690D02*
X117597676Y-91483928D01*
X117597676Y-91483928D02*
X117692914Y-91579166D01*
X117692914Y-91579166D02*
X117740533Y-91674404D01*
X117454819Y-90483928D02*
X117454819Y-90388690D01*
X117454819Y-90388690D02*
X117502438Y-90293452D01*
X117502438Y-90293452D02*
X117550057Y-90245833D01*
X117550057Y-90245833D02*
X117645295Y-90198214D01*
X117645295Y-90198214D02*
X117835771Y-90150595D01*
X117835771Y-90150595D02*
X118073866Y-90150595D01*
X118073866Y-90150595D02*
X118264342Y-90198214D01*
X118264342Y-90198214D02*
X118359580Y-90245833D01*
X118359580Y-90245833D02*
X118407200Y-90293452D01*
X118407200Y-90293452D02*
X118454819Y-90388690D01*
X118454819Y-90388690D02*
X118454819Y-90483928D01*
X118454819Y-90483928D02*
X118407200Y-90579166D01*
X118407200Y-90579166D02*
X118359580Y-90626785D01*
X118359580Y-90626785D02*
X118264342Y-90674404D01*
X118264342Y-90674404D02*
X118073866Y-90722023D01*
X118073866Y-90722023D02*
X117835771Y-90722023D01*
X117835771Y-90722023D02*
X117645295Y-90674404D01*
X117645295Y-90674404D02*
X117550057Y-90626785D01*
X117550057Y-90626785D02*
X117502438Y-90579166D01*
X117502438Y-90579166D02*
X117454819Y-90483928D01*
X106454819Y-92142857D02*
X105978628Y-92476190D01*
X106454819Y-92714285D02*
X105454819Y-92714285D01*
X105454819Y-92714285D02*
X105454819Y-92333333D01*
X105454819Y-92333333D02*
X105502438Y-92238095D01*
X105502438Y-92238095D02*
X105550057Y-92190476D01*
X105550057Y-92190476D02*
X105645295Y-92142857D01*
X105645295Y-92142857D02*
X105788152Y-92142857D01*
X105788152Y-92142857D02*
X105883390Y-92190476D01*
X105883390Y-92190476D02*
X105931009Y-92238095D01*
X105931009Y-92238095D02*
X105978628Y-92333333D01*
X105978628Y-92333333D02*
X105978628Y-92714285D01*
X106454819Y-91190476D02*
X106454819Y-91761904D01*
X106454819Y-91476190D02*
X105454819Y-91476190D01*
X105454819Y-91476190D02*
X105597676Y-91571428D01*
X105597676Y-91571428D02*
X105692914Y-91666666D01*
X105692914Y-91666666D02*
X105740533Y-91761904D01*
X105788152Y-90333333D02*
X106454819Y-90333333D01*
X105407200Y-90571428D02*
X106121485Y-90809523D01*
X106121485Y-90809523D02*
X106121485Y-90190476D01*
X131916667Y-121407200D02*
X132059524Y-121454819D01*
X132059524Y-121454819D02*
X132297619Y-121454819D01*
X132297619Y-121454819D02*
X132392857Y-121407200D01*
X132392857Y-121407200D02*
X132440476Y-121359580D01*
X132440476Y-121359580D02*
X132488095Y-121264342D01*
X132488095Y-121264342D02*
X132488095Y-121169104D01*
X132488095Y-121169104D02*
X132440476Y-121073866D01*
X132440476Y-121073866D02*
X132392857Y-121026247D01*
X132392857Y-121026247D02*
X132297619Y-120978628D01*
X132297619Y-120978628D02*
X132107143Y-120931009D01*
X132107143Y-120931009D02*
X132011905Y-120883390D01*
X132011905Y-120883390D02*
X131964286Y-120835771D01*
X131964286Y-120835771D02*
X131916667Y-120740533D01*
X131916667Y-120740533D02*
X131916667Y-120645295D01*
X131916667Y-120645295D02*
X131964286Y-120550057D01*
X131964286Y-120550057D02*
X132011905Y-120502438D01*
X132011905Y-120502438D02*
X132107143Y-120454819D01*
X132107143Y-120454819D02*
X132345238Y-120454819D01*
X132345238Y-120454819D02*
X132488095Y-120502438D01*
X132821429Y-120454819D02*
X133059524Y-121454819D01*
X133059524Y-121454819D02*
X133250000Y-120740533D01*
X133250000Y-120740533D02*
X133440476Y-121454819D01*
X133440476Y-121454819D02*
X133678572Y-120454819D01*
X133964286Y-120454819D02*
X134583333Y-120454819D01*
X134583333Y-120454819D02*
X134250000Y-120835771D01*
X134250000Y-120835771D02*
X134392857Y-120835771D01*
X134392857Y-120835771D02*
X134488095Y-120883390D01*
X134488095Y-120883390D02*
X134535714Y-120931009D01*
X134535714Y-120931009D02*
X134583333Y-121026247D01*
X134583333Y-121026247D02*
X134583333Y-121264342D01*
X134583333Y-121264342D02*
X134535714Y-121359580D01*
X134535714Y-121359580D02*
X134488095Y-121407200D01*
X134488095Y-121407200D02*
X134392857Y-121454819D01*
X134392857Y-121454819D02*
X134107143Y-121454819D01*
X134107143Y-121454819D02*
X134011905Y-121407200D01*
X134011905Y-121407200D02*
X133964286Y-121359580D01*
X142454819Y-91333333D02*
X143169104Y-91333333D01*
X143169104Y-91333333D02*
X143311961Y-91380952D01*
X143311961Y-91380952D02*
X143407200Y-91476190D01*
X143407200Y-91476190D02*
X143454819Y-91619047D01*
X143454819Y-91619047D02*
X143454819Y-91714285D01*
X142788152Y-90428571D02*
X143454819Y-90428571D01*
X142407200Y-90666666D02*
X143121485Y-90904761D01*
X143121485Y-90904761D02*
X143121485Y-90285714D01*
X141666667Y-121407200D02*
X141809524Y-121454819D01*
X141809524Y-121454819D02*
X142047619Y-121454819D01*
X142047619Y-121454819D02*
X142142857Y-121407200D01*
X142142857Y-121407200D02*
X142190476Y-121359580D01*
X142190476Y-121359580D02*
X142238095Y-121264342D01*
X142238095Y-121264342D02*
X142238095Y-121169104D01*
X142238095Y-121169104D02*
X142190476Y-121073866D01*
X142190476Y-121073866D02*
X142142857Y-121026247D01*
X142142857Y-121026247D02*
X142047619Y-120978628D01*
X142047619Y-120978628D02*
X141857143Y-120931009D01*
X141857143Y-120931009D02*
X141761905Y-120883390D01*
X141761905Y-120883390D02*
X141714286Y-120835771D01*
X141714286Y-120835771D02*
X141666667Y-120740533D01*
X141666667Y-120740533D02*
X141666667Y-120645295D01*
X141666667Y-120645295D02*
X141714286Y-120550057D01*
X141714286Y-120550057D02*
X141761905Y-120502438D01*
X141761905Y-120502438D02*
X141857143Y-120454819D01*
X141857143Y-120454819D02*
X142095238Y-120454819D01*
X142095238Y-120454819D02*
X142238095Y-120502438D01*
X142571429Y-120454819D02*
X142809524Y-121454819D01*
X142809524Y-121454819D02*
X143000000Y-120740533D01*
X143000000Y-120740533D02*
X143190476Y-121454819D01*
X143190476Y-121454819D02*
X143428572Y-120454819D01*
X144238095Y-120788152D02*
X144238095Y-121454819D01*
X144000000Y-120407200D02*
X143761905Y-121121485D01*
X143761905Y-121121485D02*
X144380952Y-121121485D01*
X94869167Y-96407200D02*
X95012024Y-96454819D01*
X95012024Y-96454819D02*
X95250119Y-96454819D01*
X95250119Y-96454819D02*
X95345357Y-96407200D01*
X95345357Y-96407200D02*
X95392976Y-96359580D01*
X95392976Y-96359580D02*
X95440595Y-96264342D01*
X95440595Y-96264342D02*
X95440595Y-96169104D01*
X95440595Y-96169104D02*
X95392976Y-96073866D01*
X95392976Y-96073866D02*
X95345357Y-96026247D01*
X95345357Y-96026247D02*
X95250119Y-95978628D01*
X95250119Y-95978628D02*
X95059643Y-95931009D01*
X95059643Y-95931009D02*
X94964405Y-95883390D01*
X94964405Y-95883390D02*
X94916786Y-95835771D01*
X94916786Y-95835771D02*
X94869167Y-95740533D01*
X94869167Y-95740533D02*
X94869167Y-95645295D01*
X94869167Y-95645295D02*
X94916786Y-95550057D01*
X94916786Y-95550057D02*
X94964405Y-95502438D01*
X94964405Y-95502438D02*
X95059643Y-95454819D01*
X95059643Y-95454819D02*
X95297738Y-95454819D01*
X95297738Y-95454819D02*
X95440595Y-95502438D01*
X95773929Y-95454819D02*
X96012024Y-96454819D01*
X96012024Y-96454819D02*
X96202500Y-95740533D01*
X96202500Y-95740533D02*
X96392976Y-96454819D01*
X96392976Y-96454819D02*
X96631072Y-95454819D01*
X97488214Y-95454819D02*
X97012024Y-95454819D01*
X97012024Y-95454819D02*
X96964405Y-95931009D01*
X96964405Y-95931009D02*
X97012024Y-95883390D01*
X97012024Y-95883390D02*
X97107262Y-95835771D01*
X97107262Y-95835771D02*
X97345357Y-95835771D01*
X97345357Y-95835771D02*
X97440595Y-95883390D01*
X97440595Y-95883390D02*
X97488214Y-95931009D01*
X97488214Y-95931009D02*
X97535833Y-96026247D01*
X97535833Y-96026247D02*
X97535833Y-96264342D01*
X97535833Y-96264342D02*
X97488214Y-96359580D01*
X97488214Y-96359580D02*
X97440595Y-96407200D01*
X97440595Y-96407200D02*
X97345357Y-96454819D01*
X97345357Y-96454819D02*
X97107262Y-96454819D01*
X97107262Y-96454819D02*
X97012024Y-96407200D01*
X97012024Y-96407200D02*
X96964405Y-96359580D01*
X101369166Y-95414819D02*
X101369166Y-96129104D01*
X101369166Y-96129104D02*
X101321547Y-96271961D01*
X101321547Y-96271961D02*
X101226309Y-96367200D01*
X101226309Y-96367200D02*
X101083452Y-96414819D01*
X101083452Y-96414819D02*
X100988214Y-96414819D01*
X101797738Y-95510057D02*
X101845357Y-95462438D01*
X101845357Y-95462438D02*
X101940595Y-95414819D01*
X101940595Y-95414819D02*
X102178690Y-95414819D01*
X102178690Y-95414819D02*
X102273928Y-95462438D01*
X102273928Y-95462438D02*
X102321547Y-95510057D01*
X102321547Y-95510057D02*
X102369166Y-95605295D01*
X102369166Y-95605295D02*
X102369166Y-95700533D01*
X102369166Y-95700533D02*
X102321547Y-95843390D01*
X102321547Y-95843390D02*
X101750119Y-96414819D01*
X101750119Y-96414819D02*
X102369166Y-96414819D01*
X96285714Y-110892319D02*
X96285714Y-109892319D01*
X96285714Y-109892319D02*
X96523809Y-109892319D01*
X96523809Y-109892319D02*
X96666666Y-109939938D01*
X96666666Y-109939938D02*
X96761904Y-110035176D01*
X96761904Y-110035176D02*
X96809523Y-110130414D01*
X96809523Y-110130414D02*
X96857142Y-110320890D01*
X96857142Y-110320890D02*
X96857142Y-110463747D01*
X96857142Y-110463747D02*
X96809523Y-110654223D01*
X96809523Y-110654223D02*
X96761904Y-110749461D01*
X96761904Y-110749461D02*
X96666666Y-110844700D01*
X96666666Y-110844700D02*
X96523809Y-110892319D01*
X96523809Y-110892319D02*
X96285714Y-110892319D01*
X97809523Y-110892319D02*
X97238095Y-110892319D01*
X97523809Y-110892319D02*
X97523809Y-109892319D01*
X97523809Y-109892319D02*
X97428571Y-110035176D01*
X97428571Y-110035176D02*
X97333333Y-110130414D01*
X97333333Y-110130414D02*
X97238095Y-110178033D01*
X98761904Y-110892319D02*
X98190476Y-110892319D01*
X98476190Y-110892319D02*
X98476190Y-109892319D01*
X98476190Y-109892319D02*
X98380952Y-110035176D01*
X98380952Y-110035176D02*
X98285714Y-110130414D01*
X98285714Y-110130414D02*
X98190476Y-110178033D01*
X104619771Y-84886071D02*
X104019771Y-84886071D01*
X104019771Y-84886071D02*
X104019771Y-84743214D01*
X104019771Y-84743214D02*
X104048342Y-84657500D01*
X104048342Y-84657500D02*
X104105485Y-84600357D01*
X104105485Y-84600357D02*
X104162628Y-84571786D01*
X104162628Y-84571786D02*
X104276914Y-84543214D01*
X104276914Y-84543214D02*
X104362628Y-84543214D01*
X104362628Y-84543214D02*
X104476914Y-84571786D01*
X104476914Y-84571786D02*
X104534057Y-84600357D01*
X104534057Y-84600357D02*
X104591200Y-84657500D01*
X104591200Y-84657500D02*
X104619771Y-84743214D01*
X104619771Y-84743214D02*
X104619771Y-84886071D01*
X104619771Y-83971786D02*
X104619771Y-84314643D01*
X104619771Y-84143214D02*
X104019771Y-84143214D01*
X104019771Y-84143214D02*
X104105485Y-84200357D01*
X104105485Y-84200357D02*
X104162628Y-84257500D01*
X104162628Y-84257500D02*
X104191200Y-84314643D01*
X104019771Y-83600357D02*
X104019771Y-83543214D01*
X104019771Y-83543214D02*
X104048342Y-83486071D01*
X104048342Y-83486071D02*
X104076914Y-83457500D01*
X104076914Y-83457500D02*
X104134057Y-83428928D01*
X104134057Y-83428928D02*
X104248342Y-83400357D01*
X104248342Y-83400357D02*
X104391200Y-83400357D01*
X104391200Y-83400357D02*
X104505485Y-83428928D01*
X104505485Y-83428928D02*
X104562628Y-83457500D01*
X104562628Y-83457500D02*
X104591200Y-83486071D01*
X104591200Y-83486071D02*
X104619771Y-83543214D01*
X104619771Y-83543214D02*
X104619771Y-83600357D01*
X104619771Y-83600357D02*
X104591200Y-83657500D01*
X104591200Y-83657500D02*
X104562628Y-83686071D01*
X104562628Y-83686071D02*
X104505485Y-83714642D01*
X104505485Y-83714642D02*
X104391200Y-83743214D01*
X104391200Y-83743214D02*
X104248342Y-83743214D01*
X104248342Y-83743214D02*
X104134057Y-83714642D01*
X104134057Y-83714642D02*
X104076914Y-83686071D01*
X104076914Y-83686071D02*
X104048342Y-83657500D01*
X104048342Y-83657500D02*
X104019771Y-83600357D01*
X148166666Y-85954819D02*
X148166666Y-86669104D01*
X148166666Y-86669104D02*
X148119047Y-86811961D01*
X148119047Y-86811961D02*
X148023809Y-86907200D01*
X148023809Y-86907200D02*
X147880952Y-86954819D01*
X147880952Y-86954819D02*
X147785714Y-86954819D01*
X149166666Y-86954819D02*
X148595238Y-86954819D01*
X148880952Y-86954819D02*
X148880952Y-85954819D01*
X148880952Y-85954819D02*
X148785714Y-86097676D01*
X148785714Y-86097676D02*
X148690476Y-86192914D01*
X148690476Y-86192914D02*
X148595238Y-86240533D01*
X98954819Y-89342857D02*
X98954819Y-89819047D01*
X98954819Y-89819047D02*
X97954819Y-89819047D01*
X98907200Y-89057142D02*
X98954819Y-88914285D01*
X98954819Y-88914285D02*
X98954819Y-88676190D01*
X98954819Y-88676190D02*
X98907200Y-88580952D01*
X98907200Y-88580952D02*
X98859580Y-88533333D01*
X98859580Y-88533333D02*
X98764342Y-88485714D01*
X98764342Y-88485714D02*
X98669104Y-88485714D01*
X98669104Y-88485714D02*
X98573866Y-88533333D01*
X98573866Y-88533333D02*
X98526247Y-88580952D01*
X98526247Y-88580952D02*
X98478628Y-88676190D01*
X98478628Y-88676190D02*
X98431009Y-88866666D01*
X98431009Y-88866666D02*
X98383390Y-88961904D01*
X98383390Y-88961904D02*
X98335771Y-89009523D01*
X98335771Y-89009523D02*
X98240533Y-89057142D01*
X98240533Y-89057142D02*
X98145295Y-89057142D01*
X98145295Y-89057142D02*
X98050057Y-89009523D01*
X98050057Y-89009523D02*
X98002438Y-88961904D01*
X98002438Y-88961904D02*
X97954819Y-88866666D01*
X97954819Y-88866666D02*
X97954819Y-88628571D01*
X97954819Y-88628571D02*
X98002438Y-88485714D01*
X98954819Y-87533333D02*
X98954819Y-88104761D01*
X98954819Y-87819047D02*
X97954819Y-87819047D01*
X97954819Y-87819047D02*
X98097676Y-87914285D01*
X98097676Y-87914285D02*
X98192914Y-88009523D01*
X98192914Y-88009523D02*
X98240533Y-88104761D01*
X96033866Y-92890951D02*
X96033866Y-92129047D01*
X96414819Y-92509999D02*
X95652914Y-92509999D01*
X145837500Y-97262628D02*
X145808928Y-97291200D01*
X145808928Y-97291200D02*
X145723214Y-97319771D01*
X145723214Y-97319771D02*
X145666071Y-97319771D01*
X145666071Y-97319771D02*
X145580357Y-97291200D01*
X145580357Y-97291200D02*
X145523214Y-97234057D01*
X145523214Y-97234057D02*
X145494643Y-97176914D01*
X145494643Y-97176914D02*
X145466071Y-97062628D01*
X145466071Y-97062628D02*
X145466071Y-96976914D01*
X145466071Y-96976914D02*
X145494643Y-96862628D01*
X145494643Y-96862628D02*
X145523214Y-96805485D01*
X145523214Y-96805485D02*
X145580357Y-96748342D01*
X145580357Y-96748342D02*
X145666071Y-96719771D01*
X145666071Y-96719771D02*
X145723214Y-96719771D01*
X145723214Y-96719771D02*
X145808928Y-96748342D01*
X145808928Y-96748342D02*
X145837500Y-96776914D01*
X146408928Y-97319771D02*
X146066071Y-97319771D01*
X146237500Y-97319771D02*
X146237500Y-96719771D01*
X146237500Y-96719771D02*
X146180357Y-96805485D01*
X146180357Y-96805485D02*
X146123214Y-96862628D01*
X146123214Y-96862628D02*
X146066071Y-96891200D01*
X134454819Y-91166666D02*
X133978628Y-91499999D01*
X134454819Y-91738094D02*
X133454819Y-91738094D01*
X133454819Y-91738094D02*
X133454819Y-91357142D01*
X133454819Y-91357142D02*
X133502438Y-91261904D01*
X133502438Y-91261904D02*
X133550057Y-91214285D01*
X133550057Y-91214285D02*
X133645295Y-91166666D01*
X133645295Y-91166666D02*
X133788152Y-91166666D01*
X133788152Y-91166666D02*
X133883390Y-91214285D01*
X133883390Y-91214285D02*
X133931009Y-91261904D01*
X133931009Y-91261904D02*
X133978628Y-91357142D01*
X133978628Y-91357142D02*
X133978628Y-91738094D01*
X133550057Y-90785713D02*
X133502438Y-90738094D01*
X133502438Y-90738094D02*
X133454819Y-90642856D01*
X133454819Y-90642856D02*
X133454819Y-90404761D01*
X133454819Y-90404761D02*
X133502438Y-90309523D01*
X133502438Y-90309523D02*
X133550057Y-90261904D01*
X133550057Y-90261904D02*
X133645295Y-90214285D01*
X133645295Y-90214285D02*
X133740533Y-90214285D01*
X133740533Y-90214285D02*
X133883390Y-90261904D01*
X133883390Y-90261904D02*
X134454819Y-90833332D01*
X134454819Y-90833332D02*
X134454819Y-90214285D01*
X148769771Y-107228571D02*
X148169771Y-107228571D01*
X148169771Y-107228571D02*
X148169771Y-107085714D01*
X148169771Y-107085714D02*
X148198342Y-107000000D01*
X148198342Y-107000000D02*
X148255485Y-106942857D01*
X148255485Y-106942857D02*
X148312628Y-106914286D01*
X148312628Y-106914286D02*
X148426914Y-106885714D01*
X148426914Y-106885714D02*
X148512628Y-106885714D01*
X148512628Y-106885714D02*
X148626914Y-106914286D01*
X148626914Y-106914286D02*
X148684057Y-106942857D01*
X148684057Y-106942857D02*
X148741200Y-107000000D01*
X148741200Y-107000000D02*
X148769771Y-107085714D01*
X148769771Y-107085714D02*
X148769771Y-107228571D01*
X148769771Y-106314286D02*
X148769771Y-106657143D01*
X148769771Y-106485714D02*
X148169771Y-106485714D01*
X148169771Y-106485714D02*
X148255485Y-106542857D01*
X148255485Y-106542857D02*
X148312628Y-106600000D01*
X148312628Y-106600000D02*
X148341200Y-106657143D01*
X148169771Y-105800000D02*
X148169771Y-105914285D01*
X148169771Y-105914285D02*
X148198342Y-105971428D01*
X148198342Y-105971428D02*
X148226914Y-106000000D01*
X148226914Y-106000000D02*
X148312628Y-106057142D01*
X148312628Y-106057142D02*
X148426914Y-106085714D01*
X148426914Y-106085714D02*
X148655485Y-106085714D01*
X148655485Y-106085714D02*
X148712628Y-106057142D01*
X148712628Y-106057142D02*
X148741200Y-106028571D01*
X148741200Y-106028571D02*
X148769771Y-105971428D01*
X148769771Y-105971428D02*
X148769771Y-105857142D01*
X148769771Y-105857142D02*
X148741200Y-105800000D01*
X148741200Y-105800000D02*
X148712628Y-105771428D01*
X148712628Y-105771428D02*
X148655485Y-105742857D01*
X148655485Y-105742857D02*
X148512628Y-105742857D01*
X148512628Y-105742857D02*
X148455485Y-105771428D01*
X148455485Y-105771428D02*
X148426914Y-105800000D01*
X148426914Y-105800000D02*
X148398342Y-105857142D01*
X148398342Y-105857142D02*
X148398342Y-105971428D01*
X148398342Y-105971428D02*
X148426914Y-106028571D01*
X148426914Y-106028571D02*
X148455485Y-106057142D01*
X148455485Y-106057142D02*
X148512628Y-106085714D01*
X125769771Y-84537856D02*
X125169771Y-84537856D01*
X125169771Y-84537856D02*
X125169771Y-84394999D01*
X125169771Y-84394999D02*
X125198342Y-84309285D01*
X125198342Y-84309285D02*
X125255485Y-84252142D01*
X125255485Y-84252142D02*
X125312628Y-84223571D01*
X125312628Y-84223571D02*
X125426914Y-84194999D01*
X125426914Y-84194999D02*
X125512628Y-84194999D01*
X125512628Y-84194999D02*
X125626914Y-84223571D01*
X125626914Y-84223571D02*
X125684057Y-84252142D01*
X125684057Y-84252142D02*
X125741200Y-84309285D01*
X125741200Y-84309285D02*
X125769771Y-84394999D01*
X125769771Y-84394999D02*
X125769771Y-84537856D01*
X125169771Y-83994999D02*
X125169771Y-83623571D01*
X125169771Y-83623571D02*
X125398342Y-83823571D01*
X125398342Y-83823571D02*
X125398342Y-83737856D01*
X125398342Y-83737856D02*
X125426914Y-83680714D01*
X125426914Y-83680714D02*
X125455485Y-83652142D01*
X125455485Y-83652142D02*
X125512628Y-83623571D01*
X125512628Y-83623571D02*
X125655485Y-83623571D01*
X125655485Y-83623571D02*
X125712628Y-83652142D01*
X125712628Y-83652142D02*
X125741200Y-83680714D01*
X125741200Y-83680714D02*
X125769771Y-83737856D01*
X125769771Y-83737856D02*
X125769771Y-83909285D01*
X125769771Y-83909285D02*
X125741200Y-83966428D01*
X125741200Y-83966428D02*
X125712628Y-83994999D01*
X94954819Y-108666666D02*
X94478628Y-108999999D01*
X94954819Y-109238094D02*
X93954819Y-109238094D01*
X93954819Y-109238094D02*
X93954819Y-108857142D01*
X93954819Y-108857142D02*
X94002438Y-108761904D01*
X94002438Y-108761904D02*
X94050057Y-108714285D01*
X94050057Y-108714285D02*
X94145295Y-108666666D01*
X94145295Y-108666666D02*
X94288152Y-108666666D01*
X94288152Y-108666666D02*
X94383390Y-108714285D01*
X94383390Y-108714285D02*
X94431009Y-108761904D01*
X94431009Y-108761904D02*
X94478628Y-108857142D01*
X94478628Y-108857142D02*
X94478628Y-109238094D01*
X94954819Y-107714285D02*
X94954819Y-108285713D01*
X94954819Y-107999999D02*
X93954819Y-107999999D01*
X93954819Y-107999999D02*
X94097676Y-108095237D01*
X94097676Y-108095237D02*
X94192914Y-108190475D01*
X94192914Y-108190475D02*
X94240533Y-108285713D01*
X107769771Y-84600356D02*
X107169771Y-84600356D01*
X107169771Y-84600356D02*
X107169771Y-84457499D01*
X107169771Y-84457499D02*
X107198342Y-84371785D01*
X107198342Y-84371785D02*
X107255485Y-84314642D01*
X107255485Y-84314642D02*
X107312628Y-84286071D01*
X107312628Y-84286071D02*
X107426914Y-84257499D01*
X107426914Y-84257499D02*
X107512628Y-84257499D01*
X107512628Y-84257499D02*
X107626914Y-84286071D01*
X107626914Y-84286071D02*
X107684057Y-84314642D01*
X107684057Y-84314642D02*
X107741200Y-84371785D01*
X107741200Y-84371785D02*
X107769771Y-84457499D01*
X107769771Y-84457499D02*
X107769771Y-84600356D01*
X107769771Y-83971785D02*
X107769771Y-83857499D01*
X107769771Y-83857499D02*
X107741200Y-83800356D01*
X107741200Y-83800356D02*
X107712628Y-83771785D01*
X107712628Y-83771785D02*
X107626914Y-83714642D01*
X107626914Y-83714642D02*
X107512628Y-83686071D01*
X107512628Y-83686071D02*
X107284057Y-83686071D01*
X107284057Y-83686071D02*
X107226914Y-83714642D01*
X107226914Y-83714642D02*
X107198342Y-83743214D01*
X107198342Y-83743214D02*
X107169771Y-83800356D01*
X107169771Y-83800356D02*
X107169771Y-83914642D01*
X107169771Y-83914642D02*
X107198342Y-83971785D01*
X107198342Y-83971785D02*
X107226914Y-84000356D01*
X107226914Y-84000356D02*
X107284057Y-84028928D01*
X107284057Y-84028928D02*
X107426914Y-84028928D01*
X107426914Y-84028928D02*
X107484057Y-84000356D01*
X107484057Y-84000356D02*
X107512628Y-83971785D01*
X107512628Y-83971785D02*
X107541200Y-83914642D01*
X107541200Y-83914642D02*
X107541200Y-83800356D01*
X107541200Y-83800356D02*
X107512628Y-83743214D01*
X107512628Y-83743214D02*
X107484057Y-83714642D01*
X107484057Y-83714642D02*
X107426914Y-83686071D01*
X112454819Y-92142857D02*
X111978628Y-92476190D01*
X112454819Y-92714285D02*
X111454819Y-92714285D01*
X111454819Y-92714285D02*
X111454819Y-92333333D01*
X111454819Y-92333333D02*
X111502438Y-92238095D01*
X111502438Y-92238095D02*
X111550057Y-92190476D01*
X111550057Y-92190476D02*
X111645295Y-92142857D01*
X111645295Y-92142857D02*
X111788152Y-92142857D01*
X111788152Y-92142857D02*
X111883390Y-92190476D01*
X111883390Y-92190476D02*
X111931009Y-92238095D01*
X111931009Y-92238095D02*
X111978628Y-92333333D01*
X111978628Y-92333333D02*
X111978628Y-92714285D01*
X112454819Y-91190476D02*
X112454819Y-91761904D01*
X112454819Y-91476190D02*
X111454819Y-91476190D01*
X111454819Y-91476190D02*
X111597676Y-91571428D01*
X111597676Y-91571428D02*
X111692914Y-91666666D01*
X111692914Y-91666666D02*
X111740533Y-91761904D01*
X111550057Y-90809523D02*
X111502438Y-90761904D01*
X111502438Y-90761904D02*
X111454819Y-90666666D01*
X111454819Y-90666666D02*
X111454819Y-90428571D01*
X111454819Y-90428571D02*
X111502438Y-90333333D01*
X111502438Y-90333333D02*
X111550057Y-90285714D01*
X111550057Y-90285714D02*
X111645295Y-90238095D01*
X111645295Y-90238095D02*
X111740533Y-90238095D01*
X111740533Y-90238095D02*
X111883390Y-90285714D01*
X111883390Y-90285714D02*
X112454819Y-90857142D01*
X112454819Y-90857142D02*
X112454819Y-90238095D01*
X139769771Y-103935714D02*
X139484057Y-104135714D01*
X139769771Y-104278571D02*
X139169771Y-104278571D01*
X139169771Y-104278571D02*
X139169771Y-104050000D01*
X139169771Y-104050000D02*
X139198342Y-103992857D01*
X139198342Y-103992857D02*
X139226914Y-103964286D01*
X139226914Y-103964286D02*
X139284057Y-103935714D01*
X139284057Y-103935714D02*
X139369771Y-103935714D01*
X139369771Y-103935714D02*
X139426914Y-103964286D01*
X139426914Y-103964286D02*
X139455485Y-103992857D01*
X139455485Y-103992857D02*
X139484057Y-104050000D01*
X139484057Y-104050000D02*
X139484057Y-104278571D01*
X139769771Y-103364286D02*
X139769771Y-103707143D01*
X139769771Y-103535714D02*
X139169771Y-103535714D01*
X139169771Y-103535714D02*
X139255485Y-103592857D01*
X139255485Y-103592857D02*
X139312628Y-103650000D01*
X139312628Y-103650000D02*
X139341200Y-103707143D01*
X139426914Y-103021428D02*
X139398342Y-103078571D01*
X139398342Y-103078571D02*
X139369771Y-103107142D01*
X139369771Y-103107142D02*
X139312628Y-103135714D01*
X139312628Y-103135714D02*
X139284057Y-103135714D01*
X139284057Y-103135714D02*
X139226914Y-103107142D01*
X139226914Y-103107142D02*
X139198342Y-103078571D01*
X139198342Y-103078571D02*
X139169771Y-103021428D01*
X139169771Y-103021428D02*
X139169771Y-102907142D01*
X139169771Y-102907142D02*
X139198342Y-102850000D01*
X139198342Y-102850000D02*
X139226914Y-102821428D01*
X139226914Y-102821428D02*
X139284057Y-102792857D01*
X139284057Y-102792857D02*
X139312628Y-102792857D01*
X139312628Y-102792857D02*
X139369771Y-102821428D01*
X139369771Y-102821428D02*
X139398342Y-102850000D01*
X139398342Y-102850000D02*
X139426914Y-102907142D01*
X139426914Y-102907142D02*
X139426914Y-103021428D01*
X139426914Y-103021428D02*
X139455485Y-103078571D01*
X139455485Y-103078571D02*
X139484057Y-103107142D01*
X139484057Y-103107142D02*
X139541200Y-103135714D01*
X139541200Y-103135714D02*
X139655485Y-103135714D01*
X139655485Y-103135714D02*
X139712628Y-103107142D01*
X139712628Y-103107142D02*
X139741200Y-103078571D01*
X139741200Y-103078571D02*
X139769771Y-103021428D01*
X139769771Y-103021428D02*
X139769771Y-102907142D01*
X139769771Y-102907142D02*
X139741200Y-102850000D01*
X139741200Y-102850000D02*
X139712628Y-102821428D01*
X139712628Y-102821428D02*
X139655485Y-102792857D01*
X139655485Y-102792857D02*
X139541200Y-102792857D01*
X139541200Y-102792857D02*
X139484057Y-102821428D01*
X139484057Y-102821428D02*
X139455485Y-102850000D01*
X139455485Y-102850000D02*
X139426914Y-102907142D01*
X116769771Y-84537856D02*
X116169771Y-84537856D01*
X116169771Y-84537856D02*
X116169771Y-84394999D01*
X116169771Y-84394999D02*
X116198342Y-84309285D01*
X116198342Y-84309285D02*
X116255485Y-84252142D01*
X116255485Y-84252142D02*
X116312628Y-84223571D01*
X116312628Y-84223571D02*
X116426914Y-84194999D01*
X116426914Y-84194999D02*
X116512628Y-84194999D01*
X116512628Y-84194999D02*
X116626914Y-84223571D01*
X116626914Y-84223571D02*
X116684057Y-84252142D01*
X116684057Y-84252142D02*
X116741200Y-84309285D01*
X116741200Y-84309285D02*
X116769771Y-84394999D01*
X116769771Y-84394999D02*
X116769771Y-84537856D01*
X116169771Y-83680714D02*
X116169771Y-83794999D01*
X116169771Y-83794999D02*
X116198342Y-83852142D01*
X116198342Y-83852142D02*
X116226914Y-83880714D01*
X116226914Y-83880714D02*
X116312628Y-83937856D01*
X116312628Y-83937856D02*
X116426914Y-83966428D01*
X116426914Y-83966428D02*
X116655485Y-83966428D01*
X116655485Y-83966428D02*
X116712628Y-83937856D01*
X116712628Y-83937856D02*
X116741200Y-83909285D01*
X116741200Y-83909285D02*
X116769771Y-83852142D01*
X116769771Y-83852142D02*
X116769771Y-83737856D01*
X116769771Y-83737856D02*
X116741200Y-83680714D01*
X116741200Y-83680714D02*
X116712628Y-83652142D01*
X116712628Y-83652142D02*
X116655485Y-83623571D01*
X116655485Y-83623571D02*
X116512628Y-83623571D01*
X116512628Y-83623571D02*
X116455485Y-83652142D01*
X116455485Y-83652142D02*
X116426914Y-83680714D01*
X116426914Y-83680714D02*
X116398342Y-83737856D01*
X116398342Y-83737856D02*
X116398342Y-83852142D01*
X116398342Y-83852142D02*
X116426914Y-83909285D01*
X116426914Y-83909285D02*
X116455485Y-83937856D01*
X116455485Y-83937856D02*
X116512628Y-83966428D01*
X141348214Y-110804819D02*
X141348214Y-109804819D01*
X141348214Y-109804819D02*
X141586309Y-109804819D01*
X141586309Y-109804819D02*
X141729166Y-109852438D01*
X141729166Y-109852438D02*
X141824404Y-109947676D01*
X141824404Y-109947676D02*
X141872023Y-110042914D01*
X141872023Y-110042914D02*
X141919642Y-110233390D01*
X141919642Y-110233390D02*
X141919642Y-110376247D01*
X141919642Y-110376247D02*
X141872023Y-110566723D01*
X141872023Y-110566723D02*
X141824404Y-110661961D01*
X141824404Y-110661961D02*
X141729166Y-110757200D01*
X141729166Y-110757200D02*
X141586309Y-110804819D01*
X141586309Y-110804819D02*
X141348214Y-110804819D01*
X142872023Y-110804819D02*
X142300595Y-110804819D01*
X142586309Y-110804819D02*
X142586309Y-109804819D01*
X142586309Y-109804819D02*
X142491071Y-109947676D01*
X142491071Y-109947676D02*
X142395833Y-110042914D01*
X142395833Y-110042914D02*
X142300595Y-110090533D01*
X143776785Y-109804819D02*
X143300595Y-109804819D01*
X143300595Y-109804819D02*
X143252976Y-110281009D01*
X143252976Y-110281009D02*
X143300595Y-110233390D01*
X143300595Y-110233390D02*
X143395833Y-110185771D01*
X143395833Y-110185771D02*
X143633928Y-110185771D01*
X143633928Y-110185771D02*
X143729166Y-110233390D01*
X143729166Y-110233390D02*
X143776785Y-110281009D01*
X143776785Y-110281009D02*
X143824404Y-110376247D01*
X143824404Y-110376247D02*
X143824404Y-110614342D01*
X143824404Y-110614342D02*
X143776785Y-110709580D01*
X143776785Y-110709580D02*
X143729166Y-110757200D01*
X143729166Y-110757200D02*
X143633928Y-110804819D01*
X143633928Y-110804819D02*
X143395833Y-110804819D01*
X143395833Y-110804819D02*
X143300595Y-110757200D01*
X143300595Y-110757200D02*
X143252976Y-110709580D01*
X96666667Y-121907200D02*
X96809524Y-121954819D01*
X96809524Y-121954819D02*
X97047619Y-121954819D01*
X97047619Y-121954819D02*
X97142857Y-121907200D01*
X97142857Y-121907200D02*
X97190476Y-121859580D01*
X97190476Y-121859580D02*
X97238095Y-121764342D01*
X97238095Y-121764342D02*
X97238095Y-121669104D01*
X97238095Y-121669104D02*
X97190476Y-121573866D01*
X97190476Y-121573866D02*
X97142857Y-121526247D01*
X97142857Y-121526247D02*
X97047619Y-121478628D01*
X97047619Y-121478628D02*
X96857143Y-121431009D01*
X96857143Y-121431009D02*
X96761905Y-121383390D01*
X96761905Y-121383390D02*
X96714286Y-121335771D01*
X96714286Y-121335771D02*
X96666667Y-121240533D01*
X96666667Y-121240533D02*
X96666667Y-121145295D01*
X96666667Y-121145295D02*
X96714286Y-121050057D01*
X96714286Y-121050057D02*
X96761905Y-121002438D01*
X96761905Y-121002438D02*
X96857143Y-120954819D01*
X96857143Y-120954819D02*
X97095238Y-120954819D01*
X97095238Y-120954819D02*
X97238095Y-121002438D01*
X97571429Y-120954819D02*
X97809524Y-121954819D01*
X97809524Y-121954819D02*
X98000000Y-121240533D01*
X98000000Y-121240533D02*
X98190476Y-121954819D01*
X98190476Y-121954819D02*
X98428572Y-120954819D01*
X99333333Y-121954819D02*
X98761905Y-121954819D01*
X99047619Y-121954819D02*
X99047619Y-120954819D01*
X99047619Y-120954819D02*
X98952381Y-121097676D01*
X98952381Y-121097676D02*
X98857143Y-121192914D01*
X98857143Y-121192914D02*
X98761905Y-121240533D01*
X136028571Y-101362295D02*
X136028571Y-100562295D01*
X136028571Y-100562295D02*
X136219047Y-100562295D01*
X136219047Y-100562295D02*
X136333333Y-100600390D01*
X136333333Y-100600390D02*
X136409523Y-100676580D01*
X136409523Y-100676580D02*
X136447618Y-100752771D01*
X136447618Y-100752771D02*
X136485714Y-100905152D01*
X136485714Y-100905152D02*
X136485714Y-101019438D01*
X136485714Y-101019438D02*
X136447618Y-101171819D01*
X136447618Y-101171819D02*
X136409523Y-101248009D01*
X136409523Y-101248009D02*
X136333333Y-101324200D01*
X136333333Y-101324200D02*
X136219047Y-101362295D01*
X136219047Y-101362295D02*
X136028571Y-101362295D01*
X137247618Y-101362295D02*
X136790475Y-101362295D01*
X137019047Y-101362295D02*
X137019047Y-100562295D01*
X137019047Y-100562295D02*
X136942856Y-100676580D01*
X136942856Y-100676580D02*
X136866666Y-100752771D01*
X136866666Y-100752771D02*
X136790475Y-100790866D01*
X137704761Y-100905152D02*
X137628571Y-100867057D01*
X137628571Y-100867057D02*
X137590476Y-100828961D01*
X137590476Y-100828961D02*
X137552380Y-100752771D01*
X137552380Y-100752771D02*
X137552380Y-100714676D01*
X137552380Y-100714676D02*
X137590476Y-100638485D01*
X137590476Y-100638485D02*
X137628571Y-100600390D01*
X137628571Y-100600390D02*
X137704761Y-100562295D01*
X137704761Y-100562295D02*
X137857142Y-100562295D01*
X137857142Y-100562295D02*
X137933333Y-100600390D01*
X137933333Y-100600390D02*
X137971428Y-100638485D01*
X137971428Y-100638485D02*
X138009523Y-100714676D01*
X138009523Y-100714676D02*
X138009523Y-100752771D01*
X138009523Y-100752771D02*
X137971428Y-100828961D01*
X137971428Y-100828961D02*
X137933333Y-100867057D01*
X137933333Y-100867057D02*
X137857142Y-100905152D01*
X137857142Y-100905152D02*
X137704761Y-100905152D01*
X137704761Y-100905152D02*
X137628571Y-100943247D01*
X137628571Y-100943247D02*
X137590476Y-100981342D01*
X137590476Y-100981342D02*
X137552380Y-101057533D01*
X137552380Y-101057533D02*
X137552380Y-101209914D01*
X137552380Y-101209914D02*
X137590476Y-101286104D01*
X137590476Y-101286104D02*
X137628571Y-101324200D01*
X137628571Y-101324200D02*
X137704761Y-101362295D01*
X137704761Y-101362295D02*
X137857142Y-101362295D01*
X137857142Y-101362295D02*
X137933333Y-101324200D01*
X137933333Y-101324200D02*
X137971428Y-101286104D01*
X137971428Y-101286104D02*
X138009523Y-101209914D01*
X138009523Y-101209914D02*
X138009523Y-101057533D01*
X138009523Y-101057533D02*
X137971428Y-100981342D01*
X137971428Y-100981342D02*
X137933333Y-100943247D01*
X137933333Y-100943247D02*
X137857142Y-100905152D01*
X106785714Y-110892319D02*
X106785714Y-109892319D01*
X106785714Y-109892319D02*
X107023809Y-109892319D01*
X107023809Y-109892319D02*
X107166666Y-109939938D01*
X107166666Y-109939938D02*
X107261904Y-110035176D01*
X107261904Y-110035176D02*
X107309523Y-110130414D01*
X107309523Y-110130414D02*
X107357142Y-110320890D01*
X107357142Y-110320890D02*
X107357142Y-110463747D01*
X107357142Y-110463747D02*
X107309523Y-110654223D01*
X107309523Y-110654223D02*
X107261904Y-110749461D01*
X107261904Y-110749461D02*
X107166666Y-110844700D01*
X107166666Y-110844700D02*
X107023809Y-110892319D01*
X107023809Y-110892319D02*
X106785714Y-110892319D01*
X108309523Y-110892319D02*
X107738095Y-110892319D01*
X108023809Y-110892319D02*
X108023809Y-109892319D01*
X108023809Y-109892319D02*
X107928571Y-110035176D01*
X107928571Y-110035176D02*
X107833333Y-110130414D01*
X107833333Y-110130414D02*
X107738095Y-110178033D01*
X108690476Y-109987557D02*
X108738095Y-109939938D01*
X108738095Y-109939938D02*
X108833333Y-109892319D01*
X108833333Y-109892319D02*
X109071428Y-109892319D01*
X109071428Y-109892319D02*
X109166666Y-109939938D01*
X109166666Y-109939938D02*
X109214285Y-109987557D01*
X109214285Y-109987557D02*
X109261904Y-110082795D01*
X109261904Y-110082795D02*
X109261904Y-110178033D01*
X109261904Y-110178033D02*
X109214285Y-110320890D01*
X109214285Y-110320890D02*
X108642857Y-110892319D01*
X108642857Y-110892319D02*
X109261904Y-110892319D01*
X148769771Y-105228571D02*
X148169771Y-105228571D01*
X148169771Y-105228571D02*
X148169771Y-105085714D01*
X148169771Y-105085714D02*
X148198342Y-105000000D01*
X148198342Y-105000000D02*
X148255485Y-104942857D01*
X148255485Y-104942857D02*
X148312628Y-104914286D01*
X148312628Y-104914286D02*
X148426914Y-104885714D01*
X148426914Y-104885714D02*
X148512628Y-104885714D01*
X148512628Y-104885714D02*
X148626914Y-104914286D01*
X148626914Y-104914286D02*
X148684057Y-104942857D01*
X148684057Y-104942857D02*
X148741200Y-105000000D01*
X148741200Y-105000000D02*
X148769771Y-105085714D01*
X148769771Y-105085714D02*
X148769771Y-105228571D01*
X148769771Y-104314286D02*
X148769771Y-104657143D01*
X148769771Y-104485714D02*
X148169771Y-104485714D01*
X148169771Y-104485714D02*
X148255485Y-104542857D01*
X148255485Y-104542857D02*
X148312628Y-104600000D01*
X148312628Y-104600000D02*
X148341200Y-104657143D01*
X148369771Y-103800000D02*
X148769771Y-103800000D01*
X148141200Y-103942857D02*
X148569771Y-104085714D01*
X148569771Y-104085714D02*
X148569771Y-103714285D01*
X122769771Y-84600356D02*
X122169771Y-84600356D01*
X122169771Y-84600356D02*
X122169771Y-84457499D01*
X122169771Y-84457499D02*
X122198342Y-84371785D01*
X122198342Y-84371785D02*
X122255485Y-84314642D01*
X122255485Y-84314642D02*
X122312628Y-84286071D01*
X122312628Y-84286071D02*
X122426914Y-84257499D01*
X122426914Y-84257499D02*
X122512628Y-84257499D01*
X122512628Y-84257499D02*
X122626914Y-84286071D01*
X122626914Y-84286071D02*
X122684057Y-84314642D01*
X122684057Y-84314642D02*
X122741200Y-84371785D01*
X122741200Y-84371785D02*
X122769771Y-84457499D01*
X122769771Y-84457499D02*
X122769771Y-84600356D01*
X122369771Y-83743214D02*
X122769771Y-83743214D01*
X122141200Y-83886071D02*
X122569771Y-84028928D01*
X122569771Y-84028928D02*
X122569771Y-83657499D01*
X105362295Y-109220832D02*
X104981342Y-109487499D01*
X105362295Y-109677975D02*
X104562295Y-109677975D01*
X104562295Y-109677975D02*
X104562295Y-109373213D01*
X104562295Y-109373213D02*
X104600390Y-109297023D01*
X104600390Y-109297023D02*
X104638485Y-109258928D01*
X104638485Y-109258928D02*
X104714676Y-109220832D01*
X104714676Y-109220832D02*
X104828961Y-109220832D01*
X104828961Y-109220832D02*
X104905152Y-109258928D01*
X104905152Y-109258928D02*
X104943247Y-109297023D01*
X104943247Y-109297023D02*
X104981342Y-109373213D01*
X104981342Y-109373213D02*
X104981342Y-109677975D01*
X104562295Y-108954166D02*
X104562295Y-108458928D01*
X104562295Y-108458928D02*
X104867057Y-108725594D01*
X104867057Y-108725594D02*
X104867057Y-108611309D01*
X104867057Y-108611309D02*
X104905152Y-108535118D01*
X104905152Y-108535118D02*
X104943247Y-108497023D01*
X104943247Y-108497023D02*
X105019438Y-108458928D01*
X105019438Y-108458928D02*
X105209914Y-108458928D01*
X105209914Y-108458928D02*
X105286104Y-108497023D01*
X105286104Y-108497023D02*
X105324200Y-108535118D01*
X105324200Y-108535118D02*
X105362295Y-108611309D01*
X105362295Y-108611309D02*
X105362295Y-108839880D01*
X105362295Y-108839880D02*
X105324200Y-108916071D01*
X105324200Y-108916071D02*
X105286104Y-108954166D01*
X137423809Y-96938485D02*
X137347619Y-96900390D01*
X137347619Y-96900390D02*
X137271428Y-96824200D01*
X137271428Y-96824200D02*
X137157142Y-96709914D01*
X137157142Y-96709914D02*
X137080952Y-96671819D01*
X137080952Y-96671819D02*
X137004761Y-96671819D01*
X137042857Y-96862295D02*
X136966666Y-96824200D01*
X136966666Y-96824200D02*
X136890476Y-96748009D01*
X136890476Y-96748009D02*
X136852380Y-96595628D01*
X136852380Y-96595628D02*
X136852380Y-96328961D01*
X136852380Y-96328961D02*
X136890476Y-96176580D01*
X136890476Y-96176580D02*
X136966666Y-96100390D01*
X136966666Y-96100390D02*
X137042857Y-96062295D01*
X137042857Y-96062295D02*
X137195238Y-96062295D01*
X137195238Y-96062295D02*
X137271428Y-96100390D01*
X137271428Y-96100390D02*
X137347619Y-96176580D01*
X137347619Y-96176580D02*
X137385714Y-96328961D01*
X137385714Y-96328961D02*
X137385714Y-96595628D01*
X137385714Y-96595628D02*
X137347619Y-96748009D01*
X137347619Y-96748009D02*
X137271428Y-96824200D01*
X137271428Y-96824200D02*
X137195238Y-96862295D01*
X137195238Y-96862295D02*
X137042857Y-96862295D01*
X138147618Y-96862295D02*
X137690475Y-96862295D01*
X137919047Y-96862295D02*
X137919047Y-96062295D01*
X137919047Y-96062295D02*
X137842856Y-96176580D01*
X137842856Y-96176580D02*
X137766666Y-96252771D01*
X137766666Y-96252771D02*
X137690475Y-96290866D01*
X145745833Y-102409580D02*
X145698214Y-102457200D01*
X145698214Y-102457200D02*
X145555357Y-102504819D01*
X145555357Y-102504819D02*
X145460119Y-102504819D01*
X145460119Y-102504819D02*
X145317262Y-102457200D01*
X145317262Y-102457200D02*
X145222024Y-102361961D01*
X145222024Y-102361961D02*
X145174405Y-102266723D01*
X145174405Y-102266723D02*
X145126786Y-102076247D01*
X145126786Y-102076247D02*
X145126786Y-101933390D01*
X145126786Y-101933390D02*
X145174405Y-101742914D01*
X145174405Y-101742914D02*
X145222024Y-101647676D01*
X145222024Y-101647676D02*
X145317262Y-101552438D01*
X145317262Y-101552438D02*
X145460119Y-101504819D01*
X145460119Y-101504819D02*
X145555357Y-101504819D01*
X145555357Y-101504819D02*
X145698214Y-101552438D01*
X145698214Y-101552438D02*
X145745833Y-101600057D01*
X146079167Y-101504819D02*
X146698214Y-101504819D01*
X146698214Y-101504819D02*
X146364881Y-101885771D01*
X146364881Y-101885771D02*
X146507738Y-101885771D01*
X146507738Y-101885771D02*
X146602976Y-101933390D01*
X146602976Y-101933390D02*
X146650595Y-101981009D01*
X146650595Y-101981009D02*
X146698214Y-102076247D01*
X146698214Y-102076247D02*
X146698214Y-102314342D01*
X146698214Y-102314342D02*
X146650595Y-102409580D01*
X146650595Y-102409580D02*
X146602976Y-102457200D01*
X146602976Y-102457200D02*
X146507738Y-102504819D01*
X146507738Y-102504819D02*
X146222024Y-102504819D01*
X146222024Y-102504819D02*
X146126786Y-102457200D01*
X146126786Y-102457200D02*
X146079167Y-102409580D01*
X142707271Y-94728571D02*
X142107271Y-94728571D01*
X142107271Y-94728571D02*
X142107271Y-94585714D01*
X142107271Y-94585714D02*
X142135842Y-94500000D01*
X142135842Y-94500000D02*
X142192985Y-94442857D01*
X142192985Y-94442857D02*
X142250128Y-94414286D01*
X142250128Y-94414286D02*
X142364414Y-94385714D01*
X142364414Y-94385714D02*
X142450128Y-94385714D01*
X142450128Y-94385714D02*
X142564414Y-94414286D01*
X142564414Y-94414286D02*
X142621557Y-94442857D01*
X142621557Y-94442857D02*
X142678700Y-94500000D01*
X142678700Y-94500000D02*
X142707271Y-94585714D01*
X142707271Y-94585714D02*
X142707271Y-94728571D01*
X142707271Y-93814286D02*
X142707271Y-94157143D01*
X142707271Y-93985714D02*
X142107271Y-93985714D01*
X142107271Y-93985714D02*
X142192985Y-94042857D01*
X142192985Y-94042857D02*
X142250128Y-94100000D01*
X142250128Y-94100000D02*
X142278700Y-94157143D01*
X142107271Y-93614285D02*
X142107271Y-93214285D01*
X142107271Y-93214285D02*
X142707271Y-93471428D01*
X127454819Y-91166666D02*
X126978628Y-91499999D01*
X127454819Y-91738094D02*
X126454819Y-91738094D01*
X126454819Y-91738094D02*
X126454819Y-91357142D01*
X126454819Y-91357142D02*
X126502438Y-91261904D01*
X126502438Y-91261904D02*
X126550057Y-91214285D01*
X126550057Y-91214285D02*
X126645295Y-91166666D01*
X126645295Y-91166666D02*
X126788152Y-91166666D01*
X126788152Y-91166666D02*
X126883390Y-91214285D01*
X126883390Y-91214285D02*
X126931009Y-91261904D01*
X126931009Y-91261904D02*
X126978628Y-91357142D01*
X126978628Y-91357142D02*
X126978628Y-91738094D01*
X126454819Y-90833332D02*
X126454819Y-90166666D01*
X126454819Y-90166666D02*
X127454819Y-90595237D01*
X113454819Y-111642857D02*
X112978628Y-111976190D01*
X113454819Y-112214285D02*
X112454819Y-112214285D01*
X112454819Y-112214285D02*
X112454819Y-111833333D01*
X112454819Y-111833333D02*
X112502438Y-111738095D01*
X112502438Y-111738095D02*
X112550057Y-111690476D01*
X112550057Y-111690476D02*
X112645295Y-111642857D01*
X112645295Y-111642857D02*
X112788152Y-111642857D01*
X112788152Y-111642857D02*
X112883390Y-111690476D01*
X112883390Y-111690476D02*
X112931009Y-111738095D01*
X112931009Y-111738095D02*
X112978628Y-111833333D01*
X112978628Y-111833333D02*
X112978628Y-112214285D01*
X113454819Y-110690476D02*
X113454819Y-111261904D01*
X113454819Y-110976190D02*
X112454819Y-110976190D01*
X112454819Y-110976190D02*
X112597676Y-111071428D01*
X112597676Y-111071428D02*
X112692914Y-111166666D01*
X112692914Y-111166666D02*
X112740533Y-111261904D01*
X112454819Y-109833333D02*
X112454819Y-110023809D01*
X112454819Y-110023809D02*
X112502438Y-110119047D01*
X112502438Y-110119047D02*
X112550057Y-110166666D01*
X112550057Y-110166666D02*
X112692914Y-110261904D01*
X112692914Y-110261904D02*
X112883390Y-110309523D01*
X112883390Y-110309523D02*
X113264342Y-110309523D01*
X113264342Y-110309523D02*
X113359580Y-110261904D01*
X113359580Y-110261904D02*
X113407200Y-110214285D01*
X113407200Y-110214285D02*
X113454819Y-110119047D01*
X113454819Y-110119047D02*
X113454819Y-109928571D01*
X113454819Y-109928571D02*
X113407200Y-109833333D01*
X113407200Y-109833333D02*
X113359580Y-109785714D01*
X113359580Y-109785714D02*
X113264342Y-109738095D01*
X113264342Y-109738095D02*
X113026247Y-109738095D01*
X113026247Y-109738095D02*
X112931009Y-109785714D01*
X112931009Y-109785714D02*
X112883390Y-109833333D01*
X112883390Y-109833333D02*
X112835771Y-109928571D01*
X112835771Y-109928571D02*
X112835771Y-110119047D01*
X112835771Y-110119047D02*
X112883390Y-110214285D01*
X112883390Y-110214285D02*
X112931009Y-110261904D01*
X112931009Y-110261904D02*
X113026247Y-110309523D01*
X131848214Y-110804819D02*
X131848214Y-109804819D01*
X131848214Y-109804819D02*
X132086309Y-109804819D01*
X132086309Y-109804819D02*
X132229166Y-109852438D01*
X132229166Y-109852438D02*
X132324404Y-109947676D01*
X132324404Y-109947676D02*
X132372023Y-110042914D01*
X132372023Y-110042914D02*
X132419642Y-110233390D01*
X132419642Y-110233390D02*
X132419642Y-110376247D01*
X132419642Y-110376247D02*
X132372023Y-110566723D01*
X132372023Y-110566723D02*
X132324404Y-110661961D01*
X132324404Y-110661961D02*
X132229166Y-110757200D01*
X132229166Y-110757200D02*
X132086309Y-110804819D01*
X132086309Y-110804819D02*
X131848214Y-110804819D01*
X133372023Y-110804819D02*
X132800595Y-110804819D01*
X133086309Y-110804819D02*
X133086309Y-109804819D01*
X133086309Y-109804819D02*
X132991071Y-109947676D01*
X132991071Y-109947676D02*
X132895833Y-110042914D01*
X132895833Y-110042914D02*
X132800595Y-110090533D01*
X133705357Y-109804819D02*
X134324404Y-109804819D01*
X134324404Y-109804819D02*
X133991071Y-110185771D01*
X133991071Y-110185771D02*
X134133928Y-110185771D01*
X134133928Y-110185771D02*
X134229166Y-110233390D01*
X134229166Y-110233390D02*
X134276785Y-110281009D01*
X134276785Y-110281009D02*
X134324404Y-110376247D01*
X134324404Y-110376247D02*
X134324404Y-110614342D01*
X134324404Y-110614342D02*
X134276785Y-110709580D01*
X134276785Y-110709580D02*
X134229166Y-110757200D01*
X134229166Y-110757200D02*
X134133928Y-110804819D01*
X134133928Y-110804819D02*
X133848214Y-110804819D01*
X133848214Y-110804819D02*
X133752976Y-110757200D01*
X133752976Y-110757200D02*
X133705357Y-110709580D01*
X109454819Y-92142857D02*
X108978628Y-92476190D01*
X109454819Y-92714285D02*
X108454819Y-92714285D01*
X108454819Y-92714285D02*
X108454819Y-92333333D01*
X108454819Y-92333333D02*
X108502438Y-92238095D01*
X108502438Y-92238095D02*
X108550057Y-92190476D01*
X108550057Y-92190476D02*
X108645295Y-92142857D01*
X108645295Y-92142857D02*
X108788152Y-92142857D01*
X108788152Y-92142857D02*
X108883390Y-92190476D01*
X108883390Y-92190476D02*
X108931009Y-92238095D01*
X108931009Y-92238095D02*
X108978628Y-92333333D01*
X108978628Y-92333333D02*
X108978628Y-92714285D01*
X109454819Y-91190476D02*
X109454819Y-91761904D01*
X109454819Y-91476190D02*
X108454819Y-91476190D01*
X108454819Y-91476190D02*
X108597676Y-91571428D01*
X108597676Y-91571428D02*
X108692914Y-91666666D01*
X108692914Y-91666666D02*
X108740533Y-91761904D01*
X108454819Y-90857142D02*
X108454819Y-90238095D01*
X108454819Y-90238095D02*
X108835771Y-90571428D01*
X108835771Y-90571428D02*
X108835771Y-90428571D01*
X108835771Y-90428571D02*
X108883390Y-90333333D01*
X108883390Y-90333333D02*
X108931009Y-90285714D01*
X108931009Y-90285714D02*
X109026247Y-90238095D01*
X109026247Y-90238095D02*
X109264342Y-90238095D01*
X109264342Y-90238095D02*
X109359580Y-90285714D01*
X109359580Y-90285714D02*
X109407200Y-90333333D01*
X109407200Y-90333333D02*
X109454819Y-90428571D01*
X109454819Y-90428571D02*
X109454819Y-90714285D01*
X109454819Y-90714285D02*
X109407200Y-90809523D01*
X109407200Y-90809523D02*
X109359580Y-90857142D01*
X141042857Y-100169771D02*
X141042857Y-100655485D01*
X141042857Y-100655485D02*
X141071428Y-100712628D01*
X141071428Y-100712628D02*
X141100000Y-100741200D01*
X141100000Y-100741200D02*
X141157142Y-100769771D01*
X141157142Y-100769771D02*
X141271428Y-100769771D01*
X141271428Y-100769771D02*
X141328571Y-100741200D01*
X141328571Y-100741200D02*
X141357142Y-100712628D01*
X141357142Y-100712628D02*
X141385714Y-100655485D01*
X141385714Y-100655485D02*
X141385714Y-100169771D01*
X141642856Y-100226914D02*
X141671428Y-100198342D01*
X141671428Y-100198342D02*
X141728571Y-100169771D01*
X141728571Y-100169771D02*
X141871428Y-100169771D01*
X141871428Y-100169771D02*
X141928571Y-100198342D01*
X141928571Y-100198342D02*
X141957142Y-100226914D01*
X141957142Y-100226914D02*
X141985713Y-100284057D01*
X141985713Y-100284057D02*
X141985713Y-100341200D01*
X141985713Y-100341200D02*
X141957142Y-100426914D01*
X141957142Y-100426914D02*
X141614285Y-100769771D01*
X141614285Y-100769771D02*
X141985713Y-100769771D01*
X113769771Y-84600356D02*
X113169771Y-84600356D01*
X113169771Y-84600356D02*
X113169771Y-84457499D01*
X113169771Y-84457499D02*
X113198342Y-84371785D01*
X113198342Y-84371785D02*
X113255485Y-84314642D01*
X113255485Y-84314642D02*
X113312628Y-84286071D01*
X113312628Y-84286071D02*
X113426914Y-84257499D01*
X113426914Y-84257499D02*
X113512628Y-84257499D01*
X113512628Y-84257499D02*
X113626914Y-84286071D01*
X113626914Y-84286071D02*
X113684057Y-84314642D01*
X113684057Y-84314642D02*
X113741200Y-84371785D01*
X113741200Y-84371785D02*
X113769771Y-84457499D01*
X113769771Y-84457499D02*
X113769771Y-84600356D01*
X113169771Y-84057499D02*
X113169771Y-83657499D01*
X113169771Y-83657499D02*
X113769771Y-83914642D01*
X124954819Y-91079166D02*
X124478628Y-91412499D01*
X124954819Y-91650594D02*
X123954819Y-91650594D01*
X123954819Y-91650594D02*
X123954819Y-91269642D01*
X123954819Y-91269642D02*
X124002438Y-91174404D01*
X124002438Y-91174404D02*
X124050057Y-91126785D01*
X124050057Y-91126785D02*
X124145295Y-91079166D01*
X124145295Y-91079166D02*
X124288152Y-91079166D01*
X124288152Y-91079166D02*
X124383390Y-91126785D01*
X124383390Y-91126785D02*
X124431009Y-91174404D01*
X124431009Y-91174404D02*
X124478628Y-91269642D01*
X124478628Y-91269642D02*
X124478628Y-91650594D01*
X124383390Y-90507737D02*
X124335771Y-90602975D01*
X124335771Y-90602975D02*
X124288152Y-90650594D01*
X124288152Y-90650594D02*
X124192914Y-90698213D01*
X124192914Y-90698213D02*
X124145295Y-90698213D01*
X124145295Y-90698213D02*
X124050057Y-90650594D01*
X124050057Y-90650594D02*
X124002438Y-90602975D01*
X124002438Y-90602975D02*
X123954819Y-90507737D01*
X123954819Y-90507737D02*
X123954819Y-90317261D01*
X123954819Y-90317261D02*
X124002438Y-90222023D01*
X124002438Y-90222023D02*
X124050057Y-90174404D01*
X124050057Y-90174404D02*
X124145295Y-90126785D01*
X124145295Y-90126785D02*
X124192914Y-90126785D01*
X124192914Y-90126785D02*
X124288152Y-90174404D01*
X124288152Y-90174404D02*
X124335771Y-90222023D01*
X124335771Y-90222023D02*
X124383390Y-90317261D01*
X124383390Y-90317261D02*
X124383390Y-90507737D01*
X124383390Y-90507737D02*
X124431009Y-90602975D01*
X124431009Y-90602975D02*
X124478628Y-90650594D01*
X124478628Y-90650594D02*
X124573866Y-90698213D01*
X124573866Y-90698213D02*
X124764342Y-90698213D01*
X124764342Y-90698213D02*
X124859580Y-90650594D01*
X124859580Y-90650594D02*
X124907200Y-90602975D01*
X124907200Y-90602975D02*
X124954819Y-90507737D01*
X124954819Y-90507737D02*
X124954819Y-90317261D01*
X124954819Y-90317261D02*
X124907200Y-90222023D01*
X124907200Y-90222023D02*
X124859580Y-90174404D01*
X124859580Y-90174404D02*
X124764342Y-90126785D01*
X124764342Y-90126785D02*
X124573866Y-90126785D01*
X124573866Y-90126785D02*
X124478628Y-90174404D01*
X124478628Y-90174404D02*
X124431009Y-90222023D01*
X124431009Y-90222023D02*
X124383390Y-90317261D01*
X145770833Y-99909580D02*
X145723214Y-99957200D01*
X145723214Y-99957200D02*
X145580357Y-100004819D01*
X145580357Y-100004819D02*
X145485119Y-100004819D01*
X145485119Y-100004819D02*
X145342262Y-99957200D01*
X145342262Y-99957200D02*
X145247024Y-99861961D01*
X145247024Y-99861961D02*
X145199405Y-99766723D01*
X145199405Y-99766723D02*
X145151786Y-99576247D01*
X145151786Y-99576247D02*
X145151786Y-99433390D01*
X145151786Y-99433390D02*
X145199405Y-99242914D01*
X145199405Y-99242914D02*
X145247024Y-99147676D01*
X145247024Y-99147676D02*
X145342262Y-99052438D01*
X145342262Y-99052438D02*
X145485119Y-99004819D01*
X145485119Y-99004819D02*
X145580357Y-99004819D01*
X145580357Y-99004819D02*
X145723214Y-99052438D01*
X145723214Y-99052438D02*
X145770833Y-99100057D01*
X146151786Y-99100057D02*
X146199405Y-99052438D01*
X146199405Y-99052438D02*
X146294643Y-99004819D01*
X146294643Y-99004819D02*
X146532738Y-99004819D01*
X146532738Y-99004819D02*
X146627976Y-99052438D01*
X146627976Y-99052438D02*
X146675595Y-99100057D01*
X146675595Y-99100057D02*
X146723214Y-99195295D01*
X146723214Y-99195295D02*
X146723214Y-99290533D01*
X146723214Y-99290533D02*
X146675595Y-99433390D01*
X146675595Y-99433390D02*
X146104167Y-100004819D01*
X146104167Y-100004819D02*
X146723214Y-100004819D01*
D13*
%TO.C,R6*%
X129765000Y-88227064D02*
X129765000Y-87772936D01*
X131235000Y-88227064D02*
X131235000Y-87772936D01*
%TO.C,R21*%
X140077064Y-92815000D02*
X139622936Y-92815000D01*
X140077064Y-94285000D02*
X139622936Y-94285000D01*
%TO.C,D2*%
X129540000Y-82752500D02*
X129540000Y-85437500D01*
X131460000Y-82752500D02*
X129540000Y-82752500D01*
X131460000Y-85437500D02*
X131460000Y-82752500D01*
%TO.C,SW2*%
X104500000Y-116587500D02*
X104500000Y-118087500D01*
X105750000Y-120587500D02*
X110250000Y-120587500D01*
X110250000Y-114087500D02*
X105750000Y-114087500D01*
X111500000Y-118087500D02*
X111500000Y-116587500D01*
%TO.C,R9*%
X120265000Y-88227064D02*
X120265000Y-87772936D01*
X121735000Y-88227064D02*
X121735000Y-87772936D01*
%TO.C,R11*%
X114265000Y-88227064D02*
X114265000Y-87772936D01*
X115735000Y-88227064D02*
X115735000Y-87772936D01*
%TO.C,R19*%
X144765000Y-110772936D02*
X144765000Y-111227064D01*
X146235000Y-110772936D02*
X146235000Y-111227064D01*
%TO.C,R15*%
X99765000Y-110860436D02*
X99765000Y-111314564D01*
X101235000Y-110860436D02*
X101235000Y-111314564D01*
%TO.C,D8*%
X111040000Y-82815000D02*
X111040000Y-85500000D01*
X112960000Y-82815000D02*
X111040000Y-82815000D01*
X112960000Y-85500000D02*
X112960000Y-82815000D01*
D14*
%TO.C,U1*%
X121271400Y-99771400D02*
X121271400Y-100257960D01*
X121271400Y-103526640D02*
X121271400Y-104013200D01*
X121271400Y-104013200D02*
X121757960Y-104013200D01*
X121757960Y-99771400D02*
X121271400Y-99771400D01*
X125026640Y-104013200D02*
X125513200Y-104013200D01*
X125513200Y-99771400D02*
X125026640Y-99771400D01*
X125513200Y-100257960D02*
X125513200Y-99771400D01*
X125513200Y-104013200D02*
X125513200Y-103526640D01*
D15*
G36*
X120839600Y-101682801D02*
G01*
X120585600Y-101682801D01*
X120585600Y-101301801D01*
X120839600Y-101301801D01*
X120839600Y-101682801D01*
G37*
G36*
X124382801Y-104699000D02*
G01*
X124001801Y-104699000D01*
X124001801Y-104445000D01*
X124382801Y-104445000D01*
X124382801Y-104699000D01*
G37*
D13*
%TO.C,R20*%
X141710436Y-104815000D02*
X142164564Y-104815000D01*
X141710436Y-106285000D02*
X142164564Y-106285000D01*
%TO.C,D1*%
X133040000Y-82752500D02*
X133040000Y-85437500D01*
X134960000Y-82752500D02*
X133040000Y-82752500D01*
X134960000Y-85437500D02*
X134960000Y-82752500D01*
%TO.C,D5*%
X120040000Y-82752500D02*
X120040000Y-85437500D01*
X121960000Y-82752500D02*
X120040000Y-82752500D01*
X121960000Y-85437500D02*
X121960000Y-82752500D01*
%TO.C,R17*%
X135265000Y-110772936D02*
X135265000Y-111227064D01*
X136735000Y-110772936D02*
X136735000Y-111227064D01*
%TO.C,R4*%
X129265000Y-111314564D02*
X129265000Y-110860436D01*
X130735000Y-111314564D02*
X130735000Y-110860436D01*
%TO.C,R5*%
X138852500Y-111314564D02*
X138852500Y-110860436D01*
X140322500Y-111314564D02*
X140322500Y-110860436D01*
%TO.C,R10*%
X117265000Y-88227064D02*
X117265000Y-87772936D01*
X118735000Y-88227064D02*
X118735000Y-87772936D01*
%TO.C,R14*%
X105265000Y-88227064D02*
X105265000Y-87772936D01*
X106735000Y-88227064D02*
X106735000Y-87772936D01*
%TO.C,SW3*%
X129500000Y-116250000D02*
X129500000Y-117750000D01*
X130750000Y-120250000D02*
X135250000Y-120250000D01*
X135250000Y-113750000D02*
X130750000Y-113750000D01*
X136500000Y-117750000D02*
X136500000Y-116250000D01*
D12*
%TO.C,J4*%
X143912500Y-87500000D02*
X144512500Y-87500000D01*
X143912500Y-95300000D02*
X143912500Y-87500000D01*
X144512500Y-95300000D02*
X143912500Y-95300000D01*
X147412500Y-95300000D02*
X148012500Y-95300000D01*
X148012500Y-87500000D02*
X147412500Y-87500000D01*
X148012500Y-95300000D02*
X148012500Y-87500000D01*
X148312500Y-93500000D02*
X148312500Y-92500000D01*
D13*
%TO.C,SW4*%
X139500000Y-116250000D02*
X139500000Y-117750000D01*
X140750000Y-120250000D02*
X145250000Y-120250000D01*
X145250000Y-113750000D02*
X140750000Y-113750000D01*
X146500000Y-117750000D02*
X146500000Y-116250000D01*
%TO.C,SW5*%
X93540000Y-103500000D02*
X93540000Y-104500000D01*
X93540000Y-104500000D02*
X94040000Y-104000000D01*
X94040000Y-104000000D02*
X93540000Y-103500000D01*
X94240000Y-97590000D02*
X94550000Y-97590000D01*
X94240000Y-106410000D02*
X94240000Y-97590000D01*
X94550000Y-106410000D02*
X94240000Y-106410000D01*
X98760000Y-97590000D02*
X98450000Y-97590000D01*
X98760000Y-97590000D02*
X98760000Y-106410000D01*
X98760000Y-106410000D02*
X98450000Y-106410000D01*
%TO.C,J2*%
X100372500Y-97130000D02*
X101702500Y-97130000D01*
X100372500Y-98460000D02*
X100372500Y-97130000D01*
X100372500Y-99730000D02*
X100372500Y-107410000D01*
X100372500Y-99730000D02*
X103032500Y-99730000D01*
X100372500Y-107410000D02*
X103032500Y-107410000D01*
X103032500Y-99730000D02*
X103032500Y-107410000D01*
%TO.C,D11*%
X95815000Y-111127500D02*
X95815000Y-113047500D01*
X95815000Y-113047500D02*
X98500000Y-113047500D01*
X98500000Y-111127500D02*
X95815000Y-111127500D01*
%TO.C,D10*%
X105040000Y-82815000D02*
X105040000Y-85500000D01*
X106960000Y-82815000D02*
X105040000Y-82815000D01*
X106960000Y-85500000D02*
X106960000Y-82815000D01*
%TO.C,J1*%
X135630000Y-83670000D02*
X135630000Y-86330000D01*
X145850000Y-83670000D02*
X135630000Y-83670000D01*
X145850000Y-83670000D02*
X145850000Y-86330000D01*
X145850000Y-86330000D02*
X135630000Y-86330000D01*
X147120000Y-83670000D02*
X148450000Y-83670000D01*
X148450000Y-83670000D02*
X148450000Y-85000000D01*
%TO.C,LS1*%
X104600000Y-88700000D02*
G75*
G02*
X92400000Y-88700000I-6100000J0D01*
G01*
X92400000Y-88700000D02*
G75*
G02*
X104600000Y-88700000I6100000J0D01*
G01*
%TO.C,C1*%
X145226248Y-96140000D02*
X146648752Y-96140000D01*
X145226248Y-97960000D02*
X146648752Y-97960000D01*
%TO.C,R2*%
X133265000Y-88227064D02*
X133265000Y-87772936D01*
X134735000Y-88227064D02*
X134735000Y-87772936D01*
%TO.C,D16*%
X145000000Y-107510000D02*
X147685000Y-107510000D01*
X147685000Y-105590000D02*
X145000000Y-105590000D01*
X147685000Y-107510000D02*
X147685000Y-105590000D01*
%TO.C,D3*%
X126040000Y-82752500D02*
X126040000Y-85437500D01*
X127960000Y-82752500D02*
X126040000Y-82752500D01*
X127960000Y-85437500D02*
X127960000Y-82752500D01*
%TO.C,R1*%
X93765000Y-111814564D02*
X93765000Y-111360436D01*
X95235000Y-111814564D02*
X95235000Y-111360436D01*
%TO.C,D9*%
X108040000Y-82815000D02*
X108040000Y-85500000D01*
X109960000Y-82815000D02*
X108040000Y-82815000D01*
X109960000Y-85500000D02*
X109960000Y-82815000D01*
%TO.C,R12*%
X111265000Y-88227064D02*
X111265000Y-87772936D01*
X112735000Y-88227064D02*
X112735000Y-87772936D01*
%TO.C,R18*%
X141710436Y-102815000D02*
X142164564Y-102815000D01*
X141710436Y-104285000D02*
X142164564Y-104285000D01*
%TO.C,D6*%
X117040000Y-82752500D02*
X117040000Y-85437500D01*
X118960000Y-82752500D02*
X117040000Y-82752500D01*
X118960000Y-85437500D02*
X118960000Y-82752500D01*
%TO.C,D15*%
X140877500Y-111040000D02*
X140877500Y-112960000D01*
X140877500Y-112960000D02*
X143562500Y-112960000D01*
X143562500Y-111040000D02*
X140877500Y-111040000D01*
%TO.C,SW1*%
X94500000Y-116587500D02*
X94500000Y-118087500D01*
X95750000Y-120587500D02*
X100250000Y-120587500D01*
X100250000Y-114087500D02*
X95750000Y-114087500D01*
X101500000Y-118087500D02*
X101500000Y-116587500D01*
%TO.C,D18*%
X136200000Y-100235000D02*
X138485000Y-100235000D01*
X138485000Y-98765000D02*
X136200000Y-98765000D01*
X138485000Y-100235000D02*
X138485000Y-98765000D01*
%TO.C,D12*%
X106315000Y-111127500D02*
X106315000Y-113047500D01*
X106315000Y-113047500D02*
X109000000Y-113047500D01*
X109000000Y-111127500D02*
X106315000Y-111127500D01*
%TO.C,D14*%
X145062500Y-105460000D02*
X147747500Y-105460000D01*
X147747500Y-103540000D02*
X145062500Y-103540000D01*
X147747500Y-105460000D02*
X147747500Y-103540000D01*
%TO.C,D4*%
X123040000Y-82815000D02*
X123040000Y-85500000D01*
X124960000Y-82815000D02*
X123040000Y-82815000D01*
X124960000Y-85500000D02*
X124960000Y-82815000D01*
%TO.C,R3*%
X104265000Y-111727064D02*
X104265000Y-111272936D01*
X105735000Y-111727064D02*
X105735000Y-111272936D01*
%TO.C,Q1*%
X139437500Y-94990000D02*
X138787500Y-94990000D01*
X139437500Y-94990000D02*
X140087500Y-94990000D01*
X139437500Y-98110000D02*
X138787500Y-98110000D01*
X139437500Y-98110000D02*
X140087500Y-98110000D01*
X138275000Y-95040000D02*
X138035000Y-94710000D01*
X138515000Y-94710000D01*
X138275000Y-95040000D01*
G36*
X138275000Y-95040000D02*
G01*
X138035000Y-94710000D01*
X138515000Y-94710000D01*
X138275000Y-95040000D01*
G37*
%TO.C,C3*%
X145201248Y-101140000D02*
X146623752Y-101140000D01*
X145201248Y-102960000D02*
X146623752Y-102960000D01*
%TO.C,D17*%
X141702500Y-95750000D02*
X141702500Y-98035000D01*
X141702500Y-98035000D02*
X143172500Y-98035000D01*
X143172500Y-98035000D02*
X143172500Y-95750000D01*
%TO.C,R7*%
X126265000Y-88227064D02*
X126265000Y-87772936D01*
X127735000Y-88227064D02*
X127735000Y-87772936D01*
%TO.C,R16*%
X110265000Y-110772936D02*
X110265000Y-111227064D01*
X111735000Y-110772936D02*
X111735000Y-111227064D01*
%TO.C,D13*%
X131377500Y-111040000D02*
X131377500Y-112960000D01*
X131377500Y-112960000D02*
X134062500Y-112960000D01*
X134062500Y-111040000D02*
X131377500Y-111040000D01*
%TO.C,R13*%
X108265000Y-88227064D02*
X108265000Y-87772936D01*
X109735000Y-88227064D02*
X109735000Y-87772936D01*
%TO.C,U2*%
X141300000Y-98940000D02*
X140500000Y-98940000D01*
X141300000Y-98940000D02*
X142100000Y-98940000D01*
X141300000Y-102060000D02*
X140500000Y-102060000D01*
X141300000Y-102060000D02*
X142100000Y-102060000D01*
X140000000Y-98990000D02*
X139760000Y-98660000D01*
X140240000Y-98660000D01*
X140000000Y-98990000D01*
G36*
X140000000Y-98990000D02*
G01*
X139760000Y-98660000D01*
X140240000Y-98660000D01*
X140000000Y-98990000D01*
G37*
%TO.C,D7*%
X114040000Y-82815000D02*
X114040000Y-85500000D01*
X115960000Y-82815000D02*
X114040000Y-82815000D01*
X115960000Y-85500000D02*
X115960000Y-82815000D01*
%TO.C,R8*%
X123265000Y-88227064D02*
X123265000Y-87772936D01*
X124735000Y-88227064D02*
X124735000Y-87772936D01*
%TO.C,C2*%
X145226248Y-98640000D02*
X146648752Y-98640000D01*
X145226248Y-100460000D02*
X146648752Y-100460000D01*
%TD*%
M02*
