%TF.GenerationSoftware,KiCad,Pcbnew,9.0.0*%
%TF.CreationDate,2025-03-28T15:43:29+07:00*%
%TF.ProjectId,PIC18F27Q43_OLED_Board,50494331-3846-4323-9751-34335f4f4c45,rev?*%
%TF.SameCoordinates,Original*%
%TF.FileFunction,Copper,L2,Bot*%
%TF.FilePolarity,Positive*%
%FSLAX46Y46*%
G04 Gerber Fmt 4.6, Leading zero omitted, Abs format (unit mm)*
G04 Created by KiCad (PCBNEW 9.0.0) date 2025-03-28 15:43:29*
%MOMM*%
%LPD*%
G01*
G04 APERTURE LIST*
%TA.AperFunction,ComponentPad*%
%ADD10C,2.000000*%
%TD*%
%TA.AperFunction,ComponentPad*%
%ADD11R,1.100000X1.100000*%
%TD*%
%TA.AperFunction,ComponentPad*%
%ADD12C,1.100000*%
%TD*%
%TA.AperFunction,ComponentPad*%
%ADD13O,2.400000X1.100000*%
%TD*%
%TA.AperFunction,ComponentPad*%
%ADD14O,3.500000X2.200000*%
%TD*%
%TA.AperFunction,ComponentPad*%
%ADD15R,2.500000X1.500000*%
%TD*%
%TA.AperFunction,ComponentPad*%
%ADD16O,2.500000X1.500000*%
%TD*%
%TA.AperFunction,ComponentPad*%
%ADD17R,1.700000X1.700000*%
%TD*%
%TA.AperFunction,ComponentPad*%
%ADD18O,1.700000X1.700000*%
%TD*%
%TA.AperFunction,ComponentPad*%
%ADD19R,2.000000X2.000000*%
%TD*%
%TA.AperFunction,ComponentPad*%
%ADD20R,2.100000X2.100000*%
%TD*%
%TA.AperFunction,ComponentPad*%
%ADD21C,2.100000*%
%TD*%
%TA.AperFunction,ViaPad*%
%ADD22C,0.600000*%
%TD*%
%TA.AperFunction,Conductor*%
%ADD23C,0.200000*%
%TD*%
%TA.AperFunction,Conductor*%
%ADD24C,0.400000*%
%TD*%
G04 APERTURE END LIST*
D10*
%TO.P,SW2,1,1*%
%TO.N,/RB3*%
X104750000Y-115087500D03*
X111250000Y-115087500D03*
%TO.P,SW2,2,2*%
%TO.N,VCC*%
X104750000Y-119587500D03*
X111250000Y-119587500D03*
%TD*%
%TO.P,SW3,1,1*%
%TO.N,/RB2*%
X129750000Y-114750000D03*
X136250000Y-114750000D03*
%TO.P,SW3,2,2*%
%TO.N,VCC*%
X129750000Y-119250000D03*
X136250000Y-119250000D03*
%TD*%
D11*
%TO.P,J4,1,VBUS*%
%TO.N,Net-(D17-A)*%
X146812500Y-93000000D03*
D12*
%TO.P,J4,2,D-*%
%TO.N,unconnected-(J4-D--Pad2)*%
X145062500Y-92200000D03*
%TO.P,J4,3,D+*%
%TO.N,unconnected-(J4-D+-Pad3)*%
X146812500Y-91400000D03*
%TO.P,J4,4,ID*%
%TO.N,unconnected-(J4-ID-Pad4)*%
X145062500Y-90600000D03*
%TO.P,J4,5,GND*%
%TO.N,GND*%
X146812500Y-89800000D03*
D13*
%TO.P,J4,6,Shield*%
X145937500Y-95050000D03*
X145937500Y-87750000D03*
%TD*%
D10*
%TO.P,SW4,1,1*%
%TO.N,/RB1*%
X139750000Y-114750000D03*
X146250000Y-114750000D03*
%TO.P,SW4,2,2*%
%TO.N,VCC*%
X139750000Y-119250000D03*
X146250000Y-119250000D03*
%TD*%
D14*
%TO.P,SW5,*%
%TO.N,*%
X96500000Y-106100000D03*
X96500000Y-97900000D03*
D15*
%TO.P,SW5,1,A*%
%TO.N,VCC*%
X96500000Y-104000000D03*
D16*
%TO.P,SW5,2,B*%
%TO.N,Net-(SW5-B)*%
X96500000Y-102000000D03*
%TO.P,SW5,3,C*%
%TO.N,unconnected-(SW5-C-Pad3)*%
X96500000Y-100000000D03*
%TD*%
D17*
%TO.P,J2,1,Pin_1*%
%TO.N,/SDA*%
X101702500Y-98460000D03*
D18*
%TO.P,J2,2,Pin_2*%
%TO.N,/SCL*%
X101702500Y-101000000D03*
%TO.P,J2,3,Pin_3*%
%TO.N,VCC*%
X101702500Y-103540000D03*
%TO.P,J2,4,Pin_4*%
%TO.N,GND*%
X101702500Y-106080000D03*
%TD*%
D17*
%TO.P,J1,1,~{MCLR}/VPP*%
%TO.N,/MCLR*%
X147120000Y-85000000D03*
D18*
%TO.P,J1,2,VDD*%
%TO.N,VCC*%
X144580000Y-85000000D03*
%TO.P,J1,3,VSS*%
%TO.N,GND*%
X142040000Y-85000000D03*
%TO.P,J1,4,PGD/ICSPDAT*%
%TO.N,/PGD*%
X139500000Y-85000000D03*
%TO.P,J1,5,PGC/ICSPCLK*%
%TO.N,/PGC*%
X136960000Y-85000000D03*
%TD*%
D19*
%TO.P,LS1,1,1*%
%TO.N,/RB5*%
X98500000Y-92500000D03*
D10*
%TO.P,LS1,2,2*%
%TO.N,GND*%
X98500000Y-84900000D03*
%TD*%
%TO.P,SW1,1,1*%
%TO.N,/RB4*%
X94750000Y-115087500D03*
X101250000Y-115087500D03*
%TO.P,SW1,2,2*%
%TO.N,VCC*%
X94750000Y-119587500D03*
X101250000Y-119587500D03*
%TD*%
D20*
%TO.P,BT1,1,+*%
%TO.N,Net-(BT1-+)*%
X134500000Y-103000000D03*
D21*
%TO.P,BT1,2,-*%
%TO.N,GND*%
X114500000Y-103000000D03*
%TD*%
D22*
%TO.N,GND*%
X135500000Y-83500000D03*
X108250000Y-109750000D03*
X125000000Y-109500000D03*
X147000000Y-104500000D03*
X141500000Y-109500000D03*
X146000000Y-102000000D03*
X122000000Y-108000000D03*
X133000000Y-113500000D03*
%TO.N,Net-(SW5-B)*%
X141000000Y-98500000D03*
%TO.N,/MCLR*%
X130000000Y-100000000D03*
X127500000Y-100500000D03*
%TO.N,/PGD*%
X127500000Y-101500000D03*
X129100000Y-101500000D03*
%TO.N,/SDA*%
X114500000Y-100500000D03*
X117500000Y-103500000D03*
%TO.N,/SCL*%
X118000000Y-102000000D03*
X113000000Y-100500000D03*
%TO.N,/RB5*%
X128120938Y-102727311D03*
X117000000Y-98500000D03*
%TO.N,/RB4*%
X118750000Y-103250000D03*
X127000000Y-104000000D03*
%TO.N,/RB3*%
X126674265Y-105174265D03*
X121008949Y-104502983D03*
%TO.N,/RB2*%
X127500000Y-107400000D03*
X127000000Y-106000000D03*
%TO.N,/RC6*%
X120250000Y-104250000D03*
X130000000Y-108500000D03*
%TO.N,/RC7*%
X129500000Y-105500000D03*
X121500000Y-105500000D03*
%TO.N,/RB0*%
X124009502Y-108500000D03*
X131000000Y-106000000D03*
%TD*%
D23*
%TO.N,GND*%
X142420000Y-85000000D02*
X140920000Y-86500000D01*
X123500000Y-109500000D02*
X125000000Y-109500000D01*
D24*
X114500000Y-103000000D02*
X111500000Y-103000000D01*
D23*
X142420000Y-84500000D02*
X142420000Y-85000000D01*
D24*
X137000000Y-109500000D02*
X133000000Y-113500000D01*
X108250000Y-106250000D02*
X108250000Y-109750000D01*
D23*
X122000000Y-108000000D02*
X123500000Y-109500000D01*
X136000000Y-86500000D02*
X135500000Y-86000000D01*
X140920000Y-86500000D02*
X136000000Y-86500000D01*
X105372500Y-109750000D02*
X101702500Y-106080000D01*
X135500000Y-86000000D02*
X135500000Y-83500000D01*
X147000000Y-104500000D02*
X147000000Y-103000000D01*
D24*
X141500000Y-109500000D02*
X137000000Y-109500000D01*
D23*
X108250000Y-109750000D02*
X105372500Y-109750000D01*
D24*
X111500000Y-103000000D02*
X108250000Y-106250000D01*
D23*
X147000000Y-103000000D02*
X146000000Y-102000000D01*
%TO.N,Net-(SW5-B)*%
X108349000Y-102151000D02*
X114000000Y-96500000D01*
X137500000Y-99500000D02*
X138500000Y-99500000D01*
X96651000Y-102151000D02*
X108349000Y-102151000D01*
X134500000Y-96500000D02*
X137500000Y-99500000D01*
X140000000Y-99500000D02*
X141000000Y-98500000D01*
X114000000Y-96500000D02*
X134500000Y-96500000D01*
X96500000Y-102000000D02*
X96651000Y-102151000D01*
X138500000Y-99500000D02*
X140000000Y-99500000D01*
%TO.N,/MCLR*%
X130000000Y-100000000D02*
X129500000Y-100500000D01*
X129500000Y-100500000D02*
X127500000Y-100500000D01*
%TO.N,/PGD*%
X128000000Y-102000000D02*
X127500000Y-101500000D01*
X129100000Y-101500000D02*
X128600000Y-102000000D01*
X128600000Y-102000000D02*
X128000000Y-102000000D01*
%TO.N,/SDA*%
X116000000Y-100500000D02*
X114500000Y-100500000D01*
X117500000Y-103500000D02*
X116984700Y-102984700D01*
X116984700Y-102984700D02*
X116984700Y-101484700D01*
X116984700Y-101484700D02*
X116000000Y-100500000D01*
%TO.N,/SCL*%
X116899000Y-99899000D02*
X113601000Y-99899000D01*
X118000000Y-102000000D02*
X117500000Y-101500000D01*
X117500000Y-100500000D02*
X116899000Y-99899000D01*
X117500000Y-101500000D02*
X117500000Y-100500000D01*
X113601000Y-99899000D02*
X113000000Y-100500000D01*
%TO.N,/RB5*%
X123500000Y-98500000D02*
X117000000Y-98500000D01*
X128120938Y-102727311D02*
X127727311Y-102727311D01*
X127727311Y-102727311D02*
X123500000Y-98500000D01*
%TO.N,/RB4*%
X125000000Y-105500000D02*
X125500000Y-105500000D01*
X123432900Y-105500000D02*
X125000000Y-105500000D01*
X121081900Y-103149000D02*
X123432900Y-105500000D01*
X118750000Y-103250000D02*
X118851000Y-103149000D01*
X125500000Y-105500000D02*
X127000000Y-104000000D01*
X118851000Y-103149000D02*
X121081900Y-103149000D01*
%TO.N,/RB3*%
X125848530Y-106000000D02*
X126674265Y-105174265D01*
X123000000Y-106000000D02*
X125848530Y-106000000D01*
X121008949Y-104502983D02*
X121502983Y-104502983D01*
X121502983Y-104502983D02*
X123000000Y-106000000D01*
%TO.N,/RB2*%
X127000000Y-106000000D02*
X127500000Y-106500000D01*
X127500000Y-107400000D02*
X127500000Y-106500000D01*
%TO.N,/RC6*%
X128000000Y-110500000D02*
X130000000Y-108500000D01*
X123500000Y-110500000D02*
X128000000Y-110500000D01*
X120250000Y-107250000D02*
X123500000Y-110500000D01*
X120250000Y-104250000D02*
X120250000Y-107250000D01*
%TO.N,/RC7*%
X127500000Y-108500000D02*
X129500000Y-106500000D01*
X125500000Y-107500000D02*
X126500000Y-108500000D01*
X123000000Y-107500000D02*
X125500000Y-107500000D01*
X121500000Y-106000000D02*
X123000000Y-107500000D01*
X121500000Y-105500000D02*
X121500000Y-106000000D01*
X129500000Y-106500000D02*
X129500000Y-105500000D01*
X126500000Y-108500000D02*
X127500000Y-108500000D01*
%TO.N,/RB0*%
X126000000Y-109000000D02*
X128000000Y-109000000D01*
X125500000Y-108500000D02*
X126000000Y-109000000D01*
X124009502Y-108500000D02*
X125500000Y-108500000D01*
X128000000Y-109000000D02*
X131000000Y-106000000D01*
%TD*%
%TA.AperFunction,Conductor*%
%TO.N,VCC*%
G36*
X134686339Y-83009741D02*
G01*
X134718139Y-83017858D01*
X134719703Y-83019538D01*
X134721905Y-83020185D01*
X134743378Y-83044966D01*
X134765750Y-83068995D01*
X134766157Y-83071255D01*
X134767660Y-83072989D01*
X134772327Y-83105452D01*
X134778156Y-83137755D01*
X134777398Y-83140720D01*
X134777604Y-83142147D01*
X134769427Y-83171953D01*
X134730263Y-83266502D01*
X134730261Y-83266510D01*
X134699500Y-83421153D01*
X134699500Y-83578846D01*
X134730261Y-83733489D01*
X134730264Y-83733501D01*
X134790602Y-83879172D01*
X134790609Y-83879185D01*
X134878602Y-84010874D01*
X134899480Y-84077551D01*
X134899500Y-84079765D01*
X134899500Y-85913330D01*
X134899499Y-85913348D01*
X134899499Y-86079054D01*
X134899498Y-86079054D01*
X134940424Y-86231789D01*
X134940425Y-86231790D01*
X134961455Y-86268214D01*
X134961456Y-86268216D01*
X135019475Y-86368709D01*
X135019479Y-86368714D01*
X135019480Y-86368716D01*
X135131284Y-86480520D01*
X135131285Y-86480521D01*
X135631284Y-86980520D01*
X135631286Y-86980521D01*
X135631290Y-86980524D01*
X135768209Y-87059573D01*
X135768216Y-87059577D01*
X135920943Y-87100501D01*
X135920945Y-87100501D01*
X136086654Y-87100501D01*
X136086670Y-87100500D01*
X140833331Y-87100500D01*
X140833347Y-87100501D01*
X140840943Y-87100501D01*
X140999054Y-87100501D01*
X140999057Y-87100501D01*
X141151785Y-87059577D01*
X141201904Y-87030639D01*
X141288716Y-86980520D01*
X141400520Y-86868716D01*
X141400520Y-86868714D01*
X141410728Y-86858507D01*
X141410730Y-86858504D01*
X141882415Y-86386819D01*
X141943738Y-86353334D01*
X141970096Y-86350500D01*
X142146286Y-86350500D01*
X142146287Y-86350500D01*
X142356243Y-86317246D01*
X142558412Y-86251557D01*
X142747816Y-86155051D01*
X142834138Y-86092335D01*
X142919786Y-86030109D01*
X142919788Y-86030106D01*
X142919792Y-86030104D01*
X143070104Y-85879792D01*
X143070106Y-85879788D01*
X143070109Y-85879786D01*
X143137515Y-85787007D01*
X143195051Y-85707816D01*
X143199793Y-85698508D01*
X143247763Y-85647711D01*
X143315583Y-85630911D01*
X143381719Y-85653445D01*
X143420763Y-85698500D01*
X143425377Y-85707555D01*
X143550272Y-85879459D01*
X143550276Y-85879464D01*
X143700535Y-86029723D01*
X143700540Y-86029727D01*
X143872442Y-86154620D01*
X144061782Y-86251095D01*
X144263871Y-86316757D01*
X144330000Y-86327231D01*
X144330000Y-85433012D01*
X144387007Y-85465925D01*
X144514174Y-85500000D01*
X144645826Y-85500000D01*
X144772993Y-85465925D01*
X144830000Y-85433012D01*
X144830000Y-86327230D01*
X144896126Y-86316757D01*
X144896129Y-86316757D01*
X145098217Y-86251095D01*
X145287557Y-86154620D01*
X145459458Y-86029728D01*
X145573133Y-85916053D01*
X145634456Y-85882568D01*
X145704148Y-85887552D01*
X145760082Y-85929423D01*
X145776997Y-85960401D01*
X145826202Y-86092328D01*
X145826206Y-86092335D01*
X145912452Y-86207544D01*
X145912455Y-86207547D01*
X146027664Y-86293793D01*
X146027671Y-86293797D01*
X146162517Y-86344091D01*
X146162516Y-86344091D01*
X146169444Y-86344835D01*
X146222127Y-86350500D01*
X148017872Y-86350499D01*
X148077483Y-86344091D01*
X148212331Y-86293796D01*
X148327546Y-86207546D01*
X148413796Y-86092331D01*
X148464091Y-85957483D01*
X148470500Y-85897873D01*
X148470499Y-84102128D01*
X148464091Y-84042517D01*
X148463002Y-84039598D01*
X148413797Y-83907671D01*
X148413793Y-83907664D01*
X148327547Y-83792455D01*
X148327544Y-83792452D01*
X148212335Y-83706206D01*
X148212328Y-83706202D01*
X148077482Y-83655908D01*
X148077483Y-83655908D01*
X148017883Y-83649501D01*
X148017881Y-83649500D01*
X148017873Y-83649500D01*
X148017864Y-83649500D01*
X146222129Y-83649500D01*
X146222123Y-83649501D01*
X146162516Y-83655908D01*
X146027671Y-83706202D01*
X146027664Y-83706206D01*
X145912455Y-83792452D01*
X145912452Y-83792455D01*
X145826206Y-83907664D01*
X145826202Y-83907671D01*
X145776997Y-84039598D01*
X145735126Y-84095532D01*
X145669661Y-84119949D01*
X145601388Y-84105097D01*
X145573134Y-84083946D01*
X145459464Y-83970276D01*
X145459459Y-83970272D01*
X145287557Y-83845379D01*
X145098215Y-83748903D01*
X144896124Y-83683241D01*
X144830000Y-83672768D01*
X144830000Y-84566988D01*
X144772993Y-84534075D01*
X144645826Y-84500000D01*
X144514174Y-84500000D01*
X144387007Y-84534075D01*
X144330000Y-84566988D01*
X144330000Y-83672768D01*
X144329999Y-83672768D01*
X144263875Y-83683241D01*
X144061784Y-83748903D01*
X143872442Y-83845379D01*
X143700540Y-83970272D01*
X143700535Y-83970276D01*
X143550276Y-84120535D01*
X143550272Y-84120540D01*
X143425378Y-84292443D01*
X143420762Y-84301502D01*
X143372784Y-84352295D01*
X143304963Y-84369087D01*
X143238829Y-84346546D01*
X143199794Y-84301493D01*
X143195051Y-84292184D01*
X143195049Y-84292181D01*
X143195048Y-84292179D01*
X143070109Y-84120213D01*
X142919786Y-83969890D01*
X142747820Y-83844951D01*
X142558414Y-83748444D01*
X142558413Y-83748443D01*
X142558412Y-83748443D01*
X142356243Y-83682754D01*
X142356241Y-83682753D01*
X142356240Y-83682753D01*
X142194957Y-83657208D01*
X142146287Y-83649500D01*
X141933713Y-83649500D01*
X141885042Y-83657208D01*
X141723760Y-83682753D01*
X141622672Y-83715598D01*
X141567612Y-83733489D01*
X141521585Y-83748444D01*
X141332179Y-83844951D01*
X141160213Y-83969890D01*
X141009890Y-84120213D01*
X140884949Y-84292182D01*
X140880484Y-84300946D01*
X140832509Y-84351742D01*
X140764688Y-84368536D01*
X140698553Y-84345998D01*
X140659516Y-84300946D01*
X140655050Y-84292182D01*
X140530109Y-84120213D01*
X140379786Y-83969890D01*
X140207820Y-83844951D01*
X140018414Y-83748444D01*
X140018413Y-83748443D01*
X140018412Y-83748443D01*
X139816243Y-83682754D01*
X139816241Y-83682753D01*
X139816240Y-83682753D01*
X139654957Y-83657208D01*
X139606287Y-83649500D01*
X139393713Y-83649500D01*
X139345042Y-83657208D01*
X139183760Y-83682753D01*
X139082672Y-83715598D01*
X139027612Y-83733489D01*
X138981585Y-83748444D01*
X138792179Y-83844951D01*
X138620213Y-83969890D01*
X138469890Y-84120213D01*
X138344949Y-84292182D01*
X138340484Y-84300946D01*
X138292509Y-84351742D01*
X138224688Y-84368536D01*
X138158553Y-84345998D01*
X138119516Y-84300946D01*
X138115050Y-84292182D01*
X137990109Y-84120213D01*
X137839786Y-83969890D01*
X137667820Y-83844951D01*
X137478414Y-83748444D01*
X137478413Y-83748443D01*
X137478412Y-83748443D01*
X137276243Y-83682754D01*
X137276241Y-83682753D01*
X137276240Y-83682753D01*
X137114957Y-83657208D01*
X137066287Y-83649500D01*
X136853713Y-83649500D01*
X136814202Y-83655757D01*
X136643759Y-83682753D01*
X136455894Y-83743794D01*
X136386053Y-83745789D01*
X136326220Y-83709708D01*
X136295392Y-83647007D01*
X136295959Y-83601670D01*
X136300500Y-83578842D01*
X136300500Y-83421155D01*
X136300499Y-83421153D01*
X136269738Y-83266510D01*
X136269737Y-83266503D01*
X136230572Y-83171951D01*
X136223104Y-83102483D01*
X136254379Y-83040004D01*
X136314468Y-83004352D01*
X136345134Y-83000500D01*
X147434108Y-83000500D01*
X147495572Y-83000500D01*
X147504418Y-83000816D01*
X147704561Y-83015130D01*
X147722063Y-83017647D01*
X147913797Y-83059355D01*
X147930755Y-83064334D01*
X148082200Y-83120821D01*
X148114609Y-83132909D01*
X148130701Y-83140259D01*
X148302904Y-83234288D01*
X148317784Y-83243849D01*
X148474867Y-83361441D01*
X148488237Y-83373027D01*
X148626972Y-83511762D01*
X148638558Y-83525132D01*
X148756146Y-83682210D01*
X148765711Y-83697095D01*
X148859740Y-83869298D01*
X148867090Y-83885390D01*
X148935662Y-84069236D01*
X148940646Y-84086212D01*
X148982351Y-84277931D01*
X148984869Y-84295442D01*
X148999184Y-84495580D01*
X148999500Y-84504427D01*
X148999500Y-120495572D01*
X148999184Y-120504419D01*
X148984869Y-120704557D01*
X148982351Y-120722068D01*
X148940646Y-120913787D01*
X148935662Y-120930763D01*
X148867090Y-121114609D01*
X148859740Y-121130701D01*
X148765711Y-121302904D01*
X148756146Y-121317789D01*
X148638558Y-121474867D01*
X148626972Y-121488237D01*
X148488237Y-121626972D01*
X148474867Y-121638558D01*
X148317789Y-121756146D01*
X148302904Y-121765711D01*
X148130701Y-121859740D01*
X148114609Y-121867090D01*
X147930763Y-121935662D01*
X147913787Y-121940646D01*
X147722068Y-121982351D01*
X147704557Y-121984869D01*
X147523779Y-121997799D01*
X147504417Y-121999184D01*
X147495572Y-121999500D01*
X94004428Y-121999500D01*
X93995582Y-121999184D01*
X93973622Y-121997613D01*
X93795442Y-121984869D01*
X93777931Y-121982351D01*
X93586212Y-121940646D01*
X93569236Y-121935662D01*
X93385390Y-121867090D01*
X93369298Y-121859740D01*
X93197095Y-121765711D01*
X93182210Y-121756146D01*
X93025132Y-121638558D01*
X93011762Y-121626972D01*
X92873027Y-121488237D01*
X92861441Y-121474867D01*
X92743849Y-121317784D01*
X92734288Y-121302904D01*
X92640259Y-121130701D01*
X92632909Y-121114609D01*
X92622798Y-121087500D01*
X92564334Y-120930755D01*
X92559355Y-120913793D01*
X92517647Y-120722063D01*
X92515130Y-120704556D01*
X92500816Y-120504418D01*
X92500500Y-120495572D01*
X92500500Y-119469447D01*
X93250000Y-119469447D01*
X93250000Y-119705552D01*
X93286934Y-119938747D01*
X93359897Y-120163302D01*
X93467087Y-120373674D01*
X93527338Y-120456604D01*
X93527340Y-120456605D01*
X94226212Y-119757733D01*
X94237482Y-119799792D01*
X94309890Y-119925208D01*
X94412292Y-120027610D01*
X94537708Y-120100018D01*
X94579765Y-120111287D01*
X93880893Y-120810158D01*
X93963828Y-120870414D01*
X94174197Y-120977602D01*
X94398752Y-121050565D01*
X94398751Y-121050565D01*
X94631948Y-121087500D01*
X94868052Y-121087500D01*
X95101247Y-121050565D01*
X95325802Y-120977602D01*
X95536163Y-120870418D01*
X95536169Y-120870414D01*
X95619104Y-120810158D01*
X95619105Y-120810158D01*
X94920233Y-120111287D01*
X94962292Y-120100018D01*
X95087708Y-120027610D01*
X95190110Y-119925208D01*
X95262518Y-119799792D01*
X95273787Y-119757733D01*
X95972658Y-120456605D01*
X95972658Y-120456604D01*
X96032914Y-120373669D01*
X96032918Y-120373663D01*
X96140102Y-120163302D01*
X96213065Y-119938747D01*
X96250000Y-119705552D01*
X96250000Y-119469447D01*
X99750000Y-119469447D01*
X99750000Y-119705552D01*
X99786934Y-119938747D01*
X99859897Y-120163302D01*
X99967087Y-120373674D01*
X100027338Y-120456604D01*
X100027340Y-120456605D01*
X100726212Y-119757733D01*
X100737482Y-119799792D01*
X100809890Y-119925208D01*
X100912292Y-120027610D01*
X101037708Y-120100018D01*
X101079765Y-120111287D01*
X100380893Y-120810158D01*
X100463828Y-120870414D01*
X100674197Y-120977602D01*
X100898752Y-121050565D01*
X100898751Y-121050565D01*
X101131948Y-121087500D01*
X101368052Y-121087500D01*
X101601247Y-121050565D01*
X101825802Y-120977602D01*
X102036163Y-120870418D01*
X102036169Y-120870414D01*
X102119104Y-120810158D01*
X102119105Y-120810158D01*
X101420233Y-120111287D01*
X101462292Y-120100018D01*
X101587708Y-120027610D01*
X101690110Y-119925208D01*
X101762518Y-119799792D01*
X101773787Y-119757733D01*
X102472658Y-120456605D01*
X102472658Y-120456604D01*
X102532914Y-120373669D01*
X102532918Y-120373663D01*
X102640102Y-120163302D01*
X102713065Y-119938747D01*
X102750000Y-119705552D01*
X102750000Y-119469447D01*
X103250000Y-119469447D01*
X103250000Y-119705552D01*
X103286934Y-119938747D01*
X103359897Y-120163302D01*
X103467087Y-120373674D01*
X103527338Y-120456604D01*
X103527340Y-120456605D01*
X104226212Y-119757733D01*
X104237482Y-119799792D01*
X104309890Y-119925208D01*
X104412292Y-120027610D01*
X104537708Y-120100018D01*
X104579765Y-120111287D01*
X103880893Y-120810158D01*
X103963828Y-120870414D01*
X104174197Y-120977602D01*
X104398752Y-121050565D01*
X104398751Y-121050565D01*
X104631948Y-121087500D01*
X104868052Y-121087500D01*
X105101247Y-121050565D01*
X105325802Y-120977602D01*
X105536163Y-120870418D01*
X105536169Y-120870414D01*
X105619104Y-120810158D01*
X105619105Y-120810158D01*
X104920233Y-120111287D01*
X104962292Y-120100018D01*
X105087708Y-120027610D01*
X105190110Y-119925208D01*
X105262518Y-119799792D01*
X105273787Y-119757733D01*
X105972658Y-120456605D01*
X105972658Y-120456604D01*
X106032914Y-120373669D01*
X106032918Y-120373663D01*
X106140102Y-120163302D01*
X106213065Y-119938747D01*
X106250000Y-119705552D01*
X106250000Y-119469447D01*
X109750000Y-119469447D01*
X109750000Y-119705552D01*
X109786934Y-119938747D01*
X109859897Y-120163302D01*
X109967087Y-120373674D01*
X110027338Y-120456604D01*
X110027340Y-120456605D01*
X110726212Y-119757733D01*
X110737482Y-119799792D01*
X110809890Y-119925208D01*
X110912292Y-120027610D01*
X111037708Y-120100018D01*
X111079765Y-120111287D01*
X110380893Y-120810158D01*
X110463828Y-120870414D01*
X110674197Y-120977602D01*
X110898752Y-121050565D01*
X110898751Y-121050565D01*
X111131948Y-121087500D01*
X111368052Y-121087500D01*
X111601247Y-121050565D01*
X111825802Y-120977602D01*
X112036163Y-120870418D01*
X112036169Y-120870414D01*
X112119104Y-120810158D01*
X112119105Y-120810158D01*
X111420233Y-120111287D01*
X111462292Y-120100018D01*
X111587708Y-120027610D01*
X111690110Y-119925208D01*
X111762518Y-119799792D01*
X111773787Y-119757734D01*
X112472658Y-120456605D01*
X112472658Y-120456604D01*
X112532914Y-120373669D01*
X112532921Y-120373658D01*
X112535243Y-120369103D01*
X112640102Y-120163302D01*
X112713065Y-119938747D01*
X112750000Y-119705552D01*
X112750000Y-119469447D01*
X112713065Y-119236252D01*
X112690042Y-119165393D01*
X112679174Y-119131947D01*
X128250000Y-119131947D01*
X128250000Y-119368052D01*
X128286934Y-119601247D01*
X128359897Y-119825802D01*
X128467087Y-120036174D01*
X128527338Y-120119104D01*
X128527340Y-120119105D01*
X129226212Y-119420233D01*
X129237482Y-119462292D01*
X129309890Y-119587708D01*
X129412292Y-119690110D01*
X129537708Y-119762518D01*
X129579765Y-119773787D01*
X128880893Y-120472658D01*
X128963828Y-120532914D01*
X129174197Y-120640102D01*
X129398752Y-120713065D01*
X129398751Y-120713065D01*
X129631948Y-120750000D01*
X129868052Y-120750000D01*
X130101247Y-120713065D01*
X130325802Y-120640102D01*
X130536163Y-120532918D01*
X130536169Y-120532914D01*
X130619104Y-120472658D01*
X130619105Y-120472658D01*
X129920233Y-119773787D01*
X129962292Y-119762518D01*
X130087708Y-119690110D01*
X130190110Y-119587708D01*
X130262518Y-119462292D01*
X130273787Y-119420233D01*
X130972658Y-120119105D01*
X130972658Y-120119104D01*
X131032914Y-120036169D01*
X131032918Y-120036163D01*
X131140102Y-119825802D01*
X131213065Y-119601247D01*
X131250000Y-119368052D01*
X131250000Y-119131947D01*
X134750000Y-119131947D01*
X134750000Y-119368052D01*
X134786934Y-119601247D01*
X134859897Y-119825802D01*
X134967087Y-120036174D01*
X135027338Y-120119104D01*
X135027340Y-120119105D01*
X135726212Y-119420233D01*
X135737482Y-119462292D01*
X135809890Y-119587708D01*
X135912292Y-119690110D01*
X136037708Y-119762518D01*
X136079765Y-119773787D01*
X135380893Y-120472658D01*
X135463828Y-120532914D01*
X135674197Y-120640102D01*
X135898752Y-120713065D01*
X135898751Y-120713065D01*
X136131948Y-120750000D01*
X136368052Y-120750000D01*
X136601247Y-120713065D01*
X136825802Y-120640102D01*
X137036163Y-120532918D01*
X137036169Y-120532914D01*
X137119104Y-120472658D01*
X137119105Y-120472658D01*
X136420233Y-119773787D01*
X136462292Y-119762518D01*
X136587708Y-119690110D01*
X136690110Y-119587708D01*
X136762518Y-119462292D01*
X136773787Y-119420233D01*
X137472658Y-120119105D01*
X137472658Y-120119104D01*
X137532914Y-120036169D01*
X137532918Y-120036163D01*
X137640102Y-119825802D01*
X137713065Y-119601247D01*
X137750000Y-119368052D01*
X137750000Y-119131947D01*
X138250000Y-119131947D01*
X138250000Y-119368052D01*
X138286934Y-119601247D01*
X138359897Y-119825802D01*
X138467087Y-120036174D01*
X138527338Y-120119104D01*
X138527340Y-120119105D01*
X139226212Y-119420233D01*
X139237482Y-119462292D01*
X139309890Y-119587708D01*
X139412292Y-119690110D01*
X139537708Y-119762518D01*
X139579765Y-119773787D01*
X138880893Y-120472658D01*
X138963828Y-120532914D01*
X139174197Y-120640102D01*
X139398752Y-120713065D01*
X139398751Y-120713065D01*
X139631948Y-120750000D01*
X139868052Y-120750000D01*
X140101247Y-120713065D01*
X140325802Y-120640102D01*
X140536163Y-120532918D01*
X140536169Y-120532914D01*
X140619104Y-120472658D01*
X140619105Y-120472658D01*
X139920233Y-119773787D01*
X139962292Y-119762518D01*
X140087708Y-119690110D01*
X140190110Y-119587708D01*
X140262518Y-119462292D01*
X140273787Y-119420233D01*
X140972658Y-120119105D01*
X140972658Y-120119104D01*
X141032914Y-120036169D01*
X141032918Y-120036163D01*
X141140102Y-119825802D01*
X141213065Y-119601247D01*
X141250000Y-119368052D01*
X141250000Y-119131947D01*
X144750000Y-119131947D01*
X144750000Y-119368052D01*
X144786934Y-119601247D01*
X144859897Y-119825802D01*
X144967087Y-120036174D01*
X145027338Y-120119104D01*
X145027340Y-120119105D01*
X145726212Y-119420233D01*
X145737482Y-119462292D01*
X145809890Y-119587708D01*
X145912292Y-119690110D01*
X146037708Y-119762518D01*
X146079765Y-119773787D01*
X145380893Y-120472658D01*
X145463828Y-120532914D01*
X145674197Y-120640102D01*
X145898752Y-120713065D01*
X145898751Y-120713065D01*
X146131948Y-120750000D01*
X146368052Y-120750000D01*
X146601247Y-120713065D01*
X146825802Y-120640102D01*
X147036163Y-120532918D01*
X147036169Y-120532914D01*
X147119104Y-120472658D01*
X147119105Y-120472658D01*
X146420233Y-119773787D01*
X146462292Y-119762518D01*
X146587708Y-119690110D01*
X146690110Y-119587708D01*
X146762518Y-119462292D01*
X146773787Y-119420233D01*
X147472658Y-120119105D01*
X147472658Y-120119104D01*
X147532914Y-120036169D01*
X147532918Y-120036163D01*
X147640102Y-119825802D01*
X147713065Y-119601247D01*
X147750000Y-119368052D01*
X147750000Y-119131947D01*
X147713065Y-118898752D01*
X147640102Y-118674197D01*
X147532914Y-118463828D01*
X147472658Y-118380894D01*
X147472658Y-118380893D01*
X146773787Y-119079765D01*
X146762518Y-119037708D01*
X146690110Y-118912292D01*
X146587708Y-118809890D01*
X146462292Y-118737482D01*
X146420234Y-118726212D01*
X147119105Y-118027340D01*
X147119104Y-118027338D01*
X147036174Y-117967087D01*
X146825802Y-117859897D01*
X146601247Y-117786934D01*
X146601248Y-117786934D01*
X146368052Y-117750000D01*
X146131948Y-117750000D01*
X145898752Y-117786934D01*
X145674197Y-117859897D01*
X145463830Y-117967084D01*
X145380894Y-118027340D01*
X146079766Y-118726212D01*
X146037708Y-118737482D01*
X145912292Y-118809890D01*
X145809890Y-118912292D01*
X145737482Y-119037708D01*
X145726212Y-119079766D01*
X145027340Y-118380894D01*
X144967084Y-118463830D01*
X144859897Y-118674197D01*
X144786934Y-118898752D01*
X144750000Y-119131947D01*
X141250000Y-119131947D01*
X141213065Y-118898752D01*
X141140102Y-118674197D01*
X141032914Y-118463828D01*
X140972658Y-118380894D01*
X140972658Y-118380893D01*
X140273787Y-119079765D01*
X140262518Y-119037708D01*
X140190110Y-118912292D01*
X140087708Y-118809890D01*
X139962292Y-118737482D01*
X139920234Y-118726212D01*
X140619105Y-118027340D01*
X140619104Y-118027339D01*
X140536174Y-117967087D01*
X140325802Y-117859897D01*
X140101247Y-117786934D01*
X140101248Y-117786934D01*
X139868052Y-117750000D01*
X139631948Y-117750000D01*
X139398752Y-117786934D01*
X139174197Y-117859897D01*
X138963830Y-117967084D01*
X138880894Y-118027340D01*
X139579766Y-118726212D01*
X139537708Y-118737482D01*
X139412292Y-118809890D01*
X139309890Y-118912292D01*
X139237482Y-119037708D01*
X139226212Y-119079766D01*
X138527340Y-118380894D01*
X138467084Y-118463830D01*
X138359897Y-118674197D01*
X138286934Y-118898752D01*
X138250000Y-119131947D01*
X137750000Y-119131947D01*
X137713065Y-118898752D01*
X137640102Y-118674197D01*
X137532914Y-118463828D01*
X137472658Y-118380894D01*
X137472658Y-118380893D01*
X136773787Y-119079765D01*
X136762518Y-119037708D01*
X136690110Y-118912292D01*
X136587708Y-118809890D01*
X136462292Y-118737482D01*
X136420234Y-118726212D01*
X137119105Y-118027340D01*
X137119104Y-118027339D01*
X137036174Y-117967087D01*
X136825802Y-117859897D01*
X136601247Y-117786934D01*
X136601248Y-117786934D01*
X136368052Y-117750000D01*
X136131948Y-117750000D01*
X135898752Y-117786934D01*
X135674197Y-117859897D01*
X135463830Y-117967084D01*
X135380894Y-118027340D01*
X136079766Y-118726212D01*
X136037708Y-118737482D01*
X135912292Y-118809890D01*
X135809890Y-118912292D01*
X135737482Y-119037708D01*
X135726212Y-119079766D01*
X135027340Y-118380894D01*
X134967084Y-118463830D01*
X134859897Y-118674197D01*
X134786934Y-118898752D01*
X134750000Y-119131947D01*
X131250000Y-119131947D01*
X131213065Y-118898752D01*
X131140102Y-118674197D01*
X131032914Y-118463828D01*
X130972658Y-118380894D01*
X130972658Y-118380893D01*
X130273787Y-119079765D01*
X130262518Y-119037708D01*
X130190110Y-118912292D01*
X130087708Y-118809890D01*
X129962292Y-118737482D01*
X129920234Y-118726212D01*
X130619105Y-118027340D01*
X130619104Y-118027339D01*
X130536174Y-117967087D01*
X130325802Y-117859897D01*
X130101247Y-117786934D01*
X130101248Y-117786934D01*
X129868052Y-117750000D01*
X129631948Y-117750000D01*
X129398752Y-117786934D01*
X129174197Y-117859897D01*
X128963830Y-117967084D01*
X128880894Y-118027340D01*
X129579766Y-118726212D01*
X129537708Y-118737482D01*
X129412292Y-118809890D01*
X129309890Y-118912292D01*
X129237482Y-119037708D01*
X129226212Y-119079766D01*
X128527340Y-118380894D01*
X128467084Y-118463830D01*
X128359897Y-118674197D01*
X128286934Y-118898752D01*
X128250000Y-119131947D01*
X112679174Y-119131947D01*
X112640102Y-119011697D01*
X112532914Y-118801328D01*
X112472658Y-118718394D01*
X112472658Y-118718393D01*
X111773787Y-119417265D01*
X111762518Y-119375208D01*
X111690110Y-119249792D01*
X111587708Y-119147390D01*
X111462292Y-119074982D01*
X111420234Y-119063712D01*
X112119105Y-118364840D01*
X112119104Y-118364838D01*
X112036174Y-118304587D01*
X111825802Y-118197397D01*
X111810823Y-118192530D01*
X111601247Y-118124434D01*
X111601248Y-118124434D01*
X111368052Y-118087500D01*
X111131948Y-118087500D01*
X110898752Y-118124434D01*
X110674197Y-118197397D01*
X110463830Y-118304584D01*
X110380894Y-118364840D01*
X111079766Y-119063712D01*
X111037708Y-119074982D01*
X110912292Y-119147390D01*
X110809890Y-119249792D01*
X110737482Y-119375208D01*
X110726212Y-119417265D01*
X110027340Y-118718394D01*
X109967084Y-118801330D01*
X109859897Y-119011697D01*
X109786934Y-119236252D01*
X109750000Y-119469447D01*
X106250000Y-119469447D01*
X106213065Y-119236252D01*
X106140102Y-119011697D01*
X106032914Y-118801328D01*
X105972658Y-118718394D01*
X105972658Y-118718393D01*
X105273787Y-119417265D01*
X105262518Y-119375208D01*
X105190110Y-119249792D01*
X105087708Y-119147390D01*
X104962292Y-119074982D01*
X104920234Y-119063712D01*
X105619105Y-118364840D01*
X105619104Y-118364839D01*
X105536174Y-118304587D01*
X105325802Y-118197397D01*
X105101247Y-118124434D01*
X105101248Y-118124434D01*
X104868052Y-118087500D01*
X104631948Y-118087500D01*
X104398752Y-118124434D01*
X104174197Y-118197397D01*
X103963830Y-118304584D01*
X103880894Y-118364840D01*
X104579766Y-119063712D01*
X104537708Y-119074982D01*
X104412292Y-119147390D01*
X104309890Y-119249792D01*
X104237482Y-119375208D01*
X104226212Y-119417266D01*
X103527340Y-118718394D01*
X103467084Y-118801330D01*
X103359897Y-119011697D01*
X103286934Y-119236252D01*
X103250000Y-119469447D01*
X102750000Y-119469447D01*
X102713065Y-119236252D01*
X102640102Y-119011697D01*
X102532914Y-118801328D01*
X102472658Y-118718394D01*
X102472658Y-118718393D01*
X101773787Y-119417265D01*
X101762518Y-119375208D01*
X101690110Y-119249792D01*
X101587708Y-119147390D01*
X101462292Y-119074982D01*
X101420234Y-119063712D01*
X102119105Y-118364840D01*
X102119104Y-118364839D01*
X102036174Y-118304587D01*
X101825802Y-118197397D01*
X101601247Y-118124434D01*
X101601248Y-118124434D01*
X101368052Y-118087500D01*
X101131948Y-118087500D01*
X100898752Y-118124434D01*
X100674197Y-118197397D01*
X100463830Y-118304584D01*
X100380894Y-118364840D01*
X101079766Y-119063712D01*
X101037708Y-119074982D01*
X100912292Y-119147390D01*
X100809890Y-119249792D01*
X100737482Y-119375208D01*
X100726212Y-119417265D01*
X100027340Y-118718394D01*
X99967084Y-118801330D01*
X99859897Y-119011697D01*
X99786934Y-119236252D01*
X99750000Y-119469447D01*
X96250000Y-119469447D01*
X96213065Y-119236252D01*
X96140102Y-119011697D01*
X96032914Y-118801328D01*
X95972658Y-118718394D01*
X95972658Y-118718393D01*
X95273787Y-119417265D01*
X95262518Y-119375208D01*
X95190110Y-119249792D01*
X95087708Y-119147390D01*
X94962292Y-119074982D01*
X94920234Y-119063712D01*
X95619105Y-118364840D01*
X95619104Y-118364839D01*
X95536174Y-118304587D01*
X95325802Y-118197397D01*
X95101247Y-118124434D01*
X95101248Y-118124434D01*
X94868052Y-118087500D01*
X94631948Y-118087500D01*
X94398752Y-118124434D01*
X94174197Y-118197397D01*
X93963830Y-118304584D01*
X93880894Y-118364840D01*
X94579766Y-119063712D01*
X94537708Y-119074982D01*
X94412292Y-119147390D01*
X94309890Y-119249792D01*
X94237482Y-119375208D01*
X94226212Y-119417266D01*
X93527340Y-118718394D01*
X93467084Y-118801330D01*
X93359897Y-119011697D01*
X93286934Y-119236252D01*
X93250000Y-119469447D01*
X92500500Y-119469447D01*
X92500500Y-114969402D01*
X93249500Y-114969402D01*
X93249500Y-115205597D01*
X93286446Y-115438868D01*
X93359433Y-115663496D01*
X93466657Y-115873933D01*
X93605483Y-116065010D01*
X93772490Y-116232017D01*
X93963567Y-116370843D01*
X94062991Y-116421502D01*
X94174003Y-116478066D01*
X94174005Y-116478066D01*
X94174008Y-116478068D01*
X94294412Y-116517189D01*
X94398631Y-116551053D01*
X94631903Y-116588000D01*
X94631908Y-116588000D01*
X94868097Y-116588000D01*
X95101368Y-116551053D01*
X95325992Y-116478068D01*
X95536433Y-116370843D01*
X95727510Y-116232017D01*
X95894517Y-116065010D01*
X96033343Y-115873933D01*
X96140568Y-115663492D01*
X96213553Y-115438868D01*
X96231431Y-115325992D01*
X96250500Y-115205597D01*
X96250500Y-114969402D01*
X99749500Y-114969402D01*
X99749500Y-115205597D01*
X99786446Y-115438868D01*
X99859433Y-115663496D01*
X99966657Y-115873933D01*
X100105483Y-116065010D01*
X100272490Y-116232017D01*
X100463567Y-116370843D01*
X100562991Y-116421502D01*
X100674003Y-116478066D01*
X100674005Y-116478066D01*
X100674008Y-116478068D01*
X100794412Y-116517189D01*
X100898631Y-116551053D01*
X101131903Y-116588000D01*
X101131908Y-116588000D01*
X101368097Y-116588000D01*
X101601368Y-116551053D01*
X101825992Y-116478068D01*
X102036433Y-116370843D01*
X102227510Y-116232017D01*
X102394517Y-116065010D01*
X102533343Y-115873933D01*
X102640568Y-115663492D01*
X102713553Y-115438868D01*
X102731431Y-115325992D01*
X102750500Y-115205597D01*
X102750500Y-114969402D01*
X103249500Y-114969402D01*
X103249500Y-115205597D01*
X103286446Y-115438868D01*
X103359433Y-115663496D01*
X103466657Y-115873933D01*
X103605483Y-116065010D01*
X103772490Y-116232017D01*
X103963567Y-116370843D01*
X104062991Y-116421502D01*
X104174003Y-116478066D01*
X104174005Y-116478066D01*
X104174008Y-116478068D01*
X104294412Y-116517189D01*
X104398631Y-116551053D01*
X104631903Y-116588000D01*
X104631908Y-116588000D01*
X104868097Y-116588000D01*
X105101368Y-116551053D01*
X105325992Y-116478068D01*
X105536433Y-116370843D01*
X105727510Y-116232017D01*
X105894517Y-116065010D01*
X106033343Y-115873933D01*
X106140568Y-115663492D01*
X106213553Y-115438868D01*
X106231431Y-115325992D01*
X106250500Y-115205597D01*
X106250500Y-114969402D01*
X109749500Y-114969402D01*
X109749500Y-115205597D01*
X109786446Y-115438868D01*
X109859433Y-115663496D01*
X109966657Y-115873933D01*
X110105483Y-116065010D01*
X110272490Y-116232017D01*
X110463567Y-116370843D01*
X110562991Y-116421502D01*
X110674003Y-116478066D01*
X110674005Y-116478066D01*
X110674008Y-116478068D01*
X110794412Y-116517189D01*
X110898631Y-116551053D01*
X111131903Y-116588000D01*
X111131908Y-116588000D01*
X111368097Y-116588000D01*
X111601368Y-116551053D01*
X111825992Y-116478068D01*
X112036433Y-116370843D01*
X112227510Y-116232017D01*
X112394517Y-116065010D01*
X112533343Y-115873933D01*
X112640568Y-115663492D01*
X112713553Y-115438868D01*
X112731431Y-115325992D01*
X112750500Y-115205597D01*
X112750500Y-114969402D01*
X112713553Y-114736131D01*
X112690556Y-114665355D01*
X112679688Y-114631908D01*
X112679686Y-114631902D01*
X128249500Y-114631902D01*
X128249500Y-114868097D01*
X128286446Y-115101368D01*
X128359433Y-115325996D01*
X128416945Y-115438868D01*
X128466657Y-115536433D01*
X128605483Y-115727510D01*
X128772490Y-115894517D01*
X128963567Y-116033343D01*
X129025717Y-116065010D01*
X129174003Y-116140566D01*
X129174005Y-116140566D01*
X129174008Y-116140568D01*
X129294412Y-116179689D01*
X129398631Y-116213553D01*
X129631903Y-116250500D01*
X129631908Y-116250500D01*
X129868097Y-116250500D01*
X130101368Y-116213553D01*
X130325992Y-116140568D01*
X130536433Y-116033343D01*
X130727510Y-115894517D01*
X130894517Y-115727510D01*
X131033343Y-115536433D01*
X131140568Y-115325992D01*
X131213553Y-115101368D01*
X131250500Y-114868097D01*
X131250500Y-114631902D01*
X134749500Y-114631902D01*
X134749500Y-114868097D01*
X134786446Y-115101368D01*
X134859433Y-115325996D01*
X134916945Y-115438868D01*
X134966657Y-115536433D01*
X135105483Y-115727510D01*
X135272490Y-115894517D01*
X135463567Y-116033343D01*
X135525717Y-116065010D01*
X135674003Y-116140566D01*
X135674005Y-116140566D01*
X135674008Y-116140568D01*
X135794412Y-116179689D01*
X135898631Y-116213553D01*
X136131903Y-116250500D01*
X136131908Y-116250500D01*
X136368097Y-116250500D01*
X136601368Y-116213553D01*
X136825992Y-116140568D01*
X137036433Y-116033343D01*
X137227510Y-115894517D01*
X137394517Y-115727510D01*
X137533343Y-115536433D01*
X137640568Y-115325992D01*
X137713553Y-115101368D01*
X137750500Y-114868097D01*
X137750500Y-114631902D01*
X138249500Y-114631902D01*
X138249500Y-114868097D01*
X138286446Y-115101368D01*
X138359433Y-115325996D01*
X138416945Y-115438868D01*
X138466657Y-115536433D01*
X138605483Y-115727510D01*
X138772490Y-115894517D01*
X138963567Y-116033343D01*
X139025717Y-116065010D01*
X139174003Y-116140566D01*
X139174005Y-116140566D01*
X139174008Y-116140568D01*
X139294412Y-116179689D01*
X139398631Y-116213553D01*
X139631903Y-116250500D01*
X139631908Y-116250500D01*
X139868097Y-116250500D01*
X140101368Y-116213553D01*
X140325992Y-116140568D01*
X140536433Y-116033343D01*
X140727510Y-115894517D01*
X140894517Y-115727510D01*
X141033343Y-115536433D01*
X141140568Y-115325992D01*
X141213553Y-115101368D01*
X141250500Y-114868097D01*
X141250500Y-114631902D01*
X144749500Y-114631902D01*
X144749500Y-114868097D01*
X144786446Y-115101368D01*
X144859433Y-115325996D01*
X144916945Y-115438868D01*
X144966657Y-115536433D01*
X145105483Y-115727510D01*
X145272490Y-115894517D01*
X145463567Y-116033343D01*
X145525717Y-116065010D01*
X145674003Y-116140566D01*
X145674005Y-116140566D01*
X145674008Y-116140568D01*
X145794412Y-116179689D01*
X145898631Y-116213553D01*
X146131903Y-116250500D01*
X146131908Y-116250500D01*
X146368097Y-116250500D01*
X146601368Y-116213553D01*
X146825992Y-116140568D01*
X147036433Y-116033343D01*
X147227510Y-115894517D01*
X147394517Y-115727510D01*
X147533343Y-115536433D01*
X147640568Y-115325992D01*
X147713553Y-115101368D01*
X147750500Y-114868097D01*
X147750500Y-114631902D01*
X147713553Y-114398631D01*
X147671672Y-114269735D01*
X147640568Y-114174008D01*
X147640566Y-114174005D01*
X147640566Y-114174003D01*
X147584002Y-114062991D01*
X147533343Y-113963567D01*
X147394517Y-113772490D01*
X147227510Y-113605483D01*
X147036433Y-113466657D01*
X146825996Y-113359433D01*
X146601368Y-113286446D01*
X146368097Y-113249500D01*
X146368092Y-113249500D01*
X146131908Y-113249500D01*
X146131903Y-113249500D01*
X145898631Y-113286446D01*
X145674003Y-113359433D01*
X145463566Y-113466657D01*
X145396500Y-113515384D01*
X145272490Y-113605483D01*
X145272488Y-113605485D01*
X145272487Y-113605485D01*
X145105485Y-113772487D01*
X145105485Y-113772488D01*
X145105483Y-113772490D01*
X145082476Y-113804157D01*
X144966657Y-113963566D01*
X144859433Y-114174003D01*
X144786446Y-114398631D01*
X144749500Y-114631902D01*
X141250500Y-114631902D01*
X141213553Y-114398631D01*
X141171672Y-114269735D01*
X141140568Y-114174008D01*
X141140566Y-114174005D01*
X141140566Y-114174003D01*
X141084002Y-114062991D01*
X141033343Y-113963567D01*
X140894517Y-113772490D01*
X140727510Y-113605483D01*
X140536433Y-113466657D01*
X140325996Y-113359433D01*
X140101368Y-113286446D01*
X139868097Y-113249500D01*
X139868092Y-113249500D01*
X139631908Y-113249500D01*
X139631903Y-113249500D01*
X139398631Y-113286446D01*
X139174003Y-113359433D01*
X138963566Y-113466657D01*
X138896500Y-113515384D01*
X138772490Y-113605483D01*
X138772488Y-113605485D01*
X138772487Y-113605485D01*
X138605485Y-113772487D01*
X138605485Y-113772488D01*
X138605483Y-113772490D01*
X138582476Y-113804157D01*
X138466657Y-113963566D01*
X138359433Y-114174003D01*
X138286446Y-114398631D01*
X138249500Y-114631902D01*
X137750500Y-114631902D01*
X137713553Y-114398631D01*
X137671672Y-114269735D01*
X137640568Y-114174008D01*
X137640566Y-114174005D01*
X137640566Y-114174003D01*
X137584002Y-114062991D01*
X137533343Y-113963567D01*
X137394517Y-113772490D01*
X137227510Y-113605483D01*
X137036433Y-113466657D01*
X136825996Y-113359433D01*
X136601368Y-113286446D01*
X136368097Y-113249500D01*
X136368092Y-113249500D01*
X136131908Y-113249500D01*
X136131903Y-113249500D01*
X135898631Y-113286446D01*
X135674003Y-113359433D01*
X135463566Y-113466657D01*
X135396500Y-113515384D01*
X135272490Y-113605483D01*
X135272488Y-113605485D01*
X135272487Y-113605485D01*
X135105485Y-113772487D01*
X135105485Y-113772488D01*
X135105483Y-113772490D01*
X135082476Y-113804157D01*
X134966657Y-113963566D01*
X134859433Y-114174003D01*
X134786446Y-114398631D01*
X134749500Y-114631902D01*
X131250500Y-114631902D01*
X131213553Y-114398631D01*
X131171672Y-114269735D01*
X131140568Y-114174008D01*
X131140566Y-114174005D01*
X131140566Y-114174003D01*
X131084002Y-114062991D01*
X131033343Y-113963567D01*
X130894517Y-113772490D01*
X130727510Y-113605483D01*
X130536433Y-113466657D01*
X130447127Y-113421153D01*
X132199500Y-113421153D01*
X132199500Y-113578846D01*
X132230261Y-113733489D01*
X132230264Y-113733501D01*
X132290602Y-113879172D01*
X132290609Y-113879185D01*
X132378210Y-114010288D01*
X132378213Y-114010292D01*
X132489707Y-114121786D01*
X132489711Y-114121789D01*
X132620814Y-114209390D01*
X132620827Y-114209397D01*
X132766498Y-114269735D01*
X132766503Y-114269737D01*
X132921153Y-114300499D01*
X132921156Y-114300500D01*
X132921158Y-114300500D01*
X133078844Y-114300500D01*
X133078845Y-114300499D01*
X133233497Y-114269737D01*
X133379179Y-114209394D01*
X133510289Y-114121789D01*
X133621789Y-114010289D01*
X133709394Y-113879179D01*
X133709395Y-113879176D01*
X133709397Y-113879173D01*
X133753586Y-113772490D01*
X133769192Y-113734810D01*
X133796069Y-113694586D01*
X137253838Y-110236819D01*
X137315161Y-110203334D01*
X137341519Y-110200500D01*
X141074684Y-110200500D01*
X141122136Y-110209939D01*
X141266498Y-110269735D01*
X141266503Y-110269737D01*
X141421153Y-110300499D01*
X141421156Y-110300500D01*
X141421158Y-110300500D01*
X141578844Y-110300500D01*
X141578845Y-110300499D01*
X141733497Y-110269737D01*
X141879179Y-110209394D01*
X142010289Y-110121789D01*
X142121789Y-110010289D01*
X142209394Y-109879179D01*
X142269737Y-109733497D01*
X142300500Y-109578842D01*
X142300500Y-109421158D01*
X142300500Y-109421155D01*
X142300499Y-109421153D01*
X142290487Y-109370821D01*
X142269737Y-109266503D01*
X142246080Y-109209390D01*
X142209397Y-109120827D01*
X142209390Y-109120814D01*
X142121789Y-108989711D01*
X142121786Y-108989707D01*
X142010292Y-108878213D01*
X142010288Y-108878210D01*
X141879185Y-108790609D01*
X141879172Y-108790602D01*
X141733501Y-108730264D01*
X141733489Y-108730261D01*
X141578845Y-108699500D01*
X141578842Y-108699500D01*
X141421158Y-108699500D01*
X141421155Y-108699500D01*
X141266510Y-108730261D01*
X141266498Y-108730264D01*
X141122136Y-108790061D01*
X141074684Y-108799500D01*
X136931003Y-108799500D01*
X136822590Y-108821065D01*
X136822589Y-108821065D01*
X136795671Y-108826420D01*
X136668190Y-108879224D01*
X136553454Y-108955887D01*
X132805412Y-112703929D01*
X132765184Y-112730809D01*
X132620823Y-112790604D01*
X132620814Y-112790609D01*
X132489711Y-112878210D01*
X132489707Y-112878213D01*
X132378213Y-112989707D01*
X132378210Y-112989711D01*
X132290609Y-113120814D01*
X132290602Y-113120827D01*
X132230264Y-113266498D01*
X132230261Y-113266510D01*
X132199500Y-113421153D01*
X130447127Y-113421153D01*
X130325996Y-113359433D01*
X130101368Y-113286446D01*
X129868097Y-113249500D01*
X129868092Y-113249500D01*
X129631908Y-113249500D01*
X129631903Y-113249500D01*
X129398631Y-113286446D01*
X129174003Y-113359433D01*
X128963566Y-113466657D01*
X128896500Y-113515384D01*
X128772490Y-113605483D01*
X128772488Y-113605485D01*
X128772487Y-113605485D01*
X128605485Y-113772487D01*
X128605485Y-113772488D01*
X128605483Y-113772490D01*
X128582476Y-113804157D01*
X128466657Y-113963566D01*
X128359433Y-114174003D01*
X128286446Y-114398631D01*
X128249500Y-114631902D01*
X112679686Y-114631902D01*
X112640568Y-114511508D01*
X112640566Y-114511505D01*
X112640566Y-114511503D01*
X112533342Y-114301066D01*
X112510580Y-114269737D01*
X112394517Y-114109990D01*
X112227510Y-113942983D01*
X112036433Y-113804157D01*
X111825996Y-113696933D01*
X111601368Y-113623946D01*
X111368097Y-113587000D01*
X111368092Y-113587000D01*
X111131908Y-113587000D01*
X111131903Y-113587000D01*
X110898631Y-113623946D01*
X110674003Y-113696933D01*
X110463566Y-113804157D01*
X110360318Y-113879172D01*
X110272490Y-113942983D01*
X110272488Y-113942985D01*
X110272487Y-113942985D01*
X110105485Y-114109987D01*
X110105485Y-114109988D01*
X110105483Y-114109990D01*
X110058975Y-114174003D01*
X109966657Y-114301066D01*
X109859433Y-114511503D01*
X109786446Y-114736131D01*
X109749500Y-114969402D01*
X106250500Y-114969402D01*
X106213553Y-114736131D01*
X106140566Y-114511503D01*
X106033342Y-114301066D01*
X106010580Y-114269737D01*
X105894517Y-114109990D01*
X105727510Y-113942983D01*
X105536433Y-113804157D01*
X105325996Y-113696933D01*
X105101368Y-113623946D01*
X104868097Y-113587000D01*
X104868092Y-113587000D01*
X104631908Y-113587000D01*
X104631903Y-113587000D01*
X104398631Y-113623946D01*
X104174003Y-113696933D01*
X103963566Y-113804157D01*
X103860318Y-113879172D01*
X103772490Y-113942983D01*
X103772488Y-113942985D01*
X103772487Y-113942985D01*
X103605485Y-114109987D01*
X103605485Y-114109988D01*
X103605483Y-114109990D01*
X103558975Y-114174003D01*
X103466657Y-114301066D01*
X103359433Y-114511503D01*
X103286446Y-114736131D01*
X103249500Y-114969402D01*
X102750500Y-114969402D01*
X102713553Y-114736131D01*
X102640566Y-114511503D01*
X102533342Y-114301066D01*
X102510580Y-114269737D01*
X102394517Y-114109990D01*
X102227510Y-113942983D01*
X102036433Y-113804157D01*
X101825996Y-113696933D01*
X101601368Y-113623946D01*
X101368097Y-113587000D01*
X101368092Y-113587000D01*
X101131908Y-113587000D01*
X101131903Y-113587000D01*
X100898631Y-113623946D01*
X100674003Y-113696933D01*
X100463566Y-113804157D01*
X100360318Y-113879172D01*
X100272490Y-113942983D01*
X100272488Y-113942985D01*
X100272487Y-113942985D01*
X100105485Y-114109987D01*
X100105485Y-114109988D01*
X100105483Y-114109990D01*
X100058975Y-114174003D01*
X99966657Y-114301066D01*
X99859433Y-114511503D01*
X99786446Y-114736131D01*
X99749500Y-114969402D01*
X96250500Y-114969402D01*
X96213553Y-114736131D01*
X96140566Y-114511503D01*
X96033342Y-114301066D01*
X96010580Y-114269737D01*
X95894517Y-114109990D01*
X95727510Y-113942983D01*
X95536433Y-113804157D01*
X95325996Y-113696933D01*
X95101368Y-113623946D01*
X94868097Y-113587000D01*
X94868092Y-113587000D01*
X94631908Y-113587000D01*
X94631903Y-113587000D01*
X94398631Y-113623946D01*
X94174003Y-113696933D01*
X93963566Y-113804157D01*
X93860318Y-113879172D01*
X93772490Y-113942983D01*
X93772488Y-113942985D01*
X93772487Y-113942985D01*
X93605485Y-114109987D01*
X93605485Y-114109988D01*
X93605483Y-114109990D01*
X93558975Y-114174003D01*
X93466657Y-114301066D01*
X93359433Y-114511503D01*
X93286446Y-114736131D01*
X93249500Y-114969402D01*
X92500500Y-114969402D01*
X92500500Y-97774038D01*
X94249500Y-97774038D01*
X94249500Y-98025962D01*
X94287597Y-98266498D01*
X94288910Y-98274785D01*
X94366760Y-98514383D01*
X94445413Y-98668747D01*
X94478407Y-98733501D01*
X94481132Y-98738848D01*
X94629201Y-98942649D01*
X94629205Y-98942654D01*
X94807349Y-99120798D01*
X94894752Y-99184299D01*
X94937418Y-99239628D01*
X94943397Y-99309242D01*
X94932352Y-99340911D01*
X94841118Y-99519967D01*
X94780290Y-99707173D01*
X94749500Y-99901577D01*
X94749500Y-100098422D01*
X94780290Y-100292826D01*
X94841117Y-100480029D01*
X94891465Y-100578842D01*
X94930476Y-100655405D01*
X95046172Y-100814646D01*
X95046174Y-100814648D01*
X95143845Y-100912319D01*
X95177330Y-100973642D01*
X95172346Y-101043334D01*
X95143845Y-101087681D01*
X95046174Y-101185351D01*
X95046174Y-101185352D01*
X95046172Y-101185354D01*
X95028709Y-101209390D01*
X94930476Y-101344594D01*
X94841117Y-101519970D01*
X94780290Y-101707173D01*
X94749500Y-101901577D01*
X94749500Y-102098422D01*
X94780290Y-102292826D01*
X94841117Y-102480029D01*
X94930476Y-102655406D01*
X94957076Y-102692016D01*
X94980557Y-102757822D01*
X94964732Y-102825876D01*
X94931071Y-102864169D01*
X94892809Y-102892812D01*
X94806649Y-103007906D01*
X94806645Y-103007913D01*
X94756403Y-103142620D01*
X94756401Y-103142627D01*
X94750000Y-103202155D01*
X94750000Y-103750000D01*
X96184314Y-103750000D01*
X96179920Y-103754394D01*
X96127259Y-103845606D01*
X96100000Y-103947339D01*
X96100000Y-104052661D01*
X96127259Y-104154394D01*
X96179920Y-104245606D01*
X96184314Y-104250000D01*
X94750000Y-104250000D01*
X94750000Y-104797844D01*
X94757124Y-104864096D01*
X94744719Y-104932856D01*
X94721517Y-104965032D01*
X94629205Y-105057345D01*
X94629201Y-105057350D01*
X94481132Y-105261151D01*
X94366760Y-105485616D01*
X94288910Y-105725214D01*
X94264525Y-105879172D01*
X94249500Y-105974038D01*
X94249500Y-106225962D01*
X94259260Y-106287583D01*
X94288910Y-106474785D01*
X94366760Y-106714383D01*
X94481132Y-106938848D01*
X94629201Y-107142649D01*
X94629205Y-107142654D01*
X94807345Y-107320794D01*
X94807350Y-107320798D01*
X94958343Y-107430500D01*
X95011155Y-107468870D01*
X95110483Y-107519480D01*
X95235616Y-107583239D01*
X95235618Y-107583239D01*
X95235621Y-107583241D01*
X95475215Y-107661090D01*
X95724038Y-107700500D01*
X95724039Y-107700500D01*
X97275961Y-107700500D01*
X97275962Y-107700500D01*
X97524785Y-107661090D01*
X97764379Y-107583241D01*
X97988845Y-107468870D01*
X98192656Y-107320793D01*
X98370793Y-107142656D01*
X98518870Y-106938845D01*
X98633241Y-106714379D01*
X98711090Y-106474785D01*
X98750500Y-106225962D01*
X98750500Y-105974038D01*
X98711090Y-105725215D01*
X98633241Y-105485621D01*
X98633239Y-105485618D01*
X98633239Y-105485616D01*
X98579142Y-105379446D01*
X98518870Y-105261155D01*
X98398457Y-105095420D01*
X98370798Y-105057350D01*
X98370794Y-105057345D01*
X98278483Y-104965034D01*
X98244998Y-104903711D01*
X98242875Y-104864096D01*
X98249999Y-104797841D01*
X98250000Y-104797827D01*
X98250000Y-104250000D01*
X96815686Y-104250000D01*
X96820080Y-104245606D01*
X96872741Y-104154394D01*
X96900000Y-104052661D01*
X96900000Y-103947339D01*
X96872741Y-103845606D01*
X96820080Y-103754394D01*
X96815686Y-103750000D01*
X98250000Y-103750000D01*
X98250000Y-103202172D01*
X98249999Y-103202155D01*
X98243598Y-103142627D01*
X98243596Y-103142620D01*
X98193354Y-103007913D01*
X98193350Y-103007906D01*
X98149860Y-102949811D01*
X98125442Y-102884347D01*
X98140293Y-102816074D01*
X98189698Y-102766668D01*
X98249126Y-102751500D01*
X100386771Y-102751500D01*
X100453810Y-102771185D01*
X100499565Y-102823989D01*
X100509509Y-102893147D01*
X100497256Y-102931795D01*
X100451404Y-103021782D01*
X100385742Y-103223870D01*
X100385742Y-103223873D01*
X100375269Y-103290000D01*
X101269488Y-103290000D01*
X101236575Y-103347007D01*
X101202500Y-103474174D01*
X101202500Y-103605826D01*
X101236575Y-103732993D01*
X101269488Y-103790000D01*
X100375269Y-103790000D01*
X100385742Y-103856126D01*
X100385742Y-103856129D01*
X100451404Y-104058217D01*
X100547879Y-104247557D01*
X100672772Y-104419459D01*
X100672776Y-104419464D01*
X100823035Y-104569723D01*
X100823040Y-104569727D01*
X100994944Y-104694622D01*
X101003995Y-104699234D01*
X101054792Y-104747208D01*
X101071587Y-104815029D01*
X101049050Y-104881164D01*
X101003999Y-104920202D01*
X100994682Y-104924949D01*
X100822713Y-105049890D01*
X100672390Y-105200213D01*
X100547451Y-105372179D01*
X100450944Y-105561585D01*
X100385253Y-105763760D01*
X100355556Y-105951264D01*
X100352000Y-105973713D01*
X100352000Y-106186287D01*
X100358284Y-106225961D01*
X100385253Y-106396239D01*
X100385253Y-106396241D01*
X100385254Y-106396243D01*
X100448703Y-106591519D01*
X100450944Y-106598414D01*
X100547451Y-106787820D01*
X100672390Y-106959786D01*
X100822713Y-107110109D01*
X100994679Y-107235048D01*
X100994681Y-107235049D01*
X100994684Y-107235051D01*
X101184088Y-107331557D01*
X101386257Y-107397246D01*
X101596213Y-107430500D01*
X101596214Y-107430500D01*
X101808786Y-107430500D01*
X101808787Y-107430500D01*
X102018743Y-107397246D01*
X102061023Y-107383507D01*
X102130862Y-107381511D01*
X102187021Y-107413756D01*
X105003784Y-110230520D01*
X105003786Y-110230521D01*
X105003790Y-110230524D01*
X105071710Y-110269737D01*
X105140716Y-110309577D01*
X105293443Y-110350501D01*
X105293445Y-110350501D01*
X105459154Y-110350501D01*
X105459170Y-110350500D01*
X107670234Y-110350500D01*
X107737273Y-110370185D01*
X107739125Y-110371398D01*
X107870814Y-110459390D01*
X107870827Y-110459397D01*
X108016498Y-110519735D01*
X108016503Y-110519737D01*
X108171153Y-110550499D01*
X108171156Y-110550500D01*
X108171158Y-110550500D01*
X108328844Y-110550500D01*
X108328845Y-110550499D01*
X108483497Y-110519737D01*
X108629179Y-110459394D01*
X108760289Y-110371789D01*
X108871789Y-110260289D01*
X108959394Y-110129179D01*
X109019737Y-109983497D01*
X109050500Y-109828842D01*
X109050500Y-109671158D01*
X109050500Y-109671155D01*
X109050499Y-109671153D01*
X109032137Y-109578842D01*
X109019737Y-109516503D01*
X108959939Y-109372136D01*
X108950500Y-109324684D01*
X108950500Y-106591519D01*
X108970185Y-106524480D01*
X108986819Y-106503838D01*
X111753838Y-103736819D01*
X111815161Y-103703334D01*
X111841519Y-103700500D01*
X113040770Y-103700500D01*
X113107809Y-103720185D01*
X113151253Y-103768204D01*
X113173894Y-103812639D01*
X113173898Y-103812645D01*
X113173901Y-103812649D01*
X113317339Y-104010076D01*
X113317343Y-104010081D01*
X113489918Y-104182656D01*
X113489923Y-104182660D01*
X113640879Y-104292335D01*
X113687361Y-104326106D01*
X113904815Y-104436904D01*
X114136924Y-104512321D01*
X114377973Y-104550500D01*
X114377974Y-104550500D01*
X114622026Y-104550500D01*
X114622027Y-104550500D01*
X114863076Y-104512321D01*
X115095185Y-104436904D01*
X115312639Y-104326106D01*
X115510083Y-104182655D01*
X115682655Y-104010083D01*
X115826106Y-103812639D01*
X115936904Y-103595185D01*
X116012321Y-103363076D01*
X116050500Y-103122027D01*
X116050500Y-102877973D01*
X116012321Y-102636924D01*
X115936904Y-102404815D01*
X115826106Y-102187361D01*
X115761485Y-102098417D01*
X115682660Y-101989923D01*
X115682656Y-101989918D01*
X115510081Y-101817343D01*
X115510076Y-101817339D01*
X115312642Y-101673896D01*
X115312641Y-101673895D01*
X115312639Y-101673894D01*
X115095185Y-101563096D01*
X114944641Y-101514181D01*
X114863074Y-101487678D01*
X114822975Y-101481327D01*
X114759841Y-101451396D01*
X114722911Y-101392084D01*
X114723909Y-101322222D01*
X114762520Y-101263990D01*
X114794917Y-101244296D01*
X114879179Y-101209394D01*
X114887539Y-101203808D01*
X115010875Y-101121398D01*
X115077553Y-101100520D01*
X115079766Y-101100500D01*
X115699903Y-101100500D01*
X115766942Y-101120185D01*
X115787584Y-101136819D01*
X116347881Y-101697116D01*
X116381366Y-101758439D01*
X116384200Y-101784797D01*
X116384200Y-102898030D01*
X116384199Y-102898048D01*
X116384199Y-103063754D01*
X116384198Y-103063754D01*
X116390979Y-103089060D01*
X116425123Y-103216485D01*
X116425124Y-103216487D01*
X116425123Y-103216487D01*
X116433078Y-103230264D01*
X116433079Y-103230265D01*
X116504177Y-103353412D01*
X116504181Y-103353417D01*
X116623049Y-103472285D01*
X116623055Y-103472290D01*
X116665425Y-103514660D01*
X116698910Y-103575983D01*
X116699361Y-103578149D01*
X116730261Y-103733491D01*
X116730264Y-103733501D01*
X116790602Y-103879172D01*
X116790609Y-103879185D01*
X116878210Y-104010288D01*
X116878213Y-104010292D01*
X116989707Y-104121786D01*
X116989711Y-104121789D01*
X117120814Y-104209390D01*
X117120827Y-104209397D01*
X117208245Y-104245606D01*
X117266503Y-104269737D01*
X117421153Y-104300499D01*
X117421156Y-104300500D01*
X117421158Y-104300500D01*
X117578844Y-104300500D01*
X117578845Y-104300499D01*
X117733497Y-104269737D01*
X117879179Y-104209394D01*
X118010289Y-104121789D01*
X118121789Y-104010289D01*
X118153274Y-103963167D01*
X118206884Y-103918363D01*
X118276209Y-103909654D01*
X118325267Y-103928956D01*
X118370821Y-103959394D01*
X118370823Y-103959395D01*
X118370827Y-103959397D01*
X118508693Y-104016502D01*
X118516503Y-104019737D01*
X118671153Y-104050499D01*
X118671156Y-104050500D01*
X118671158Y-104050500D01*
X118828844Y-104050500D01*
X118828845Y-104050499D01*
X118983497Y-104019737D01*
X119129179Y-103959394D01*
X119260289Y-103871789D01*
X119297331Y-103834747D01*
X119358653Y-103801261D01*
X119428345Y-103806245D01*
X119484279Y-103848115D01*
X119508697Y-103913579D01*
X119499575Y-103969878D01*
X119480263Y-104016502D01*
X119480261Y-104016510D01*
X119449500Y-104171153D01*
X119449500Y-104328846D01*
X119480261Y-104483489D01*
X119480264Y-104483501D01*
X119540602Y-104629172D01*
X119540609Y-104629185D01*
X119628602Y-104760874D01*
X119649480Y-104827551D01*
X119649500Y-104829765D01*
X119649500Y-107163330D01*
X119649499Y-107163348D01*
X119649499Y-107329054D01*
X119649498Y-107329054D01*
X119690424Y-107481789D01*
X119690425Y-107481790D01*
X119712186Y-107519480D01*
X119712187Y-107519482D01*
X119769475Y-107618709D01*
X119769481Y-107618717D01*
X119888349Y-107737585D01*
X119888355Y-107737590D01*
X123015139Y-110864374D01*
X123015149Y-110864385D01*
X123019479Y-110868715D01*
X123019480Y-110868716D01*
X123131284Y-110980520D01*
X123218095Y-111030639D01*
X123218097Y-111030641D01*
X123256151Y-111052611D01*
X123268215Y-111059577D01*
X123420943Y-111100500D01*
X123579057Y-111100500D01*
X127913331Y-111100500D01*
X127913347Y-111100501D01*
X127920943Y-111100501D01*
X128079054Y-111100501D01*
X128079057Y-111100501D01*
X128231785Y-111059577D01*
X128281904Y-111030639D01*
X128368716Y-110980520D01*
X128480520Y-110868716D01*
X128480520Y-110868714D01*
X128490728Y-110858507D01*
X128490729Y-110858504D01*
X130014662Y-109334572D01*
X130075983Y-109301089D01*
X130078150Y-109300638D01*
X130136085Y-109289113D01*
X130233497Y-109269737D01*
X130379179Y-109209394D01*
X130510289Y-109121789D01*
X130621789Y-109010289D01*
X130709394Y-108879179D01*
X130769737Y-108733497D01*
X130800500Y-108578842D01*
X130800500Y-108421158D01*
X130800500Y-108421155D01*
X130800499Y-108421153D01*
X130769738Y-108266510D01*
X130769737Y-108266503D01*
X130769735Y-108266498D01*
X130709397Y-108120827D01*
X130709390Y-108120814D01*
X130621789Y-107989711D01*
X130621786Y-107989707D01*
X130510292Y-107878213D01*
X130510288Y-107878210D01*
X130379185Y-107790609D01*
X130379172Y-107790602D01*
X130323969Y-107767737D01*
X130269565Y-107723896D01*
X130247500Y-107657602D01*
X130264779Y-107589903D01*
X130283740Y-107565495D01*
X130581500Y-107267735D01*
X131014664Y-106834571D01*
X131075985Y-106801088D01*
X131078152Y-106800637D01*
X131078841Y-106800500D01*
X131078842Y-106800500D01*
X131233497Y-106769737D01*
X131346166Y-106723067D01*
X131379172Y-106709397D01*
X131379172Y-106709396D01*
X131379179Y-106709394D01*
X131510289Y-106621789D01*
X131621789Y-106510289D01*
X131709394Y-106379179D01*
X131769737Y-106233497D01*
X131800500Y-106078842D01*
X131800500Y-105921158D01*
X131800500Y-105921155D01*
X131800499Y-105921153D01*
X131792148Y-105879172D01*
X131769737Y-105766503D01*
X131752635Y-105725214D01*
X131709397Y-105620827D01*
X131709390Y-105620814D01*
X131621789Y-105489711D01*
X131621786Y-105489707D01*
X131510292Y-105378213D01*
X131510288Y-105378210D01*
X131379185Y-105290609D01*
X131379172Y-105290602D01*
X131233501Y-105230264D01*
X131233489Y-105230261D01*
X131078845Y-105199500D01*
X131078842Y-105199500D01*
X130921158Y-105199500D01*
X130921155Y-105199500D01*
X130766510Y-105230261D01*
X130766498Y-105230264D01*
X130620827Y-105290602D01*
X130620814Y-105290609D01*
X130489711Y-105378210D01*
X130489708Y-105378212D01*
X130488798Y-105379123D01*
X130488204Y-105379446D01*
X130485001Y-105382076D01*
X130484502Y-105381468D01*
X130427471Y-105412602D01*
X130357780Y-105407611D01*
X130301851Y-105365734D01*
X130279508Y-105315624D01*
X130269738Y-105266509D01*
X130269737Y-105266503D01*
X130264188Y-105253107D01*
X130209397Y-105120827D01*
X130209390Y-105120814D01*
X130121789Y-104989711D01*
X130121786Y-104989707D01*
X130010292Y-104878213D01*
X130010288Y-104878210D01*
X129879185Y-104790609D01*
X129879172Y-104790602D01*
X129733501Y-104730264D01*
X129733489Y-104730261D01*
X129578845Y-104699500D01*
X129578842Y-104699500D01*
X129421158Y-104699500D01*
X129421155Y-104699500D01*
X129266510Y-104730261D01*
X129266498Y-104730264D01*
X129120827Y-104790602D01*
X129120814Y-104790609D01*
X128989711Y-104878210D01*
X128989707Y-104878213D01*
X128878213Y-104989707D01*
X128878210Y-104989711D01*
X128790609Y-105120814D01*
X128790602Y-105120827D01*
X128730264Y-105266498D01*
X128730261Y-105266510D01*
X128699500Y-105421153D01*
X128699500Y-105578846D01*
X128730261Y-105733489D01*
X128730264Y-105733501D01*
X128790602Y-105879172D01*
X128790609Y-105879185D01*
X128878602Y-106010874D01*
X128884252Y-106028920D01*
X128894477Y-106044830D01*
X128898928Y-106075789D01*
X128899480Y-106077551D01*
X128899500Y-106079765D01*
X128899500Y-106199902D01*
X128879815Y-106266941D01*
X128863181Y-106287583D01*
X128312181Y-106838583D01*
X128250858Y-106872068D01*
X128181166Y-106867084D01*
X128125233Y-106825212D01*
X128100816Y-106759748D01*
X128100500Y-106750902D01*
X128100500Y-106589060D01*
X128100501Y-106589047D01*
X128100501Y-106420944D01*
X128096332Y-106405385D01*
X128059577Y-106268216D01*
X128058841Y-106266941D01*
X127980524Y-106131290D01*
X127980518Y-106131282D01*
X127834573Y-105985337D01*
X127801088Y-105924014D01*
X127800637Y-105921847D01*
X127792148Y-105879172D01*
X127769737Y-105766503D01*
X127752635Y-105725214D01*
X127709397Y-105620827D01*
X127709390Y-105620814D01*
X127621789Y-105489711D01*
X127621786Y-105489707D01*
X127506769Y-105374690D01*
X127473284Y-105313367D01*
X127472834Y-105262814D01*
X127474765Y-105253107D01*
X127474765Y-105095423D01*
X127474765Y-105095420D01*
X127474764Y-105095418D01*
X127467191Y-105057345D01*
X127444002Y-104940768D01*
X127393829Y-104819640D01*
X127386361Y-104750174D01*
X127417636Y-104687694D01*
X127439495Y-104669092D01*
X127510289Y-104621789D01*
X127621789Y-104510289D01*
X127709394Y-104379179D01*
X127769737Y-104233497D01*
X127800500Y-104078842D01*
X127800500Y-103921158D01*
X127800500Y-103921155D01*
X127800499Y-103921153D01*
X127785750Y-103847007D01*
X127769737Y-103766503D01*
X127725192Y-103658962D01*
X127717724Y-103589496D01*
X127748999Y-103527016D01*
X127809088Y-103491364D01*
X127878913Y-103493858D01*
X127887199Y-103496947D01*
X127887441Y-103497048D01*
X128038099Y-103527016D01*
X128042091Y-103527810D01*
X128042094Y-103527811D01*
X128042096Y-103527811D01*
X128199782Y-103527811D01*
X128199783Y-103527810D01*
X128354435Y-103497048D01*
X128500117Y-103436705D01*
X128631227Y-103349100D01*
X128742727Y-103237600D01*
X128830332Y-103106490D01*
X128890675Y-102960808D01*
X128921438Y-102806153D01*
X128921438Y-102648469D01*
X128913677Y-102609453D01*
X128919903Y-102539865D01*
X128948906Y-102496308D01*
X128959954Y-102485578D01*
X128968716Y-102480520D01*
X129080520Y-102368716D01*
X129080521Y-102368714D01*
X129114662Y-102334572D01*
X129175983Y-102301089D01*
X129178150Y-102300638D01*
X129237651Y-102288802D01*
X129333497Y-102269737D01*
X129479179Y-102209394D01*
X129610289Y-102121789D01*
X129721789Y-102010289D01*
X129794055Y-101902135D01*
X132949500Y-101902135D01*
X132949500Y-104097870D01*
X132949501Y-104097876D01*
X132955908Y-104157483D01*
X133006202Y-104292328D01*
X133006206Y-104292335D01*
X133092452Y-104407544D01*
X133092455Y-104407547D01*
X133207664Y-104493793D01*
X133207671Y-104493797D01*
X133342517Y-104544091D01*
X133342516Y-104544091D01*
X133349444Y-104544835D01*
X133402127Y-104550500D01*
X135597872Y-104550499D01*
X135657483Y-104544091D01*
X135792331Y-104493796D01*
X135907546Y-104407546D01*
X135993796Y-104292331D01*
X136044091Y-104157483D01*
X136050500Y-104097873D01*
X136050499Y-101921153D01*
X145199500Y-101921153D01*
X145199500Y-102078846D01*
X145230261Y-102233489D01*
X145230264Y-102233501D01*
X145290602Y-102379172D01*
X145290609Y-102379185D01*
X145378210Y-102510288D01*
X145378213Y-102510292D01*
X145489707Y-102621786D01*
X145489711Y-102621789D01*
X145620814Y-102709390D01*
X145620827Y-102709397D01*
X145762814Y-102768209D01*
X145766503Y-102769737D01*
X145819526Y-102780284D01*
X145921849Y-102800638D01*
X145983760Y-102833023D01*
X145985339Y-102834574D01*
X146363181Y-103212416D01*
X146396666Y-103273739D01*
X146399500Y-103300097D01*
X146399500Y-103920234D01*
X146379815Y-103987273D01*
X146378602Y-103989125D01*
X146290609Y-104120814D01*
X146290602Y-104120827D01*
X146230264Y-104266498D01*
X146230261Y-104266510D01*
X146199500Y-104421153D01*
X146199500Y-104578846D01*
X146230261Y-104733489D01*
X146230264Y-104733501D01*
X146290602Y-104879172D01*
X146290609Y-104879185D01*
X146378210Y-105010288D01*
X146378213Y-105010292D01*
X146489707Y-105121786D01*
X146489711Y-105121789D01*
X146620814Y-105209390D01*
X146620827Y-105209397D01*
X146758683Y-105266498D01*
X146766503Y-105269737D01*
X146921153Y-105300499D01*
X146921156Y-105300500D01*
X146921158Y-105300500D01*
X147078844Y-105300500D01*
X147078845Y-105300499D01*
X147233497Y-105269737D01*
X147379179Y-105209394D01*
X147510289Y-105121789D01*
X147621789Y-105010289D01*
X147709394Y-104879179D01*
X147769737Y-104733497D01*
X147800500Y-104578842D01*
X147800500Y-104421158D01*
X147800500Y-104421155D01*
X147800499Y-104421153D01*
X147774875Y-104292335D01*
X147769737Y-104266503D01*
X147746080Y-104209390D01*
X147709397Y-104120827D01*
X147709390Y-104120814D01*
X147621398Y-103989125D01*
X147600520Y-103922447D01*
X147600500Y-103920234D01*
X147600500Y-103089060D01*
X147600501Y-103089047D01*
X147600501Y-102920944D01*
X147594361Y-102898030D01*
X147559577Y-102768216D01*
X147549926Y-102751500D01*
X147480524Y-102631290D01*
X147480518Y-102631282D01*
X146834573Y-101985337D01*
X146801088Y-101924014D01*
X146800637Y-101921847D01*
X146779850Y-101817345D01*
X146769737Y-101766503D01*
X146745368Y-101707671D01*
X146709397Y-101620827D01*
X146709390Y-101620814D01*
X146621789Y-101489711D01*
X146621786Y-101489707D01*
X146510292Y-101378213D01*
X146510288Y-101378210D01*
X146379185Y-101290609D01*
X146379172Y-101290602D01*
X146233501Y-101230264D01*
X146233489Y-101230261D01*
X146078845Y-101199500D01*
X146078842Y-101199500D01*
X145921158Y-101199500D01*
X145921155Y-101199500D01*
X145766510Y-101230261D01*
X145766498Y-101230264D01*
X145620827Y-101290602D01*
X145620814Y-101290609D01*
X145489711Y-101378210D01*
X145489707Y-101378213D01*
X145378213Y-101489707D01*
X145378210Y-101489711D01*
X145290609Y-101620814D01*
X145290602Y-101620827D01*
X145230264Y-101766498D01*
X145230261Y-101766510D01*
X145199500Y-101921153D01*
X136050499Y-101921153D01*
X136050499Y-101902128D01*
X136044091Y-101842517D01*
X136034702Y-101817345D01*
X135993797Y-101707671D01*
X135993793Y-101707664D01*
X135907547Y-101592455D01*
X135907544Y-101592452D01*
X135792335Y-101506206D01*
X135792328Y-101506202D01*
X135657482Y-101455908D01*
X135657483Y-101455908D01*
X135597883Y-101449501D01*
X135597881Y-101449500D01*
X135597873Y-101449500D01*
X135597864Y-101449500D01*
X133402129Y-101449500D01*
X133402123Y-101449501D01*
X133342516Y-101455908D01*
X133207671Y-101506202D01*
X133207664Y-101506206D01*
X133092455Y-101592452D01*
X133092452Y-101592455D01*
X133006206Y-101707664D01*
X133006202Y-101707671D01*
X132955908Y-101842517D01*
X132949559Y-101901577D01*
X132949501Y-101902123D01*
X132949500Y-101902135D01*
X129794055Y-101902135D01*
X129809394Y-101879179D01*
X129809397Y-101879172D01*
X129820920Y-101851354D01*
X129856063Y-101766510D01*
X129869737Y-101733497D01*
X129900500Y-101578842D01*
X129900500Y-101421158D01*
X129900500Y-101421155D01*
X129900499Y-101421153D01*
X129887226Y-101354427D01*
X129869737Y-101266503D01*
X129860537Y-101244292D01*
X129815559Y-101135703D01*
X129808090Y-101066234D01*
X129839366Y-101003755D01*
X129844381Y-100998670D01*
X129855177Y-100988336D01*
X129868716Y-100980520D01*
X129980520Y-100868716D01*
X129980521Y-100868714D01*
X130014662Y-100834572D01*
X130075983Y-100801089D01*
X130078150Y-100800638D01*
X130136085Y-100789113D01*
X130233497Y-100769737D01*
X130379179Y-100709394D01*
X130510289Y-100621789D01*
X130621789Y-100510289D01*
X130709394Y-100379179D01*
X130769737Y-100233497D01*
X130800500Y-100078842D01*
X130800500Y-99921158D01*
X130800500Y-99921155D01*
X130800499Y-99921153D01*
X130791449Y-99875658D01*
X130769737Y-99766503D01*
X130764472Y-99753793D01*
X130709397Y-99620827D01*
X130709390Y-99620814D01*
X130621789Y-99489711D01*
X130621786Y-99489707D01*
X130510292Y-99378213D01*
X130510288Y-99378210D01*
X130379185Y-99290609D01*
X130379172Y-99290602D01*
X130233501Y-99230264D01*
X130233489Y-99230261D01*
X130078845Y-99199500D01*
X130078842Y-99199500D01*
X129921158Y-99199500D01*
X129921155Y-99199500D01*
X129766510Y-99230261D01*
X129766498Y-99230264D01*
X129620827Y-99290602D01*
X129620814Y-99290609D01*
X129489711Y-99378210D01*
X129489707Y-99378213D01*
X129378213Y-99489707D01*
X129378210Y-99489711D01*
X129290609Y-99620814D01*
X129290602Y-99620827D01*
X129230264Y-99766498D01*
X129230261Y-99766510D01*
X129223661Y-99799691D01*
X129191276Y-99861602D01*
X129130561Y-99896176D01*
X129102044Y-99899500D01*
X128079766Y-99899500D01*
X128012727Y-99879815D01*
X128010875Y-99878602D01*
X127879185Y-99790609D01*
X127879172Y-99790602D01*
X127733501Y-99730264D01*
X127733489Y-99730261D01*
X127578845Y-99699500D01*
X127578842Y-99699500D01*
X127421158Y-99699500D01*
X127421155Y-99699500D01*
X127266510Y-99730261D01*
X127266498Y-99730264D01*
X127120827Y-99790602D01*
X127120814Y-99790609D01*
X126989711Y-99878210D01*
X126989707Y-99878213D01*
X126878213Y-99989707D01*
X126878210Y-99989711D01*
X126790609Y-100120814D01*
X126790602Y-100120827D01*
X126730264Y-100266498D01*
X126730261Y-100266510D01*
X126699500Y-100421153D01*
X126699500Y-100550903D01*
X126679815Y-100617942D01*
X126627011Y-100663697D01*
X126557853Y-100673641D01*
X126494297Y-100644616D01*
X126487819Y-100638584D01*
X123987590Y-98138355D01*
X123987588Y-98138352D01*
X123868717Y-98019481D01*
X123868716Y-98019480D01*
X123781904Y-97969360D01*
X123781904Y-97969359D01*
X123781900Y-97969358D01*
X123731785Y-97940423D01*
X123579057Y-97899499D01*
X123420943Y-97899499D01*
X123413347Y-97899499D01*
X123413331Y-97899500D01*
X117579766Y-97899500D01*
X117512727Y-97879815D01*
X117510875Y-97878602D01*
X117379185Y-97790609D01*
X117379172Y-97790602D01*
X117233501Y-97730264D01*
X117233489Y-97730261D01*
X117078845Y-97699500D01*
X117078842Y-97699500D01*
X116921158Y-97699500D01*
X116921155Y-97699500D01*
X116766510Y-97730261D01*
X116766498Y-97730264D01*
X116620827Y-97790602D01*
X116620814Y-97790609D01*
X116489711Y-97878210D01*
X116489707Y-97878213D01*
X116378213Y-97989707D01*
X116378210Y-97989711D01*
X116290609Y-98120814D01*
X116290602Y-98120827D01*
X116230264Y-98266498D01*
X116230261Y-98266510D01*
X116199500Y-98421153D01*
X116199500Y-98578846D01*
X116230261Y-98733489D01*
X116230264Y-98733501D01*
X116290602Y-98879172D01*
X116290609Y-98879185D01*
X116378210Y-99010288D01*
X116378213Y-99010292D01*
X116454740Y-99086819D01*
X116488225Y-99148142D01*
X116483241Y-99217834D01*
X116441369Y-99273767D01*
X116375905Y-99298184D01*
X116367059Y-99298500D01*
X113521940Y-99298500D01*
X113481019Y-99309464D01*
X113481019Y-99309465D01*
X113443751Y-99319451D01*
X113369214Y-99339423D01*
X113369209Y-99339426D01*
X113232290Y-99418475D01*
X113232282Y-99418481D01*
X113120480Y-99530283D01*
X113120480Y-99530284D01*
X113120478Y-99530286D01*
X113045343Y-99605421D01*
X112985338Y-99665426D01*
X112924015Y-99698910D01*
X112921849Y-99699361D01*
X112766508Y-99730261D01*
X112766498Y-99730264D01*
X112620827Y-99790602D01*
X112620814Y-99790609D01*
X112489711Y-99878210D01*
X112489707Y-99878213D01*
X112378213Y-99989707D01*
X112378210Y-99989711D01*
X112290609Y-100120814D01*
X112290602Y-100120827D01*
X112230264Y-100266498D01*
X112230261Y-100266510D01*
X112199500Y-100421153D01*
X112199500Y-100578846D01*
X112230261Y-100733489D01*
X112230264Y-100733501D01*
X112290602Y-100879172D01*
X112290609Y-100879185D01*
X112378210Y-101010288D01*
X112378213Y-101010292D01*
X112489707Y-101121786D01*
X112489711Y-101121789D01*
X112620814Y-101209390D01*
X112620827Y-101209397D01*
X112752628Y-101263990D01*
X112766503Y-101269737D01*
X112921153Y-101300499D01*
X112921156Y-101300500D01*
X112921158Y-101300500D01*
X113078844Y-101300500D01*
X113078845Y-101300499D01*
X113233497Y-101269737D01*
X113379179Y-101209394D01*
X113510289Y-101121789D01*
X113621789Y-101010289D01*
X113629553Y-100998670D01*
X113646898Y-100972712D01*
X113700510Y-100927906D01*
X113769835Y-100919199D01*
X113832862Y-100949353D01*
X113853102Y-100972712D01*
X113878207Y-101010284D01*
X113878213Y-101010292D01*
X113989707Y-101121786D01*
X113989711Y-101121789D01*
X114120814Y-101209390D01*
X114120821Y-101209394D01*
X114205077Y-101244293D01*
X114259479Y-101288133D01*
X114281545Y-101354427D01*
X114264266Y-101422126D01*
X114213130Y-101469737D01*
X114177024Y-101481327D01*
X114136925Y-101487678D01*
X113904812Y-101563097D01*
X113687357Y-101673896D01*
X113489923Y-101817339D01*
X113489918Y-101817343D01*
X113317343Y-101989918D01*
X113317339Y-101989923D01*
X113173901Y-102187350D01*
X113173892Y-102187364D01*
X113151255Y-102231794D01*
X113103281Y-102282590D01*
X113040770Y-102299500D01*
X111431004Y-102299500D01*
X111295677Y-102326418D01*
X111295667Y-102326421D01*
X111168192Y-102379222D01*
X111053454Y-102455887D01*
X107705887Y-105803454D01*
X107629222Y-105918192D01*
X107576421Y-106045667D01*
X107576418Y-106045679D01*
X107549995Y-106178518D01*
X107549990Y-106178546D01*
X107549500Y-106181006D01*
X107549500Y-109025500D01*
X107529815Y-109092539D01*
X107477011Y-109138294D01*
X107425500Y-109149500D01*
X105672598Y-109149500D01*
X105605559Y-109129815D01*
X105584917Y-109113181D01*
X103036257Y-106564522D01*
X103002772Y-106503199D01*
X103006007Y-106438523D01*
X103019746Y-106396243D01*
X103053000Y-106186287D01*
X103053000Y-105973713D01*
X103019746Y-105763757D01*
X102954057Y-105561588D01*
X102857551Y-105372184D01*
X102857549Y-105372181D01*
X102857548Y-105372179D01*
X102732609Y-105200213D01*
X102582286Y-105049890D01*
X102410317Y-104924949D01*
X102401004Y-104920204D01*
X102350207Y-104872230D01*
X102333412Y-104804409D01*
X102355949Y-104738274D01*
X102401007Y-104699232D01*
X102410058Y-104694620D01*
X102581959Y-104569727D01*
X102581964Y-104569723D01*
X102732223Y-104419464D01*
X102732227Y-104419459D01*
X102857120Y-104247557D01*
X102953595Y-104058217D01*
X103019257Y-103856129D01*
X103019257Y-103856126D01*
X103029731Y-103790000D01*
X102135512Y-103790000D01*
X102168425Y-103732993D01*
X102202500Y-103605826D01*
X102202500Y-103474174D01*
X102168425Y-103347007D01*
X102135512Y-103290000D01*
X103029731Y-103290000D01*
X103019257Y-103223873D01*
X103019257Y-103223870D01*
X102953595Y-103021782D01*
X102907744Y-102931795D01*
X102894848Y-102863126D01*
X102921124Y-102798386D01*
X102978230Y-102758128D01*
X103018229Y-102751500D01*
X108262331Y-102751500D01*
X108262347Y-102751501D01*
X108269943Y-102751501D01*
X108428054Y-102751501D01*
X108428057Y-102751501D01*
X108580785Y-102710577D01*
X108653697Y-102668481D01*
X108717716Y-102631520D01*
X108829520Y-102519716D01*
X108829520Y-102519714D01*
X108839724Y-102509511D01*
X108839727Y-102509506D01*
X114212416Y-97136819D01*
X114273739Y-97103334D01*
X114300097Y-97100500D01*
X134199903Y-97100500D01*
X134266942Y-97120185D01*
X134287583Y-97136818D01*
X137131284Y-99980520D01*
X137131286Y-99980521D01*
X137131290Y-99980524D01*
X137268209Y-100059573D01*
X137268212Y-100059575D01*
X137268216Y-100059577D01*
X137420943Y-100100501D01*
X137420945Y-100100501D01*
X137586654Y-100100501D01*
X137586670Y-100100500D01*
X138420943Y-100100500D01*
X139913331Y-100100500D01*
X139913347Y-100100501D01*
X139920943Y-100100501D01*
X140079054Y-100100501D01*
X140079057Y-100100501D01*
X140231785Y-100059577D01*
X140301233Y-100019481D01*
X140368716Y-99980520D01*
X140480520Y-99868716D01*
X140480520Y-99868714D01*
X140490724Y-99858511D01*
X140490727Y-99858506D01*
X141014665Y-99334570D01*
X141075984Y-99301088D01*
X141078151Y-99300637D01*
X141078840Y-99300500D01*
X141078842Y-99300500D01*
X141233497Y-99269737D01*
X141379179Y-99209394D01*
X141510289Y-99121789D01*
X141621789Y-99010289D01*
X141709394Y-98879179D01*
X141769737Y-98733497D01*
X141800500Y-98578842D01*
X141800500Y-98421158D01*
X141800500Y-98421155D01*
X141800499Y-98421153D01*
X141769738Y-98266510D01*
X141769738Y-98266508D01*
X141769737Y-98266503D01*
X141713728Y-98131284D01*
X141709397Y-98120827D01*
X141709390Y-98120814D01*
X141621789Y-97989711D01*
X141621786Y-97989707D01*
X141510292Y-97878213D01*
X141510288Y-97878210D01*
X141379185Y-97790609D01*
X141379172Y-97790602D01*
X141233501Y-97730264D01*
X141233489Y-97730261D01*
X141078845Y-97699500D01*
X141078842Y-97699500D01*
X140921158Y-97699500D01*
X140921155Y-97699500D01*
X140766510Y-97730261D01*
X140766498Y-97730264D01*
X140620827Y-97790602D01*
X140620814Y-97790609D01*
X140489711Y-97878210D01*
X140489707Y-97878213D01*
X140378213Y-97989707D01*
X140378210Y-97989711D01*
X140290609Y-98120814D01*
X140290602Y-98120827D01*
X140230264Y-98266498D01*
X140230261Y-98266508D01*
X140199362Y-98421849D01*
X140166977Y-98483759D01*
X140165426Y-98485338D01*
X139787584Y-98863181D01*
X139726261Y-98896666D01*
X139699903Y-98899500D01*
X137800098Y-98899500D01*
X137733059Y-98879815D01*
X137712417Y-98863181D01*
X134987590Y-96138355D01*
X134987588Y-96138352D01*
X134868717Y-96019481D01*
X134868716Y-96019480D01*
X134781904Y-95969360D01*
X134781904Y-95969359D01*
X134781900Y-95969358D01*
X134731785Y-95940423D01*
X134579057Y-95899499D01*
X134420943Y-95899499D01*
X134413347Y-95899499D01*
X134413331Y-95899500D01*
X114086669Y-95899500D01*
X114086653Y-95899499D01*
X114079057Y-95899499D01*
X113920943Y-95899499D01*
X113813587Y-95928265D01*
X113768210Y-95940424D01*
X113768209Y-95940425D01*
X113718096Y-95969359D01*
X113718095Y-95969360D01*
X113698036Y-95980941D01*
X113631285Y-96019479D01*
X113631282Y-96019481D01*
X113519478Y-96131286D01*
X108136584Y-101514181D01*
X108075261Y-101547666D01*
X108048903Y-101550500D01*
X103114302Y-101550500D01*
X103047263Y-101530815D01*
X103001508Y-101478011D01*
X102991564Y-101408853D01*
X102996371Y-101388182D01*
X103019746Y-101316243D01*
X103053000Y-101106287D01*
X103053000Y-100893713D01*
X103019746Y-100683757D01*
X102954057Y-100481588D01*
X102857551Y-100292184D01*
X102857549Y-100292181D01*
X102857548Y-100292179D01*
X102732609Y-100120213D01*
X102619069Y-100006673D01*
X102585584Y-99945350D01*
X102590568Y-99875658D01*
X102632440Y-99819725D01*
X102663415Y-99802810D01*
X102794831Y-99753796D01*
X102910046Y-99667546D01*
X102996296Y-99552331D01*
X103046591Y-99417483D01*
X103053000Y-99357873D01*
X103052999Y-97562128D01*
X103046591Y-97502517D01*
X102996296Y-97367669D01*
X102996295Y-97367668D01*
X102996293Y-97367664D01*
X102910047Y-97252455D01*
X102910044Y-97252452D01*
X102794835Y-97166206D01*
X102794828Y-97166202D01*
X102659982Y-97115908D01*
X102659983Y-97115908D01*
X102600383Y-97109501D01*
X102600381Y-97109500D01*
X102600373Y-97109500D01*
X102600364Y-97109500D01*
X100804629Y-97109500D01*
X100804623Y-97109501D01*
X100745016Y-97115908D01*
X100610171Y-97166202D01*
X100610164Y-97166206D01*
X100494955Y-97252452D01*
X100494952Y-97252455D01*
X100408706Y-97367664D01*
X100408702Y-97367671D01*
X100358408Y-97502517D01*
X100352001Y-97562116D01*
X100352001Y-97562123D01*
X100352000Y-97562135D01*
X100352000Y-99357870D01*
X100352001Y-99357876D01*
X100358408Y-99417483D01*
X100408702Y-99552328D01*
X100408706Y-99552335D01*
X100494952Y-99667544D01*
X100494955Y-99667547D01*
X100610164Y-99753793D01*
X100610171Y-99753797D01*
X100741582Y-99802810D01*
X100797516Y-99844681D01*
X100821933Y-99910145D01*
X100807082Y-99978418D01*
X100785931Y-100006673D01*
X100672389Y-100120215D01*
X100547451Y-100292179D01*
X100450944Y-100481585D01*
X100385253Y-100683760D01*
X100352000Y-100893713D01*
X100352000Y-101106286D01*
X100382760Y-101300500D01*
X100385254Y-101316243D01*
X100405389Y-101378213D01*
X100408629Y-101388182D01*
X100410624Y-101458023D01*
X100374544Y-101517856D01*
X100311843Y-101548684D01*
X100290698Y-101550500D01*
X98250425Y-101550500D01*
X98183386Y-101530815D01*
X98139940Y-101482795D01*
X98109028Y-101422126D01*
X98069524Y-101344595D01*
X97953828Y-101185354D01*
X97856155Y-101087681D01*
X97822670Y-101026358D01*
X97827654Y-100956666D01*
X97856155Y-100912319D01*
X97899760Y-100868714D01*
X97953828Y-100814646D01*
X98069524Y-100655405D01*
X98158884Y-100480025D01*
X98219709Y-100292826D01*
X98229107Y-100233489D01*
X98250500Y-100098422D01*
X98250500Y-99901577D01*
X98219709Y-99707173D01*
X98164531Y-99537355D01*
X98158884Y-99519975D01*
X98158882Y-99519972D01*
X98158882Y-99519970D01*
X98086652Y-99378211D01*
X98069524Y-99344595D01*
X98069522Y-99344593D01*
X98067647Y-99340912D01*
X98054751Y-99272243D01*
X98081027Y-99207502D01*
X98105248Y-99184298D01*
X98192652Y-99120796D01*
X98192652Y-99120795D01*
X98192656Y-99120793D01*
X98370793Y-98942656D01*
X98518870Y-98738845D01*
X98633241Y-98514379D01*
X98711090Y-98274785D01*
X98750500Y-98025962D01*
X98750500Y-97774038D01*
X98711090Y-97525215D01*
X98633241Y-97285621D01*
X98633239Y-97285618D01*
X98633239Y-97285616D01*
X98572394Y-97166202D01*
X98518870Y-97061155D01*
X98499952Y-97035117D01*
X98370798Y-96857350D01*
X98370794Y-96857345D01*
X98192654Y-96679205D01*
X98192649Y-96679201D01*
X97988848Y-96531132D01*
X97988847Y-96531131D01*
X97988845Y-96531130D01*
X97918747Y-96495413D01*
X97764383Y-96416760D01*
X97524785Y-96338910D01*
X97275962Y-96299500D01*
X95724038Y-96299500D01*
X95599626Y-96319205D01*
X95475214Y-96338910D01*
X95235616Y-96416760D01*
X95011151Y-96531132D01*
X94807350Y-96679201D01*
X94807345Y-96679205D01*
X94629205Y-96857345D01*
X94629201Y-96857350D01*
X94481132Y-97061151D01*
X94366760Y-97285616D01*
X94288910Y-97525214D01*
X94283063Y-97562129D01*
X94249500Y-97774038D01*
X92500500Y-97774038D01*
X92500500Y-91452135D01*
X96999500Y-91452135D01*
X96999500Y-93547870D01*
X96999501Y-93547876D01*
X97005908Y-93607483D01*
X97056202Y-93742328D01*
X97056206Y-93742335D01*
X97142452Y-93857544D01*
X97142455Y-93857547D01*
X97257664Y-93943793D01*
X97257671Y-93943797D01*
X97392517Y-93994091D01*
X97392516Y-93994091D01*
X97399444Y-93994835D01*
X97452127Y-94000500D01*
X99547872Y-94000499D01*
X99607483Y-93994091D01*
X99742331Y-93943796D01*
X99857546Y-93857546D01*
X99943796Y-93742331D01*
X99994091Y-93607483D01*
X100000500Y-93547873D01*
X100000499Y-91452128D01*
X99994091Y-91392517D01*
X99948266Y-91269655D01*
X99943797Y-91257671D01*
X99943793Y-91257664D01*
X99857547Y-91142455D01*
X99857544Y-91142452D01*
X99742335Y-91056206D01*
X99742328Y-91056202D01*
X99607482Y-91005908D01*
X99607483Y-91005908D01*
X99547883Y-90999501D01*
X99547881Y-90999500D01*
X99547873Y-90999500D01*
X99547864Y-90999500D01*
X97452129Y-90999500D01*
X97452123Y-90999501D01*
X97392516Y-91005908D01*
X97257671Y-91056202D01*
X97257664Y-91056206D01*
X97142455Y-91142452D01*
X97142452Y-91142455D01*
X97056206Y-91257664D01*
X97056202Y-91257671D01*
X97005908Y-91392517D01*
X97005104Y-91400000D01*
X96999501Y-91452123D01*
X96999500Y-91452135D01*
X92500500Y-91452135D01*
X92500500Y-90496530D01*
X144012000Y-90496530D01*
X144012000Y-90703469D01*
X144052368Y-90906412D01*
X144052370Y-90906420D01*
X144131558Y-91097596D01*
X144246524Y-91269657D01*
X144289186Y-91312319D01*
X144322671Y-91373642D01*
X144317687Y-91443334D01*
X144289186Y-91487681D01*
X144246525Y-91530341D01*
X144246524Y-91530342D01*
X144131558Y-91702403D01*
X144052370Y-91893579D01*
X144052368Y-91893587D01*
X144012000Y-92096530D01*
X144012000Y-92303469D01*
X144052368Y-92506412D01*
X144052370Y-92506420D01*
X144131558Y-92697596D01*
X144246524Y-92869657D01*
X144392842Y-93015975D01*
X144392845Y-93015977D01*
X144564902Y-93130941D01*
X144756080Y-93210130D01*
X144959030Y-93250499D01*
X144959034Y-93250500D01*
X144959035Y-93250500D01*
X145165966Y-93250500D01*
X145165967Y-93250499D01*
X145368920Y-93210130D01*
X145560098Y-93130941D01*
X145569108Y-93124920D01*
X145635780Y-93104041D01*
X145703161Y-93122522D01*
X145749854Y-93174499D01*
X145762000Y-93228021D01*
X145762000Y-93597869D01*
X145762001Y-93597876D01*
X145768408Y-93657483D01*
X145818702Y-93792328D01*
X145818706Y-93792334D01*
X145825335Y-93801190D01*
X145849752Y-93866654D01*
X145834900Y-93934927D01*
X145785495Y-93984332D01*
X145726068Y-93999500D01*
X145184030Y-93999500D01*
X144981087Y-94039868D01*
X144981079Y-94039870D01*
X144789903Y-94119058D01*
X144617842Y-94234024D01*
X144471524Y-94380342D01*
X144356558Y-94552403D01*
X144277370Y-94743579D01*
X144277368Y-94743587D01*
X144237000Y-94946530D01*
X144237000Y-95153469D01*
X144277368Y-95356412D01*
X144277370Y-95356420D01*
X144356558Y-95547596D01*
X144471524Y-95719657D01*
X144617842Y-95865975D01*
X144617845Y-95865977D01*
X144789902Y-95980941D01*
X144981080Y-96060130D01*
X145184030Y-96100499D01*
X145184034Y-96100500D01*
X145184035Y-96100500D01*
X146690966Y-96100500D01*
X146690967Y-96100499D01*
X146893920Y-96060130D01*
X147085098Y-95980941D01*
X147257155Y-95865977D01*
X147403477Y-95719655D01*
X147518441Y-95547598D01*
X147597630Y-95356420D01*
X147638000Y-95153465D01*
X147638000Y-94946535D01*
X147597630Y-94743580D01*
X147518441Y-94552402D01*
X147403477Y-94380345D01*
X147403475Y-94380342D01*
X147285313Y-94262180D01*
X147251828Y-94200857D01*
X147256812Y-94131165D01*
X147298684Y-94075232D01*
X147364148Y-94050815D01*
X147372994Y-94050499D01*
X147410371Y-94050499D01*
X147410372Y-94050499D01*
X147469983Y-94044091D01*
X147604831Y-93993796D01*
X147720046Y-93907546D01*
X147806296Y-93792331D01*
X147856591Y-93657483D01*
X147863000Y-93597873D01*
X147862999Y-92402128D01*
X147856591Y-92342517D01*
X147806296Y-92207669D01*
X147720046Y-92092454D01*
X147720045Y-92092453D01*
X147716197Y-92087313D01*
X147691780Y-92021849D01*
X147706631Y-91953576D01*
X147712355Y-91944120D01*
X147743441Y-91897598D01*
X147822630Y-91706420D01*
X147863000Y-91503465D01*
X147863000Y-91296535D01*
X147822630Y-91093580D01*
X147743441Y-90902402D01*
X147628477Y-90730345D01*
X147628475Y-90730342D01*
X147628474Y-90730341D01*
X147585814Y-90687682D01*
X147552328Y-90626359D01*
X147557312Y-90556668D01*
X147585814Y-90512318D01*
X147628475Y-90469657D01*
X147628477Y-90469655D01*
X147743441Y-90297598D01*
X147822630Y-90106420D01*
X147863000Y-89903465D01*
X147863000Y-89696535D01*
X147822630Y-89493580D01*
X147743441Y-89302402D01*
X147628477Y-89130345D01*
X147628475Y-89130342D01*
X147482157Y-88984024D01*
X147310096Y-88869057D01*
X147211732Y-88828314D01*
X147157329Y-88784473D01*
X147135264Y-88718179D01*
X147152543Y-88650479D01*
X147190294Y-88610651D01*
X147257155Y-88565977D01*
X147403477Y-88419655D01*
X147518441Y-88247598D01*
X147597630Y-88056420D01*
X147638000Y-87853465D01*
X147638000Y-87646535D01*
X147597630Y-87443580D01*
X147518441Y-87252402D01*
X147403477Y-87080345D01*
X147403475Y-87080342D01*
X147257157Y-86934024D01*
X147159411Y-86868713D01*
X147085098Y-86819059D01*
X146893920Y-86739870D01*
X146893912Y-86739868D01*
X146690969Y-86699500D01*
X146690965Y-86699500D01*
X145184035Y-86699500D01*
X145184030Y-86699500D01*
X144981087Y-86739868D01*
X144981079Y-86739870D01*
X144789903Y-86819058D01*
X144617842Y-86934024D01*
X144471524Y-87080342D01*
X144356558Y-87252403D01*
X144277370Y-87443579D01*
X144277368Y-87443587D01*
X144237000Y-87646530D01*
X144237000Y-87853469D01*
X144277368Y-88056412D01*
X144277370Y-88056420D01*
X144356558Y-88247596D01*
X144471524Y-88419657D01*
X144617842Y-88565975D01*
X144617845Y-88565977D01*
X144789902Y-88680941D01*
X144981080Y-88760130D01*
X145184030Y-88800499D01*
X145184034Y-88800500D01*
X145184035Y-88800500D01*
X146027005Y-88800500D01*
X146094044Y-88820185D01*
X146139799Y-88872989D01*
X146149743Y-88942147D01*
X146120718Y-89005703D01*
X146114686Y-89012181D01*
X145996525Y-89130341D01*
X145996524Y-89130342D01*
X145881558Y-89302403D01*
X145802370Y-89493579D01*
X145802368Y-89493585D01*
X145779341Y-89609349D01*
X145746956Y-89671260D01*
X145686240Y-89705834D01*
X145616470Y-89702093D01*
X145588834Y-89688259D01*
X145560099Y-89669059D01*
X145368920Y-89589870D01*
X145368912Y-89589868D01*
X145165969Y-89549500D01*
X145165965Y-89549500D01*
X144959035Y-89549500D01*
X144959030Y-89549500D01*
X144756087Y-89589868D01*
X144756079Y-89589870D01*
X144564903Y-89669058D01*
X144392842Y-89784024D01*
X144246524Y-89930342D01*
X144131558Y-90102403D01*
X144052370Y-90293579D01*
X144052368Y-90293587D01*
X144012000Y-90496530D01*
X92500500Y-90496530D01*
X92500500Y-84781902D01*
X96999500Y-84781902D01*
X96999500Y-85018097D01*
X97036446Y-85251368D01*
X97109433Y-85475996D01*
X97188367Y-85630911D01*
X97216657Y-85686433D01*
X97355483Y-85877510D01*
X97522490Y-86044517D01*
X97713567Y-86183343D01*
X97808640Y-86231785D01*
X97924003Y-86290566D01*
X97924005Y-86290566D01*
X97924008Y-86290568D01*
X98036842Y-86327230D01*
X98148631Y-86363553D01*
X98381903Y-86400500D01*
X98381908Y-86400500D01*
X98618097Y-86400500D01*
X98851368Y-86363553D01*
X99075992Y-86290568D01*
X99286433Y-86183343D01*
X99477510Y-86044517D01*
X99644517Y-85877510D01*
X99783343Y-85686433D01*
X99890568Y-85475992D01*
X99963553Y-85251368D01*
X99972799Y-85192993D01*
X100000500Y-85018097D01*
X100000500Y-84781902D01*
X99963553Y-84548631D01*
X99899579Y-84351742D01*
X99890568Y-84324008D01*
X99890566Y-84324005D01*
X99890566Y-84324003D01*
X99834002Y-84212991D01*
X99783343Y-84113567D01*
X99644517Y-83922490D01*
X99477510Y-83755483D01*
X99286433Y-83616657D01*
X99075996Y-83509433D01*
X98851368Y-83436446D01*
X98618097Y-83399500D01*
X98618092Y-83399500D01*
X98381908Y-83399500D01*
X98381903Y-83399500D01*
X98148631Y-83436446D01*
X97924003Y-83509433D01*
X97713566Y-83616657D01*
X97621922Y-83683241D01*
X97522490Y-83755483D01*
X97522488Y-83755485D01*
X97522487Y-83755485D01*
X97355485Y-83922487D01*
X97355485Y-83922488D01*
X97355483Y-83922490D01*
X97295862Y-84004550D01*
X97216657Y-84113566D01*
X97109433Y-84324003D01*
X97036446Y-84548631D01*
X96999500Y-84781902D01*
X92500500Y-84781902D01*
X92500500Y-84504427D01*
X92500816Y-84495581D01*
X92509863Y-84369087D01*
X92515131Y-84295434D01*
X92517646Y-84277938D01*
X92559356Y-84086199D01*
X92564333Y-84069248D01*
X92632911Y-83885385D01*
X92640259Y-83869298D01*
X92653553Y-83844951D01*
X92734291Y-83697089D01*
X92743845Y-83682221D01*
X92861448Y-83525123D01*
X92873020Y-83511769D01*
X93011769Y-83373020D01*
X93025123Y-83361448D01*
X93182221Y-83243845D01*
X93197089Y-83234291D01*
X93369298Y-83140258D01*
X93385385Y-83132911D01*
X93569248Y-83064333D01*
X93586199Y-83059356D01*
X93777938Y-83017646D01*
X93795436Y-83015130D01*
X93995582Y-83000816D01*
X94004428Y-83000500D01*
X94065892Y-83000500D01*
X134654866Y-83000500D01*
X134686339Y-83009741D01*
G37*
%TD.AperFunction*%
%TD*%
M02*
